<svg id="Layer_1" data-name="Layer 1" xmlns="http://www.w3.org/2000/svg" width="383" height="559.63" viewBox="0 0 383 559.63"><defs><style>.cls-1{fill:#c4c4c4;stroke:#fff;}.cls-1,.cls-2{stroke-miterlimit:10;stroke-width:1.12px;}.cls-2{fill:none;stroke:#080c08;}</style></defs><title>Artboard 35</title><rect class="cls-1" x="-87.75" y="88.88" width="558.51" height="381.88" transform="translate(471.32 88.31) rotate(90)"/><line class="cls-2" x1="0.56" y1="35.71" x2="191.51" y2="35.41"/><line class="cls-2" x1="0.59" y1="58.78" x2="235.14" y2="58.78"/><line class="cls-2" x1="0.63" y1="81.86" x2="301.48" y2="81.86"/><line class="cls-2" x1="0.66" y1="104.94" x2="327.88" y2="104.94"/><line class="cls-2" x1="0.7" y1="128.02" x2="211.41" y2="128.02"/><line class="cls-2" x1="0.74" y1="151.1" x2="287.8" y2="151.1"/><line class="cls-2" x1="0.77" y1="174.18" x2="257.48" y2="174.18"/><line class="cls-2" x1="0.81" y1="197.25" x2="367.38" y2="197.25"/><line class="cls-2" x1="0.84" y1="220.33" x2="279.74" y2="220.33"/><line class="cls-2" x1="0.88" y1="243.41" x2="319.93" y2="243.41"/><line class="cls-2" x1="0.91" y1="266.49" x2="248.81" y2="266.49"/><line class="cls-2" x1="0.95" y1="289.57" x2="191.9" y2="289.27"/><line class="cls-2" x1="0.99" y1="312.65" x2="331.94" y2="312.65"/><line class="cls-2" x1="1.02" y1="335.72" x2="287.8" y2="335.72"/><line class="cls-2" x1="1.06" y1="358.8" x2="279.74" y2="358.8"/><line class="cls-2" x1="1.09" y1="381.88" x2="257.48" y2="381.88"/><line class="cls-2" x1="1.13" y1="404.81" x2="355.24" y2="404.81"/><line class="cls-2" x1="1.17" y1="428.04" x2="241.02" y2="428.04"/><line class="cls-2" x1="1.2" y1="451.11" x2="268.09" y2="451.11"/><line class="cls-2" x1="1.24" y1="474.19" x2="301.48" y2="474.19"/><line class="cls-2" x1="1.27" y1="497.27" x2="279.74" y2="497.27"/><line class="cls-2" x1="1.31" y1="520.35" x2="331.94" y2="520.35"/><line class="cls-2" x1="1.34" y1="543.43" x2="349.45" y2="543.43"/></svg>