<svg id="Layer_1" data-name="Layer 1" xmlns="http://www.w3.org/2000/svg" width="1961.2" height="1101.27" viewBox="0 0 1961.2 1101.27"><defs><style>.cls-1{fill:#5780c0;}.cls-2{fill:#a8775e;opacity:0.15;}.cls-3{fill:#0f8938;stroke:#cdcccc;stroke-miterlimit:10;stroke-width:1.03px;}.cls-4{fill:#fff;}.cls-4,.cls-5{opacity:0.21;}.cls-5{fill:#575757;}</style></defs><title>baggrund</title><rect class="cls-1" x="-18.28" y="-5.69" width="1981.48" height="1112.66"/><line class="cls-2" x1="260.93" y1="425.67" x2="346.22" y2="408.94"/><line class="cls-2" x1="270.59" y1="426.92" x2="335.28" y2="414.23"/><path class="cls-3" d="M1465.72,1105.58h500.45v-266l-27.54,4.25-20.6-8.5-41.23-12.74-138.66-4.24s-60.7-4.25-74-8.49-169.8-38.24-169.8-38.24l-108.32-17-69.4-34-123.87-20.22s-75.4-13.76-102.32-18-75.4-17-75.4-17H880.37l-80.78,35s-43.08-18-59.25-18-94.57-17-94.57-17l-104.69,17H355.59l-73.21,18H109.91L0,737.66v367.92H1387.75"/><path class="cls-4" d="M883.24,807.16a243.42,243.42,0,0,1-46.49,30.57c-29.59,15-31.13,38.19-1.71,23.23a385.81,385.81,0,0,0,70.33-46.51C931,793.1,909,785.67,883.24,807.16Z"/><path class="cls-4" d="M1496.77,863.31c-15,1.69-31.73,1.31-44.34-2.38-11.21-3.28-27.17-3.87-38.15,0-9.56,3.38-11.27,10.17,0,13.47,27.3,8,62.46,11.14,96.82,7.27C1544.06,878,1530,859.57,1496.77,863.31Z"/><path class="cls-4" d="M700.43,1105.58c-1.91-4-10.38-7.38-25.47-6.95-28.25.81-56.68.74-84.77-.73-14.53-.77-28.82,1.28-33.18,6.65a3.93,3.93,0,0,0-.61,1Z"/><path class="cls-4" d="M1432.87,978l-90.09-94.74c-21.57-22.69-53.32-25.53-31.68-2.77l90.09,94.75C1422.76,998,1454.51,1000.8,1432.87,978Z"/><path class="cls-4" d="M1101.83,1042.52l-90.09-94.74c-21.57-22.69-53.32-25.53-31.68-2.77l90.08,94.75C1091.72,1062.45,1123.46,1065.28,1101.83,1042.52Z"/><path class="cls-4" d="M1678.31,1036.71c3.84-14.34,15.21-29.56,5.74-58.63-4.1-12.56-11.42-26-18-38.67q-15.63-30.17-31.37-60.32c-16-30.76-32.64-21.5-16.7,9.16l17.93,34.46c4.78,9.21,14.73,25.54,17.92,34.47,3.63,10.17,1.78,11.24.13,17.37l-5.07,19C1644.62,1009.46,1674,1052.83,1678.31,1036.71Z"/><path class="cls-4" d="M632.83,848.92c-33.18,14.65-69.91,28.19-108.81,40.73-28.58,9.22,3.67,21.9,32.19,12.71a1214.7,1214.7,0,0,0,118.5-45C699,846.62,656.91,838.3,632.83,848.92Z"/><path class="cls-4" d="M392.91,903.44C359.73,918.09,323,931.62,284.1,944.17c-28.58,9.21,3.67,21.89,32.19,12.7a1212.14,1212.14,0,0,0,118.5-45C459.11,901.13,417,892.81,392.91,903.44Z"/><path class="cls-4" d="M1233,741.18a554.26,554.26,0,0,1-69.17-8.59c-30.45-5.89-57.69,10.55-27.22,16.45a661.06,661.06,0,0,0,82.06,10.5c14.3,1,29.09-1.4,33.17-6.65C1255.5,748.25,1247.43,742.13,1233,741.18Z"/><path class="cls-4" d="M1966.17,1077.11c-16.08,4.8-49.3-.41-44.27-10.12,11.28-21.79-36.13-43.15-49.6-63.73-7.81-12,44.21-17,52-5.07,9.64,14.73,29.61,28.17,41.85,42.16Z"/><path class="cls-5" d="M461.27,808.13a243.3,243.3,0,0,1-46.48,30.56c-29.59,15.06-31.13,38.2-1.72,23.24a385.13,385.13,0,0,0,70.33-46.51C509,794.07,487.06,786.64,461.27,808.13Z"/><path class="cls-5" d="M1069.55,745c-15,1.69-31.73,1.31-44.34-2.38-11.21-3.27-27.17-3.87-38.14,0-9.56,3.37-11.27,10.17,0,13.46,27.3,8,62.46,11.14,96.82,7.27C1116.84,759.64,1102.75,741.25,1069.55,745Z"/><path class="cls-5" d="M329.93,1063.86c-28.26.81-56.7.74-84.78-.73-14.52-.76-28.82,1.28-33.18,6.65-3.64,4.48,4.45,11,18.84,11.71,33.09,1.73,65.74,2.37,99.12,1.41C364.3,1081.91,364.59,1062.86,329.93,1063.86Z"/><path class="cls-5" d="M1087.83,943.27l-90.09-94.74c-21.57-22.69-53.32-25.53-31.68-2.77l90.09,94.75C1077.72,963.2,1109.47,966,1087.83,943.27Z"/><path class="cls-5" d="M756.79,1007.75,666.7,913c-21.57-22.69-53.32-25.53-31.68-2.77L725.1,1005C746.68,1027.68,778.42,1030.51,756.79,1007.75Z"/><path class="cls-5" d="M1377.91,797c-10.73-10.25-18.62-27.54-48.67-33.19-13-2.45-28.25-2.46-42.56-2.79q-34-.78-68-1.46c-34.67-.74-34.54,18.31,0,19.05l38.85.83c10.37.22,29.48-.66,38.84.83,10.66,1.7,10.7,3.84,15.3,8.23L1325.9,802C1337.83,813.44,1390,808.51,1377.91,797Z"/><path class="cls-5" d="M248.79,794.27C215.6,808.92,178.87,822.45,140,835c-28.58,9.21,3.67,21.9,32.19,12.7a1212.14,1212.14,0,0,0,118.5-45C315,792,272.86,783.64,248.79,794.27Z"/><path class="cls-5" d="M642.47,861.44a555.67,555.67,0,0,1-69.17-8.59c-30.45-5.9-57.7,10.54-27.22,16.44a660.85,660.85,0,0,0,82,10.51c14.31,1,29.1-1.4,33.18-6.65C664.92,868.51,656.86,862.39,642.47,861.44Z"/><path class="cls-5" d="M1465.72,1105.58c-2-1.47-5.39-2.84-10.36-3.9-23-5-37.83-12.52-44.07-21.72-8.08-11.92-60.11-6.86-52,5.07,5.16,7.62,15,14.59,28.47,20.55Z"/><path class="cls-5" d="M1784.78,892.33c-7.81-11.94-59.83-6.88-52,5.07,13.47,20.58,60.88,41.93,49.59,63.72-6.2,12,45.78,17.11,52,5.06C1848.38,939.12,1801.32,917.62,1784.78,892.33Z"/></svg>