<svg id="Layer_1" data-name="Layer 1" xmlns="http://www.w3.org/2000/svg" xmlns:xlink="http://www.w3.org/1999/xlink" width="1961.2" height="1101.27" viewBox="0 0 1961.2 1101.27"><defs><style>.cls-1{fill:#5780c0;}.cls-2,.cls-59,.cls-61,.cls-62{fill:none;}.cls-2{stroke:#010101;stroke-width:8px;}.cls-2,.cls-46,.cls-59,.cls-61{stroke-miterlimit:10;}.cls-3,.cls-60,.cls-65,.cls-66{fill:#010101;}.cls-4{fill:#404040;}.cls-5{fill:#f8f8f8;}.cls-6{fill:#3a3a3a;}.cls-7{fill:#fafafa;}.cls-8{fill:#323232;}.cls-9{fill:#f5f5f5;}.cls-10{fill:#393939;}.cls-11{fill:#fefefe;}.cls-12{fill:#303030;}.cls-13{fill:#060606;}.cls-14{fill:#313131;}.cls-15{fill:#050505;}.cls-16{fill:#444;}.cls-17{fill:#454545;}.cls-18{fill:#3c3c3c;}.cls-19{fill:#363636;}.cls-20{fill:#fbfbfb;}.cls-21{fill:#f2f2f2;}.cls-22{fill:#f9f9f9;}.cls-23{fill:#4b4b4b;}.cls-24{fill:#343434;}.cls-25{fill:#4a4a4a;}.cls-26{fill:#efefef;}.cls-27{fill:#f6f6f6;}.cls-28{fill:#f3f3f3;}.cls-29{fill:#474747;}.cls-30{fill:#3e3e3e;}.cls-31{fill:#3b3b3b;}.cls-32{fill:#373737;}.cls-33{fill:#353535;}.cls-34{fill:#040404;}.cls-35{fill:#f7f7f7;}.cls-36{fill:#4c4c4c;}.cls-37{fill:#333;}.cls-38{fill:#383838;}.cls-39{fill:#fcfcfc;}.cls-40{fill:#090909;}.cls-41{fill:#4e4e4e;}.cls-42{fill:#3f3f3f;}.cls-43{fill:#2f2f2f;}.cls-44{fill:#282828;}.cls-45{fill:#494949;}.cls-46{fill:#0f8938;stroke:#cdcccc;stroke-width:1.02px;}.cls-47,.cls-51{fill:#fff;}.cls-47,.cls-48,.cls-55{opacity:0.21;}.cls-48{fill:#575757;}.cls-49{fill:#0fb7d4;}.cls-50{fill:#fddabc;}.cls-52{fill:#915525;opacity:0.29;}.cls-53{fill:#fac6a2;opacity:0.49;}.cls-54{fill:#f9b460;}.cls-55{fill:#93571e;}.cls-56{fill:#dd6b6c;opacity:0.52;}.cls-57{fill:#4a2a15;}.cls-58{fill:#603617;}.cls-59{stroke:#b6b6b5;}.cls-59,.cls-61{stroke-width:1.11px;}.cls-60{opacity:0.27;}.cls-61{stroke:#6e4627;opacity:0.35;}.cls-63{fill:#332921;}.cls-64{fill:#cd5252;}.cls-65{font-size:4.37px;}.cls-65,.cls-66{font-family:Yantramanav-Black, Yantramanav;}.cls-66{font-size:2.93px;}.cls-67{fill:#b4282f;}.cls-68{fill:#5d5d61;}.cls-69{fill:#5b5b5f;}.cls-70{fill:#f4ecec;}.cls-71{fill:#b52930;}.cls-72{fill:#b5292f;}.cls-73{fill:#b52a32;}.cls-74{fill:#b52b32;}.cls-75{fill:#5f5f63;}.cls-76{fill:#616165;}.cls-77{fill:#68686b;}.cls-78{fill:#67666a;}.cls-79{fill:#626266;}.cls-80{fill:#6c6b6f;}.cls-81{fill:#636367;}.cls-82{fill:#6b696d;}.cls-83{fill:#666569;}.cls-84{fill:#646468;}.cls-85{fill:#6e6d70;}.cls-86{fill:#68686c;}.cls-87{fill:#727073;}.cls-88{fill:#606064;}.cls-89{fill:#6b6b6e;}.cls-90{fill:#6a6a6e;}.cls-91{fill:#6f6d71;}.cls-92{fill:#6e6d71;}.cls-93{fill:#68676b;}.cls-94{fill:#6b6a6e;}.cls-95{fill:#f5efef;}.cls-96{fill:#787478;}.cls-97{fill:#656569;}.cls-98{fill:#5e5e62;}.cls-99{fill:#666468;}.cls-100{fill:#fefcfd;}.cls-101{fill:#fbf7f6;}.cls-102{fill:#f6ebec;}.cls-103{fill:#a8775e;opacity:0.15;}</style></defs><title>baggrund_2</title><rect class="cls-1" x="1" width="1961.2" height="1101.27"/><line class="cls-2" x1="1540.84" y1="858.97" x2="1637.61" y2="517.7"/><path class="cls-3" d="M1811.21,430c6.38,3,10.77,7.68,12.42,14.68a19.71,19.71,0,0,1,.1,8.81q-9.21,41.93-18.5,83.83a20.29,20.29,0,0,1-24.09,15.55q-76.37-16.71-152.69-33.63a8.39,8.39,0,0,1-.85-.27,1.42,1.42,0,0,1-.17-.64c.59-1.6,2.16-1.73,3.44-2.25a9.18,9.18,0,0,0,1.94-.82,2.51,2.51,0,0,1,1.82-.46c22.44,4.88,44.85,9.87,67.27,14.81l74.86,16.5a35.13,35.13,0,0,0,6.13,1,6.57,6.57,0,0,1,1.17.15,8.68,8.68,0,0,0,5.63-1.14c5.46-1.86,8.36-5.91,9.58-11.31,2.61-11.64,5.15-23.29,7.72-34.94l10.23-46.44c1.18-5.37.19-10.19-3.7-14.19-2.51-2.59-5.81-3.79-9.23-4.57-9-2-17.94-4-26.91-5.95q-32.34-7.12-64.67-14.27c-1.5-.33-3.09-.45-4.38-1.46a1.5,1.5,0,0,1-.33-.75c.17-1.48-.56-3.05.5-4.43a1.7,1.7,0,0,1,.62-.54,1.88,1.88,0,0,1,2.24.66c.29,1.29,1.46,1.09,2.33,1.28q31.23,6.92,62.47,13.79l24.08,5.31q-43.31-9.56-86.6-19.14c-.63-.14-2,.4-1.85-1.15a10.07,10.07,0,0,1,2.61.46q44.37,9.76,88.73,19.54A52.09,52.09,0,0,1,1811.21,430Z"/><path class="cls-4" d="M1709,407.92l-.38,4a1.47,1.47,0,0,1-1.24.18,49.84,49.84,0,0,0-5.37-1.4l-152.31-33.57c-1.49-.33-3-1-4.52-.11a1.77,1.77,0,0,1-.71.21c-2.19.2-4.41-.07-6.58.56a14.83,14.83,0,0,0-9.5,8.35,4.51,4.51,0,0,0-.58,1.77c-5.91,27.13-11.94,54.22-17.9,81.34a25.09,25.09,0,0,0-.75,5.26c0,5.67,2.22,10,7.3,12.75a9.72,9.72,0,0,1,2.61,1.84c.36.39.51,1,1.08,1.17a17.8,17.8,0,0,0,3,.79l100.42,22.14a34.13,34.13,0,0,0,6.35,1c1.06.47,2.79-.18,3,1.77a29.1,29.1,0,0,1-5.16,2.47,5.12,5.12,0,0,1-2.6-.35l-106-23.36a7.24,7.24,0,0,0-2.61-.41,2.94,2.94,0,0,1-1.77-.75c0-.19-.15-.24-.32-.14l-1.17-.29c-.51-.47-1.59-.1-1.73-1.14-.43-.27-1-.22-1.28-.8a1.9,1.9,0,0,1-1-1.08c-4.3-4.5-7-9.65-6.43-16.09q8.36-38.26,16.84-76.49c1-4.48,2-8.95,2.94-13.44,2.2-7.34,10.63-13.36,18.56-13.19a2.61,2.61,0,0,0,1.27-.19c.65-.41,1.19.07,1.78.21s1,.43,1.46.67c.85.27,1.73.44,2.6.63l160.07,35.29A1.28,1.28,0,0,1,1709,407.92Z"/><path class="cls-5" d="M1544.06,371.12l-1.74-.41c-.12-.37-.73-1.21.33-.79,4.66,1.85,9.61,2.47,14.44,3.54q73.83,16.35,147.68,32.58c1.3.29,2.61.55,3.92.82a2.76,2.76,0,0,1,2.71.56c4.48,1,8.95,2.05,13.44,3q38.63,8.54,77.26,17l2.56.56.08-.39-92.28-20.35a4,4,0,0,1,2.61.11q45.69,10.05,91.37,20.13c1.81.4,3.06,1.84,4.77,2.39l-98.16-21.76a11.62,11.62,0,0,0-1.32-.17c-.18.17-.32.14-.42-.1l-2.19-.49a3.84,3.84,0,0,1-2.61-.08l-159.77-35.21A7.53,7.53,0,0,1,1544.06,371.12Z"/><path class="cls-6" d="M1522.49,384.09a4.91,4.91,0,0,1-.15,2.84q-9.3,42.22-18.61,84.42a5.37,5.37,0,0,1-1,2.67,13.31,13.31,0,0,1,.47-4.17q9.06-41.12,18.13-82.2A9,9,0,0,1,1522.49,384.09Z"/><path class="cls-7" d="M1711.4,407.42l-2.71-.56c-1-.82-2.19-.86-3.33-1.11l-156.55-34.54a6.73,6.73,0,0,1-3.2-1.15l2.93.65q79.8,17.6,159.59,35.2C1709.3,406.17,1710.73,406,1711.4,407.42Z"/><path class="cls-8" d="M1516.45,494.31a7.39,7.39,0,0,1,3.49.38l107.77,23.74c0,.16-.07.33-.11.49-1.38-.26-2.77-.5-4.14-.81q-51.59-11.36-103.16-22.74C1519,495.08,1517.73,494.67,1516.45,494.31Z"/><path class="cls-9" d="M1511.46,492l1.73,1.14C1512.49,493,1511.12,493.76,1511.46,492Z"/><path class="cls-9" d="M1509.14,490.11c.42.29.92.51,1,1.08C1509.45,491.2,1508.77,491.17,1509.14,490.11Z"/><path class="cls-10" d="M1514.36,493.42c.22-.3.48-.56.89-.36.1.05.14.21.2.33l-.77.17-.18,0Z"/><path class="cls-11" d="M1527.23,385.73c3.44-6.93,9.06-10.07,16.74-9.58.79-.58,1.59-.16,2.35,0q79.77,17.57,159.53,35.16a6,6,0,0,1,2.65,1.06c.85.24,1.69.52,2.56.71l94.21,20.77c10.46,2.31,15.22,9.77,12.92,20.24q-9,40.59-17.91,81.18c-1.33,6-4.72,10.26-10.85,12-1.78-.33-3.42.41-5.13.64l-.88-.11a6.74,6.74,0,0,0-2.31-.75l-141.76-31.25a12.84,12.84,0,0,0-1.75-.32,5,5,0,0,1-.86,0c-4.7,0-8.86-2.24-13.33-3.21-32.45-7-64.84-14.31-97.29-21.34-1.27-.27-2.48-.74-3.81-.24a1.86,1.86,0,0,1-1.9-.31c-1.11-1.3-2.69-1.35-4.09-1.88-6.21-2.5-9.55-10.25-8.1-16.75q2.61-11.7,5.16-23.42,6.75-30.69,13.48-61.39C1526.75,386.42,1526.72,386,1527.23,385.73Z"/><path class="cls-7" d="M1516.32,488.43a8.2,8.2,0,0,1,4.4,1.15c1.38.85,3.13-.05,4.76.35,6,1.45,12,2.69,18,4q41.83,9.22,83.69,18.45a11.14,11.14,0,0,1,3.9,1.49c1.8,1.19,4.13.27,6.14,1.3q70.33,15.68,140.53,31.09l-140.65-31c.06,0,.13,0,.12-.09a4,4,0,0,1,2.77,0l140.44,31c1.14.25,2.41.29,3,1.58a12.63,12.63,0,0,1-4.14-.65l-142.76-31.45c-.87-.19-1.75-.29-2.62-.43a37.59,37.59,0,0,1-6.53-1q-52.84-11.6-105.66-23.28c-1-.22-2.12-.13-2.79-1.13Z"/><path class="cls-8" d="M1708.5,412.37c-.88-.15-1.76-.25-2.63-.44l-159.75-35.22c-.72-.16-1.43-.37-2.15-.56l-.87-.72a4.75,4.75,0,0,1,2.39.31q80,17.61,159.94,35.26a4.86,4.86,0,0,1,2.3.72l.86.19Z"/><path class="cls-12" d="M1544.06,371.12c1,.14,1.91.23,2.84.44l159.87,35.23c.79.18,1.57.43,2.35.64l-.15.49-.39-.1a4.87,4.87,0,0,1-2.39-.32q-79.55-17.5-159.06-35.06a4.82,4.82,0,0,1-2.3-.72Z"/><ellipse class="cls-13" cx="1708.03" cy="532.27" rx="0.15" ry="101.75" transform="translate(820.53 2085.67) rotate(-77.57)"/><path class="cls-14" d="M1518.92,489.83c1.74.36,3.48.69,5.22,1.08l107,23.57c.93.21,1.85.51,2.78.76l-1,.72c-.83-.83-1.95-.88-3-1.14a4.86,4.86,0,0,1-2.39-.31Q1574.24,502.78,1521,491a4.86,4.86,0,0,1-2.3-.72C1518.28,489.92,1518.67,489.91,1518.92,489.83Z"/><path class="cls-15" d="M1711.31,407.92l.42.1c.91.9,2.15,1,3.29,1.2l87.06,19.21,2.35.51-.06.36c-.66-.12-1.33-.21-2-.36q-44.4-9.78-88.79-19.6C1712.76,409.15,1711.32,409.58,1711.31,407.92Z"/><path class="cls-7" d="M1784.3,547.88c0-.79.38-1.1,1.1-.9a1.57,1.57,0,0,0,1.79-.4c1.18-1.28,1.72-.33,2.24.66A9,9,0,0,1,1784.3,547.88Z"/><path class="cls-16" d="M1707.73,411.72,1543.1,375.43c.79-.61,1.58-.09,2.33.08q79.71,17.53,159.42,35.13A5.58,5.58,0,0,1,1707.73,411.72Z"/><path class="cls-17" d="M1544.83,371.72l163.75,36.1a5.21,5.21,0,0,1-2.85-.18l-158.25-34.89A5.05,5.05,0,0,1,1544.83,371.72Z"/><path class="cls-16" d="M1518.69,490.31l111.19,24.51a5.09,5.09,0,0,1-2.84-.18l-105.69-23.3A5.09,5.09,0,0,1,1518.69,490.31Z"/><ellipse class="cls-18" cx="1516.78" cy="429.68" rx="59.47" ry="0.16" transform="translate(770.65 1818.39) rotate(-77.57)"/><path class="cls-19" d="M1527.23,385.73l-.37,1.14c-.11-.49-.35-1,.1-1.44Z"/><path class="cls-4" d="M1575.91,481.08q8.64-5.58,17.3-11.15a3.1,3.1,0,0,1,1-.21c.53.15.62.58.67,1,2.69,4.91,6,9.42,8.93,14.19.41.69.78,1.41,1.18,2.11s-.17,1.37-.22,2c.23-.43,0-1.09.57-1.48.48,1.35-.57,2.61-.25,3.95a10,10,0,0,0,5.36,1.17c1.19-3,1.48-6.23,2.31-9.33a5.78,5.78,0,0,1,.9-2.66c0,2.83-1.18,5.45-1.34,6.93.19-1.47,1.3-4.09,1.34-6.92l5.07-10.12c.15-.27.22-.6.52-.77a6.82,6.82,0,0,1,1.57-.2,8.59,8.59,0,0,0,7.76-.92c.47-.3.88-.87,1.52-.3.55,8.31,1.66,16.61-.86,24.85-1.15,3.74-1.79,7.64-2.57,11.48-.27,1.33-.7,1.88-2.2,1.55-16.75-3.74-33.52-7.41-50.28-11.12-.75-.16-1.81-.17-1.51-1.41,1-4.16,1.5-8.44,3-12.48,0,3-1,5.76-1.61,8.63-.88,4.37-.92,4.27,3.41,5.2,9.32,2,18.63,4.09,27.94,6.14l17.76,3.92-44.47-9.8a9.41,9.41,0,0,0-2.84-.44c-3.42-.64-2.69-.57-2.16-3.31C1574.43,488.09,1575.47,484.64,1575.91,481.08Z"/><path d="M1725.07,485.67c1.29-1,2-.6,2.85.77,2.55,4.16,5.28,8.21,7.94,12.3.67.25,1.2.6,1,1.45l1.11,2.29c-1.58,8.58-3.68,17-5.51,25.57-.45,2.1-2.27,1.6-3.56,1.45a65.24,65.24,0,0,1-6.72-1.41c-5.2-1.14-10.4-2.27-15.59-3.46-.83-.19-2.08,0-2-1.53,1.74-.12,3.34.53,5,.88,5.41,1.15,10.81,2.36,16.16,3.54,0,0-.13,0-.23,0-6.87-1.49-13.72-3.08-20.61-4.5-.54.23-1,1-1.67.26-.15-1.8.52-3.48.88-5.19,1.45-6.73,3-13.45,4.42-20.19a3.68,3.68,0,0,1,1.71-2.61c2.54-1.58,5-3.27,7.51-4.91l.24.23a1.7,1.7,0,0,1-.26,1.81.81.81,0,0,0,.25-.33,8.21,8.21,0,0,1,.5-1.36c2-1.2,3.55-3.27,6.21-3.15a2.31,2.31,0,0,1-.08-1.45A1.21,1.21,0,0,1,1725.07,485.67Z"/><path d="M1670.38,490.46a7.54,7.54,0,0,1,1.83,8.25c-1.08,3.36-1.56,6.92-2.39,10.37-.29,1.21,0,1.85,1.24,2a4.69,4.69,0,0,1,.65.14c3.79.86,3.82.86,4.75-2.93a2.84,2.84,0,0,1,1.35-1.89c3.76-2.36,7.51-4.73,11.23-7.16.94-.63,1.42-.56,2,.44,2.22,3.58,4.49,7.14,6.83,10.65a3.87,3.87,0,0,1,.63,3.51c-.6,2.06-1,4.16-1.51,6.25-.54,1.4-1.77,1.32-2.94,1.39q-24-5.28-48-10.6c-.73-.16-1.84.08-2-1s.77-1.54,1.49-2A156.37,156.37,0,0,0,1668,490.81,1.82,1.82,0,0,1,1670.38,490.46Z"/><path class="cls-4" d="M1670.38,490.46c-2.7,2.27-5.38,4.58-8.12,6.82a152.25,152.25,0,0,1-16.1,11.43c-.49.31-1,.67-2,1.42l50.36,11.1a1.78,1.78,0,0,1,2.11.55c-.79.62-1.57.08-2.31-.08-19.82-4.38-39.63-8.82-59.48-13.12-2.31-.5-2.6-1.32-2.08-3.41,1.29-5.18,2.47-10.39,3.44-15.63.45-2.45,1.53-4.07,3.84-4.89a4.52,4.52,0,0,0,3.27-2.09c.66-.8,1.47-.46,2.25-.29,7.09,1.56,14.15,3.19,21.26,4.63C1669,487.34,1669.52,489,1670.38,490.46Z"/><path class="cls-4" d="M1640,429.6l1.12-2.35c.22-.53.21-1.24,1-1.32,4.68-4.5,10.58-4.82,14.56-.77a5.56,5.56,0,0,1,.61.91,2.22,2.22,0,0,0,.76,1.55.81.81,0,0,1,0-.16.31.31,0,0,1,.26-.26c.73-3.19,1.44-6.39,2.21-9.58.16-.67,0-1.5.8-1.92a1.24,1.24,0,0,0,1.3.24c4.88.74,4.88.74,3.85,5.43-2,8.87-4,17.73-5.83,26.63-.39,1.88-1.05,2.62-2.92,1.85a2.71,2.71,0,0,0-.43-.1c-1.94-.32-4-.53-2.6-3.76-2.15,1.07-3.84,2.24-5.94,2-.18,0-.37-.1-.55-.17-1.38-.53-2.76-1-4.25-.41a1.58,1.58,0,0,1-.65,0c-1-.2-1-1.08-1.35-1.76l-.77-1.13c0-.45-.11-.74-.6-.76-1.84-2.24-1.93-4.95-2-7.65a1.18,1.18,0,0,1,.13-1c.23-1.44,1-2.76.91-4.26A1.9,1.9,0,0,1,1640,429.6Z"/><path class="cls-4" d="M1574.34,396.89a9.84,9.84,0,0,1,6.5,1.45c-.09.12-.22.22-.25.36q-3.48,15.42-6.81,30.89a1.09,1.09,0,0,0,.06.43c0,1.18-.71,1.22-1.63,1-1.27-.3-2.56-.53-3.84-.79l-1.19-.31a.43.43,0,0,1-.06-.66c1.12-4.35,2.06-8.73,2.91-13.13,0-1-.9-1-1.53-1.23-3.74-.95-7.43-2.17-11.35-2.28a2.42,2.42,0,0,0-.44.56,61.24,61.24,0,0,0-1.73,8.37,1.19,1.19,0,0,1-.59.52c-2.09-.18-4.21-.21-5.93-1.65a1.83,1.83,0,0,1-.06-.66q2.89-13.61,6-27.18c0-.13.16-.24.24-.36a15.27,15.27,0,0,1,6.32,1.28c-.82,4-1.81,8-2.6,12a2.16,2.16,0,0,0,.2,1.06l12.14,2.72.81.12A62.22,62.22,0,0,0,1574.34,396.89Z"/><path class="cls-3" d="M1771.14,475.38l-4.06-2.28a15.2,15.2,0,0,1,.56-19.52,11.21,11.21,0,0,1,12.89-2.46c4.42,1.86,6.81,5.79,6.69,11,0,.74,0,1.47,0,2.21a1.51,1.51,0,0,1,.13,2.32c-.64.89-1.19,1.63-2.47,1.39-2.11-.39-4.19-.89-6.29-1.33-1.37-.29-2.74-.63-4.12-.89-.87-.16-1.9-.43-2.37.58s.25,2,1.09,2.65c1.34,1.06,2.8.89,4.64-.49s2.87-1.19,4.22.94a6.65,6.65,0,0,0,.56.36c2.73,1.45,2.69,2.37,0,4.31-3.21,2.3-6.68,2.45-10.32,1.42C1771.86,475.5,1771.5,475.45,1771.14,475.38Z"/><path class="cls-4" d="M1698.9,441.92c.58,6.46-2.51,11.23-9.13,14.15a1.79,1.79,0,0,1-2,.81c-2.4-1.16-4.84-2.12-7.6-1.52a1.67,1.67,0,0,1-.74.12,2.1,2.1,0,0,1-1.88-2.05c-4.4-3.8-5.16-8.64-3.64-13.9,1.33-4.55,4.2-7.86,9-8.82,6.94-1.39,14.15,2.07,15.71,9.55A1.18,1.18,0,0,0,1698.9,441.92Z"/><path d="M1720.17,462.73c-2.1,1-6-.09-6.82-2q-1.83-11.22-3.65-22.45c-.41-2.52-.42-2.52,2-2,4.39,1,4.38,1,5,5.45.38,2.75.79,5.5,1.19,8.25.59.38-.12,1,.23,1.41a2,2,0,0,0,.14,1.81c.2.39.47.42.8.18.73-1.17,1.47-2.34,2.2-3.52.45-1.08.52-2.41,1.9-2.87,1.28-1.9,2.61-3.77,3.81-5.72a1.92,1.92,0,0,1,2.51-1.09c1.55.46,3.16.72,5,1.12l-8.89,13.48a12.09,12.09,0,0,1-3.47,5.17A9,9,0,0,0,1720.17,462.73Z"/><path class="cls-3" d="M1748.25,457c-1.28,3-1.59,6.25-2.37,9.38-.83,3.33-.42,2.85-3.54,2.17-.35-.07-.72-.11-1.08-.16-2.22-.19-2.38-1.32-1.9-3.29,1.57-6.48,3-13,4.33-19.54.33-1.57.86-2.27,2.48-1.62a4.22,4.22,0,0,0,1.3.29c2.13.13,3.2,1,2.08,3.21,1,.26,1.25-.53,1.75-.87a6.3,6.3,0,0,1,7.61.39,1.11,1.11,0,0,1,.28,1.69,19.63,19.63,0,0,0-1.18,1.88c-.79,1.55-1.6,2.62-3.36,1a2.16,2.16,0,0,0-2.32-.29c-1.6.87-2.29,2.57-3.5,3.79Z"/><path class="cls-4" d="M1625.4,442.31c-2.05.45-3.89-.51-5.8-.93-1.08-.23-.57-1.21-.42-1.86q2.47-11.25,5-22.5c2,.58,4.89.13,5.91,1.8s-.51,3.93-.93,5.94C1628,430.62,1626.66,436.47,1625.4,442.31Z"/><path class="cls-4" d="M1593.36,435.24c-1.39-8.09-2.76-16.18-4.18-24.26-.23-1.32,0-1.67,1.44-1.41,5,.95,5.06.89,5.73,6.09.49,3.81,1.31,7.58,1.35,11.44-1.26,2.12-1.56,4.54-2.15,6.87C1595.26,435.12,1594.89,436.18,1593.36,435.24Z"/><path class="cls-4" d="M1597.69,427.53c.91.59,1-.33,1.22-.73,2.47-3.85,5-7.66,7.32-11.58.93-1.56,1.89-1.85,3.59-1.43,4.33,1.07,4.36,1,1.78,4.75s-5,7.25-7.53,10.87c-1.51.93-3.41-.59-4.85.77a3.33,3.33,0,0,0-2,1.54c-.43.58-1,1.12-1.58,0,.18-.93.35-1.86.62-2.77C1596.43,428.27,1596.63,427.44,1597.69,427.53Z"/><path class="cls-20" d="M1782,469.51c-1.66-.64-3.06-1-4.51.82-1.15,1.44-3.58,1.06-5.27-.25-1.52-1.18-2.43-3.88-1.93-5.37.35-1,1-.6,1.61-.48,3.84.82,7.66,1.67,11.49,2.52,3.06.67,3.06.67,3.78-2.41l1.61-1.35a7.92,7.92,0,0,1-.57,5.2c-.28-.21-.64-1.05-.88-.38-.84,2.32-2.47,2-4.25,1.6A3.38,3.38,0,0,0,1782,469.51Z"/><path class="cls-21" d="M1552.64,427.18l.09-.39c.15-1.52-.06-3.14,1.22-4.35a3.25,3.25,0,0,1,.76-.72l.1-.45a42.86,42.86,0,0,1,1.93-8.66.69.69,0,0,0,.22-.34,60.91,60.91,0,0,1,11.63,2.44c.53.29,1.23.27,1.62.84a94.55,94.55,0,0,1-3,13.92l0,.45c-.53-.94-.16-1.88,0-2.81.69-3.18,1.37-6.36,2.11-9.53.33-1.44-.1-2.24-1.59-2.55-2.82-.58-5.64-1.2-8.44-1.86-1.46-.34-2.25.14-2.54,1.61-.39,2-.81,3.91-1.29,5.85-.36,1.46.15,2.28,1.62,2.53,1.9.32,2,1.51,1.7,3.13-.36,1.81-1.4,2-2.93,1.63C1554.79,427.67,1553.63,427.79,1552.64,427.18Z"/><path class="cls-19" d="M1595.74,432.14a5.16,5.16,0,0,0,.7-1.33c.31-1.56,1.2-2,2.67-1.58,1.6-.17,3.19-.3,4.39,1.09l-.45,1.11-3.56,4.74c-1.62.86-3-.1-4.49-.51-.12-.91.57-1.72.38-2.65A.94.94,0,0,1,1595.74,432.14Z"/><path class="cls-4" d="M1625.06,413.09c0-.22,0-.44.07-.65.94-5,1.39-5.22,6.25-3.48.59.21,1.19.41,1,1.17-.44,1.6-.29,3.37-1.38,4.78-.3,0,.14-.5-.37-.48A8.9,8.9,0,0,1,1625.06,413.09Z"/><path class="cls-10" d="M1575.91,481.08c0,3.56-1.23,6.88-1.94,10.3-.4,1.95-.17,3.17,2,3.36a3,3,0,0,1,1.73.16l46.13,10.17a3.07,3.07,0,0,1,1.64.58c-.79.62-1.57.08-2.32-.08q-23.62-5.18-47.25-10.4c-3-.66-3-.75-2.39-3.7q1.08-5.1,2.15-10.21A.21.21,0,0,1,1575.91,481.08Z"/><path class="cls-15" d="M1704.59,523.09a4.47,4.47,0,0,0,2.22.93c7,1.54,14,3,21,4.71,1.59.38,2.72-1.09,4.17-.44a10.74,10.74,0,0,0,.41-1.25c1.56-7.9,3.83-15.66,4.94-23.66,0-.32.38-.6.58-.9a3.71,3.71,0,0,1-.22,2.16q-2.52,11.55-5.1,23.11c-.17.76-.11,1.64-.83,2.22a3,3,0,0,1-2.85-.1c-8.08-1.93-16.23-3.52-24.3-5.47a1.72,1.72,0,0,1-.66-.54c-.24-.21-.69-.18-.73-.63Z"/><path class="cls-7" d="M1646.25,511.74l49,10.8-.06.28-49-10.8Z"/><path class="cls-20" d="M1743.32,443.54l-5,22.92-.41-.08,5.05-22.88Z"/><path class="cls-7" d="M1729.16,529.42l2.61.55c-.41,1.44-1.51,1-2.35.71-8.15-2.43-16.53-3.83-24.8-5.7-.67-.15-1.84.08-.66-1.12l.44.1a6.23,6.23,0,0,0,2.72.81q9.93,2.24,19.88,4.39A4.09,4.09,0,0,0,1729.16,529.42Z"/><path class="cls-7" d="M1547.24,419l5.38-24.39.2,0L1547.45,419Z"/><path class="cls-22" d="M1707.74,498l-5.15,23.36-.26-.05,5.15-23.35Z"/><path class="cls-23" d="M1630.08,466.54l.3.56-.24,1.29c-2.86,2.3-6,3.44-9.59,2a1.28,1.28,0,0,1,1.36-1.16,13,13,0,0,0,7.52-2.67C1629.59,466.44,1629.86,466.5,1630.08,466.54Z"/><path class="cls-24" d="M1625.06,413.09c.86.19,1.75.31,2.58.58,2.1.69,3.5.3,4.08-2.12l-.74,3.36C1628.94,414.53,1626.65,415,1625.06,413.09Z"/><path class="cls-25" d="M1595.07,435.17a6,6,0,0,0,4.42,1c-1.39,1.49-2.8-.2-4.2,0-.6-.42-1.54-.12-1.93-1,1.21,0,1.41-.86,1.61-1.75.32-1.37.61-2.74.93-4.11.25-1,.57-2,1.8-2.28v.43c-1.62,1.13-1.48,3-2,4.61-.06.29-.12.57-.19.86A2.59,2.59,0,0,1,1595.07,435.17Z"/><path class="cls-26" d="M1730.72,489.22c1.11.44,1.33-2,2.16-1,.58.71.23,2.2.24,3.35,0,.26-.23.52-.36.79Z"/><path class="cls-5" d="M1736.81,500.19a2.89,2.89,0,0,1-1-1.45c.18-.45.53-.37.91-.38.58,0,.39-1.55,1.35-.76a2,2,0,0,1,.57,1.38c0,.85-.84.91-1.45,1.11A3.34,3.34,0,0,1,1736.81,500.19Z"/><path class="cls-27" d="M1722.08,460a26.42,26.42,0,0,1,3.47-5.17C1725.75,457.43,1724,458.77,1722.08,460Z"/><path class="cls-28" d="M1748.83,454.94c.6-1.78,1.24-3.53,3.5-3.79C1751.5,452.72,1750.88,454.5,1748.83,454.94Z"/><path class="cls-29" d="M1603.5,430.32l-4.39-1.09c-.14-.74.15-1,.86-.77,1.36.33,2.73.63,4.1,1Z"/><path class="cls-30" d="M1648.62,448.23c-1.77-.24-3.58-.37-5.08-1.54,0-.11,0-.23.08-.35a12.83,12.83,0,0,1,5.21,1.14l-.09.48C1648.7,448.05,1648.65,448.14,1648.62,448.23Z"/><path class="cls-20" d="M1789.08,469.55c-.16.51-.38,1.09-1,1s-.75-.93-.67-1.37.46-1.17,1.21-.93S1789.18,469,1789.08,469.55Z"/><path class="cls-9" d="M1723.14,447a8.82,8.82,0,0,1-1.9,2.87C1721.12,448.42,1720.85,446.86,1723.14,447Z"/><path class="cls-31" d="M1658.65,427.78l.29,2.3c-.81-1.25-1.9-2.36-1.67-4l1,1.13.35.57Z"/><path class="cls-22" d="M1610.3,491a3.65,3.65,0,0,1-4.36-.9A6.76,6.76,0,0,0,1610.3,491Z"/><path class="cls-27" d="M1638.83,435.24l-.3.85c-.64-2.41.46-4.44,1.44-6.49l-.21,1.31A10.94,10.94,0,0,1,1638.83,435.24Z"/><path class="cls-31" d="M1643.32,482.56c-.37,1.83-1.46,2.54-3.27,2.09Z"/><path class="cls-24" d="M1610.49,492.68c-2,.64-3.77-.37-5.6-.87a1.05,1.05,0,0,1,0-.19.86.86,0,0,1,.19-.11Z"/><path class="cls-15" d="M1696.64,521.78l-2.11-.55c.65-.77,1.78-.54,2.49-1.17Z"/><path class="cls-27" d="M1594.92,470.75l-.67-1c.26-.4.47-1.13,1.08-.59S1595.3,470.27,1594.92,470.75Z"/><path class="cls-27" d="M1642.1,425.93l-1,1.32c-.18-.31-1-.25-.6-.87A1.08,1.08,0,0,1,1642.1,425.93Z"/><path class="cls-30" d="M1698.9,441.92c-.55.63-.66,0-.82-.31-.3-.66,0-1.08.59-1.35A2.7,2.7,0,0,1,1698.9,441.92Z"/><path class="cls-19" d="M1605.38,487.56l-.56,2.52-.44-.1.65-2.93Z"/><path class="cls-32" d="M1662.61,415.94c-.52.07-.44,1.06-1.09.77-.18-.09-.14-.66-.21-1Z"/><path class="cls-21" d="M1606.68,428.59l-.56.28c0-.11-.16-.29-.13-.31a4.79,4.79,0,0,1,.53-.34Z"/><path class="cls-19" d="M1640.57,443.74c.27-.19.59-.56.88-.26s0,.73-.28,1Z"/><path class="cls-9" d="M1719,453.39c-.06.39,0,1-.54.91s-.36-.67-.26-1.09Z"/><path class="cls-27" d="M1638.64,429.34c0-.12-.05-.23-.07-.35l.18,0a3.58,3.58,0,0,1,.09.35Z"/><path class="cls-9" d="M1718.1,451.4l-.23-1.41C1719.32,450.23,1718,450.93,1718.1,451.4Z"/><ellipse class="cls-11" cx="1709.13" cy="531.09" rx="0.07" ry="104.33" transform="translate(822.55 2085.82) rotate(-77.57)"/><path class="cls-33" d="M1630.08,466.54c-1,2.35-3.15,3-5.34,3.45a36.45,36.45,0,0,1-4.19.4,1.6,1.6,0,0,1-1.26-.26l2.52-5.37a.72.72,0,0,1,.2-.84c2.39-1.06,3.62-3.07,4.44-5.42,1.27-1.25,1-2.64.39-4.07a1.36,1.36,0,0,1,1.23-1.42l1.44-2C1629.71,456.6,1629.89,461.57,1630.08,466.54Z"/><path class="cls-16" d="M1625.52,505.65,1576,494.74a5.09,5.09,0,0,1,2.84.18l44,9.7A5.14,5.14,0,0,1,1625.52,505.65Z"/><path class="cls-24" d="M1613.7,480.7c.22,3.75-1.41,7.16-2.35,10.68q1.17-5.34,2.35-10.69Z"/><path class="cls-15" d="M1717.68,490.5,1725,486l.82,1.31c.25.41,1,.73.63,1.24a1.48,1.48,0,0,1-1.83.36c-1.95-1-3-.11-3.67,1.64-.44,1.23-1.64-.46-2,.63-.41.44-.72,1.1-1.5.58C1717.51,491.34,1717.59,490.92,1717.68,490.5Z"/><path class="cls-15" d="M1704.84,522.86,1727.9,528l0,.11-23.25-5.13Z"/><path class="cls-34" d="M1717.42,491.75l1.5-.58c.34,2.43-2.11,2.24-3.17,3.38A4.89,4.89,0,0,1,1717.42,491.75Z"/><ellipse class="cls-15" cx="1669.89" cy="515.21" rx="0.16" ry="33.82" transform="translate(807.26 2035.03) rotate(-77.57)"/><path class="cls-34" d="M1669.19,512.6c1.81.16,3.37,1,5.16.87C1672.43,514.08,1670.77,513.31,1669.19,512.6Z"/><path class="cls-34" d="M1668.65,510.53c-.35,1.06,1,1.44,0,2.17-.32.23-.79.64-1.15.13C1667,512,1667.66,511.5,1668.65,510.53Z"/><path class="cls-10" d="M1573.84,430a5.08,5.08,0,0,1,.16-2.62q2.94-13.31,5.87-26.62a4.83,4.83,0,0,1,1-2.44Q1577.35,414.18,1573.84,430Z"/><path class="cls-8" d="M1574.34,396.89a34.69,34.69,0,0,1-2.82,12.49Z"/><path class="cls-11" d="M1650.22,443.2c-3.12-.4-4.69-1.94-4.86-5a13.63,13.63,0,0,1,1.72-7.68,5.07,5.07,0,0,1,9.58,2.17c.46,4.33-1.39,8.55-4.43,10.11C1651.53,442.78,1650.75,442.34,1650.22,443.2Z"/><path class="cls-35" d="M1650.22,443.2c-.38-.64-.45-1.32.33-1.63,1.11-.45,1.18.73,1.68,1.24A2.24,2.24,0,0,1,1650.22,443.2Z"/><path class="cls-19" d="M1659.74,423.24l1.07-4.85.21.05-1.08,4.9Z"/><path class="cls-36" d="M1648.83,447.48l-5.21-1.14A7.13,7.13,0,0,1,1648.83,447.48Z"/><path class="cls-14" d="M1638.83,435.24a12.92,12.92,0,0,1,.93-4.33A5.73,5.73,0,0,1,1638.83,435.24Z"/><path class="cls-32" d="M1656.36,448.8l2.29.5v.15l-2.29-.51Z"/><path class="cls-24" d="M1645.3,433.15a1.64,1.64,0,0,1-.25,1.65C1644.71,434.17,1645.19,433.69,1645.3,433.15Z"/><path class="cls-19" d="M1658.65,427.77l.43-.91a1.51,1.51,0,0,1,.25.51c0,.52-.27.59-.68.41Z"/><path class="cls-37" d="M1548.05,421.16q3-14,6.07-28c.09-.42.17-.9.76-.93l-6.21,28.18a.59.59,0,0,1-.08.81A.45.45,0,0,1,1548.05,421.16Z"/><path class="cls-8" d="M1567.21,429.47c.74-4.69,1.9-9.3,3-13.92.47,1.83-.29,3.51-.7,5.2C1568.79,423.67,1568.67,426.75,1567.21,429.47Z"/><path class="cls-6" d="M1568.59,414.71,1557,412.27c-.08-.32,0-.77.32-.64C1561,413,1565,413,1568.59,414.71Z"/><path class="cls-31" d="M1560.84,393.93l-2.68,12.14A39,39,0,0,1,1560.84,393.93Z"/><path class="cls-29" d="M1548.48,421.26l.19-.87,6,1.33-.19.88a4.68,4.68,0,0,1-.7.37,5.7,5.7,0,0,1-5.21-1.33Z"/><path class="cls-38" d="M1568.22,409.57l-8.31-1.83,0-.17,8.23,1.81Z"/><path class="cls-31" d="M1556.74,412.61l-1.93,8.66A20.13,20.13,0,0,1,1556.74,412.61Z"/><path class="cls-39" d="M1775.12,455.31c3.86-.08,6,1.74,6,5.07,0,1.18-.26,1.77-1.65,1.4-2.2-.58-4.43-1.06-6.67-1.47-1.36-.25-1.49-.84-.94-2a7.14,7.14,0,0,1,2.71-2.82A.73.73,0,0,1,1775.12,455.31Z"/><path class="cls-40" d="M1775.12,455.31l-.54.22c-.33-.41-1.12-.27-1.27-1C1774.24,454.18,1774.63,454.86,1775.12,455.31Z"/><path class="cls-11" d="M1682.83,450c-3-1.36-2.76-4.14-2.93-6.74a2.21,2.21,0,0,1,.52-2.3c.4-.78.74-1.6,1.21-2.33a5.73,5.73,0,0,1,6.09-2.62,5.44,5.44,0,0,1,4.46,4.86c.31,3.15-.16,6.16-2.66,8.48A10.82,10.82,0,0,1,1682.83,450Z"/><path class="cls-35" d="M1682.83,450a6.44,6.44,0,0,0,2.64-.93c1.27-.85,2.66.53,4,.28C1686.42,451.66,1685.47,451.59,1682.83,450Z"/><path class="cls-4" d="M1687,456.33a12.87,12.87,0,0,1-7.36-1.68c0-.12.05-.25.07-.37,2.42,0,4.67.9,7,1.35C1687,455.7,1687.07,456,1687,456.33Z"/><path class="cls-41" d="M1687,456.33c-2.23-1.39-4.87-1.33-7.29-2.05a16.58,16.58,0,0,1,8.37,1.93Z"/><path class="cls-42" d="M1680.42,441c-.17.77-.35,1.54-.52,2.3-.26.5-.27,1.15-1.1,1.48a23.54,23.54,0,0,1,1.27-4.13C1680.44,439.9,1680.28,440.83,1680.42,441Z"/><path class="cls-43" d="M1554.13,422.51l.39.09c-.62,1.39.38,3.46-1.79,4.19-1.78-.79-3.9-.46-5.53-1.72a7.38,7.38,0,0,1,.68-.69,1.94,1.94,0,0,1,1.26-.3C1551.17,424.66,1552.68,423.72,1554.13,422.51Z"/><path class="cls-44" d="M1547.72,424.73l-.52.34a11.72,11.72,0,0,1,.85-3.91l.43.1h0A2.18,2.18,0,0,1,1547.72,424.73Z"/><ellipse class="cls-10" cx="1627.28" cy="430.34" rx="14.43" ry="0.16" transform="translate(856.7 1926.82) rotate(-77.57)"/><path class="cls-18" d="M1624.12,420.81l-4,18.31-.21,0,4-18.31Z"/><path class="cls-10" d="M1620.36,440.85l3.56.78,0,.17-3.56-.79Z"/><path class="cls-6" d="M1626.29,418l2.84.63,0,.2-2.84-.63Z"/><path class="cls-6" d="M1592.06,410.47l2.31.51,0,.21-2.4-.53Z"/><path class="cls-4" d="M1595.07,435.17l.48-2.17A1.87,1.87,0,0,1,1595.07,435.17Z"/><path class="cls-11" d="M1729.16,529.42a4.35,4.35,0,0,1-2.4-.08l-20.15-4.44a4.41,4.41,0,0,1-2.21-.94Q1716.84,526.42,1729.16,529.42Z"/><path class="cls-45" d="M1622.31,464.4c1.53-2.95,2.54-6.21,5-8.6.83,1.08-.44,2.29.21,3.38A8.2,8.2,0,0,1,1622.31,464.4Z"/><path class="cls-36" d="M1627.56,459.18c-.9-1.07-.32-2.24-.21-3.38l0-1.24c.78-.14,1.32-.05,1.08,1C1628.09,456.75,1627.83,458,1627.56,459.18Z"/><path class="cls-33" d="M1547.72,424.73l.76-3.47,5.65,1.25c-.79,3.46-.79,3.46-4.25,2.7Z"/><path class="cls-46" d="M1462.77,1107.51H1962.2V842.07l-27.48,4.24-20.56-8.48L1873,825.11l-138.38-4.23s-60.58-4.24-73.87-8.48-169.45-38.15-169.45-38.15l-108.1-17L1314,723.38,1190.33,703.2s-75.25-13.73-102.12-18-75.25-17-75.25-17H878.6L798,703.2s-43-18-59.13-18-94.38-17-94.38-17L540,685.23H354.87l-73.06,18H109.68L0,740.33v367.18H1385"/><path class="cls-47" d="M881.45,809.69a242.88,242.88,0,0,1-46.39,30.51c-29.53,15-31.06,38.12-1.71,23.18A384.24,384.24,0,0,0,903.54,817C929.11,795.66,907.19,788.25,881.45,809.69Z"/><path class="cls-47" d="M1493.75,865.73c-15,1.68-31.66,1.3-44.25-2.38-11.19-3.26-27.11-3.86-38.07,0-9.54,3.37-11.25,10.15,0,13.44,27.25,8,62.34,11.12,96.63,7.25C1540.94,880.35,1526.89,862,1493.75,865.73Z"/><path class="cls-47" d="M699,1107.51c-1.91-4-10.36-7.36-25.42-6.94-28.19.81-56.57.74-84.6-.72-14.5-.77-28.76,1.28-33.11,6.63a3.82,3.82,0,0,0-.61,1Z"/><path class="cls-47" d="M1430,980.23l-89.91-94.55c-21.53-22.65-53.21-25.48-31.62-2.76l89.91,94.55C1419.89,1000.12,1451.57,1002.94,1430,980.23Z"/><path class="cls-47" d="M1099.6,1044.58q-44.94-47.28-89.9-94.55c-21.53-22.65-53.21-25.48-31.62-2.76q45,47.28,89.9,94.55C1089.52,1064.47,1121.2,1067.3,1099.6,1044.58Z"/><path class="cls-47" d="M1674.93,1038.78c3.83-14.31,15.18-29.5,5.72-58.52-4.09-12.53-11.39-25.9-18-38.58q-15.6-30.1-31.31-60.2c-16-30.7-32.58-21.46-16.66,9.14q8.94,17.19,17.89,34.39c4.77,9.19,14.71,25.49,17.89,34.4,3.62,10.15,1.77,11.21.13,17.34l-5.07,18.93C1641.3,1011.59,1670.62,1054.87,1674.93,1038.78Z"/><path class="cls-47" d="M631.56,851.37C598.44,866,561.79,879.5,523,892c-28.52,9.2,3.66,21.86,32.13,12.68a1211.74,1211.74,0,0,0,118.26-44.91C697.62,849.07,655.58,840.77,631.56,851.37Z"/><path class="cls-47" d="M392.12,905.78C359,920.4,322.35,933.91,283.53,946.42c-28.53,9.2,3.66,21.86,32.12,12.68a1211.74,1211.74,0,0,0,118.26-44.91C458.18,903.48,416.14,895.17,392.12,905.78Z"/><path class="cls-47" d="M1230.56,743.85a555.56,555.56,0,0,1-69-8.57c-30.39-5.89-57.58,10.52-27.17,16.41a660.46,660.46,0,0,0,81.89,10.48c14.27,1,29-1.4,33.11-6.64C1253,750.9,1244.92,744.8,1230.56,743.85Z"/><path class="cls-47" d="M1962.2,1079.1c-16,4.79-49.19-.41-44.18-10.1,11.26-21.75-36-43.06-49.49-63.6-7.8-11.92,44.12-17,51.91-5.06,9.62,14.7,29.55,28.11,41.76,42.08Z"/><path class="cls-48" d="M460.34,810.66A242.36,242.36,0,0,1,414,841.16c-29.53,15-31.06,38.13-1.71,23.19a384.76,384.76,0,0,0,70.19-46.41C508,796.63,486.08,789.21,460.34,810.66Z"/><path class="cls-48" d="M1067.39,747.65c-15,1.69-31.66,1.31-44.25-2.37-11.19-3.27-27.11-3.87-38.07,0-9.54,3.37-11.24,10.15,0,13.44,27.25,8,62.34,11.12,96.63,7.25C1114.59,762.27,1100.53,743.92,1067.39,747.65Z"/><path class="cls-48" d="M329.26,1065.87c-28.2.81-56.58.74-84.61-.72-14.49-.76-28.75,1.28-33.11,6.64-3.63,4.46,4.45,10.93,18.8,11.68,33,1.73,65.61,2.36,98.93,1.41C363.56,1083.89,363.85,1064.88,329.26,1065.87Z"/><path class="cls-48" d="M1085.63,945.53q-44.94-47.28-89.9-94.55c-21.53-22.65-53.21-25.48-31.62-2.76L1054,942.77C1075.55,965.42,1107.23,968.24,1085.63,945.53Z"/><path class="cls-48" d="M755.26,1009.88l-89.91-94.55c-21.53-22.65-53.21-25.47-31.61-2.76q44.94,47.28,89.9,94.55C745.17,1029.77,776.85,1032.6,755.26,1009.88Z"/><path class="cls-48" d="M1375.13,799.53c-10.71-10.23-18.58-27.48-48.57-33.12-13-2.44-28.2-2.45-42.47-2.78q-33.91-.78-67.84-1.46c-34.6-.74-34.47,18.27,0,19L1255,782c10.35.22,29.42-.66,38.76.83,10.65,1.7,10.69,3.83,15.27,8.21l14.17,13.54C1335.13,816,1387.18,811,1375.13,799.53Z"/><path class="cls-48" d="M248.28,796.83c-33.12,14.62-69.77,28.13-108.59,40.64-28.52,9.2,3.66,21.86,32.12,12.68a1207.23,1207.23,0,0,0,118.26-44.91C314.35,794.53,272.31,786.22,248.28,796.83Z"/><path class="cls-48" d="M641.17,863.86a553.67,553.67,0,0,1-69-8.57c-30.39-5.88-57.58,10.52-27.16,16.41a660.17,660.17,0,0,0,81.89,10.49c14.27.94,29-1.4,33.11-6.64C663.58,870.92,655.53,864.81,641.17,863.86Z"/><path class="cls-48" d="M1462.77,1107.51c-2-1.47-5.39-2.83-10.34-3.89-22.94-4.95-37.76-12.49-44-21.68-8.06-11.89-60-6.84-51.91,5.06,5.16,7.61,15,14.57,28.42,20.51Z"/><path class="cls-48" d="M1781.18,894.69c-7.79-11.91-59.71-6.86-51.91,5.06,13.43,20.54,60.75,41.85,49.49,63.59-6.19,12,45.68,17.08,51.91,5C1844.65,941.39,1797.69,919.93,1781.18,894.69Z"/><rect class="cls-49" x="220.73" y="503.18" width="234.94" height="289.58" rx="117.47" ry="117.47" transform="translate(-93.52 58.17) rotate(-8.64)"/><ellipse class="cls-50" cx="306.27" cy="435.37" rx="100.16" ry="101.84" transform="translate(-61.94 50.96) rotate(-8.64)"/><rect class="cls-51" x="240.14" y="433.72" width="39" height="39" rx="10.02" ry="10.02" transform="translate(584.43 862.29) rotate(171.36)"/><circle class="cls-3" cx="259.64" cy="453.22" r="7.33"/><rect class="cls-51" x="334.7" y="424.43" width="32.33" height="32.33" rx="8.31" ry="8.31" transform="translate(763.94 823.46) rotate(171.36)"/><circle class="cls-3" cx="350.86" cy="440.59" r="6.08"/><circle class="cls-50" cx="413.14" cy="414.68" r="21.09"/><circle class="cls-50" cx="191.34" cy="458.64" r="21.09"/><circle class="cls-52" cx="423.87" cy="413.05" r="5.74"/><circle class="cls-52" cx="180.61" cy="460.27" r="5.74"/><rect class="cls-53" x="317.48" y="520.54" width="5.56" height="13.79" rx="1.08" ry="1.08" transform="translate(716.14 1000.76) rotate(171.36)"/><rect class="cls-14" x="240.1" y="423.72" width="31.51" height="7.34" rx="1.89" ry="1.89" transform="translate(573.03 811.48) rotate(171.36)"/><rect class="cls-14" x="333.98" y="413.2" width="32.63" height="8.02" rx="2.06" ry="2.06" transform="translate(759.3 777.05) rotate(171.36)"/><circle class="cls-49" cx="234.57" cy="578.1" r="45.68"/><path class="cls-54" d="M166.78,437.54l.54-3.94c0-.25.06-.5.08-.75l.38-4.83c0-.19.08-.39.11-.58a36.68,36.68,0,0,0,.41-6.18l1.52-19.57c0-.42.09-.84.16-1.25,2.4-7.83,6.53-15.11,9-22.89l15.48-20.86,9.71-13.29,10.49-13.15a24.4,24.4,0,0,0,3.31-1.57c3.49-2.08,6.47-4.74,10.08-6.67,5.72-3.08,11.71-5.62,17.56-8.43,5.17-.6,17.55-2.13,20.8-3.24,3.83-1.31,25.51-3.32,32.09-4.74a5.61,5.61,0,0,0,1.61.17c6.68-.29,13.3-1.73,19.94-2.64l1.95,0c6.25.75,14.7,2,17,2.28a3.24,3.24,0,0,1,1,.32,87.58,87.58,0,0,0,12.08,4.94c6.74,2.13,15.34,9.48,19.34,11.23s6.52,7.67,13.75,11.3a44.46,44.46,0,0,1,13.62,10.53c2.56,2.76,19.45,22.24,19.45,22.24a46.13,46.13,0,0,1,8.21,14.49c1.31,4,3.06,8.16,4.57,11.79,1.37,5.66,2.59,11.36,3.53,17.1a12.75,12.75,0,0,0,.22,1.42,122.26,122.26,0,0,1,1.51,26.27c-.56,9.44-2.92,17.63-6.38,26.36-2.59,6.55-4.73,13.14-4.85,20.08-.65.29-1.52.64-2.74,1.11-5,2-2.57,4.14-7.58,6.38l-4.49,2a3.33,3.33,0,0,0-.83.52,24.82,24.82,0,0,1-11.18,5,88.92,88.92,0,0,0-10.78,2.94,3.94,3.94,0,0,1-2.88-.09,19.21,19.21,0,0,0,.94-4.38,33.09,33.09,0,0,0-.16-8.79,3.8,3.8,0,0,0,.6-3.15c-1.56-7.49-1.26-15.47-1.42-23.08-.45-22.4,2.4-93.48-37.62-82.7a4.5,4.5,0,0,0-3.14,2.89,46.78,46.78,0,0,0-5.2.76l-.33.08c-13-.2-35.44-4.67-45-3.46-.23,0,16.59,6.69,16.34,6.73l-1.37.23-1.22.17a5.47,5.47,0,0,0-.61.13C288,389.93,270,394.94,251.57,398a3.38,3.38,0,0,0-.72-.34c-.58-.19-1.18-.35-1.78-.5a3.58,3.58,0,0,0-4.43-2.27c-5.59,1.33-9.23,5.43-11.52,10.37a4.08,4.08,0,0,0-1.24,3.12l-.15.46c-.46,1.4-.84,2.84-1.2,4.28l0,0a2.34,2.34,0,0,0-.64,1,4.09,4.09,0,0,0-.07,2.34,97,97,0,0,0-1.43,21.81,5.41,5.41,0,0,0-1.23,3.94c0,.05,0,.1,0,.15-1.59,5.19-.84,10.33.46,15.51,1.35,5.37,2.62,10.64,3.76,16.06a87.88,87.88,0,0,0,3,10.55,1.81,1.81,0,0,0,.78,2.19c.65,1.75,1.33,3.49,2.06,5.21,2.59,6.16,4.78,12.56,7.72,18.57v.1a2.13,2.13,0,0,1-.83,1.9l-5.22,4.47a2.13,2.13,0,0,0-.83,1.9l.34,2.25c-.38.27-.77.53-1.16.79a3.84,3.84,0,0,0-1.61,2.2,37.11,37.11,0,0,1-9,3h-.43L224,524.6c-1.09-1.21-3.52-1.21-4.91,0a4,4,0,0,1-3.71.72l-7.09-2.26a2.23,2.23,0,0,1-1.65-1.68l-.93-6.13c-.24-.93-.48-1.84-.71-2.77-.85-2.25-2.64-6.15-4.9-6-1.92.13-4.53-1.88-6.69-3.68-.52-.73-1.06-1.46-1.61-2.18a24,24,0,0,0-2.65-5.6c-.3-2-1.07-3.95-3.46-4.27a28.13,28.13,0,0,0-4.85-3.81c-5.35-6.79-10.09-13.89-12-22.43S167,446.77,166.78,437.54Z"/><path class="cls-55" d="M322.36,316.3a25.44,25.44,0,0,0,5.28,2.42c3.29,1.09,3.81,3.46.54,2.38a40.21,40.21,0,0,1-8-3.7C317.21,315.6,319.36,314.48,322.36,316.3Z"/><path class="cls-55" d="M255.26,325.21a12.57,12.57,0,0,0,4.54-.94,7.32,7.32,0,0,1,3.94-.6c1,.2,1.32.88.21,1.39a26.68,26.68,0,0,1-9.88,2.27C250.61,327.47,251.77,325.35,255.26,325.21Z"/><path class="cls-55" d="M346,363c2.93-.36,5.86-.81,8.74-1.4,1.49-.31,3-.32,3.53.16s-.29,1.21-1.76,1.51c-3.39.7-6.75,1.27-10.21,1.7S342.42,363.44,346,363Z"/><path class="cls-55" d="M181.55,420.81c3-1.93,8.4-3,13.22-3.78,3.57-.61,3.86,1.36.3,2s-7.23,1.23-9.37,2.61S179.51,422.13,181.55,420.81Z"/><path class="cls-55" d="M265.88,362.45l7.82-11.2c1.87-2.68,5.1-3.47,3.22-.78l-7.81,11.19C267.24,364.34,264,365.13,265.88,362.45Z"/><path class="cls-55" d="M301.07,363.91l7.81-11.19c1.87-2.69,5.1-3.48,3.23-.79l-7.82,11.2C302.42,365.81,299.19,366.6,301.07,363.91Z"/><path class="cls-55" d="M233.64,351.9c1-1.23,1.49-3.14,4.51-4.19a28.29,28.29,0,0,1,4.35-1l7-1.22c3.57-.62,3.85,1.35.3,2l-4,.69c-1.07.19-3,.4-4,.7a2,2,0,0,0-1.45,1.09l-1.26,1.62C238,353,232.58,353.28,233.64,351.9Z"/><path class="cls-55" d="M384.15,372.88l14.15-3.17c2.78-.63,1.64,2.21-1.16,2.84L383,375.72C380.21,376.34,381.35,373.51,384.15,372.88Z"/><path class="cls-55" d="M410.64,386.87a14.87,14.87,0,0,1,3.79-1.08l1.59-.25h.05c1.76-1.19,6.27-.9,4.75.42-1.11,1-3.36,1.37-5.61,1.73l-.53.09h0c0,.09-.08.22,0,.33a1.41,1.41,0,0,0,.28.38c1,1.1-4.27,2.44-5.29,1.34C408.87,389,408.53,387.9,410.64,386.87Z"/><path class="cls-55" d="M409.11,459.84a14.64,14.64,0,0,1,3.79-1.08l1.59-.25h0c1.77-1.19,6.28-.9,4.75.42-1.11,1-3.36,1.37-5.61,1.73l-.53.09h0c0,.09-.07.22,0,.33a2,2,0,0,0,.28.38c1,1.1-4.27,2.44-5.29,1.34C407.34,462,407,460.87,409.11,459.84Z"/><path class="cls-55" d="M346.44,336.57a117.75,117.75,0,0,0,11.87,2.49c3.1.51,0,2.32-3.12,1.82a123.51,123.51,0,0,1-12.94-2.79C339.57,337.37,343.79,335.85,346.44,336.57Z"/><path class="cls-55" d="M372.06,338.43a120.51,120.51,0,0,0,11.87,2.5c3.1.5,0,2.31-3.12,1.81A126.18,126.18,0,0,1,367.87,340C365.19,339.23,369.41,337.71,372.06,338.43Z"/><path class="cls-55" d="M281.75,322.93a59.78,59.78,0,0,0,7-2c3.05-1.08,6.12.19,3.06,1.27a68.25,68.25,0,0,1-8.3,2.38c-1.46.32-3,.31-3.53-.17S280.28,323.25,281.75,322.93Z"/><path class="cls-55" d="M230.43,384.56c2.29-.87,3.71-1.88,4.21-2.93.64-1.36,6.09-1.65,5.45-.29-.76,1.58-3.15,3.19-6.59,4.49C230.53,387,227.47,385.69,230.43,384.56Z"/><path class="cls-55" d="M197.57,388.18c2.3-.87,3.71-1.88,4.21-2.93.65-1.36,6.1-1.65,5.45-.29-.75,1.58-3.14,3.18-6.59,4.49C197.68,390.58,194.62,389.3,197.57,388.18Z"/><path class="cls-55" d="M217.85,417.52c1.3-.33,3.23-.32,3.53.17a7,7,0,0,1,1.2,3.9c0,1.29-5.58,2.15-5.57.85a6.15,6.15,0,0,0-.92-3.42C215.78,418.53,216.31,417.92,217.85,417.52Z"/><path class="cls-55" d="M214.61,458.44c1.29-.34,3.22-.33,3.53.16a7.09,7.09,0,0,1,1.2,3.91c0,1.29-5.58,2.14-5.57.84a6.11,6.11,0,0,0-.92-3.41C212.54,459.45,213.07,458.83,214.61,458.44Z"/><path class="cls-55" d="M208.89,351.68c.62-1.36,6.07-1.65,5.45-.3-1.07,2.34-5.63,5.29-4.12,7.36.83,1.14-4.46,2.48-5.29,1.34C203.06,357.5,207.58,354.55,208.89,351.68Z"/><path class="cls-55" d="M400.48,405.18a49.53,49.53,0,0,1,3.61-7.73c.79-1.36,6.24-1.66,5.45-.29a48.54,48.54,0,0,0-3.61,7.72C405.44,406.23,400,406.52,400.48,405.18Z"/><path class="cls-55" d="M416.83,432.55a48.62,48.62,0,0,1,3.62-7.72c.78-1.36,6.23-1.66,5.45-.29a48.62,48.62,0,0,0-3.62,7.72C421.79,433.6,416.35,433.89,416.83,432.55Z"/><path class="cls-55" d="M379.27,566.86c2.93-.36,5.87-.81,8.74-1.4,1.49-.31,3-.32,3.53.16s-.29,1.21-1.76,1.51c-3.39.7-6.75,1.27-10.21,1.7S375.68,567.3,379.27,566.86Z"/><path class="cls-55" d="M417.41,576.74l14.15-3.17c2.78-.62,1.64,2.21-1.16,2.84l-14.15,3.17C413.47,580.2,414.61,577.37,417.41,576.74Z"/><path class="cls-55" d="M443.91,590.73a14.64,14.64,0,0,1,3.79-1.08l1.59-.25h0c1.77-1.19,6.28-.9,4.75.42-1.11,1-3.36,1.37-5.61,1.73l-.53.09h0c0,.09-.07.22,0,.33a2,2,0,0,0,.28.38c1,1.1-4.27,2.44-5.29,1.34C442.14,592.84,441.79,591.76,443.91,590.73Z"/><path class="cls-55" d="M379.7,540.43a117.38,117.38,0,0,0,11.88,2.49c3.09.51,0,2.32-3.13,1.82A123.51,123.51,0,0,1,375.51,542C372.83,541.23,377.05,539.71,379.7,540.43Z"/><path class="cls-55" d="M405.33,542.29a119.3,119.3,0,0,0,11.87,2.5c3.09.5,0,2.32-3.13,1.81a126,126,0,0,1-12.93-2.78C398.46,543.09,402.67,541.57,405.33,542.29Z"/><path class="cls-55" d="M450.09,636.41a49.52,49.52,0,0,1,3.62-7.72c.78-1.36,6.24-1.66,5.45-.29a49.52,49.52,0,0,0-3.62,7.72C455.06,637.46,449.61,637.75,450.09,636.41Z"/><path class="cls-56" d="M303.9,454.11l3.94-2-5.93-11.55a3.83,3.83,0,1,1,6.81-3.49l7,13.55a3.71,3.71,0,0,1,.35,1,3.15,3.15,0,0,1-1.44,4.06l-7.82,4a3.15,3.15,0,1,1-2.87-5.61Z"/><path class="cls-49" d="M170.57,668.05c-4.95,68.3,4.83,64.37,19.47,65.43s28.6,6.72,33.56-61.59-2.9-124.53-17.55-125.59S175.53,599.74,170.57,668.05Z"/><path class="cls-50" d="M170.57,668.05c-4.95,68.3,4.83,64.37,19.47,65.43s28.6,6.72,33.56-61.59"/><circle class="cls-49" cx="408.5" cy="554.63" r="45.68"/><path class="cls-49" d="M496.33,621.5c25,63.74,14.51,62.9.85,68.26s-25.32,14.91-50.34-48.84-34.23-119.77-20.57-125.13S471.3,557.75,496.33,621.5Z"/><path class="cls-50" d="M496.33,621.5c25,63.74,14.51,62.9.85,68.26s-25.32,14.91-50.34-48.84"/><polygon class="cls-57" points="463.68 775.36 256.23 806.88 247.41 748.86 453.71 718.51 463.68 775.36"/><rect class="cls-57" x="417.55" y="740.85" width="52.55" height="157.48" rx="13.29" ry="13.29" transform="translate(-118.11 75.99) rotate(-8.64)"/><rect class="cls-57" x="261.91" y="764.5" width="52.55" height="157.48" rx="13.29" ry="13.29" transform="translate(-123.43 52.87) rotate(-8.64)"/><rect class="cls-58" x="247.57" y="733.55" width="209.29" height="13.34" transform="translate(-107.22 61.33) rotate(-8.64)"/><rect class="cls-59" x="340.48" y="734.74" width="26.23" height="13.34" transform="translate(-107.39 61.55) rotate(-8.64)"/><circle class="cls-60" cx="344.97" cy="742.27" r="0.94"/><circle class="cls-60" cx="373.04" cy="738" r="0.94"/><circle class="cls-60" cx="333.5" cy="744.01" r="0.94"/><circle class="cls-60" cx="321.02" cy="745.91" r="0.94"/><circle class="cls-60" cx="310.1" cy="747.57" r="0.94"/><circle class="cls-60" cx="297.63" cy="749.47" r="0.94"/><circle class="cls-60" cx="286.71" cy="751.13" r="0.94"/><circle class="cls-60" cx="277.35" cy="752.55" r="0.94"/><circle class="cls-60" cx="266.43" cy="754.21" r="0.94"/><circle class="cls-60" cx="255.51" cy="755.87" r="0.94"/><circle class="cls-61" cx="361.61" cy="739.74" r="0.94"/><rect class="cls-59" x="361.46" y="739.02" width="5.32" height="0.34" rx="0.07" ry="0.07" transform="translate(-106.93 63.1) rotate(-8.64)"/><path class="cls-62" d="M495.37,667.73l32.22-17.44s16-20.39,20.26-24.22,38.79-28.24,38.79-28.24"/><path class="cls-63" d="M302.11,503c10.88-4.51,20.42-5.28,27.51-3.85l-.49.06.47-.06c.94,6.14-6.61,7.9-12.75,8.84s-13.79,1.13-14.74-5Z"/><path class="cls-64" d="M330.74,500c.12,6.86-9.51,8.32-13.73,9-9.12,1.39-14.41-.29-15.74-5m0,0c3.58-5.56,20.09-7.57,28.37-6h0a1.66,1.66,0,0,1,.95,1.27l.11.71m-27.27,3.34a.19.19,0,0,0-.11.23c1.17,3.37,5.64,4.48,13.33,3.31,8.25-1.25,11.91-3.3,11.94-6.75a.2.2,0,0,0-.16-.19C321.07,498.66,312.27,499.85,303.47,503.31Z"/><path class="cls-64" d="M301.17,504l.1,0-.09-.06c3.59-5.56,20-7.64,28.48-6l.07,0a1.77,1.77,0,0,1,1,1.34l.11.71-.11,0h.11c.11,7-9.65,8.45-13.82,9.08C307.86,510.43,302.52,508.73,301.17,504Zm29.36-4.7a1.56,1.56,0,0,0-.91-1.19,48.22,48.22,0,0,0-15.91.29c-6.23,1.11-10.72,3.14-12.33,5.58,1.34,4.61,6.6,6.25,15.61,4.88,4.12-.62,13.75-2.09,13.65-8.85Zm-27.27,4.31a.3.3,0,0,1,.17-.37c8.78-3.45,17.68-4.65,25.06-3.4h0a.3.3,0,0,1,.25.29c0,3.53-3.63,5.58-12,6.85C309,508.13,304.45,507,303.26,503.58Zm.25-.18a.09.09,0,0,0-.05.11c1.07,1.3,5.23,1.32,12.84.28,8.25-1.13,12.14-2.07,12.22-3.69a.07.07,0,0,0-.06-.08h0c-3.46,0-7.5,2.12-12.42,2.18C312.22,503.4,307.93,502.93,303.51,503.4Z"/><rect class="cls-51" x="359.72" y="559.67" width="50.78" height="13.19" transform="translate(-80.71 64.29) rotate(-8.64)"/><image width="596" height="439" transform="translate(392.26 558.97) rotate(-8.64) scale(0.03)" xlink:href="../../Desktop/Screenshot 2018-10-24 at 10.43.09.png"/><text class="cls-65" transform="translate(364.98 568.92) rotate(-8.64)">Britta Nielsen</text><text class="cls-66" transform="translate(367.3 571.12) rotate(-8.64)">Socialstyrelsen</text><g id="GF98hY.tif"><path class="cls-67" d="M368.11,574.66s-.13,0-.11-.1,0-.11.13-.11.25-.15.16-.3l-.42-.68c.22-.08.23-.08.34.11l.21.36c0-.17.07-.31.09-.46s.07-.15.18-.16.08,0,.07.08c-.08.34-.17.68-.25,1a.36.36,0,0,1-.19.21Z"/><path class="cls-68" d="M361.47,572.73a.09.09,0,0,1,0,.14s-.09,0-.13,0v-.09C361.38,572.72,361.41,572.7,361.47,572.73Z"/><path class="cls-69" d="M361.32,572.56s.09-.07.14,0,0,.09,0,.14-.09,0-.12,0Z"/><path class="cls-70" d="M361.34,572.66a.17.17,0,0,0,.12,0v.06a.16.16,0,0,0-.11,0Z"/><path class="cls-67" d="M362.3,574a.5.5,0,0,1,.24,0s.14,0,.1.1,0,.15-.16.1a.36.36,0,0,0-.15,0c-.07,0-.14,0-.15.13s.07.09.13.1l.25.08a.31.31,0,0,1,.22.32.33.33,0,0,1-.22.32.66.66,0,0,1-.44,0c-.05,0-.13,0-.09-.12s.05-.14.15-.09a.3.3,0,0,0,.26,0,.13.13,0,0,0,.09-.13s0-.08-.1-.1l-.19-.05c-.22-.07-.32-.18-.31-.37S362.08,574,362.3,574Z"/><path class="cls-67" d="M363.74,574.51a.42.42,0,0,1-.38.5.41.41,0,0,1-.49-.38.43.43,0,0,1,.37-.5A.41.41,0,0,1,363.74,574.51Z"/><path class="cls-67" d="M365.87,574.26l0,.13c0,.21,0,.21-.19.21l-.11,0a.28.28,0,1,1-.22-.51l.15,0s.08,0,.08-.05-.05-.06-.09-.07a.22.22,0,0,0-.19,0c-.09.06-.13,0-.16-.06s0-.09.08-.11a.56.56,0,0,1,.36-.06.23.23,0,0,1,.23.21l0,.25Z"/><path class="cls-67" d="M370.08,573.61l-.14,0s-.11,0-.11,0,.05.1.1.12a.3.3,0,0,0,.25,0c.08,0,.11,0,.15,0s0,.09-.06.12a.44.44,0,0,1-.71-.35.4.4,0,0,1,.37-.45.37.37,0,0,1,.42.36c0,.07,0,.1-.07.11Z"/><path class="cls-67" d="M371.71,573.3a.4.4,0,0,1,.38-.51.39.39,0,0,1,.4.4c0,.07-.05.06-.09.07l-.36.06s-.08,0-.08,0,0,.06.05.08a.24.24,0,0,0,.3,0c.07,0,.11,0,.16,0s0,.1-.08.12C372.06,573.77,371.76,573.64,371.71,573.3Z"/><path class="cls-67" d="M373.41,573.13a1.25,1.25,0,0,0,0,.19c0,.08,0,.14-.09.15s-.15,0-.16-.12,0-.24-.05-.37-.06-.14-.16-.12-.14.06-.11.17,0,.28.06.41,0,.1-.1.11-.12,0-.13-.07-.07-.44-.1-.66.06-.12.12-.1a.31.31,0,0,0,.21-.05.3.3,0,0,1,.44.24,1.7,1.7,0,0,1,0,.22Z"/><path class="cls-71" d="M367.72,574.35a.26.26,0,0,1-.34-.24,2.34,2.34,0,0,1,0-.26c0-.06,0-.13-.11-.11s-.06,0-.07-.08,0-.1,0-.1.1-.07.08-.14,0-.11.12-.13.12,0,.12.1,0,.12.13.09.13,0,.14.09,0,.1-.11.11-.12,0-.1.12a2.17,2.17,0,0,1,0,.25c0,.07.07.12.13.09s.14,0,.15.09-.06.08-.11.1Z"/><path class="cls-67" d="M371.27,572.91h.15s.09,0,.07.09,0,.1-.1.09-.2-.06-.22,0,.13.09.21.11.23.11.22.27-.1.22-.23.26a.65.65,0,0,1-.31,0s-.11,0-.08-.09,0-.12.12-.09l0,0c.08,0,.19,0,.21-.08s-.1-.08-.17-.1-.28-.13-.27-.27S371,573,371.27,572.91Z"/><path class="cls-72" d="M366.81,574.49a.58.58,0,0,1-.23,0s-.1,0-.08-.08,0-.12.12-.1a.3.3,0,0,0,.21,0,.07.07,0,0,0,.05-.07.06.06,0,0,0-.05-.06l-.22-.06a.22.22,0,0,1-.17-.2.23.23,0,0,1,.13-.24.55.55,0,0,1,.38,0s.09,0,.07.07,0,.11-.1.1a.29.29,0,0,0-.16,0,.1.1,0,0,0-.08.07s0,.06.07.07l.14,0c.13,0,.23.1.24.26s-.08.23-.25.27Z"/><path class="cls-72" d="M364.37,574.86a.44.44,0,0,1-.48-.2.47.47,0,0,1,0-.52.51.51,0,0,1,.52-.14s.09,0,.06.08,0,.12-.12.1-.31.05-.32.2a.27.27,0,0,0,.11.25.23.23,0,0,0,.26,0c.09-.07.14,0,.18.06s-.06.09-.1.12A.77.77,0,0,1,364.37,574.86Z"/><path class="cls-73" d="M366.25,573.93c0,.17.05.34.08.51s0,.1-.1.11-.13,0-.14-.07c0-.35-.1-.69-.16-1,0-.1.05-.09.12-.11s.11,0,.12.08S366.22,573.75,366.25,573.93Z"/><path class="cls-73" d="M370.48,573.27c0-.17,0-.34-.07-.51s0-.1.1-.11.13,0,.15.08c0,.34.1.69.15,1,0,.11-.05.1-.12.11s-.11,0-.13-.07S370.51,573.44,370.48,573.27Z"/><path class="cls-71" d="M369.47,573.21c0,.1,0,.18-.13.21a.17.17,0,0,0-.14.23c0,.11,0,.23.05.35s-.05.1-.11.11-.12,0-.13-.08a6.17,6.17,0,0,0-.09-.62c0-.14.06-.16.13-.13s.14,0,.21,0A.26.26,0,0,1,369.47,573.21Z"/><path class="cls-74" d="M364.73,574.36c0-.11,0-.21-.05-.32s0-.11.1-.12.13,0,.14.08.06.43.1.64,0,.1-.1.11-.14,0-.15-.07S364.74,574.47,364.73,574.36Z"/><path class="cls-71" d="M364.88,573.67a.13.13,0,0,1-.12.16.12.12,0,0,1-.14-.12.11.11,0,0,1,.11-.14A.11.11,0,0,1,364.88,573.67Z"/><path class="cls-75" d="M362.37,571.84l.07.08a.12.12,0,0,1,0,.13.11.11,0,0,1-.14,0,.1.1,0,0,1-.06-.15C362.25,571.86,362.28,571.81,362.37,571.84Z"/><path class="cls-76" d="M362.56,572.67a.1.1,0,0,1-.1.12.1.1,0,0,1-.13-.09.11.11,0,0,1,.09-.13C362.49,572.55,362.54,572.59,362.56,572.67Z"/><path class="cls-77" d="M362.05,572.78c0,.08,0,.11-.1.12s-.09,0-.1-.09,0-.1.08-.11A.09.09,0,0,1,362.05,572.78Z"/><path class="cls-78" d="M363.05,572.62c0,.08,0,.12-.1.13s-.09,0-.1-.1a.1.1,0,0,1,.08-.11A.11.11,0,0,1,363.05,572.62Z"/><path class="cls-79" d="M362.42,572.33c.07,0,.09,0,.08.12a.1.1,0,0,1-.09.08.09.09,0,0,1-.1-.06c0-.06,0-.11.06-.13S362.4,572.32,362.42,572.33Z"/><path class="cls-77" d="M362.61,573a.1.1,0,0,1-.1-.09.09.09,0,0,1,.08-.11.09.09,0,0,1,.11.09C362.71,573,362.67,573,362.61,573Z"/><path class="cls-80" d="M362.37,573.05c-.06,0-.1,0-.1-.09a.08.08,0,0,1,.08-.1.09.09,0,0,1,.11.08A.12.12,0,0,1,362.37,573.05Z"/><path class="cls-81" d="M362.12,572.92a.09.09,0,0,1,.09.08c0,.06,0,.09-.08.1a.09.09,0,0,1-.1-.09S362.06,572.93,362.12,572.92Z"/><path class="cls-82" d="M362.86,573c-.05,0-.09,0-.1-.08s0-.1.09-.1.08,0,.09.09S362.9,573,362.86,573Z"/><path class="cls-83" d="M362.49,573.11c.07,0,.11,0,.12.06a.1.1,0,0,1-.07.11.09.09,0,0,1-.11-.06A.1.1,0,0,1,362.49,573.11Z"/><path class="cls-84" d="M363.1,573a.09.09,0,0,1-.12-.08.08.08,0,0,1,.08-.09.08.08,0,0,1,.1.07A.08.08,0,0,1,363.1,573Z"/><path class="cls-76" d="M362.39,573.22a.09.09,0,0,1-.09.11.07.07,0,0,1-.08-.08c0-.06,0-.09.08-.1A.1.1,0,0,1,362.39,573.22Z"/><path class="cls-85" d="M361.85,572.18c.06,0,.1,0,.1.08a.08.08,0,0,1-.08.09.08.08,0,0,1-.09-.07A.11.11,0,0,1,361.85,572.18Z"/><path class="cls-86" d="M363.28,573.15c0,.06,0,.09-.08.1s-.08,0-.09-.06a.08.08,0,0,1,.07-.1A.08.08,0,0,1,363.28,573.15Z"/><path class="cls-87" d="M363,573.08c.06,0,.1,0,.11.06a.08.08,0,0,1-.07.1c-.06,0-.09,0-.1-.06S362.91,573.1,363,573.08Z"/><path class="cls-88" d="M362.84,573.18a.1.1,0,0,1-.09.08.09.09,0,0,1-.09-.08c0-.06,0-.09.08-.09S362.83,573.11,362.84,573.18Z"/><path class="cls-89" d="M361.7,572.35c.05,0,.09,0,.09.08s0,.07-.06.08-.09,0-.1-.06S361.65,572.36,361.7,572.35Z"/><path class="cls-90" d="M363.49,572.28a.07.07,0,0,1-.07.09.07.07,0,0,1-.09,0,.08.08,0,0,1,.16,0Z"/><path class="cls-86" d="M363.12,572.42c0,.06,0,.09-.07.09s-.08,0-.09-.07,0-.09.07-.09S363.11,572.37,363.12,572.42Z"/><path class="cls-88" d="M361.92,573.17c-.06,0-.09,0-.09-.08a.08.08,0,0,1,.07-.1.09.09,0,0,1,.1.08A.09.09,0,0,1,361.92,573.17Z"/><path class="cls-91" d="M363.39,572.81c-.05,0-.09,0-.1-.08a.07.07,0,0,1,.06-.09.09.09,0,0,1,.11.06A.1.1,0,0,1,363.39,572.81Z"/><path class="cls-89" d="M361.59,573.08s-.1,0-.1-.08,0-.08.07-.09a.07.07,0,0,1,.09.06S361.63,573.06,361.59,573.08Z"/><path class="cls-86" d="M363.43,572.43c.07,0,.09,0,.09.08s0,.07-.07.08-.09,0-.09-.07S363.39,572.44,363.43,572.43Z"/><path class="cls-78" d="M362.42,572.33h-.05s0,0,0-.05a.08.08,0,0,1,0-.13.06.06,0,0,1,.1,0,.08.08,0,0,1,0,.13S362.4,572.31,362.42,572.33Z"/><path class="cls-92" d="M362.11,572.16a.08.08,0,0,1,.09.09c0,.06,0,.08-.09.09s-.07,0-.08-.08A.09.09,0,0,1,362.11,572.16Z"/><path class="cls-93" d="M363.35,572.11c0,.06,0,.09-.08.1a.07.07,0,0,1-.09-.05s0-.09.06-.1A.09.09,0,0,1,363.35,572.11Z"/><path class="cls-84" d="M363,572.14s0,.05-.08.06-.08,0-.09-.08a.06.06,0,0,1,.06-.08S362.94,572,363,572.14Z"/><path class="cls-94" d="M362.06,573.21c.06,0,.1,0,.11.07a.09.09,0,0,1-.06.1.09.09,0,0,1-.11-.06C362,573.26,362,573.24,362.06,573.21Z"/><path class="cls-95" d="M362.37,571.84a.23.23,0,0,0-.14.09l-.07,0a.35.35,0,0,0,.06-.17h0a.15.15,0,0,1,.15-.06v0a.15.15,0,0,1,0,.16Z"/><path class="cls-96" d="M361.89,572.61a.09.09,0,0,1-.08.09.08.08,0,0,1-.09-.06.07.07,0,0,1,.06-.1C361.83,572.52,361.87,572.55,361.89,572.61Z"/><path class="cls-88" d="M362.65,572.25a.08.08,0,0,1-.1-.06.08.08,0,0,1,.07-.1.07.07,0,0,1,.09.06S362.72,572.25,362.65,572.25Z"/><path class="cls-97" d="M361.78,573.17c0,.06,0,.08-.08.09a.08.08,0,0,1-.08-.08s0-.08.07-.08S361.77,573.12,361.78,573.17Z"/><path class="cls-98" d="M361.49,572.32c.06,0,.09,0,.09.08s0,.08-.08.09a.08.08,0,0,1-.08-.07C361.42,572.36,361.44,572.33,361.49,572.32Z"/><path class="cls-99" d="M362.37,571.65c0,.06-.09.05-.15.06s-.06-.13,0-.16S362.37,571.58,362.37,571.65Z"/><path class="cls-83" d="M362.22,571.71c.07.09.07.16-.06.17S362.1,571.73,362.22,571.71Z"/><path class="cls-76" d="M361.84,573.29c.07,0,.11,0,.12.07a.09.09,0,0,1-.07.09c-.06,0-.09,0-.1-.08A.07.07,0,0,1,361.84,573.29Z"/><path class="cls-68" d="M363.29,572.86a.07.07,0,0,1,.09,0,.08.08,0,0,1-.06.1.08.08,0,0,1-.1-.07C363.21,572.89,363.24,572.86,363.29,572.86Z"/><path class="cls-69" d="M363.15,572.21a.07.07,0,0,1-.06.09.08.08,0,0,1-.1,0c0-.06,0-.1.07-.1A.07.07,0,0,1,363.15,572.21Z"/><path class="cls-68" d="M362.37,571.84a.18.18,0,0,1,0-.16c.06,0,.13,0,.13.08S362.43,571.84,362.37,571.84Z"/><path class="cls-100" d="M363.5,574.54c0,.14,0,.25-.15.27s-.22-.07-.24-.22.05-.25.16-.26S363.48,574.4,363.5,574.54Z"/><path class="cls-101" d="M365.54,574.26s.09,0,.11.07,0,.14-.13.16a.11.11,0,0,1-.15-.08C365.35,574.35,365.42,574.28,365.54,574.26Z"/><path class="cls-102" d="M369.79,573.49a.17.17,0,0,1,.13-.19.13.13,0,0,1,.15,0s.07.1,0,.12Z"/><path class="cls-102" d="M371.93,573.17c0-.12.05-.18.14-.2a.12.12,0,0,1,.15.06c0,.05,0,.09,0,.1Z"/></g><g id="GF98hY.tif-2" data-name="GF98hY.tif"><path class="cls-67" d="M370.24,574.33s-.13,0-.1-.09,0-.12.12-.11.25-.15.16-.3l-.42-.68c.22-.09.23-.08.34.1l.21.37c0-.17.07-.32.09-.46s.07-.15.18-.16.08,0,.07.08c-.08.34-.17.67-.25,1a.36.36,0,0,1-.19.21Z"/><path class="cls-68" d="M363.6,572.4s.07.09,0,.14-.08,0-.13,0v-.1A.08.08,0,0,1,363.6,572.4Z"/><path class="cls-69" d="M363.45,572.24s.09-.07.14,0,0,.09,0,.13-.08,0-.12,0Z"/><path class="cls-70" d="M363.47,572.33a.13.13,0,0,0,.12,0v.06a.16.16,0,0,0-.11.05Z"/><path class="cls-67" d="M364.43,573.65a.4.4,0,0,1,.24,0c.05,0,.14,0,.1.09s0,.16-.16.11a.25.25,0,0,0-.15,0,.14.14,0,0,0-.15.12c0,.08.07.09.13.11l.25.07a.31.31,0,0,1,.22.32.32.32,0,0,1-.22.32.61.61,0,0,1-.44,0c-.05,0-.13,0-.09-.11s0-.14.15-.09a.33.33,0,0,0,.26,0,.14.14,0,0,0,.09-.13c0-.06-.05-.09-.1-.1l-.19-.06c-.22-.06-.32-.18-.31-.36S364.21,573.68,364.43,573.65Z"/><path class="cls-67" d="M365.87,574.19a.44.44,0,1,1-.87.12.43.43,0,0,1,.37-.5A.41.41,0,0,1,365.87,574.19Z"/><path class="cls-67" d="M368,573.94l0,.12c0,.21,0,.21-.19.22,0,0-.07,0-.11.05a.29.29,0,0,1-.4-.11.28.28,0,0,1,.18-.4l.15,0s.08,0,.08-.06-.05-.05-.09-.06a.25.25,0,0,0-.19,0c-.09.07-.13,0-.16-.05s0-.09.08-.11a.63.63,0,0,1,.36-.07.25.25,0,0,1,.23.21l0,.26Z"/><path class="cls-67" d="M372.21,573.29l-.14,0s-.11,0-.11.05.05.09.11.11a.26.26,0,0,0,.24,0c.08,0,.11,0,.15.05s0,.09-.06.11a.44.44,0,0,1-.71-.35.4.4,0,0,1,.37-.45.38.38,0,0,1,.42.37c0,.07,0,.1-.07.1Z"/><path class="cls-67" d="M373.84,573a.4.4,0,0,1,.38-.51.39.39,0,0,1,.4.39c0,.08-.05.07-.09.08l-.36,0s-.08,0-.08,0,0,.06.05.08a.25.25,0,0,0,.3,0c.07,0,.12,0,.16,0s0,.11-.08.13C374.19,573.45,373.89,573.32,373.84,573Z"/><path class="cls-67" d="M375.54,572.81a1.13,1.13,0,0,0,0,.18c0,.08,0,.14-.09.16s-.15,0-.16-.12,0-.25-.05-.37-.06-.15-.16-.13a.13.13,0,0,0-.11.18c0,.13,0,.27.06.41s0,.1-.1.11-.12,0-.13-.08-.07-.44-.1-.65.06-.12.12-.11.14,0,.21,0a.29.29,0,0,1,.44.23,1.85,1.85,0,0,1,0,.23Z"/><path class="cls-71" d="M369.85,574c-.2,0-.31,0-.34-.23s0-.18,0-.26,0-.13-.11-.11-.06,0-.07-.08,0-.1,0-.11.1-.07.08-.14,0-.11.12-.12.12,0,.12.09.05.13.14.1.12,0,.13.08-.05.11-.11.11-.12,0-.1.13a2,2,0,0,1,0,.24c0,.08.07.12.13.1s.14,0,.15.08-.06.09-.11.11Z"/><path class="cls-67" d="M373.4,572.59h.15s.1,0,.07.08,0,.1-.1.09-.2,0-.22.06.13.08.21.11.23.11.22.26a.27.27,0,0,1-.23.27.65.65,0,0,1-.31,0s-.11,0-.08-.1,0-.12.12-.08h0c.08,0,.19,0,.21-.08s-.1-.08-.17-.09-.28-.13-.27-.27S373.17,572.62,373.4,572.59Z"/><path class="cls-72" d="M368.94,574.16a.44.44,0,0,1-.23,0s-.1,0-.08-.08,0-.13.12-.1a.38.38,0,0,0,.21,0,.08.08,0,0,0,.05-.07s0,0-.05-.06l-.22-.06a.23.23,0,0,1-.17-.2.25.25,0,0,1,.13-.25.56.56,0,0,1,.38-.05s.09,0,.07.08,0,.11-.1.09a.43.43,0,0,0-.16,0,.1.1,0,0,0-.08.07s0,.05.07.06l.14,0a.27.27,0,0,1,.24.25c0,.14-.08.23-.25.28Z"/><path class="cls-72" d="M366.5,574.53a.42.42,0,0,1-.48-.2.47.47,0,0,1,0-.52.51.51,0,0,1,.52-.13s.09,0,.06.08,0,.11-.12.1-.31,0-.32.2a.25.25,0,0,0,.11.24.21.21,0,0,0,.26,0c.09-.07.14,0,.18.05s-.06.1-.1.12A.42.42,0,0,1,366.5,574.53Z"/><path class="cls-73" d="M368.38,573.6c0,.17.05.35.08.52s0,.1-.1.11-.13,0-.14-.08c-.05-.34-.1-.69-.16-1,0-.11.05-.1.12-.11s.11,0,.12.07S368.35,573.43,368.38,573.6Z"/><path class="cls-73" d="M372.62,572.94c0-.17-.05-.33-.08-.5s0-.1.1-.11.13,0,.15.07c0,.35.1.69.15,1,0,.11-.05.1-.12.11s-.11,0-.13-.07S372.64,573.12,372.62,572.94Z"/><path class="cls-71" d="M371.6,572.89c0,.1,0,.18-.13.2a.18.18,0,0,0-.14.24c0,.11,0,.23.06.35s-.06.09-.12.11-.12,0-.13-.08-.05-.42-.09-.63.06-.15.13-.13.14,0,.21,0A.26.26,0,0,1,371.6,572.89Z"/><path class="cls-74" d="M366.86,574c0-.11,0-.22-.05-.32s0-.11.1-.13.13,0,.14.09.06.42.1.64,0,.1-.1.11-.14,0-.15-.07S366.87,574.14,366.86,574Z"/><path class="cls-71" d="M367,573.34c0,.1,0,.15-.12.16s-.13,0-.14-.12a.12.12,0,0,1,.11-.14C366.94,573.23,367,573.26,367,573.34Z"/><path class="cls-75" d="M364.5,571.52l.07.08a.12.12,0,0,1,0,.13.11.11,0,0,1-.14,0,.1.1,0,0,1-.06-.15C364.38,571.53,364.41,571.48,364.5,571.52Z"/><path class="cls-76" d="M364.69,572.34c0,.07,0,.11-.1.13a.1.1,0,0,1-.13-.09.12.12,0,1,1,.23,0Z"/><path class="cls-77" d="M364.18,572.46a.09.09,0,0,1-.1.11c-.06,0-.09,0-.1-.09s0-.1.08-.11A.1.1,0,0,1,364.18,572.46Z"/><path class="cls-78" d="M365.18,572.3c0,.08,0,.11-.1.12s-.09,0-.1-.09a.09.09,0,0,1,.08-.11A.1.1,0,0,1,365.18,572.3Z"/><path class="cls-79" d="M364.55,572a.08.08,0,0,1,.08.11.09.09,0,0,1-.09.08.09.09,0,0,1-.1-.06s0-.11.06-.12S364.53,572,364.55,572Z"/><path class="cls-77" d="M364.74,572.69a.1.1,0,0,1-.1-.08.09.09,0,0,1,.08-.11c.06,0,.11,0,.11.08S364.8,572.67,364.74,572.69Z"/><path class="cls-80" d="M364.5,572.73c-.06,0-.1,0-.1-.09a.09.09,0,0,1,.08-.11.1.1,0,0,1,.11.09A.13.13,0,0,1,364.5,572.73Z"/><path class="cls-81" d="M364.25,572.6c.05,0,.08,0,.09.08s0,.08-.08.09a.08.08,0,0,1-.1-.08Q364.16,572.62,364.25,572.6Z"/><path class="cls-82" d="M365,572.66a.1.1,0,0,1-.1-.08.08.08,0,0,1,.09-.09c.06,0,.08,0,.09.08S365,572.65,365,572.66Z"/><path class="cls-83" d="M364.62,572.78c.07,0,.11,0,.12.07a.08.08,0,0,1-.07.1.09.09,0,0,1-.11-.06A.11.11,0,0,1,364.62,572.78Z"/><path class="cls-84" d="M365.23,572.66c-.08,0-.11,0-.12-.08s0-.08.08-.09a.09.09,0,0,1,.1.08A.07.07,0,0,1,365.23,572.66Z"/><path class="cls-76" d="M364.52,572.89c0,.07,0,.11-.09.11s-.08,0-.08-.08,0-.08.08-.09A.07.07,0,0,1,364.52,572.89Z"/><path class="cls-85" d="M364,571.86c.06,0,.1,0,.1.08a.08.08,0,0,1-.08.09.08.08,0,0,1-.09-.07A.1.1,0,0,1,364,571.86Z"/><path class="cls-86" d="M365.41,572.82c0,.06,0,.1-.07.1a.08.08,0,0,1-.1-.06c0-.05,0-.08.07-.1A.09.09,0,0,1,365.41,572.82Z"/><path class="cls-87" d="M365.08,572.75c.06,0,.1,0,.11.07a.08.08,0,0,1-.07.1c-.06,0-.09,0-.1-.06A.09.09,0,0,1,365.08,572.75Z"/><path class="cls-88" d="M365,572.85a.09.09,0,0,1-.09.08c-.05,0-.08,0-.09-.08a.09.09,0,0,1,.08-.09A.09.09,0,0,1,365,572.85Z"/><path class="cls-89" d="M363.83,572c.05,0,.09,0,.09.07a.07.07,0,0,1-.06.09c-.06,0-.09,0-.1-.07S363.78,572,363.83,572Z"/><path class="cls-90" d="M365.62,572a.08.08,0,0,1-.07.1.07.07,0,0,1-.09-.06s0-.08.06-.1S365.61,571.9,365.62,572Z"/><path class="cls-86" d="M365.25,572.1s0,.08-.07.09a.08.08,0,0,1-.09-.07.08.08,0,0,1,.07-.1S365.24,572,365.25,572.1Z"/><path class="cls-88" d="M364.06,572.84a.08.08,0,0,1-.1-.08.07.07,0,0,1,.07-.09.09.09,0,0,1,.1.08A.09.09,0,0,1,364.06,572.84Z"/><path class="cls-91" d="M365.52,572.48a.09.09,0,0,1-.1-.07.07.07,0,0,1,.06-.09s.09,0,.11.06S365.57,572.46,365.52,572.48Z"/><path class="cls-89" d="M363.72,572.76c-.05,0-.09,0-.1-.08a.08.08,0,0,1,.07-.1.09.09,0,0,1,.09.07C363.8,572.7,363.76,572.73,363.72,572.76Z"/><path class="cls-86" d="M365.56,572.1c.07,0,.09,0,.09.08s0,.08-.07.09-.09,0-.09-.08A.08.08,0,0,1,365.56,572.1Z"/><path class="cls-78" d="M364.55,572h-.05s0,0,0-.06-.07-.07,0-.12a.06.06,0,0,1,.1,0s.07.07,0,.12S364.54,572,364.55,572Z"/><path class="cls-92" d="M364.24,571.84a.08.08,0,0,1,.09.08c0,.06,0,.09-.09.09s-.07,0-.08-.08A.09.09,0,0,1,364.24,571.84Z"/><path class="cls-93" d="M365.48,571.79a.09.09,0,0,1-.08.1.07.07,0,0,1-.09,0c0-.05,0-.1.06-.11A.1.1,0,0,1,365.48,571.79Z"/><path class="cls-84" d="M365.09,571.82a.09.09,0,0,1-.08,0c-.05,0-.08,0-.09-.07a.07.07,0,0,1,.06-.09S365.07,571.72,365.09,571.82Z"/><path class="cls-94" d="M364.19,572.89a.09.09,0,0,1,.11.07.08.08,0,0,1-.06.09.09.09,0,0,1-.11,0C364.11,572.94,364.16,572.91,364.19,572.89Z"/><path class="cls-95" d="M364.5,571.52a.27.27,0,0,0-.14.08l-.07,0a.35.35,0,0,0,.06-.18h0a.15.15,0,0,1,.15-.06v0a.15.15,0,0,1,0,.16Z"/><path class="cls-96" d="M364,572.28a.11.11,0,0,1-.08.1.08.08,0,0,1-.09-.06.08.08,0,0,1,.06-.11A.1.1,0,0,1,364,572.28Z"/><path class="cls-88" d="M364.78,571.93s-.09,0-.1-.07,0-.08.07-.1a.08.08,0,0,1,.09.07S364.85,571.92,364.78,571.93Z"/><path class="cls-97" d="M363.91,572.85a.07.07,0,0,1-.08.08.07.07,0,0,1-.08-.07c0-.05,0-.08.07-.09S363.9,572.79,363.91,572.85Z"/><path class="cls-98" d="M363.62,572c.06,0,.09,0,.09.08s0,.08-.08.08a.08.08,0,0,1-.08-.07A.08.08,0,0,1,363.62,572Z"/><path class="cls-99" d="M364.5,571.33s-.09,0-.15.06-.06-.13,0-.16S364.5,571.26,364.5,571.33Z"/><path class="cls-83" d="M364.35,571.38c.07.1.07.16-.06.18S364.23,571.4,364.35,571.38Z"/><path class="cls-76" d="M364,573c.07,0,.11,0,.12.07a.07.07,0,0,1-.07.08.08.08,0,0,1-.1-.07A.07.07,0,0,1,364,573Z"/><path class="cls-68" d="M365.42,572.53s.08,0,.09.06a.08.08,0,0,1-.06.1.08.08,0,0,1-.1-.07S365.37,572.54,365.42,572.53Z"/><path class="cls-69" d="M365.28,571.89a.07.07,0,0,1-.06.09.08.08,0,0,1-.1-.06.08.08,0,0,1,.07-.1C365.24,571.81,365.27,571.84,365.28,571.89Z"/><path class="cls-68" d="M364.5,571.52a.18.18,0,0,1,0-.16c.06,0,.13,0,.13.08S364.56,571.51,364.5,571.52Z"/><path class="cls-100" d="M365.63,574.22c0,.14,0,.25-.15.27s-.22-.08-.24-.23a.22.22,0,0,1,.16-.26A.23.23,0,0,1,365.63,574.22Z"/><path class="cls-101" d="M367.67,573.94c.05,0,.1,0,.11.07s0,.14-.13.16a.12.12,0,0,1-.15-.08C367.48,574,367.55,574,367.67,573.94Z"/><path class="cls-102" d="M371.92,573.17a.18.18,0,0,1,.13-.2.13.13,0,0,1,.15,0c0,.05.07.1,0,.11Z"/><path class="cls-102" d="M374.06,572.84a.16.16,0,0,1,.14-.19.13.13,0,0,1,.15.05c0,.06,0,.1,0,.11Z"/></g><line class="cls-103" x1="260.93" y1="425.67" x2="346.22" y2="408.94"/><line class="cls-103" x1="270.59" y1="426.92" x2="335.28" y2="414.23"/></svg>