<svg id="Layer_1" data-name="Layer 1" xmlns="http://www.w3.org/2000/svg" width="360" height="550" viewBox="0 0 360 550"><defs><style>.cls-1{fill:#010101;}.cls-2{fill:#404040;}.cls-3{fill:#f8f8f8;}.cls-4{fill:#3a3a3a;}.cls-5{fill:#fafafa;}.cls-6{fill:#323232;}.cls-7{fill:#f5f5f5;}.cls-8{fill:#393939;}.cls-9{fill:#fefefe;}.cls-10{fill:#303030;}.cls-11{fill:#060606;}.cls-12{fill:#313131;}.cls-13{fill:#050505;}.cls-14{fill:#444;}.cls-15{fill:#454545;}.cls-16{fill:#3c3c3c;}.cls-17{fill:#363636;}.cls-18{fill:#fbfbfb;}.cls-19{fill:#f2f2f2;}.cls-20{fill:#f9f9f9;}.cls-21{fill:#4b4b4b;}.cls-22{fill:#343434;}.cls-23{fill:#4a4a4a;}.cls-24{fill:#efefef;}.cls-25{fill:#f6f6f6;}.cls-26{fill:#f3f3f3;}.cls-27{fill:#474747;}.cls-28{fill:#3e3e3e;}.cls-29{fill:#3b3b3b;}.cls-30{fill:#373737;}.cls-31{fill:#353535;}.cls-32{fill:#040404;}.cls-33{fill:#f7f7f7;}.cls-34{fill:#4c4c4c;}.cls-35{fill:#333;}.cls-36{fill:#383838;}.cls-37{fill:#fcfcfc;}.cls-38{fill:#090909;}.cls-39{fill:#4e4e4e;}.cls-40{fill:#3f3f3f;}.cls-41{fill:#2f2f2f;}.cls-42{fill:#282828;}.cls-43{fill:#494949;}.cls-44{fill:none;stroke:#010101;stroke-miterlimit:10;stroke-width:8px;}</style></defs><title>By skilt</title><path class="cls-1" d="M343.14,43.31c7.44,2.8,12.79,7.67,15.27,15.38a22.13,22.13,0,0,1,.9,9.89q-6.6,47.91-13.26,95.81A22.86,22.86,0,0,1,320.38,184q-87.27-11.92-174.5-24.08c-.33,0-.65-.15-1-.23a1.64,1.64,0,0,1-.25-.71c.52-1.84,2.27-2.14,3.67-2.83a10.79,10.79,0,0,0,2.1-1.1,2.8,2.8,0,0,1,2-.67c25.64,3.47,51.26,7.06,76.88,10.6q42.78,5.9,85.55,11.82a38.87,38.87,0,0,0,7,.57,7.48,7.48,0,0,1,1.34.07,9.86,9.86,0,0,0,6.22-1.79c6-2.58,8.86-7.39,9.74-13.57,1.9-13.3,3.7-26.61,5.54-39.93q3.68-26.54,7.34-53.07c.84-6.13-.7-11.46-5.43-15.6-3.05-2.69-6.86-3.74-10.78-4.31-10.25-1.47-20.5-2.85-30.75-4.27q-37-5.11-73.91-10.23c-1.72-.24-3.52-.23-5-1.25a1.84,1.84,0,0,1-.45-.82c.06-1.67-.89-3.37.18-5a1.87,1.87,0,0,1,.64-.67,2.12,2.12,0,0,1,2.57.54c.45,1.42,1.75,1.09,2.73,1.23q35.7,5,71.4,9.89l27.52,3.81q-49.49-6.84-99-13.74c-.73-.1-2.19.63-2.19-1.12a11,11,0,0,1,3,.28q50.7,7,101.41,14A58.92,58.92,0,0,1,343.14,43.31Z"/><path class="cls-2" d="M226.35,27.73l-.07,4.52a1.71,1.71,0,0,1-1.38.32,58.44,58.44,0,0,0-6.16-1.11L44.67,7.41c-1.69-.23-3.45-.86-5.08.29a2.1,2.1,0,0,1-.78.29c-2.43.42-5,.31-7.34,1.21-4.93,1.86-8,5.43-9.92,10.23a5.16,5.16,0,0,0-.5,2.05c-4.2,31-8.55,62-12.81,93a28.46,28.46,0,0,0-.38,6c.47,6.37,3.4,11.05,9.35,13.66a11.2,11.2,0,0,1,3.1,1.84c.43.4.65,1,1.31,1.21a19.65,19.65,0,0,0,3.46.63l114.76,15.87a38.84,38.84,0,0,0,7.22.55c1.23.43,3.12-.46,3.49,1.71a31.6,31.6,0,0,1-5.57,3.24A5.78,5.78,0,0,1,142,159q-60.6-8.35-121.19-16.74a8.27,8.27,0,0,0-3-.23,3.25,3.25,0,0,1-2.06-.68c-.07-.21-.19-.26-.38-.13L14.1,141c-.62-.49-1.8,0-2-1.12-.5-.27-1.2-.16-1.51-.79a2.13,2.13,0,0,1-1.27-1.12C4.05,133.27.58,127.72.62,120.44Q6.58,76.73,12.67,33c.71-5.11,1.45-10.23,2.11-15.35,1.81-8.45,10.74-16,19.66-16.49A2.84,2.84,0,0,0,35.85.87c.69-.51,1.34,0,2,.08.54.27,1.13.39,1.69.62,1,.23,2,.33,3,.47Q134,14.68,225.47,27.33A1.52,1.52,0,0,1,226.35,27.73Z"/><path class="cls-3" d="M37.84,1.17l-2-.3c-.17-.41-.93-1.3.3-.92,5.4,1.66,11,1.91,16.53,2.68Q137.07,14.39,221.46,26c1.49.21,3,.38,4.48.57A3.1,3.1,0,0,1,229,27c5.12.74,10.24,1.51,15.37,2.22l88.3,12.21,2.92.4.06-.45L230.21,26.75a4.47,4.47,0,0,1,2.94-.11L337.58,41.06c2.06.28,3.6,1.79,5.56,2.25L231,27.67c-.49-.07-1-.05-1.49-.08-.2.21-.36.19-.48-.07l-2.51-.35a4.34,4.34,0,0,1-2.93.15L40.94,2.07A8.21,8.21,0,0,1,37.84,1.17Z"/><path class="cls-4" d="M14.78,17.68a5.54,5.54,0,0,1,.08,3.2Q8.2,69.12,1.52,117.36a6,6,0,0,1-.9,3.08,15,15,0,0,1,.15-4.73q6.5-47,13-93.94A10,10,0,0,1,14.78,17.68Z"/><path class="cls-5" d="M229,27l-3.09-.38c-1.15-.84-2.54-.77-3.84-1L43.18.85a7.66,7.66,0,0,1-3.7-1l3.36.46Q134,12.93,225.22,25.55C226.56,25.74,228.16,25.42,229,27Z"/><path class="cls-6" d="M17.87,142c1.33-.46,2.64-.07,3.95.12l123.16,17c0,.19,0,.38-.08.57-1.57-.18-3.15-.32-4.72-.54L22.29,142.85C20.8,142.64,19.34,142.29,17.87,142Z"/><path class="cls-7" d="M12.05,139.85l2,1.12C13.29,140.83,11.83,141.86,12.05,139.85Z"/><path class="cls-7" d="M9.27,137.94c.51.28,1.08.49,1.27,1.12C9.72,139.14,9,139.16,9.27,137.94Z"/><path class="cls-8" d="M15.43,141.19c.23-.36.49-.67,1-.49.12.05.18.23.26.35l-.85.27H15.6Z"/><path class="cls-9" d="M20.24,19.09C23.49,11,29.52,7,38.19,6.83,39,6.11,40,6.5,40.83,6.62l182.32,25.2a6.77,6.77,0,0,1,3.06,1c1,.19,2,.43,2.94.57L336.82,48.23c12,1.66,18,9.61,16.32,21.57q-6.4,46.4-12.83,92.78c-1,6.89-4.38,11.95-11.12,14.42-2-.22-3.81.76-5.71,1.18l-1-.05a7.45,7.45,0,0,0-2.66-.63q-81-11.22-162-22.41a14.73,14.73,0,0,0-2-.19,6.31,6.31,0,0,1-1,0c-5.28.45-10.16-1.72-15.27-2.4-37.07-5-74.11-10.27-111.18-15.26-1.44-.19-2.85-.61-4.3.07a2.07,2.07,0,0,1-2.16-.18c-1.36-1.36-3.14-1.27-4.76-1.74-7.2-2.25-11.64-10.66-10.6-18.09q1.89-13.38,3.7-26.77,4.83-35.07,9.65-70.15C19.77,19.9,19.69,19.42,20.24,19.09Z"/><path class="cls-5" d="M17.19,135.41a9.33,9.33,0,0,1,5,.89c1.62.84,3.5-.33,5.38,0,6.83,1.1,13.7,1.95,20.55,2.9l95.65,13.23a12.36,12.36,0,0,1,4.51,1.31c2.14,1.18,4.67-.07,7,.91Q235.75,165.93,316,177L155.22,154.73c.08,0,.15,0,.13-.11,1-.6,2-.34,3.11-.2L319,176.62c1.3.18,2.73.11,3.52,1.51a14.09,14.09,0,0,1-4.71-.36q-81.58-11.25-163.15-22.53c-1-.13-2-.17-3-.25a41.85,41.85,0,0,1-7.42-.54q-60.37-8.3-120.75-16.69c-1.11-.15-2.39.05-3.23-1Z"/><path class="cls-6" d="M226.21,32.77c-1-.08-2-.12-3-.26Q131.94,19.91,40.65,7.27C39.83,7.16,39,7,38.19,6.83l-1-.73a5.19,5.19,0,0,1,2.71.14q91.41,12.62,182.79,25.27a5.4,5.4,0,0,1,2.65.6l1,.14C226.26,32.42,226.24,32.6,226.21,32.77Z"/><path class="cls-10" d="M37.84,1.17c1.08.08,2.16.09,3.23.24Q132.42,14,223.77,26.67c.91.12,1.8.33,2.7.5l-.12.56-.45-.07a5.57,5.57,0,0,1-2.72-.15Q132.3,15,41.4,2.38a5.29,5.29,0,0,1-2.64-.61Z"/><ellipse class="cls-11" cx="236.43" cy="167.48" rx="0.17" ry="114.64" transform="translate(38.15 378.75) rotate(-82.13)"/><path class="cls-12" d="M20.24,136.75c2,.24,4,.47,6,.74l122.26,16.9c1.07.14,2.13.4,3.19.6-.36.3-.72.6-1.09.89-1-.85-2.26-.8-3.45-1a5.53,5.53,0,0,1-2.71-.14q-60.87-8.4-121.72-16.83a5.45,5.45,0,0,1-2.65-.6C19.52,136.91,20,136.86,20.24,136.75Z"/><path class="cls-13" d="M229,27.52l.48.07c1.1.93,2.49.89,3.8,1.07l99.5,13.76,2.69.37,0,.4c-.76-.07-1.51-.11-2.27-.21q-50.73-7-101.48-14.07C230.71,28.78,229.13,29.38,229,27.52Z"/><path class="cls-5" d="M323.48,178.18c-.11-.88.33-1.28,1.16-1.11a1.78,1.78,0,0,0,2-.61c1.2-1.54,1.9-.53,2.57.54A10.28,10.28,0,0,1,323.48,178.18Z"/><path class="cls-14" d="M225.29,32.11,37.14,6.1c.84-.76,1.77-.24,2.63-.12Q130.87,18.55,222,31.16A6.28,6.28,0,0,1,225.29,32.11Z"/><path class="cls-15" d="M38.76,1.77,225.9,27.66a5.93,5.93,0,0,1-3.21.05L41.83,2.7A5.79,5.79,0,0,1,38.76,1.77Z"/><path class="cls-14" d="M20,137.31,147.1,154.88a5.75,5.75,0,0,1-3.21.05L23.1,138.23A5.81,5.81,0,0,1,20,137.31Z"/><ellipse class="cls-16" cx="12.45" cy="69.38" rx="67" ry="0.18" transform="translate(-57.98 72.21) rotate(-82.13)"/><path class="cls-17" d="M20.24,19.09l-.3,1.31c-.18-.54-.49-1.07,0-1.62Z"/><path class="cls-2" d="M83.46,121.81q9.21-7,18.43-14.06a3.68,3.68,0,0,1,1.15-.34c.61.12.75.6.85,1.11,3.45,5.27,7.6,10,11.29,15.13.53.74,1,1.51,1.51,2.27s-.06,1.55-.06,2.25c.22-.5,0-1.23.5-1.71.67,1.47-.4,3,.08,4.45a11.27,11.27,0,0,0,6.12.84c1.07-3.48,1.11-7.13,1.76-10.68.19-1,.09-2.16.78-3.07.22,3.18-.84,6.22-.89,7.9.08-1.67,1.1-4.72.89-7.89l4.78-11.82c.15-.32.2-.69.52-.92a8.54,8.54,0,0,1,1.74-.36,9.66,9.66,0,0,0,8.63-1.73c.51-.38.92-1.05,1.69-.47,1.36,9.28,3.35,18.51,1.26,28-1,4.3-1.32,8.73-1.86,13.12-.18,1.52-.62,2.18-2.33,1.93q-28.73-4-57.47-8c-.85-.12-2,0-1.82-1.45.75-4.76.93-9.61,2.24-14.28.31,3.35-.65,6.57-1,9.84-.59,5-.65,4.88,4.3,5.53,10.65,1.41,21.29,2.92,31.93,4.39l20.29,2.81q-25.39-3.51-50.81-7a11,11,0,0,0-3.23-.24c-3.9-.41-3.08-.39-2.72-3.52C82.42,129.82,83.28,125.86,83.46,121.81Z"/><path d="M251.4,113.61c1.35-1.2,2.2-.85,3.26.61,3.24,4.44,6.67,8.74,10,13.1.77.23,1.4.57,1.19,1.55l1.46,2.47c-1,9.78-2.61,19.47-3.89,29.21-.32,2.4-2.41,2-3.87,1.95a74.3,74.3,0,0,1-7.68-1C246,160.7,240,159.9,234.07,159c-.95-.14-2.34.14-2.32-1.55,1.93-.29,3.79.3,5.67.54,6.19.81,12.36,1.69,18.47,2.54,0,0-.14,0-.25,0-7.86-1.05-15.7-2.23-23.56-3.2-.58.3-1,1.2-1.86.43-.32-2,.28-3.95.54-5.91,1-7.69,2.13-15.37,3.14-23.06a4.19,4.19,0,0,1,1.7-3.09c2.71-2,5.33-4.12,8-6.19l.29.24a1.8,1.8,0,0,1,.18,1.4,1.9,1.9,0,0,1-.31.66,1,1,0,0,0,.25-.4,11.26,11.26,0,0,1,.44-1.58c2.12-1.51,3.69-4,6.7-4.09a2.43,2.43,0,0,1-.22-1.61A1.24,1.24,0,0,1,251.4,113.61Z"/><path d="M190.4,123.89a8.47,8.47,0,0,1,2.79,9.1c-.91,3.88-1.13,7.92-1.75,11.87-.22,1.38.13,2.07,1.57,2.09a4.54,4.54,0,0,1,.74.1c4.33.63,4.37.63,5.07-3.72a3.23,3.23,0,0,1,1.35-2.24c4-3,8-6,12-9.05,1-.78,1.55-.74,2.32.31,2.82,3.83,5.68,7.62,8.62,11.35a4.36,4.36,0,0,1,1,3.89c-.48,2.37-.76,4.77-1.12,7.16-.49,1.62-1.88,1.64-3.19,1.82q-27.43-3.76-54.85-7.6c-.83-.12-2.05.25-2.37-.9s.72-1.8,1.5-2.38a177.56,177.56,0,0,0,23.66-21.19A2,2,0,0,1,190.4,123.89Z"/><path class="cls-2" d="M190.4,123.89c-2.83,2.8-5.64,5.63-8.51,8.39a172.11,172.11,0,0,1-17,14.28c-.53.39-1,.84-2.12,1.77l57.56,8a2,2,0,0,1,2.42.42c-.83.77-1.76.23-2.6.12-22.66-3.14-45.31-6.36-68-9.4-2.64-.36-3-1.26-2.64-3.65,1-5.93,1.84-11.89,2.46-17.86.28-2.8,1.35-4.7,3.87-5.84a5.09,5.09,0,0,0,3.49-2.63c.67-1,1.61-.66,2.5-.54,8.1,1.12,16.18,2.32,24.29,3.3C188.53,120.51,189.3,122.28,190.4,123.89Z"/><path class="cls-2" d="M150.8,58.26l1-2.74c.21-.61.12-1.41,1-1.57,4.86-5.47,11.45-6.36,16.29-2.16a6.55,6.55,0,0,1,.76,1,2.55,2.55,0,0,0,1,1.68.6.6,0,0,1,0-.19.33.33,0,0,1,.26-.31c.54-3.66,1.05-7.31,1.63-11,.12-.77-.11-1.69.73-2.23a1.41,1.41,0,0,0,1.48.16c5.55.39,5.55.39,4.81,5.75-1.4,10.14-2.87,20.27-4.16,30.42-.27,2.15-1,3.05-3.11,2.35a2.08,2.08,0,0,0-.5-.07c-2.21-.19-4.54-.25-3.26-4-2.32,1.4-4.1,2.86-6.49,2.75Q162,78,161.66,78c-1.6-.46-3.2-.89-4.82-.07a1.8,1.8,0,0,1-.73.06c-1.09-.13-1.24-1.11-1.67-1.85l-1-1.21c0-.5-.18-.81-.73-.79-2.27-2.35-2.62-5.39-3-8.41a1.39,1.39,0,0,1,.05-1.11c.14-1.63.87-3.18.64-4.86A2.26,2.26,0,0,1,150.8,58.26Z"/><path class="cls-2" d="M74.15,27.4a11.16,11.16,0,0,1,7.44,1.05c-.09.14-.23.27-.25.42q-2.53,17.64-4.89,35.31a1.45,1.45,0,0,0,.11.48c.07,1.32-.69,1.43-1.74,1.27-1.46-.23-2.93-.37-4.39-.55l-1.36-.24A.49.49,0,0,1,69,64.4c.87-5,1.53-10,2.09-15-.13-1.12-1.1-1-1.83-1.25-4.29-.73-8.54-1.77-12.95-1.55a3.09,3.09,0,0,0-.45.68,71.21,71.21,0,0,0-1.2,9.55,1.27,1.27,0,0,1-.61.64c-2.35,0-4.74.14-6.81-1.32a2,2,0,0,1-.11-.73q2-15.56,4.3-31.07a1.67,1.67,0,0,1,.24-.43,17.29,17.29,0,0,1,7.21.87c-.56,4.57-1.31,9.12-1.84,13.69a2.52,2.52,0,0,0,.31,1.17l13.89,2,.92.06A69.56,69.56,0,0,0,74.15,27.4Z"/><path class="cls-1" d="M302.21,97.93l-4.76-2.2a17.12,17.12,0,0,1-1.13-22c3.37-4.23,8.79-5.72,14.26-3.92,5.14,1.7,8.17,5.89,8.51,11.77,0,.83.09,1.66.14,2.48a1.72,1.72,0,0,1,.35,2.6c-.64,1-1.18,1.93-2.65,1.78-2.4-.25-4.79-.62-7.18-.93-1.57-.2-3.13-.47-4.71-.63-1-.1-2.18-.32-2.61.87s.46,2.2,1.46,2.87c1.61,1.07,3.22.75,5.17-1s3.11-1.6,4.83.67c.22.12.43.26.65.36,3.2,1.38,3.24,2.42.37,4.84-3.4,2.87-7.28,3.35-11.47,2.52C303,98,302.62,98,302.21,97.93Z"/><path class="cls-2" d="M218.08,66.82c1.23,7.2-1.81,12.84-9,16.71a2,2,0,0,1-2.16,1.09c-2.8-1.1-5.62-1.94-8.66-1a2,2,0,0,1-.82.2,2.38,2.38,0,0,1-2.31-2.13c-5.28-3.88-6.57-9.24-5.32-15.29,1.07-5.23,4-9.2,9.36-10.72,7.67-2.17,16.07,1.07,18.5,9.32A1.34,1.34,0,0,0,218.08,66.82Z"/><path d="M243.83,88.28c-2.26,1.37-6.75.45-7.83-1.62l-6.12-24.89c-.68-2.79-.69-2.79,2.05-2.42,5,.68,5,.69,6.1,5.68.68,3.06,1.38,6.11,2.08,9.16.7.37-.05,1.12.39,1.56a2.27,2.27,0,0,0,.32,2c.25.42.56.43.91.13l2.15-4.15c.41-1.25.37-2.75,1.88-3.39,1.27-2.26,2.59-4.48,3.76-6.77.62-1.22,1.32-1.75,2.74-1.45,1.78.37,3.6.53,5.68.82l-8.77,15.93c-.45,2.43-1.92,4.28-3.44,6.11A10.28,10.28,0,0,0,243.83,88.28Z"/><path class="cls-1" d="M274.85,79.28c-1.17,3.49-1.23,7.16-1.82,10.74-.63,3.82-.21,3.24-3.77,2.76-.41,0-.83,0-1.24-.08-2.51,0-2.79-1.27-2.42-3.53,1.18-7.42,2.17-14.87,3.11-22.33.23-1.79.76-2.62,2.64-2a4.71,4.71,0,0,0,1.49.21c2.4-.05,3.67.78,2.61,3.41,1.11.22,1.37-.7,1.89-1.12a7.12,7.12,0,0,1,8.59-.26,1.26,1.26,0,0,1,.46,1.89,24.51,24.51,0,0,0-1.16,2.21c-.74,1.81-1.55,3.08-3.68,1.38a2.42,2.42,0,0,0-2.63-.12c-1.72,1.12-2.35,3.09-3.6,4.58Z"/><path class="cls-2" d="M135.57,73.85c-2.26.69-4.42-.24-6.6-.53-1.23-.16-.74-1.31-.64-2,1.18-8.58,2.4-17.15,3.6-25.72,2.33.47,5.51-.29,6.8,1.49s-.22,4.46-.51,6.76C137.38,60.49,136.46,67.16,135.57,73.85Z"/><path class="cls-2" d="M99,68.77c-2.28-9-4.54-17.92-6.86-26.88-.38-1.46-.12-1.87,1.48-1.7,5.73.61,5.77.55,7,6.32.89,4.23,2.14,8.4,2.54,12.73-1.22,2.49-1.35,5.23-1.81,7.9C101.07,68.46,100.75,69.69,99,68.77Z"/><path class="cls-2" d="M103.13,59.73c1.07.58,1-.46,1.3-.94,2.43-4.53,4.92-9,7.19-13.66.9-1.84,1.95-2.24,3.89-1.92,5,.81,5,.72,2.43,5.17s-5,8.59-7.48,12.88c-1.62,1.18-3.88-.35-5.38,1.3a3.78,3.78,0,0,0-2.16,1.92c-.43.68-1,1.35-1.77.19.13-1.06.24-2.13.45-3.17C101.77,60.67,101.93,59.72,103.13,59.73Z"/><path class="cls-18" d="M313.89,90.36c-1.93-.57-3.53-.86-5,1.33-1.16,1.72-3.92,1.52-5.94.19-1.81-1.19-3.08-4.14-2.65-5.86.3-1.2,1.12-.76,1.77-.68,4.38.58,8.75,1.19,13.12,1.79,3.5.49,3.5.49,4-3l1.69-1.66c.45,2.12.69,4-.18,5.89-.33-.21-.81-1.12-1-.34-.74,2.67-2.59,2.48-4.63,2.17A4.33,4.33,0,0,0,313.89,90.36Z"/><path class="cls-19" d="M52.5,63.37l.06-.45c0-1.72-.34-3.52,1-5a3.69,3.69,0,0,1,.79-.88l.07-.51a48.61,48.61,0,0,1,1.4-9.9.81.81,0,0,0,.21-.41,69.09,69.09,0,0,1,13.28,1.71c.63.27,1.41.18,1.89.8a106.21,106.21,0,0,1-2.11,15.89v.51c-.67-1-.35-2.1-.21-3.15.48-3.64,1-7.27,1.51-10.9.25-1.65-.31-2.51-2-2.72-3.23-.4-6.44-.84-9.65-1.33-1.67-.26-2.51.35-2.71,2-.26,2.23-.56,4.46-.92,6.68-.28,1.67.37,2.54,2,2.69,2.16.19,2.42,1.52,2.19,3.37-.24,2.06-1.39,2.37-3.14,2.1C55,63.73,53.67,64,52.5,63.37Z"/><path class="cls-17" d="M101.35,65.07a5.73,5.73,0,0,0,.66-1.54c.21-1.79,1.17-2.4,2.86-2,1.78-.33,3.55-.62,5,.84l-.41,1.29q-1.78,2.82-3.58,5.64c-1.73,1.11-3.39.16-5.08-.17-.21-1,.49-2,.19-3A1.07,1.07,0,0,1,101.35,65.07Z"/><path class="cls-2" d="M132.57,41.06a6.26,6.26,0,0,1,0-.75c.61-5.66,1.09-6,6.7-4.46.69.19,1.38.36,1.21,1.23-.35,1.83,0,3.81-1.12,5.49-.34,0,.11-.57-.46-.5A10.07,10.07,0,0,1,132.57,41.06Z"/><path class="cls-8" d="M83.46,121.81c.37,4-.76,7.85-1.25,11.75-.28,2.23.09,3.58,2.59,3.59a3.31,3.31,0,0,1,2,0q26.36,3.63,52.71,7.29a3.35,3.35,0,0,1,1.9.5c-.84.76-1.76.24-2.62.12q-27-3.69-54-7.45c-3.41-.47-3.46-.57-3-3.95L83.25,122A.27.27,0,0,1,83.46,121.81Z"/><path class="cls-13" d="M231.75,157.47a4.92,4.92,0,0,0,2.57.85c8,1.11,16,2.11,24,3.4,1.82.3,3-1.46,4.64-.86a12.08,12.08,0,0,0,.35-1.44c1.05-9,2.9-17.93,3.43-27,0-.37.37-.71.57-1.07a4.06,4.06,0,0,1-.05,2.44q-1.8,13.22-3.66,26.41c-.12.88,0,1.86-.74,2.57a3.44,3.44,0,0,1-3.21.15c-9.24-1.45-18.53-2.5-27.77-4a1.87,1.87,0,0,1-.79-.54c-.29-.22-.8-.14-.89-.65Z"/><path class="cls-5" d="M165.21,150l56,7.74,0,.32-56-7.74Z"/><path class="cls-18" d="M268.12,64.66l-3.62,26.2L264,90.8l3.62-26.15Z"/><path class="cls-5" d="M259.91,162.38l3,.38c-.33,1.65-1.61,1.22-2.57,1-9.37-2-18.91-2.81-28.36-4.18-.77-.11-2.06.26-.84-1.19l.5.07a6.87,6.87,0,0,0,3.12.66q11.36,1.62,22.73,3.15A4.53,4.53,0,0,0,259.91,162.38Z"/><path class="cls-5" d="M45.7,54.66l3.86-27.89.22,0L45.94,54.64Z"/><path class="cls-20" d="M233,129l-3.69,26.7-.3,0L232.74,129Z"/><path class="cls-21" d="M143,100.63l.4.61-.16,1.47c-3,2.84-6.38,4.4-10.6,3.11a1.46,1.46,0,0,1,1.44-1.43,14.66,14.66,0,0,0,8.2-3.67C142.44,100.56,142.74,100.61,143,100.63Z"/><path class="cls-22" d="M132.57,41.06a26.51,26.51,0,0,1,3,.42c2.42.59,3.95,0,4.39-2.75l-.53,3.84C137.05,42.32,134.52,43,132.57,41.06Z"/><path class="cls-23" d="M100.86,68.54a6.67,6.67,0,0,0,5,.73c-1.42,1.79-3.16,0-4.7.4-.71-.41-1.75,0-2.26-.9,1.36-.07,1.51-1.09,1.66-2.11.22-1.57.43-3.13.67-4.7.18-1.18.46-2.32,1.82-2.72l0,.49c-1.72,1.41-1.4,3.49-1.78,5.34,0,.33-.09.66-.14,1A2.9,2.9,0,0,1,100.86,68.54Z"/><path class="cls-24" d="M258.06,117.1c1.28.38,1.31-2.34,2.34-1.27.71.75.45,2.46.56,3.74,0,.3-.21.61-.32.92Z"/><path class="cls-3" d="M265.87,128.87a3.32,3.32,0,0,1-1.19-1.55c.16-.51.57-.46,1-.5.66-.06.3-1.78,1.45-1a2.21,2.21,0,0,1,.76,1.51c.06,1-.86,1.09-1.53,1.37C266.2,128.78,266,128.82,265.87,128.87Z"/><path class="cls-25" d="M245.73,85a30.13,30.13,0,0,1,3.44-6.11C249.63,81.83,247.82,83.49,245.73,85Z"/><path class="cls-26" d="M275.32,77c.52-2.06,1.08-4.09,3.6-4.58C278.12,74.24,277.59,76.29,275.32,77Z"/><path class="cls-27" d="M109.9,62.34l-5-.84c-.22-.81.09-1.07.9-.94,1.56.26,3.12.47,4.69.7Z"/><path class="cls-28" d="M162.18,78.41c-2-.11-4.06-.1-5.84-1.27,0-.13,0-.27,0-.4a14.37,14.37,0,0,1,6,.81l-.06.55A2.83,2.83,0,0,0,162.18,78.41Z"/><path class="cls-18" d="M321.84,89.78c-.14.58-.33,1.26-1,1.21s-.92-1-.88-1.48.42-1.34,1.28-1.15S321.9,89.19,321.84,89.78Z"/><path class="cls-7" d="M245.76,70.36a9.83,9.83,0,0,1-1.88,3.39C243.62,72.13,243.17,70.4,245.76,70.36Z"/><path class="cls-29" d="M171.61,54.55l.53,2.55c-1-1.32-2.35-2.48-2.23-4.35l1.25,1.18.45.61Z"/><path class="cls-20" d="M123,129.89a4.11,4.11,0,0,1-5-.62A7.67,7.67,0,0,0,123,129.89Z"/><path class="cls-25" d="M150,64.7l-.25,1c-.93-2.65.12-5,1-7.42l-.13,1.5A12.05,12.05,0,0,1,150,64.7Z"/><path class="cls-29" d="M159.3,117.45c-.25,2.08-1.41,3-3.49,2.63Z"/><path class="cls-22" d="M123.33,131.75c-2.2.9-4.26-.08-6.36-.48,0-.07,0-.16,0-.21a1,1,0,0,1,.2-.15Z"/><path class="cls-13" d="M222.7,156.71l-2.42-.42c.66-.93,1.95-.77,2.7-1.54Z"/><path class="cls-25" d="M103.89,108.52l-.85-1.11c.25-.47.42-1.31,1.16-.75S104.27,107.94,103.89,108.52Z"/><path class="cls-25" d="M152.86,54l-1,1.57c-.23-.33-1.12-.19-.75-.93A1.22,1.22,0,0,1,152.86,54Z"/><path class="cls-28" d="M218.08,66.82c-.56.76-.73.1-.94-.28-.4-.71-.12-1.21.54-1.57A3.06,3.06,0,0,1,218.08,66.82Z"/><path class="cls-17" d="M117.13,126.46l-.39,2.87-.51-.07.46-3.34Z"/><path class="cls-30" d="M175,40.9c-.58.12-.4,1.22-1.16,1-.21-.08-.22-.73-.32-1.11Z"/><path class="cls-19" d="M113.31,60.11l-.6.37c-.06-.12-.2-.32-.18-.34a4.73,4.73,0,0,1,.57-.43Z"/><path class="cls-17" d="M152.74,74.09c.29-.24.61-.68,1-.37s.09.82-.23,1.16Z"/><path class="cls-7" d="M241.73,77.9c0,.44.08,1.13-.52,1.07s-.47-.72-.39-1.2Z"/><path class="cls-25" d="M149.28,58.09l-.12-.39.21-.05a2.91,2.91,0,0,1,.12.39Z"/><path class="cls-7" d="M240.5,75.75l-.39-1.56C241.76,74.32,240.38,75.23,240.5,75.75Z"/><ellipse class="cls-9" cx="237.56" cy="166.06" rx="0.08" ry="117.54" transform="translate(40.54 378.64) rotate(-82.13)"/><path class="cls-31" d="M143,100.63c-.91,2.74-3.27,3.65-5.68,4.35a40.38,40.38,0,0,1-4.67.84,1.81,1.81,0,0,1-1.44-.19c.78-2.09,1.56-4.17,2.35-6.26a.82.82,0,0,1,.14-1c2.6-1.4,3.8-3.77,4.5-6.48,1.33-1.51.88-3.05.08-4.61a1.54,1.54,0,0,1,1.25-1.7L141,83.28C141.69,89.5,142.34,95.07,143,100.63Z"/><path class="cls-14" d="M141.38,145,84.8,137.15a5.84,5.84,0,0,1,3.21-.06l50.3,7A5.78,5.78,0,0,1,141.38,145Z"/><path class="cls-22" d="M125.87,118c.58,4.19-.94,8.16-1.69,12.21q.84-6.12,1.69-12.22Z"/><path class="cls-13" d="M243.52,119.7l7.82-5.72c.35.47.7.93,1,1.4s1.21.73.82,1.33a1.67,1.67,0,0,1-2,.57c-2.28-1-3.43.15-4,2.17-.38,1.42-1.88-.36-2.23.89-.41.53-.7,1.31-1.62.79C243.41,120.65,243.46,120.18,243.52,119.7Z"/><path class="cls-13" d="M232,157.2l26.35,3.64V161l-26.58-3.67Z"/><path class="cls-32" d="M243.35,121.13l1.62-.79c.6,2.7-2.16,2.71-3.25,4.08A5.48,5.48,0,0,1,243.35,121.13Z"/><ellipse class="cls-13" cx="192.06" cy="151.73" rx="0.17" ry="38.1" transform="translate(15.46 321.2) rotate(-82.13)"/><path class="cls-32" d="M191.05,148.86c2,0,3.87.88,5.87.52C194.82,150.24,192.88,149.52,191.05,148.86Z"/><path class="cls-32" d="M190.25,146.59c-.29,1.22,1.29,1.52.25,2.43-.33.29-.83.79-1.27.24C188.5,148.38,189.23,147.77,190.25,146.59Z"/><path class="cls-8" d="M76.56,64.66a5.71,5.71,0,0,1,0-3q2.1-15.21,4.21-30.43a5.47,5.47,0,0,1,.87-2.82Q79.07,46.56,76.56,64.66Z"/><path class="cls-6" d="M74.15,27.4a39.14,39.14,0,0,1-2,14.28Z"/><path class="cls-9" d="M163.53,72.62c-3.54-.18-5.45-1.76-5.91-5.17a15.33,15.33,0,0,1,1.24-8.78,5.71,5.71,0,0,1,10.95,1.57c.91,4.83-.79,9.74-4.07,11.77C165,72,164,71.61,163.53,72.62Z"/><path class="cls-33" d="M163.53,72.62c-.49-.69-.62-1.44.22-1.86,1.21-.61,1.39.71,2,1.25A2.51,2.51,0,0,1,163.53,72.62Z"/><path class="cls-17" d="M172.43,49.35l.77-5.54.24,0-.78,5.61Z"/><path class="cls-34" d="M162.35,77.55l-6-.81A8,8,0,0,1,162.35,77.55Z"/><path class="cls-12" d="M150,64.7a15,15,0,0,1,.66-4.94A6.38,6.38,0,0,1,150,64.7Z"/><path class="cls-30" d="M170.93,78.36l2.61.36v.16l-2.62-.36Z"/><path class="cls-22" d="M157.1,61.77a1.88,1.88,0,0,1-.13,1.88C156.53,63,157,62.39,157.1,61.77Z"/><path class="cls-17" d="M171.61,54.54l.4-1.07c.12.19.31.36.33.56.08.57-.25.67-.73.52Z"/><path class="cls-35" d="M46.8,57q2.14-16,4.31-32c.06-.48.11-1,.77-1.11Q49.66,40,47.43,56.1a.66.66,0,0,1,0,.91A.51.51,0,0,1,46.8,57Z"/><path class="cls-6" d="M69.07,64.63c.41-5.34,1.3-10.61,2.11-15.89.7,2,0,4-.31,5.89C70.32,58,70.46,61.45,69.07,64.63Z"/><path class="cls-4" d="M69.29,47.94,56,46.23c-.12-.35-.08-.86.3-.75C60.57,46.69,65.12,46.32,69.29,47.94Z"/><path class="cls-29" d="M58.73,25.29,56.81,39.16A43.47,43.47,0,0,1,58.73,25.29Z"/><path class="cls-27" d="M47.29,57.09l.14-1,6.9.95-.13,1a4.69,4.69,0,0,1-.76.49c-2.14.5-4.18.45-6-1Z"/><path class="cls-36" d="M68.42,42.2l-9.5-1.32,0-.2L68.35,42Z"/><path class="cls-29" d="M55.8,46.64l-1.4,9.9A22.72,22.72,0,0,1,55.8,46.64Z"/><path class="cls-37" d="M304.88,75c4.33-.44,6.89,1.42,7.21,5.16.11,1.32-.13,2-1.72,1.72-2.53-.45-5.08-.8-7.63-1.06-1.55-.15-1.75-.8-1.23-2.11a8,8,0,0,1,2.79-3.41A.79.79,0,0,1,304.88,75Z"/><path class="cls-38" d="M304.88,75l-.58.3c-.41-.43-1.28-.2-1.52-1C303.8,73.84,304.29,74.57,304.88,75Z"/><path class="cls-9" d="M200.76,77.33c-3.49-1.27-3.48-4.41-3.9-7.31a2.5,2.5,0,0,1,.38-2.63,26.3,26.3,0,0,1,1.16-2.73,6.43,6.43,0,0,1,6.6-3.48,6.11,6.11,0,0,1,5.44,5.05c.64,3.51.37,6.94-2.23,9.77A12.26,12.26,0,0,1,200.76,77.33Z"/><path class="cls-33" d="M200.76,77.33a7.35,7.35,0,0,0,2.88-1.28c1.35-1.08,3,.35,4.57,0C204.94,78.87,203.86,78.88,200.76,77.33Z"/><path class="cls-2" d="M206,84.07a14.56,14.56,0,0,1-8.43-1.22l.06-.42c2.71-.19,5.32.59,8,.89C205.94,83.36,206.06,83.7,206,84.07Z"/><path class="cls-39" d="M206,84.07c-2.63-1.36-5.59-1.06-8.37-1.64a18.54,18.54,0,0,1,9.56,1.41Z"/><path class="cls-40" d="M197.24,67.39c-.13.88-.25,1.75-.38,2.63-.24.58-.19,1.31-1.1,1.75A26,26,0,0,1,196.82,67C197.16,66.2,197.07,67.27,197.24,67.39Z"/><path class="cls-41" d="M53.75,58l.45.06c-.57,1.62.73,3.86-1.64,4.87-2.06-.73-4.42-.16-6.36-1.43a6.24,6.24,0,0,1,.7-.84,2.16,2.16,0,0,1,1.39-.45C50.62,60.67,52.24,59.47,53.75,58Z"/><path class="cls-42" d="M46.75,61.06l-.55.43A13,13,0,0,1,46.8,57l.49.07h0Q49.07,59.36,46.75,61.06Z"/><ellipse class="cls-8" cx="136.61" cy="60.23" rx="16.25" ry="0.18" transform="translate(58.23 187.3) rotate(-82.13)"/><path class="cls-16" d="M132.2,49.81l-2.89,20.93-.24,0L132,49.79Z"/><path class="cls-8" d="M129.77,72.65l4.07.56v.19l-4.08-.56Z"/><path class="cls-4" d="M134.39,46.5l3.25.45,0,.23-3.24-.45Z"/><path class="cls-4" d="M95.27,41.07l2.65.36,0,.25-2.75-.38Z"/><path class="cls-2" d="M100.86,68.54c.12-.82.24-1.65.35-2.48A2.09,2.09,0,0,1,100.86,68.54Z"/><path class="cls-9" d="M259.91,162.38a5,5,0,0,1-2.71.13l-23-3.19a4.84,4.84,0,0,1-2.57-.85Q245.8,160.12,259.91,162.38Z"/><path class="cls-43" d="M134.08,98.93c1.45-3.46,2.29-7.21,4.88-10.11,1,1.13-.28,2.61.55,3.77C138.59,95.47,137,97.78,134.08,98.93Z"/><path class="cls-34" d="M139.51,92.59c-1.11-1.12-.57-2.49-.55-3.77l-.16-1.38c.87-.24,1.48-.18,1.3,1C139.88,89.81,139.71,91.21,139.51,92.59Z"/><path class="cls-31" d="M46.75,61.06c.18-1.32.36-2.65.55-4l6.45.9c-.57,3.95-.57,3.95-4.53,3.41Z"/><line class="cls-44" x1="77.92" y1="549.37" x2="156.03" y2="157.42"/></svg>