<svg id="Layer_1" data-name="Layer 1" xmlns="http://www.w3.org/2000/svg" width="1932" height="445" viewBox="0 0 1932 445"><defs><style>.cls-1{fill:#0f8938;stroke:#cdcccc;stroke-miterlimit:10;stroke-width:1px;}.cls-2{fill:#fff;}.cls-2,.cls-3{opacity:0.21;}.cls-3{fill:#575757;}</style></defs><title>Forgrund</title><path class="cls-1" d="M1432.71,442.91h488.9V183.07l-26.9,4.15-20.13-8.3-40.28-12.45-135.46-4.14s-59.3-4.15-72.31-8.3-165.88-37.35-165.88-37.35l-105.82-16.6L1287,66.88,1166,47.13s-73.66-13.44-100-17.59-73.66-16.6-73.66-16.6H860.87L782,47.13s-42.09-17.59-57.88-17.59-92.39-16.6-92.39-16.6L529.4,29.54H348.19L276.67,47.13H108.18L.81,83.48V442.91H1356.54"/><path class="cls-2" d="M863.67,151.37a237.75,237.75,0,0,1-45.42,29.86c-28.9,14.71-30.4,37.32-1.67,22.7a376.21,376.21,0,0,0,68.71-45.44C910.32,137.63,888.86,130.38,863.67,151.37Z"/><path class="cls-2" d="M1463,206.22c-14.65,1.66-31,1.28-43.32-2.32-11-3.2-26.53-3.78-37.26,0-9.34,3.3-11,9.94,0,13.16,26.67,7.79,61,10.88,94.59,7.1C1509.24,220.53,1495.48,202.57,1463,206.22Z"/><path class="cls-2" d="M685.08,442.91c-1.87-3.92-10.14-7.21-24.88-6.79-27.6.79-55.38.72-82.82-.71-14.19-.75-28.15,1.25-32.41,6.49a4,4,0,0,0-.6,1Z"/><path class="cls-2" d="M1400.62,318.31l-88-92.56c-21.08-22.17-52.09-24.93-30.95-2.7l88,92.56C1390.74,337.78,1421.76,340.55,1400.62,318.31Z"/><path class="cls-2" d="M1077.21,381.31q-44-46.29-88-92.56c-21.08-22.17-52.09-24.94-31-2.71q44,46.29,88,92.56C1067.34,400.77,1098.35,403.54,1077.21,381.31Z"/><path class="cls-2" d="M1640.4,375.62c3.75-14,14.86-28.87,5.6-57.28-4-12.26-11.15-25.36-17.58-37.76q-15.29-29.49-30.65-58.93c-15.63-30.06-31.89-21-16.31,8.94L1599,264.26c4.68,9,14.4,24.95,17.51,33.67,3.55,9.94,1.73,11,.13,17q-2.47,9.27-5,18.53C1607.48,349,1636.18,391.38,1640.4,375.62Z"/><path class="cls-2" d="M619,192.17c-32.42,14.32-68.29,27.54-106.3,39.79-27.92,9,3.59,21.4,31.45,12.42a1185.07,1185.07,0,0,0,115.76-44C683.71,189.92,642.56,181.79,619,192.17Z"/><path class="cls-2" d="M384.66,245.43c-32.42,14.31-68.3,27.53-106.3,39.79-27.93,9,3.58,21.39,31.44,12.41a1188.88,1188.88,0,0,0,115.77-44C449.33,243.18,408.18,235.05,384.66,245.43Z"/><path class="cls-2" d="M1205.4,86.92a544.86,544.86,0,0,1-67.57-8.39c-29.75-5.76-56.36,10.3-26.59,16.06a647.29,647.29,0,0,0,80.16,10.27c14,.92,28.42-1.38,32.41-6.5C1227.34,93.82,1219.46,87.85,1205.4,86.92Z"/><path class="cls-2" d="M1921.61,415.1c-15.71,4.69-48.16-.4-43.25-9.89,11-21.29-35.29-42.15-48.45-62.26-7.63-11.67,43.19-16.61,50.82-4.95,9.41,14.39,28.92,27.52,40.88,41.19Z"/><path class="cls-3" d="M451.44,152.32A238,238,0,0,1,406,182.18c-28.91,14.71-30.41,37.32-1.68,22.7a375.87,375.87,0,0,0,68.71-45.44C498.09,138.58,476.63,131.32,451.44,152.32Z"/><path class="cls-3" d="M1045.68,90.64c-14.65,1.65-31,1.28-43.32-2.32-11-3.2-26.53-3.79-37.26,0-9.34,3.3-11,9.94,0,13.15,26.67,7.8,61,10.89,94.59,7.11C1091.88,105,1078.12,87,1045.68,90.64Z"/><path class="cls-3" d="M323.13,402.15c-27.61.79-55.39.72-82.83-.72-14.18-.74-28.14,1.26-32.41,6.5-3.56,4.38,4.35,10.71,18.41,11.44,32.32,1.69,64.22,2.31,96.83,1.38C356.7,419.79,357,401.18,323.13,402.15Z"/><path class="cls-3" d="M1063.54,284.35l-88-92.57c-21.07-22.16-52.09-24.93-30.95-2.7l88,92.56C1053.66,303.81,1084.68,306.58,1063.54,284.35Z"/><path class="cls-3" d="M740.14,347.34l-88-92.56c-21.08-22.17-52.09-24.94-31-2.7q44,46.28,88,92.56C730.26,366.8,761.27,369.57,740.14,347.34Z"/><path class="cls-3" d="M1346.93,141.43c-10.49-10-18.2-26.91-47.55-32.43-12.68-2.39-27.6-2.4-41.57-2.72q-33.19-.77-66.41-1.42c-33.87-.73-33.75,17.88,0,18.6l37.95.81c10.13.22,28.8-.64,38,.82,10.42,1.66,10.45,3.75,14.94,8l13.87,13.26C1307.77,157.51,1358.72,152.69,1346.93,141.43Z"/><path class="cls-3" d="M243.86,138.78c-32.42,14.31-68.3,27.53-106.31,39.79-27.92,9,3.59,21.39,31.45,12.41a1187.67,1187.67,0,0,0,115.76-44C308.53,136.53,267.37,128.4,243.86,138.78Z"/><path class="cls-3" d="M628.46,204.4A542.89,542.89,0,0,1,560.88,196c-29.74-5.76-56.36,10.3-26.59,16.06a647.54,647.54,0,0,0,80.16,10.27c14,.92,28.42-1.37,32.41-6.5C650.39,211.3,642.51,205.33,628.46,204.4Z"/><path class="cls-3" d="M1432.71,442.91c-2-1.44-5.27-2.77-10.12-3.81-22.45-4.84-37-12.23-43.06-21.22-7.89-11.64-58.72-6.7-50.81,4.95,5,7.45,14.64,14.26,27.82,20.08Z"/><path class="cls-3" d="M1744.41,234.58c-7.63-11.66-58.45-6.72-50.82,4.95,13.15,20.1,59.47,41,48.45,62.25-6.06,11.7,44.71,16.72,50.81,4.94C1806.54,280.29,1760.57,259.29,1744.41,234.58Z"/></svg>