<svg id="Layer_1" data-name="Layer 1" xmlns="http://www.w3.org/2000/svg" xmlns:xlink="http://www.w3.org/1999/xlink" width="433" height="555" viewBox="0 0 433 555"><defs><style>.cls-1{fill:#fff;}.cls-2{fill:#0fb7d4;}.cls-3{fill:#fddabc;}.cls-14,.cls-19,.cls-20,.cls-4{fill:#010101;}.cls-5{fill:#915525;opacity:0.29;}.cls-6{fill:#fac6a2;opacity:0.49;}.cls-7{fill:#313131;}.cls-8{fill:#f9b460;}.cls-9{fill:#93571e;opacity:0.21;}.cls-10{fill:#dd6b6c;opacity:0.52;}.cls-11{fill:#4a2a15;}.cls-12{fill:#603617;}.cls-13,.cls-15,.cls-16{fill:none;}.cls-13{stroke:#b6b6b5;}.cls-13,.cls-15{stroke-miterlimit:10;}.cls-14{opacity:0.27;}.cls-15{stroke:#6e4627;opacity:0.35;}.cls-17{fill:#332921;}.cls-18{fill:#cd5252;}.cls-19{font-size:3.95px;}.cls-19,.cls-20{font-family:Yantramanav-Black, Yantramanav;}.cls-20{font-size:2.65px;}.cls-21{fill:#b4282f;}.cls-22{fill:#5d5d61;}.cls-23{fill:#5b5b5f;}.cls-24{fill:#f4ecec;}.cls-25{fill:#b52930;}.cls-26{fill:#b5292f;}.cls-27{fill:#b52a32;}.cls-28{fill:#b52b32;}.cls-29{fill:#5f5f63;}.cls-30{fill:#616165;}.cls-31{fill:#68686b;}.cls-32{fill:#67666a;}.cls-33{fill:#626266;}.cls-34{fill:#6c6b6f;}.cls-35{fill:#636367;}.cls-36{fill:#6b696d;}.cls-37{fill:#666569;}.cls-38{fill:#646468;}.cls-39{fill:#6e6d70;}.cls-40{fill:#68686c;}.cls-41{fill:#727073;}.cls-42{fill:#606064;}.cls-43{fill:#6b6b6e;}.cls-44{fill:#6a6a6e;}.cls-45{fill:#6f6d71;}.cls-46{fill:#6e6d71;}.cls-47{fill:#68676b;}.cls-48{fill:#6b6a6e;}.cls-49{fill:#f5efef;}.cls-50{fill:#787478;}.cls-51{fill:#656569;}.cls-52{fill:#5e5e62;}.cls-53{fill:#666468;}.cls-54{fill:#fefcfd;}.cls-55{fill:#fbf7f6;}.cls-56{fill:#f6ebec;}</style></defs><title>Karakter</title><circle class="cls-1" cx="220.31" cy="88.5" r="45.82"/><circle class="cls-1" cx="238.98" cy="98.59" r="45.82"/><circle class="cls-1" cx="205.98" cy="123.59" r="45.82"/><circle class="cls-1" cx="206.98" cy="123.59" r="45.82"/><circle class="cls-1" cx="207.98" cy="123.59" r="45.82"/><circle class="cls-1" cx="247.98" cy="72.59" r="45.82"/><circle class="cls-1" cx="248.98" cy="132.59" r="45.82"/><circle class="cls-1" cx="299.98" cy="112.59" r="45.82"/><circle class="cls-1" cx="299.98" cy="71.59" r="45.82"/><circle class="cls-1" cx="340.98" cy="91.59" r="45.82"/><circle class="cls-1" cx="290.98" cy="50.59" r="45.82"/><circle class="cls-1" cx="290.98" cy="146.59" r="45.82"/><circle class="cls-1" cx="355.98" cy="136.59" r="45.82"/><circle class="cls-1" cx="386.98" cy="75.59" r="45.82"/><rect class="cls-2" x="51.01" y="181.09" width="212.17" height="261.51" rx="106.08" ry="106.08" transform="translate(-16.89 9.1) rotate(-3.15)"/><ellipse class="cls-3" cx="146.78" cy="117.97" rx="90.45" ry="91.97" transform="translate(-6.26 8.24) rotate(-3.15)"/><rect class="cls-1" x="85.71" y="112.37" width="35.22" height="35.22" rx="9.05" ry="9.05" transform="translate(213.62 254.1) rotate(176.85)"/><circle class="cls-4" cx="103.32" cy="129.98" r="6.62"/><rect class="cls-1" x="171.81" y="111.92" width="29.2" height="29.2" rx="7.5" ry="7.5" transform="translate(379.49 242.61) rotate(176.85)"/><circle class="cls-4" cx="186.41" cy="126.52" r="5.49"/><circle class="cls-3" cx="244.64" cy="108.61" r="19.04"/><circle class="cls-3" cx="41.45" cy="128.95" r="19.04"/><circle class="cls-5" cx="254.42" cy="108.08" r="5.19"/><circle class="cls-5" cx="31.67" cy="129.49" r="5.19"/><rect class="cls-6" x="148.88" y="195.71" width="5.02" height="12.45" rx="0.98" ry="0.98" transform="translate(313.65 395.26) rotate(176.85)"/><rect class="cls-7" x="87.92" y="103.12" width="28.46" height="6.63" rx="1.7" ry="1.7" transform="translate(209.99 207.1) rotate(176.85)"/><rect class="cls-7" x="173.19" y="101.83" width="29.47" height="7.24" rx="1.86" ry="1.86" transform="translate(381.35 200.42) rotate(176.85)"/><circle class="cls-2" cx="69.98" cy="240.07" r="41.25"/><path class="cls-8" d="M21.2,107.86l.83-3.5c0-.22.1-.44.14-.66l.75-4.31.15-.52A33.51,33.51,0,0,0,24,93.36L27,75.89a11.07,11.07,0,0,1,.25-1.11c2.83-6.83,7.17-13,10.07-19.8L53.08,37.57,63,26.47,73.53,15.55a22.23,22.23,0,0,0,3.11-1.12c3.32-1.57,6.23-3.7,9.63-5.13,5.42-2.27,11-4,16.52-6.05,4.7-.1,16-.4,19-1.12C125.33,1.28,145,1.35,151,.65a5.41,5.41,0,0,0,1.44.28c6,.33,12.1-.4,18.14-.64l1.76.2c5.55,1.22,13,3,15,3.52a3,3,0,0,1,.9.37,78,78,0,0,0,10.44,5.49c5.87,2.49,13,9.85,16.41,11.77s5.2,7.46,11.38,11.34a40.15,40.15,0,0,1,11.34,10.64c2.06,2.71,15.55,21.68,15.55,21.68A41.56,41.56,0,0,1,259.56,79c.83,3.73,2.05,7.6,3.1,11,.73,5.21,1.34,10.44,1.69,15.68a10.76,10.76,0,0,0,.08,1.29,111.52,111.52,0,0,1-.92,23.74c-1.32,8.44-4.16,15.61-8,23.15-2.9,5.67-5.39,11.4-6.1,17.63-.62.21-1.42.45-2.56.77-4.7,1.33-2.67,3.49-7.37,5.08l-4.2,1.41a3.15,3.15,0,0,0-.8.4A22.51,22.51,0,0,1,224,182.71a78.12,78.12,0,0,0-9.94,1.71,3.55,3.55,0,0,1-2.58-.34,18.27,18.27,0,0,0,1.22-3.85,29.94,29.94,0,0,0,.62-7.91,3.44,3.44,0,0,0,.81-2.78c-.75-6.87.2-14,.72-20.88,1.53-20.17,10.24-83.82-26.67-77.59a4,4,0,0,0-3.07,2.33,43.19,43.19,0,0,0-4.75.23l-.3,0c-11.7-1.3-31.45-7.26-40.17-7-.21,0,14.34,7.44,14.11,7.46l-1.25.08-1.11,0a3.55,3.55,0,0,0-.57.07c-16.79,1.2-33.43,4.14-50.22,5.27a3.26,3.26,0,0,0-.61-.38q-.77-.33-1.56-.6a3.24,3.24,0,0,0-3.79-2.43c-5.14.72-8.77,4.09-11.25,8.33a3.68,3.68,0,0,0-1.38,2.7l-.18.4c-.53,1.22-1,2.48-1.45,3.74l0,0a2.15,2.15,0,0,0-.66.83,3.82,3.82,0,0,0-.27,2.1,87.57,87.57,0,0,0-3.16,19.48,4.9,4.9,0,0,0-1.45,3.44l-.06.13c-1.88,4.53-1.65,9.21-.93,14,.75,4.94,1.44,9.8,2,14.76a80.12,80.12,0,0,0,1.75,9.74,1.64,1.64,0,0,0,.51,2q.65,2.45,1.4,4.86c1.8,5.76,3.22,11.7,5.34,17.36v.09a1.93,1.93,0,0,1-.91,1.64l-5.08,3.57a1.93,1.93,0,0,0-.91,1.64l.11,2c-.37.21-.73.42-1.11.61a3.46,3.46,0,0,0-1.64,1.84,33.71,33.71,0,0,1-8.34,1.92l-.38-.06-1.73-2.33a3.39,3.39,0,0,0-4.41-.43,3.66,3.66,0,0,1-3.4.33l-6.18-2.65a2,2,0,0,1-1.34-1.65l-.3-5.6c-.14-.85-.27-1.69-.4-2.54-.57-2.1-1.84-5.76-3.89-5.83-1.73,0-3.91-2.08-5.69-3.88-.41-.71-.83-1.41-1.26-2.11a21.73,21.73,0,0,0-1.9-5.26c-.09-1.85-.62-3.65-2.74-4.14a25.37,25.37,0,0,0-4-3.84c-4.22-6.57-7.86-13.36-8.81-21.2S20.62,116.17,21.2,107.86Z"/><path class="cls-9" d="M171.53,12.32A23,23,0,0,0,176.07,15c2.86,1.26,3.13,3.44.28,2.18a36.66,36.66,0,0,1-6.86-4C167,11.25,169,10.43,171.53,12.32Z"/><path class="cls-9" d="M110.45,14.53a11.22,11.22,0,0,0,4.16-.45,6.56,6.56,0,0,1,3.59-.2c.92.27,1.11.9.07,1.27a24.35,24.35,0,0,1-9.08,1.19C106.07,16.16,107.3,14.35,110.45,14.53Z"/><path class="cls-9" d="M188.76,56.35c2.66-.07,5.34-.22,8-.51,1.36-.14,2.72,0,3.15.46s-.36,1.05-1.71,1.2c-3.1.33-6.18.56-9.32.65S185.49,56.44,188.76,56.35Z"/><path class="cls-9" d="M35.92,94.1c2.86-1.48,7.81-1.95,12.21-2.26,3.27-.23,3.36,1.56.1,1.79s-6.6.48-8.65,1.54S34,95.1,35.92,94.1Z"/><path class="cls-9" d="M116.78,48.92l8-9.38c1.91-2.25,4.89-2.68,3-.43l-8,9.39C117.83,50.75,114.86,51.18,116.78,48.92Z"/><path class="cls-9" d="M148.28,53.28l8-9.39c1.91-2.24,4.89-2.68,3-.42l-8,9.39C149.33,55.1,146.36,55.54,148.28,53.28Z"/><path class="cls-9" d="M88.71,36.65c1-1,1.61-2.69,4.41-3.38a27.74,27.74,0,0,1,4-.48l6.39-.49c3.27-.25,3.35,1.55.1,1.8l-3.65.28a35.1,35.1,0,0,0-3.65.28,1.82,1.82,0,0,0-1.4.85l-1.27,1.35C92.57,38,87.63,37.8,88.71,36.65Z"/><path class="cls-9" d="M222.19,68.53l13-1.63c2.56-.32,1.29,2.13-1.28,2.45L220.9,71C218.35,71.3,219.62,68.85,222.19,68.53Z"/><path class="cls-9" d="M244.8,83.39a13.48,13.48,0,0,1,3.5-.64l1.45-.09h0c1.69-.92,5.72-.26,4.23.79-1.08.77-3.13.94-5.19,1.07l-.49,0h0c0,.08-.08.18-.05.29a1.45,1.45,0,0,0,.22.36c.82,1.08-4,1.83-4.87.75C243,85.14,242.81,84.14,244.8,83.39Z"/><path class="cls-9" d="M237.1,148.85a13.65,13.65,0,0,1,3.5-.64l1.46-.09h0c1.69-.92,5.72-.26,4.23.79-1.08.77-3.14.94-5.19,1.07l-.49,0h0c0,.08-.08.18-.05.29a1.2,1.2,0,0,0,.22.36c.82,1.08-4,1.83-4.87.75C235.33,150.6,235.12,149.6,237.1,148.85Z"/><path class="cls-9" d="M191.43,32.62a105.93,105.93,0,0,0,10.46,3.28c2.74.72-.23,2.08-3,1.36a115,115,0,0,1-11.39-3.62C185.19,32.75,189.11,31.75,191.43,32.62Z"/><path class="cls-9" d="M214.3,36.52a108.73,108.73,0,0,0,10.46,3.27c2.74.72-.23,2.08-3,1.36a115,115,0,0,1-11.39-3.62C208.06,36.64,212,35.64,214.3,36.52Z"/><path class="cls-9" d="M134.46,14.77a52.88,52.88,0,0,0,6.47-1.17c2.83-.71,5.48.7,2.64,1.41a62.7,62.7,0,0,1-7.67,1.41c-1.34.17-2.74,0-3.15-.45S133.11,14.93,134.46,14.77Z"/><path class="cls-9" d="M83,65.74c2.13-.59,3.49-1.37,4-2.27.7-1.17,5.63-1,4.93.2-.82,1.36-3.11,2.6-6.32,3.48C82.88,67.9,80.24,66.49,83,65.74Z"/><path class="cls-9" d="M53.15,66.15c2.14-.58,3.5-1.37,4-2.27.7-1.16,5.62-1,4.92.21-.82,1.36-3.1,2.59-6.31,3.47C53,68.32,50.39,66.91,53.15,66.15Z"/><path class="cls-9" d="M68.84,94.28c1.19-.19,2.93,0,3.16.45a6.49,6.49,0,0,1,.74,3.62c-.12,1.16-5.2,1.44-5.08.28a5.52,5.52,0,0,0-.53-3.15C66.89,95,67.42,94.5,68.84,94.28Z"/><path class="cls-9" d="M62.39,130.78c1.19-.19,2.92,0,3.16.45a6.49,6.49,0,0,1,.74,3.62c-.12,1.16-5.2,1.44-5.08.28a5.52,5.52,0,0,0-.53-3.15C60.44,131.51,61,131,62.39,130.78Z"/><path class="cls-9" d="M66.48,34.31c.67-1.16,5.59-1,4.92.21-1.16,2-5.51,4.27-4.34,6.26.65,1.09-4.22,1.85-4.87.74C60.73,39.05,65.05,36.78,66.48,34.31Z"/><path class="cls-9" d="M234.07,99A45.1,45.1,0,0,1,238,92.34c.82-1.15,5.75-1,4.93.21A43.26,43.26,0,0,0,239,99.18C238.44,100.35,233.52,100.14,234.07,99Z"/><path class="cls-9" d="M246.41,125a43.26,43.26,0,0,1,3.92-6.63c.82-1.16,5.75-1,4.92.2a45.1,45.1,0,0,0-3.92,6.63C250.78,126.37,245.86,126.16,246.41,125Z"/><path class="cls-9" d="M201,242.48c2.67-.07,5.34-.22,8-.5,1.36-.15,2.72,0,3.16.45s-.36,1.06-1.71,1.2c-3.11.33-6.18.56-9.33.65S197.76,242.57,201,242.48Z"/><path class="cls-9" d="M234.46,254.66l13-1.63c2.55-.32,1.28,2.13-1.29,2.45l-13,1.63C230.62,257.43,231.89,255,234.46,254.66Z"/><path class="cls-9" d="M257.07,269.52a13.09,13.09,0,0,1,3.5-.63c.48,0,1-.06,1.45-.09h0c1.69-.92,5.72-.26,4.24.79-1.08.77-3.14.94-5.19,1.07l-.49,0h0c0,.08-.09.19-.06.29a1.52,1.52,0,0,0,.23.36c.81,1.08-4.06,1.83-4.88.75C255.3,271.27,255.08,270.27,257.07,269.52Z"/><path class="cls-9" d="M203.71,218.76A108.5,108.5,0,0,0,214.16,222c2.74.72-.23,2.08-3,1.36a114.16,114.16,0,0,1-11.39-3.62C197.46,218.88,201.39,217.88,203.71,218.76Z"/><path class="cls-9" d="M226.58,222.65A109.39,109.39,0,0,0,237,225.92c2.74.72-.23,2.08-3,1.36a114.16,114.16,0,0,1-11.39-3.62C220.33,222.77,224.26,221.77,226.58,222.65Z"/><path class="cls-9" d="M258.68,311.13a44.08,44.08,0,0,1,3.92-6.63c.82-1.16,5.75-1,4.93.21a43.26,43.26,0,0,0-3.92,6.63C263.05,312.5,258.13,312.29,258.68,311.13Z"/><path class="cls-10" d="M143,134.61l3.72-1.48-4.33-10.89a3.46,3.46,0,0,1,6.43-2.55l5.08,12.79a3.27,3.27,0,0,1,.23,1A2.85,2.85,0,0,1,152.5,137l-7.37,2.93a2.85,2.85,0,0,1-2.11-5.29Z"/><path class="cls-2" d="M4.68,315.39c-10.36,61-1.23,58.29,11.84,60.51S41.65,384.41,52,323.44,60.17,211.24,47.1,209,15,254.42,4.68,315.39Z"/><path class="cls-3" d="M4.68,315.39c-10.36,61-1.23,58.29,11.84,60.51S41.65,384.41,52,323.44"/><circle class="cls-2" cx="228.36" cy="234.01" r="41.25"/><path class="cls-2" d="M301.53,301.72c17,59.46,7.61,57.79-5.14,61.43s-24,11.22-41-48.25S235,204.27,247.7,200.63,284.55,242.25,301.53,301.72Z"/><path class="cls-3" d="M301.53,301.72c17,59.46,7.61,57.79-5.14,61.43s-24,11.22-41-48.25"/><polygon class="cls-11" points="258.88 437.2 69.67 447.61 66.76 394.69 254.83 385.24 258.88 437.2"/><rect class="cls-11" x="213.48" y="404.14" width="47.45" height="142.21" rx="12" ry="12" transform="translate(-25.74 13.74) rotate(-3.15)"/><rect class="cls-11" x="71.53" y="411.95" width="47.45" height="142.21" rx="12" ry="12" transform="translate(-26.38 5.96) rotate(-3.15)"/><rect class="cls-12" x="67.22" y="389.96" width="189" height="12.04" transform="translate(-21.5 9.48) rotate(-3.15)"/><rect class="cls-13" x="151.02" y="391.14" width="23.69" height="12.04" transform="translate(-21.56 9.54) rotate(-3.15)"/><circle class="cls-14" cx="155.03" cy="397.2" r="0.85"/><circle class="cls-14" cx="180.63" cy="395.79" r="0.85"/><circle class="cls-14" cx="144.57" cy="397.77" r="0.85"/><circle class="cls-14" cx="133.19" cy="398.4" r="0.85"/><circle class="cls-14" cx="123.23" cy="398.94" r="0.85"/><circle class="cls-14" cx="111.85" cy="399.57" r="0.85"/><circle class="cls-14" cx="101.89" cy="400.12" r="0.85"/><circle class="cls-14" cx="93.36" cy="400.59" r="0.85"/><circle class="cls-14" cx="83.4" cy="401.13" r="0.85"/><circle class="cls-14" cx="73.44" cy="401.68" r="0.85"/><circle class="cls-15" cx="170.21" cy="396.36" r="0.85"/><rect class="cls-13" x="170.11" y="395.93" width="4.81" height="0.31" rx="0.06" ry="0.06" transform="translate(-21.49 10.07) rotate(-3.15)"/><path class="cls-16" d="M296.67,343.19l30.48-12.89s16.19-16.94,20.3-20,37.31-22,37.31-22"/><path class="cls-17" d="M137.19,178.38c10.18-3.11,18.82-3,25.07-1.09l-.45,0,.43,0c.31,5.6-6.63,6.53-12.23,6.84s-12.49-.17-12.82-5.75Z"/><path class="cls-18" d="M163.19,178.15c-.49,6.18-9.26,6.66-13.12,6.88-8.31.45-12.92-1.51-13.72-5.86m0,0c3.71-4.68,18.72-5.06,26-2.9l0,0h0a1.5,1.5,0,0,1,.75,1.21l0,.65m-24.8.65a.16.16,0,0,0-.12.2c.76,3.12,4.69,4.51,11.7,4.13,7.52-.42,11-1.94,11.31-5a.16.16,0,0,0-.12-.18C154.61,176.14,146.6,176.45,138.39,178.8Z"/><path class="cls-18" d="M136.26,179.19l.09,0-.07-.06c3.7-4.68,18.68-5.13,26.12-2.93l.06,0a1.6,1.6,0,0,1,.79,1.29l0,.65h0c-.5,6.26-9.41,6.75-13.21,7C141.71,185.58,137.06,183.59,136.26,179.19Zm26.8-1.68a1.44,1.44,0,0,0-.71-1.15A43.59,43.59,0,0,0,148,175.25c-5.7.45-9.91,1.89-11.57,3.95.81,4.25,5.39,6.18,13.62,5.73,3.75-.2,12.54-.69,13-6.78ZM138.18,179a.26.26,0,0,1,.18-.32c8.19-2.33,16.29-2.65,22.82-.89h0a.28.28,0,0,1,.2.29c-.34,3.17-3.75,4.7-11.41,5.12C142.92,183.61,139,182.2,138.18,179Zm.24-.13a.07.07,0,0,0-.06.09c.85,1.26,4.59,1.64,11.51,1.36,7.52-.31,11.1-.81,11.32-2.26a.08.08,0,0,0-.06-.08h0c-3.11-.29-6.92,1.26-11.35.89C146.25,179.64,142.43,178.84,138.42,178.89Z"/><rect class="cls-1" x="183.4" y="236.49" width="45.86" height="11.92" transform="translate(-13 11.69) rotate(-3.15)"/><image width="596" height="439" transform="matrix(0.02, 0, 0, 0.02, 213.39, 236.52)" xlink:href="../../../../../Desktop/Screenshot 2018-10-24 at 10.43.09.png"/><text class="cls-19" transform="matrix(1, -0.05, 0.05, 1, 187.97, 243.1)">Britta Nielsen</text><text class="cls-20" transform="matrix(1, -0.05, 0.05, 1, 189.86, 245.28)">Socialstyrelsen</text><g id="GF98hY.tif"><path class="cls-21" d="M190.32,248.53s-.11,0-.08-.1,0-.1.12-.09.24-.11.17-.25-.21-.43-.32-.65c.21-.06.21-.06.3.12s.1.22.15.35c.05-.15.1-.28.13-.41a.14.14,0,0,1,.17-.12c.06,0,.08,0,.06.07-.11.3-.21.6-.32.89a.28.28,0,0,1-.18.17Z"/><path class="cls-22" d="M184.53,246.21a.09.09,0,0,1,0,.13s-.08,0-.12,0v-.09C184.44,246.2,184.47,246.19,184.53,246.21Z"/><path class="cls-23" d="M184.4,246.06s.08-.06.13,0,0,.08,0,.12-.08,0-.11,0Z"/><path class="cls-24" d="M184.41,246.14a.14.14,0,0,0,.11,0v.05a.18.18,0,0,0-.11,0Z"/><path class="cls-21" d="M185.16,247.41a.42.42,0,0,1,.22,0s.12,0,.08.1-.06.13-.15.08a.32.32,0,0,0-.14,0c-.06,0-.13,0-.14.1s.05.09.11.11l.22.08a.3.3,0,0,1,.17.31.31.31,0,0,1-.23.27.61.61,0,0,1-.4,0s-.12,0-.07-.11,0-.12.14-.07a.26.26,0,0,0,.23,0c.06,0,.09-.05.09-.11s0-.08-.07-.1l-.17-.06c-.2-.08-.28-.19-.25-.35S185,247.42,185.16,247.41Z"/><path class="cls-21" d="M186.41,248a.39.39,0,0,1-.39.42.37.37,0,0,1-.4-.38.39.39,0,0,1,.37-.42A.38.38,0,0,1,186.41,248Z"/><path class="cls-21" d="M188.34,248v.11c0,.19,0,.19-.19.18l-.1,0a.26.26,0,0,1-.35-.13c-.06-.16,0-.29.2-.35l.13,0s.08,0,.08,0,0-.06-.07-.07a.22.22,0,0,0-.18,0c-.09.05-.12,0-.14-.07s.05-.07.08-.09a.62.62,0,0,1,.33,0,.22.22,0,0,1,.19.21c0,.08,0,.16,0,.24Z"/><path class="cls-21" d="M192.18,247.76h-.12s-.1,0-.11,0,0,.09.09.11a.26.26,0,0,0,.23,0c.07,0,.09,0,.12.06s0,.08-.06.09a.39.39,0,0,1-.61-.37.36.36,0,0,1,.37-.37.34.34,0,0,1,.35.36c0,.06,0,.09-.08.09Z"/><path class="cls-21" d="M193.68,247.62a.36.36,0,0,1,.39-.43.35.35,0,0,1,.32.39c0,.07,0,.06-.09.06l-.33,0s-.06,0-.07,0a.21.21,0,0,0,0,.07.23.23,0,0,0,.27,0c.07,0,.11,0,.14.05s0,.09-.08.11A.39.39,0,0,1,193.68,247.62Z"/><path class="cls-21" d="M195.22,247.61a1,1,0,0,0,0,.17c0,.07,0,.13-.1.13s-.12,0-.12-.12,0-.22,0-.33,0-.14-.13-.13-.13,0-.12.14,0,.25,0,.38,0,.08-.1.09-.11,0-.11-.08l0-.6c0-.1.07-.1.11-.08a.27.27,0,0,0,.2,0,.28.28,0,0,1,.38.24,1.48,1.48,0,0,0,0,.21Z"/><path class="cls-25" d="M190,248.21a.24.24,0,0,1-.29-.24,1.93,1.93,0,0,1,0-.24s0-.11-.09-.11-.05,0-.05-.07,0-.09,0-.09.09-.06.08-.12,0-.1.11-.11.11,0,.1.1,0,.12.12.1.11,0,.12.09-.06.08-.12.08-.11,0-.1.11,0,.15,0,.22,0,.12.11.1.12,0,.13.09-.07.07-.12.08Z"/><path class="cls-21" d="M193.32,247.23l.13,0s.08,0,.06.08,0,.09-.1.08-.18-.07-.2,0,.11.08.17.11.2.12.18.26-.11.19-.23.22a.65.65,0,0,1-.28,0s-.1,0-.06-.09,0-.11.12-.06h0c.07,0,.16,0,.19-.05s-.09-.08-.14-.1-.24-.14-.22-.27S193.11,247.24,193.32,247.23Z"/><path class="cls-26" d="M189.17,248.26a.64.64,0,0,1-.2,0s-.1,0-.07-.08,0-.11.11-.08a.31.31,0,0,0,.19,0,.06.06,0,0,0,0-.11l-.19-.08a.2.2,0,0,1-.13-.19.22.22,0,0,1,.14-.21.5.5,0,0,1,.34,0s.08,0,.06.07,0,.1-.1.08a.34.34,0,0,0-.15,0s-.06,0-.07.06,0,.05.06.06l.12.05c.11,0,.2.1.19.25a.24.24,0,0,1-.24.22Z"/><path class="cls-26" d="M186.94,248.38a.39.39,0,0,1-.41-.22.43.43,0,0,1,.08-.46.45.45,0,0,1,.48-.08s.08,0,0,.08,0,.1-.12.07-.28,0-.3.16a.22.22,0,0,0,.07.23.21.21,0,0,0,.24,0c.08-.06.13,0,.15.06s-.05.08-.09.1A.68.68,0,0,1,186.94,248.38Z"/><path class="cls-27" d="M188.71,247.71l0,.47c0,.08,0,.09-.1.09s-.12,0-.12-.08c0-.32,0-.63-.05-.94,0-.1.06-.09.11-.09s.11,0,.11.07S188.71,247.55,188.71,247.71Z"/><path class="cls-27" d="M192.58,247.48c0-.15,0-.31,0-.46s0-.09.1-.09.13,0,.13.08c0,.31,0,.63.05.94,0,.1-.06.09-.11.09s-.11,0-.11-.07Z"/><path class="cls-25" d="M191.67,247.34c0,.09,0,.16-.13.18a.16.16,0,0,0-.15.19c0,.11,0,.22,0,.32s-.06.08-.12.09-.1,0-.1-.08a5.44,5.44,0,0,0,0-.57c0-.12.07-.13.13-.1s.13,0,.2,0A.19.19,0,0,1,191.67,247.34Z"/><path class="cls-28" d="M187.31,248c0-.09,0-.19,0-.29s0-.09.11-.1.11,0,.11.09l0,.58c0,.09,0,.09-.09.09s-.13,0-.13-.07S187.31,248.06,187.31,248Z"/><path class="cls-25" d="M187.51,247.35c0,.09,0,.14-.12.14a.11.11,0,0,1-.12-.12.11.11,0,0,1,.11-.12A.11.11,0,0,1,187.51,247.35Z"/><path class="cls-29" d="M185.41,245.5a.22.22,0,0,1,.05.08.08.08,0,0,1,0,.11.09.09,0,0,1-.13,0,.11.11,0,0,1,0-.14C185.3,245.5,185.33,245.46,185.41,245.5Z"/><path class="cls-30" d="M185.51,246.25a.1.1,0,0,1-.1.11.1.1,0,0,1-.12-.09.12.12,0,0,1,.1-.12A.11.11,0,0,1,185.51,246.25Z"/><path class="cls-31" d="M185,246.32c0,.06,0,.09-.1.09s-.08,0-.08-.09a.08.08,0,0,1,.08-.09C185,246.22,185,246.26,185,246.32Z"/><path class="cls-32" d="M186,246.26a.1.1,0,0,1-.11.1.09.09,0,0,1,0-.18A.09.09,0,0,1,186,246.26Z"/><path class="cls-33" d="M185.41,245.94c.06,0,.08.05.07.11a.08.08,0,0,1-.1.06.08.08,0,0,1-.08-.06c0-.05,0-.1.07-.11Z"/><path class="cls-31" d="M185.52,246.57a.08.08,0,0,1-.08-.08.08.08,0,0,1,.08-.09.08.08,0,0,1,.1.08C185.62,246.54,185.58,246.56,185.52,246.57Z"/><path class="cls-34" d="M185.3,246.59a.09.09,0,0,1-.08-.09c0-.06,0-.09.08-.09a.08.08,0,0,1,.09.08C185.39,246.55,185.35,246.57,185.3,246.59Z"/><path class="cls-35" d="M185.09,246.45a.06.06,0,0,1,.07.07c0,.06,0,.08-.07.08a.07.07,0,0,1-.09-.08C185,246.47,185,246.45,185.09,246.45Z"/><path class="cls-36" d="M185.75,246.57c-.05,0-.08,0-.08-.08s0-.08.09-.08a.07.07,0,0,1,.07.08C185.83,246.55,185.79,246.56,185.75,246.57Z"/><path class="cls-37" d="M185.41,246.64c.06,0,.09,0,.1.07s0,.09-.07.09a.07.07,0,0,1-.09-.06C185.34,246.69,185.38,246.66,185.41,246.64Z"/><path class="cls-38" d="M186,246.59c-.07,0-.1,0-.11-.08s0-.07.09-.08.07,0,.08.08A.08.08,0,0,1,186,246.59Z"/><path class="cls-30" d="M185.31,246.73c0,.07,0,.1-.09.1a.07.07,0,0,1-.07-.08.07.07,0,0,1,.08-.08A.09.09,0,0,1,185.31,246.73Z"/><path class="cls-39" d="M184.91,245.76a.08.08,0,0,1,.09.08s0,.07-.09.07-.07,0-.07-.07A.08.08,0,0,1,184.91,245.76Z"/><path class="cls-40" d="M186.11,246.75c0,.05,0,.08-.07.08s-.07,0-.08-.06,0-.08.07-.08S186.1,246.71,186.11,246.75Z"/><path class="cls-41" d="M185.83,246.66a.07.07,0,0,1,.08.07s0,.07-.07.08-.08,0-.08-.07S185.79,246.67,185.83,246.66Z"/><path class="cls-42" d="M185.71,246.74a.06.06,0,0,1-.08.06s-.08,0-.07-.08,0-.07.08-.07S185.71,246.68,185.71,246.74Z"/><path class="cls-43" d="M184.76,245.9c.05,0,.08,0,.08.07s0,.07-.07.07-.08,0-.08-.06S184.71,245.9,184.76,245.9Z"/><path class="cls-44" d="M186.38,246s0,.07-.08.08-.07,0-.07-.06a.07.07,0,0,1,.06-.09C186.34,245.91,186.37,245.94,186.38,246Z"/><path class="cls-40" d="M186,246.08s0,.08-.07.08a.06.06,0,0,1-.07-.07c0-.05,0-.08.07-.08S186,246,186,246.08Z"/><path class="cls-42" d="M184.89,246.65a.08.08,0,1,1,0-.16.08.08,0,0,1,.08.08A.07.07,0,0,1,184.89,246.65Z"/><path class="cls-45" d="M186.24,246.45a.11.11,0,0,1-.09-.07s0-.07.07-.08a.07.07,0,0,1,.09.06S186.29,246.44,186.24,246.45Z"/><path class="cls-43" d="M184.6,246.54s-.08,0-.09-.07,0-.08.08-.08.07,0,.08.06A.08.08,0,0,1,184.6,246.54Z"/><path class="cls-40" d="M186.31,246.12c.06,0,.08,0,.08.08s0,.06-.07.06-.08,0-.08-.07A.06.06,0,0,1,186.31,246.12Z"/><path class="cls-32" d="M185.41,245.94h0s0,0,0-.05a.07.07,0,0,1,0-.11.06.06,0,0,1,.1,0,.07.07,0,0,1,0,.12A0,0,0,0,0,185.41,245.94Z"/><path class="cls-46" d="M185.15,245.76a.08.08,0,0,1,.07.09.07.07,0,0,1-.08.07.08.08,0,0,1-.07-.08C185.07,245.79,185.1,245.77,185.15,245.76Z"/><path class="cls-47" d="M186.26,245.82c0,.05,0,.09-.07.09s-.08,0-.08-.06a.07.07,0,0,1,.06-.09A.08.08,0,0,1,186.26,245.82Z"/><path class="cls-38" d="M185.91,245.82a.08.08,0,0,1-.07,0,.07.07,0,0,1-.08-.07s0-.07.06-.08S185.91,245.73,185.91,245.82Z"/><path class="cls-48" d="M185,246.7c.06,0,.09,0,.09.07s0,.07-.06.08a.07.07,0,0,1-.09-.06S185,246.72,185,246.7Z"/><path class="cls-49" d="M185.41,245.5a.25.25,0,0,0-.14.06l-.06-.05a.28.28,0,0,0,.08-.15h0a.12.12,0,0,1,.14,0v0s0,.09,0,.14Z"/><path class="cls-50" d="M184.91,246.14c0,.05,0,.07-.08.08s-.07,0-.08-.06,0-.08.07-.09S184.89,246.09,184.91,246.14Z"/><path class="cls-42" d="M185.62,245.89a.07.07,0,0,1-.08-.07s0-.07.07-.08a.09.09,0,0,1,.08.06S185.69,245.89,185.62,245.89Z"/><path class="cls-51" d="M184.76,246.64c0,.05,0,.07-.08.07s-.06,0-.06-.07a.06.06,0,0,1,.07-.07C184.74,246.56,184.76,246.59,184.76,246.64Z"/><path class="cls-52" d="M184.57,245.85c.06,0,.08,0,.08.08s0,.07-.08.07-.06,0-.06-.07A.07.07,0,0,1,184.57,245.85Z"/><path class="cls-53" d="M185.43,245.33s-.09,0-.14,0,0-.13,0-.15S185.43,245.26,185.43,245.33Z"/><path class="cls-37" d="M185.29,245.36c.05.09,0,.15-.08.15S185.18,245.37,185.29,245.36Z"/><path class="cls-30" d="M184.81,246.76c.06,0,.1,0,.09.07a.07.07,0,0,1-.06.07.07.07,0,0,1-.08-.08A.05.05,0,0,1,184.81,246.76Z"/><path class="cls-22" d="M186.14,246.49s.08,0,.08,0,0,.09-.06.09a.07.07,0,0,1-.08-.07C186.07,246.51,186.1,246.49,186.14,246.49Z"/><path class="cls-23" d="M186.07,245.9a.05.05,0,0,1,0,.07.07.07,0,0,1-.09-.06s0-.08.07-.08S186.07,245.85,186.07,245.9Z"/><path class="cls-22" d="M185.41,245.5a.17.17,0,0,1,0-.14s.12,0,.11.08S185.46,245.5,185.41,245.5Z"/><path class="cls-54" d="M186.19,248a.19.19,0,0,1-.15.23.2.2,0,0,1-.2-.22.19.19,0,0,1,.16-.22C186.1,247.8,186.18,247.9,186.19,248Z"/><path class="cls-55" d="M188.05,248s.09,0,.09.07,0,.12-.13.13a.09.09,0,0,1-.12-.08C187.87,248,187.94,248,188.05,248Z"/><path class="cls-56" d="M191.93,247.62a.17.17,0,0,1,.14-.16.11.11,0,0,1,.13,0c0,.05.05.1,0,.1Z"/><path class="cls-56" d="M193.88,247.52c0-.11.07-.16.15-.17a.12.12,0,0,1,.13.06c0,.06,0,.09,0,.09Z"/></g><g id="GF98hY.tif-2" data-name="GF98hY.tif"><path class="cls-21" d="M192.27,248.42s-.12,0-.09-.1,0-.1.12-.08a.17.17,0,0,0,.17-.26c-.1-.22-.21-.43-.32-.65.21-.05.22-.05.3.12l.16.35c0-.15.09-.27.12-.4s.08-.13.17-.13.08,0,.06.07c-.1.3-.21.6-.31.89a.37.37,0,0,1-.19.18Z"/><path class="cls-22" d="M186.47,246.11a.09.09,0,0,1,0,.13s-.08,0-.12,0v-.09A.07.07,0,0,1,186.47,246.11Z"/><path class="cls-23" d="M186.35,246s.08-.06.12,0,0,.08,0,.13-.08,0-.11,0Z"/><path class="cls-24" d="M186.35,246a.15.15,0,0,0,.11,0v.05a.2.2,0,0,0-.11,0Z"/><path class="cls-21" d="M187.1,247.3a.35.35,0,0,1,.22,0s.12,0,.08.09-.05.13-.15.08a.31.31,0,0,0-.13,0c-.07,0-.14,0-.15.1s.06.09.11.11a2,2,0,0,1,.22.09.29.29,0,0,1,.17.3.31.31,0,0,1-.23.27.55.55,0,0,1-.4,0s-.12,0-.07-.11,0-.12.15-.07a.24.24,0,0,0,.22,0,.12.12,0,0,0,.1-.1.11.11,0,0,0-.08-.11l-.17-.06c-.19-.07-.27-.19-.24-.35S186.9,247.31,187.1,247.3Z"/><path class="cls-21" d="M188.35,247.91a.38.38,0,0,1-.39.41.37.37,0,0,1-.4-.38.38.38,0,0,1,.37-.41A.36.36,0,0,1,188.35,247.91Z"/><path class="cls-21" d="M190.29,247.87V248c0,.19,0,.19-.18.18a.45.45,0,0,0-.11,0,.25.25,0,1,1-.15-.47.58.58,0,0,1,.14,0s.07,0,.07,0,0-.05-.07-.07a.2.2,0,0,0-.17,0c-.09,0-.12,0-.15-.06s.05-.08.09-.1a.5.5,0,0,1,.32,0,.21.21,0,0,1,.19.21c0,.07,0,.15,0,.23Z"/><path class="cls-21" d="M194.13,247.65H194s-.1,0-.1,0,0,.09.08.11a.26.26,0,0,0,.23,0c.07,0,.1,0,.13.05s0,.08-.06.1a.39.39,0,0,1-.61-.38.35.35,0,0,1,.36-.37.34.34,0,0,1,.35.37c0,.06,0,.08-.07.08Z"/><path class="cls-21" d="M195.62,247.51a.36.36,0,0,1,.39-.43.35.35,0,0,1,.32.4c0,.06-.05.05-.08.05l-.34,0s-.06,0-.07,0a.13.13,0,0,0,0,.07.23.23,0,0,0,.27,0c.07,0,.1,0,.14,0s0,.09-.09.11A.38.38,0,0,1,195.62,247.51Z"/><path class="cls-21" d="M197.16,247.51a.86.86,0,0,1,0,.16c0,.08,0,.13-.09.14s-.13,0-.13-.13,0-.22,0-.33,0-.14-.13-.13a.12.12,0,0,0-.12.15c0,.12,0,.25,0,.37s-.05.09-.11.09-.11,0-.11-.08l0-.6c0-.1.07-.09.12-.08a.25.25,0,0,0,.19,0,.27.27,0,0,1,.38.25,1.48,1.48,0,0,1,0,.21Z"/><path class="cls-25" d="M191.94,248.11a.24.24,0,0,1-.29-.25c0-.08,0-.16,0-.23s0-.12-.08-.11-.06,0-.06-.08,0-.09,0-.09.09-.06.08-.12,0-.09.11-.1.12,0,.11.09,0,.12.11.1.11,0,.12.09-.06.09-.12.09-.1,0-.09.1a1.77,1.77,0,0,1,0,.23c0,.06.06.11.11.09s.12,0,.13.09-.07.07-.11.09Z"/><path class="cls-21" d="M195.26,247.12l.13,0s.09,0,.06.09,0,.09-.1.07-.18-.07-.2,0,.11.09.17.11.2.12.19.26a.26.26,0,0,1-.24.22.61.61,0,0,1-.27,0s-.1,0-.07-.1,0-.1.12-.06h0c.07,0,.17,0,.19-.05s-.08-.08-.14-.1-.24-.14-.22-.27S195.05,247.13,195.26,247.12Z"/><path class="cls-26" d="M191.11,248.15a.44.44,0,0,1-.2,0s-.09,0-.07-.08,0-.11.12-.08a.31.31,0,0,0,.19,0,.06.06,0,0,0,0-.06s0,0,0-.06l-.2-.07a.22.22,0,0,1-.13-.2.2.2,0,0,1,.14-.2.45.45,0,0,1,.34,0s.08,0,.06.07,0,.1-.09.08a.39.39,0,0,0-.15,0s-.07,0-.08.06a.07.07,0,0,0,.06.07l.12,0a.25.25,0,0,1,.2.25c0,.12-.1.2-.25.22Z"/><path class="cls-26" d="M188.89,248.27a.39.39,0,0,1-.42-.22.43.43,0,0,1,.08-.46.49.49,0,0,1,.49-.08s.07,0,0,.08,0,.1-.12.08a.21.21,0,0,0-.3.15.24.24,0,0,0,.07.23.2.2,0,0,0,.24,0c.09-.06.13,0,.16.06s-.06.08-.1.1A.3.3,0,0,1,188.89,248.27Z"/><path class="cls-27" d="M190.66,247.6c0,.16,0,.31,0,.47s0,.09-.09.09-.12,0-.13-.08c0-.31,0-.63-.05-.94,0-.1.06-.09.12-.09s.1,0,.1.08S190.65,247.44,190.66,247.6Z"/><path class="cls-27" d="M194.52,247.37c0-.15,0-.3,0-.46s0-.08.1-.09.12,0,.12.08c0,.32,0,.63.05.95,0,.1-.05.08-.11.09s-.11,0-.11-.08Z"/><path class="cls-25" d="M193.62,247.23c0,.1,0,.17-.14.18a.16.16,0,0,0-.15.2c0,.1,0,.21,0,.32s-.06.08-.11.08-.11,0-.11-.08a5.44,5.44,0,0,0,0-.57c0-.12.07-.13.13-.1s.13,0,.2,0A.25.25,0,0,1,193.62,247.23Z"/><path class="cls-28" d="M189.25,247.86a2.64,2.64,0,0,0,0-.29c0-.09,0-.1.11-.11s.11,0,.12.09a5.49,5.49,0,0,0,0,.58c0,.09,0,.1-.1.1s-.12,0-.12-.08A2.83,2.83,0,0,0,189.25,247.86Z"/><path class="cls-25" d="M189.45,247.25c0,.08,0,.13-.12.13a.11.11,0,0,1-.12-.12.11.11,0,0,1,.11-.12C189.4,247.14,189.44,247.17,189.45,247.25Z"/><path class="cls-29" d="M187.35,245.39l.06.08a.08.08,0,0,1,0,.11.09.09,0,0,1-.12,0,.12.12,0,0,1,0-.15C187.24,245.39,187.28,245.35,187.35,245.39Z"/><path class="cls-30" d="M187.45,246.15a.11.11,0,0,1-.21,0,.09.09,0,0,1,.1-.11C187.4,246,187.44,246.07,187.45,246.15Z"/><path class="cls-31" d="M187,246.21c0,.07,0,.09-.1.09s-.07,0-.08-.09a.09.09,0,0,1,.08-.09C187,246.12,187,246.15,187,246.21Z"/><path class="cls-32" d="M187.9,246.15c0,.07-.05.1-.1.1a.08.08,0,0,1-.09-.09.09.09,0,0,1,.09-.09A.1.1,0,0,1,187.9,246.15Z"/><path class="cls-33" d="M187.35,245.84a.08.08,0,0,1,.07.1.09.09,0,0,1-.09.07.08.08,0,0,1-.09-.06c0-.06,0-.1.07-.11A0,0,0,0,1,187.35,245.84Z"/><path class="cls-31" d="M187.47,246.47a.11.11,0,0,1-.09-.09.08.08,0,0,1,.08-.09c.06,0,.1,0,.1.09S187.52,246.46,187.47,246.47Z"/><path class="cls-34" d="M187.24,246.48c-.05,0-.08,0-.08-.09a.09.09,0,1,1,.18,0C187.34,246.44,187.3,246.47,187.24,246.48Z"/><path class="cls-35" d="M187,246.34c.05,0,.07,0,.08.08s0,.07-.08.08a.08.08,0,0,1-.09-.09A.08.08,0,0,1,187,246.34Z"/><path class="cls-36" d="M187.69,246.46a.07.07,0,0,1-.08-.08.08.08,0,0,1,.09-.08.08.08,0,0,1,.07.09C187.77,246.44,187.73,246.45,187.69,246.46Z"/><path class="cls-37" d="M187.35,246.54c.07,0,.1,0,.1.07a.08.08,0,0,1-.16,0A.08.08,0,0,1,187.35,246.54Z"/><path class="cls-38" d="M187.91,246.48a.08.08,0,0,1-.1-.08c0-.05,0-.07.08-.07a.07.07,0,0,1,.08.07S187.94,246.48,187.91,246.48Z"/><path class="cls-30" d="M187.25,246.63c0,.06,0,.09-.09.09s-.07,0-.07-.08a.08.08,0,0,1,.08-.08A.08.08,0,0,1,187.25,246.63Z"/><path class="cls-39" d="M186.86,245.65s.08,0,.08.08a.08.08,0,0,1-.08.08s-.08,0-.07-.07A.08.08,0,0,1,186.86,245.65Z"/><path class="cls-40" d="M188.06,246.64c0,.06,0,.08-.08.09a.08.08,0,0,1-.08-.06.08.08,0,0,1,.07-.09C188,246.57,188,246.6,188.06,246.64Z"/><path class="cls-41" d="M187.77,246.55a.08.08,0,0,1,.09.07.07.07,0,0,1-.08.08.06.06,0,0,1-.08-.06S187.73,246.57,187.77,246.55Z"/><path class="cls-42" d="M187.65,246.63a.07.07,0,0,1-.08.07s-.07,0-.07-.08,0-.08.08-.08S187.65,246.57,187.65,246.63Z"/><path class="cls-43" d="M186.7,245.79c.05,0,.08,0,.08.08a.07.07,0,0,1-.06.07c-.05,0-.09,0-.09-.07A.08.08,0,0,1,186.7,245.79Z"/><path class="cls-44" d="M188.32,245.88a.07.07,0,0,1-.07.08.08.08,0,0,1-.08-.06c0-.05,0-.08.07-.09S188.31,245.83,188.32,245.88Z"/><path class="cls-40" d="M188,246c0,.05,0,.07-.08.07a.07.07,0,0,1-.07-.07s0-.08.07-.08A.07.07,0,0,1,188,246Z"/><path class="cls-42" d="M186.84,246.54c-.06,0-.08,0-.09-.08a.07.07,0,0,1,.08-.07s.08,0,.08.07A.07.07,0,0,1,186.84,246.54Z"/><path class="cls-45" d="M188.18,246.34a.07.07,0,0,1-.08-.07s0-.07.06-.08a.08.08,0,0,1,.09.07S188.23,246.33,188.18,246.34Z"/><path class="cls-43" d="M186.54,246.44s-.08,0-.08-.08a.07.07,0,0,1,.07-.08.08.08,0,0,1,.08.06S186.58,246.42,186.54,246.44Z"/><path class="cls-40" d="M188.26,246c.05,0,.07,0,.07.08a.07.07,0,0,1-.07.07.07.07,0,0,1-.08-.08C188.18,246,188.21,246,188.26,246Z"/><path class="cls-32" d="M187.35,245.84h0s0,0,0-.05a.07.07,0,0,1,0-.12.06.06,0,0,1,.09,0s.06.08,0,.12S187.34,245.81,187.35,245.84Z"/><path class="cls-46" d="M187.09,245.66a.08.08,0,1,1-.08.07S187,245.66,187.09,245.66Z"/><path class="cls-47" d="M188.21,245.72c0,.05,0,.08-.08.08s-.08,0-.08-.05,0-.09.06-.09A.09.09,0,0,1,188.21,245.72Z"/><path class="cls-38" d="M187.85,245.71a.1.1,0,0,1-.07,0c-.05,0-.07,0-.08-.08a.06.06,0,0,1,.07-.07S187.85,245.62,187.85,245.71Z"/><path class="cls-48" d="M187,246.59a.1.1,0,0,1,.09.08.08.08,0,0,1-.07.08.08.08,0,0,1-.09-.06C186.88,246.64,186.92,246.61,187,246.59Z"/><path class="cls-49" d="M187.35,245.39a.35.35,0,0,0-.14.06l-.05,0a.41.41,0,0,0,.07-.15h0a.12.12,0,0,1,.14,0v0a.12.12,0,0,1,0,.14Z"/><path class="cls-50" d="M186.85,246a.07.07,0,0,1-.07.08s-.07,0-.08-.06a.07.07,0,0,1,.06-.09A.08.08,0,0,1,186.85,246Z"/><path class="cls-42" d="M187.56,245.78a.08.08,0,0,1-.08-.06.09.09,0,0,1,.07-.09.07.07,0,0,1,.08.07S187.63,245.78,187.56,245.78Z"/><path class="cls-51" d="M186.71,246.53c0,.05,0,.08-.09.07s-.06,0-.06-.07a.06.06,0,0,1,.07-.07A.08.08,0,0,1,186.71,246.53Z"/><path class="cls-52" d="M186.52,245.74s.08,0,.07.08,0,.08-.07.07a.06.06,0,0,1-.07-.07A.08.08,0,0,1,186.52,245.74Z"/><path class="cls-53" d="M187.37,245.22c0,.05-.09,0-.14,0s0-.12,0-.14S187.37,245.15,187.37,245.22Z"/><path class="cls-37" d="M187.23,245.26c.05.09.05.15-.07.15S187.12,245.26,187.23,245.26Z"/><path class="cls-30" d="M186.75,246.65c.07,0,.1,0,.1.07a.07.07,0,0,1-.07.07.07.07,0,0,1-.08-.07A.07.07,0,0,1,186.75,246.65Z"/><path class="cls-22" d="M188.09,246.38s.07,0,.08.06,0,.08-.07.08-.08,0-.08-.07A.06.06,0,0,1,188.09,246.38Z"/><path class="cls-23" d="M188,245.79s0,.07-.06.07-.08,0-.08-.05a.07.07,0,0,1,.06-.09A.08.08,0,0,1,188,245.79Z"/><path class="cls-22" d="M187.35,245.39a.17.17,0,0,1,0-.14c.06,0,.12,0,.11.08S187.41,245.39,187.35,245.39Z"/><path class="cls-54" d="M188.13,247.92c0,.13,0,.22-.15.23s-.19-.09-.2-.23.06-.21.16-.22A.2.2,0,0,1,188.13,247.92Z"/><path class="cls-55" d="M190,247.84s.09,0,.09.07-.05.13-.13.14-.11,0-.12-.09S189.88,247.85,190,247.84Z"/><path class="cls-56" d="M193.88,247.52a.17.17,0,0,1,.13-.17.12.12,0,0,1,.13.06c0,.05.05.09,0,.09Z"/><path class="cls-56" d="M195.83,247.41a.17.17,0,0,1,.14-.17.13.13,0,0,1,.13.07c0,.05,0,.08,0,.09Z"/></g></svg>