<svg xmlns="http://www.w3.org/2000/svg" width="244" height="295" viewBox="0 0 244 295"><defs><style>.cls-1{fill:#fff;}.cls-2,.cls-3{fill:none;stroke:#fff;stroke-linecap:round;stroke-linejoin:round;}.cls-2{stroke-width:4.06px;}.cls-3{stroke-width:4.9px;}</style></defs><title>Lyd til</title><g id="Layer_2" data-name="Layer 2"><path class="cls-1" d="M125.25,55.68l-.48.19-62.6,51.71h-47A14.83,14.83,0,0,0,.37,122.41v56A14.83,14.83,0,0,0,15.2,193.21H62.93l59.12,51.64a1.06,1.06,0,0,0,.7.26h2.5a12,12,0,0,0,12-12V67.66C137.23,61.05,132.85,55.31,125.25,55.68Z"/><path class="cls-2" d="M153.49,75.05c31.38,36.4,31.38,108.72,0,145.12"/><path class="cls-3" d="M172.6,45c45.59,52.89,45.59,158,0,210.85"/><path class="cls-3" d="M194.42,3.33c62.35,72.32,62.35,216,0,288.34"/></g></svg>