<svg xmlns="http://www.w3.org/2000/svg" xmlns:xlink="http://www.w3.org/1999/xlink" width="222.1" height="97.07" viewBox="0 0 222.1 97.07"><defs><style>.cls-1{isolation:isolate;}.cls-2{opacity:0.4;mix-blend-mode:multiply;}.cls-3{fill:#59b13c;}.cls-4{fill:#fff;}</style></defs><title>menu</title><g class="cls-1"><g id="Layer_1" data-name="Layer 1"><image class="cls-2" width="1051" height="531" transform="translate(-9.43 -9.57) scale(0.24)" xlink:href="menu1.png"/><rect class="cls-3" width="222.1" height="97.07"/><rect class="cls-3" x="13.21" y="12.38" width="195.69" height="70.37"/><path class="cls-4" d="M209.4,83.24H12.71V11.88H209.4Zm-195.69-1H208.4V12.88H13.71Z"/><path class="cls-4" d="M76.25,53.31c-.28-5.37-.62-11.81-.56-16.61h-.18c-1.3,4.51-2.89,9.3-4.81,14.61L64,70H60.21L54,51.65c-1.82-5.42-3.35-10.38-4.43-14.95h-.11c-.11,4.8-.4,11.24-.74,17l-1,16.49H43l2.66-38.46H52l6.52,18.6c1.58,4.74,2.89,9,3.85,13h.17c1-3.89,2.33-8.11,4-13l6.8-18.6h6.3L82,70.2H77.22Z"/><path class="cls-4" d="M109.43,52.17H94.57V66h16.56V70.2H89.64V31.74h20.64V35.9H94.57V48.06h14.86Z"/><path class="cls-4" d="M117.54,70.2V31.74h5.38L135.17,51.2A108.36,108.36,0,0,1,142,63.69l.11,0c-.45-5.14-.56-9.82-.56-15.81V31.74h4.65V70.2h-5L129.1,50.68A123.13,123.13,0,0,1,122,37.84l-.17.06c.28,4.85.39,9.47.39,15.86V70.2Z"/><path class="cls-4" d="M159.78,31.74V54.51c0,8.61,3.8,12.27,8.9,12.27,5.67,0,9.3-3.77,9.3-12.27V31.74h5V54.16c0,11.82-6.18,16.67-14.46,16.67-7.82,0-13.72-4.51-13.72-16.44V31.74Z"/></g></g></svg>
