<svg xmlns="http://www.w3.org/2000/svg" width="207" height="221" viewBox="0 0 207 221"><defs><style>.cls-1{fill:#fff;stroke:#fff;stroke-miterlimit:10;stroke-width:2.32px;}.cls-2{fill:#af1917;}</style></defs><title>Musik Fra</title><g id="Layer_2" data-name="Layer 2"><path class="cls-1" d="M189.25,170.87a18.89,18.89,0,0,0-.11-6.24l-2.49-149c0-.32-.06-1.49-.07-1.81l-.07-3.3a3.47,3.47,0,0,0-.09-.73l-.32-.92h0A3.33,3.33,0,0,0,183,6.83L47.71,13.36A4,4,0,0,0,44.3,17.6l0,1.34h-.06l2.61,148.21c-6.56-3.85-16.44-3.59-26,1.48-13.95,7.38-22,22.16-17.94,33s18.62,13.66,32.57,6.27S57.21,185.81,53.17,175c-.07-.18-.21-.48-.28-.65L50.57,24.48l129.79-6.27,2.41,136.6c-6.53-4.43-16.89-4.4-26.93.91-14,7.38-22,22.16-17.94,33s18.62,13.66,32.57,6.28c10.31-5.46,17.39-14.95,18.75-23.92h0Z"/><path class="cls-1" d="M178.82,22.79,48.45,26.54c-2.19.07-4.3-1.26-4.08-3.84l-.21-7.55A3.94,3.94,0,0,1,48,11.08L178.4,8c2.19-.06,4,1,4,3.17l.21,7.55A4,4,0,0,1,178.82,22.79Z"/><path class="cls-2" d="M27.26.22c16.53,16.58,32,34,47.18,51.75,7.59,8.85,15,17.86,22.42,26.85s14.91,17.94,22.26,27l22.1,27.12c7.3,9.09,14.66,18.13,21.92,27.26,14.55,18.23,29,36.55,43.16,55.1l-6.6,5.49q-23.5-25.93-46.35-52.43c-7.67-8.8-15.23-17.68-22.84-26.51l-22.66-26.65c-7.57-8.87-15-17.86-22.51-26.78S70.34,70.56,63,61.49C48.32,43.37,34,25,20.67,5.71Z"/><path class="cls-2" d="M206.3,5.71a305.54,305.54,0,0,1-19.18,29.54q-10.29,14.2-21.48,27.64-22.39,26.88-45.12,53.47c-7.61,8.84-15.21,17.68-22.91,26.44s-15.32,17.59-23.12,26.27L62.85,182.14l-11.76,13Q39.3,208.06,27.26,220.78l-6.59-5.49Q31,201.12,41.59,187.2l10.63-13.92L63,159.47c7.13-9.24,14.4-18.36,21.65-27.5s14.53-18.25,21.85-27.33q22-27.19,44.39-54.07,11.22-13.43,23.28-26.13A305.74,305.74,0,0,1,199.7.22Z"/></g></svg>