<svg xmlns="http://www.w3.org/2000/svg" width="190" height="207.53" viewBox="0 0 190 207.53"><defs><style>.cls-1,.cls-2{fill:#fff;}.cls-1{stroke:#fff;stroke-miterlimit:10;stroke-width:2.32px;}</style></defs><title>Musik til</title><g id="Layer_2" data-name="Layer 2"><path class="cls-1" d="M188.59,165.21a18.88,18.88,0,0,0-.11-6.24L186,10c0-.32-.06-1.48-.06-1.8l-.08-3.31a3.3,3.3,0,0,0-.09-.72l-.32-.92h0a3.33,3.33,0,0,0-3.12-2.06L47.05,7.7c-1.92.09-3.44,2-3.41,4.24l0,1.33h-.06l2.61,148.22c-6.56-3.86-16.44-3.6-26,1.48-13.95,7.38-22,22.16-17.94,33s18.62,13.66,32.57,6.28,21.73-22.1,17.69-32.95c-.07-.18-.21-.48-.28-.66L49.91,18.82,179.7,12.55l2.41,136.59c-6.53-4.43-16.89-4.39-26.93.92-14,7.38-22,22.16-17.94,33s18.62,13.65,32.57,6.27c10.31-5.45,17.39-15,18.75-23.91h0Z"/><path class="cls-2" d="M179.71,16,49.34,19.71c-2.18.06-4.29-1.27-4.07-3.84l-.22-7.56A4,4,0,0,1,48.9,4.24L179.3,1.16c2.18-.06,4,1,4,3.17l.22,7.55A4,4,0,0,1,179.71,16Z"/></g></svg>