<svg xmlns="http://www.w3.org/2000/svg" xmlns:xlink="http://www.w3.org/1999/xlink" width="687" height="772" viewBox="0 0 687 772"><defs><style>.cls-1,.cls-13{fill:none;}.cls-2{fill:#cc9281;opacity:0.3;}.cls-3{isolation:isolate;}.cls-4{opacity:0.44;mix-blend-mode:multiply;}.cls-5{fill:#555454;}.cls-6{fill:#7d653c;}.cls-10,.cls-7{fill:#fff;}.cls-7{stroke:#1d1d1b;stroke-width:0.82px;}.cls-13,.cls-7{stroke-miterlimit:10;}.cls-8{fill:#fdf295;}.cls-9{fill:#1d1d1b;}.cls-11{fill:#56442a;opacity:0.13;}.cls-12{fill:#5b482d;opacity:0.21;}.cls-13{stroke:#fff;stroke-width:0.41px;}.cls-14{fill:#a57867;}.cls-15{fill:url(#New_Pattern_3);}.cls-16{fill:#a3625a;}.cls-17{fill:#8f4b5b;}.cls-18{fill:#a38451;}.cls-19{fill:#a44040;}.cls-20{fill:#a3716f;}</style><pattern id="New_Pattern_3" data-name="New Pattern 3" width="13.83" height="14" patternTransform="translate(-133.53 -334)" patternUnits="userSpaceOnUse" viewBox="0 0 13.83 14"><rect class="cls-1" width="13.83" height="14"/><path class="cls-2" d="M13.83,0c0-.45-.62-.84-1.42-.87a2.45,2.45,0,0,0-.79.09,2.64,2.64,0,0,0,.55-.47c.51-.62.66-1.35.32-1.64s-1,0-1.56.59a2.09,2.09,0,0,0-.36.57,2.92,2.92,0,0,0-.05-.5C10.37-3,9.9-3.57,9.46-3.49s-.68.79-.53,1.58a2.18,2.18,0,0,0,.16.53,2,2,0,0,0-.47-.29C7.9-2,7.16-2,7-1.58s.23,1,1,1.37l.31.13a3.35,3.35,0,0,0-.36.21c-.65.47-1,1.15-.71,1.51s1,.28,1.65-.19a1.33,1.33,0,0,0,.26-.21A2.63,2.63,0,0,0,8.91,2c0,.81.31,1.47.76,1.49s.83-.62.87-1.42a2.27,2.27,0,0,0-.14-.9h0a2.16,2.16,0,0,0,.48,1c.52.62,1.21.88,1.56.6s.2-1-.31-1.64a2.29,2.29,0,0,0-.56-.49,2.31,2.31,0,0,0,.73.14C13.15.8,13.81.46,13.83,0Z"/><path class="cls-2" d="M6.91,0c0-.45-.61-.84-1.42-.87a2.42,2.42,0,0,0-.78.09,2.6,2.6,0,0,0,.54-.47c.52-.62.66-1.35.32-1.64s-1,0-1.56.59a2.71,2.71,0,0,0-.36.57,2.89,2.89,0,0,0,0-.5C3.46-3,3-3.57,2.54-3.49S1.87-2.7,2-1.91a2.74,2.74,0,0,0,.17.53,2.47,2.47,0,0,0-.47-.29C1-2,.24-2,.05-1.58s.23,1,1,1.37l.32.13A3.35,3.35,0,0,0,1,.13C.3.6,0,1.28.25,1.64s1,.28,1.65-.19a1.71,1.71,0,0,0,.26-.21A2.34,2.34,0,0,0,2,2c0,.81.3,1.47.75,1.49s.84-.62.87-1.42a2.27,2.27,0,0,0-.14-.9h0a2.06,2.06,0,0,0,.48,1c.51.62,1.21.88,1.55.6s.21-1-.31-1.64A2.12,2.12,0,0,0,4.69.63a2.43,2.43,0,0,0,.74.14C6.23.8,6.9.46,6.91,0Z"/><path class="cls-2" d="M17.29,7c0-.45-.62-.84-1.42-.87a2.45,2.45,0,0,0-.79.09,2.37,2.37,0,0,0,.54-.47c.52-.62.67-1.35.32-1.64s-1,0-1.55.59a2.41,2.41,0,0,0-.37.57,2.15,2.15,0,0,0,0-.5c-.15-.79-.62-1.36-1.06-1.28s-.68.79-.53,1.58a2.18,2.18,0,0,0,.16.53,2.19,2.19,0,0,0-.47-.29c-.72-.35-1.46-.31-1.66.09s.23,1,.95,1.37l.32.13a3.35,3.35,0,0,0-.36.21c-.65.47-1,1.15-.71,1.51s1,.28,1.65-.19a1.71,1.71,0,0,0,.26-.21,2.34,2.34,0,0,0-.16.77c0,.81.31,1.47.75,1.49S14,9.88,14,9.08a2.28,2.28,0,0,0-.13-.9h0a2.06,2.06,0,0,0,.48,1c.52.62,1.21.88,1.56.6s.2-1-.31-1.64a2.49,2.49,0,0,0-.56-.49,2.31,2.31,0,0,0,.73.14C16.6,7.8,17.27,7.46,17.29,7Z"/><path class="cls-2" d="M10.37,7c0-.45-.62-.84-1.42-.87a2.39,2.39,0,0,0-.78.09,2.88,2.88,0,0,0,.54-.47c.52-.62.66-1.35.32-1.64s-1,0-1.56.59a2.09,2.09,0,0,0-.36.57,2.18,2.18,0,0,0-.05-.5C6.92,4,6.44,3.43,6,3.51s-.68.79-.53,1.58a2.74,2.74,0,0,0,.16.53,2.12,2.12,0,0,0-.46-.29C4.44,5,3.7,5,3.5,5.42s.24,1,1,1.37l.32.13a3.47,3.47,0,0,0-.37.21c-.65.47-1,1.15-.71,1.51s1,.28,1.66-.19a1.27,1.27,0,0,0,.25-.21A2.63,2.63,0,0,0,5.46,9c0,.81.3,1.47.75,1.49s.84-.62.87-1.42a2.27,2.27,0,0,0-.14-.9H7a2.18,2.18,0,0,0,.49,1C8,9.78,8.68,10,9,9.76s.21-1-.31-1.64a2.12,2.12,0,0,0-.56-.49,2.43,2.43,0,0,0,.74.14C9.69,7.8,10.35,7.46,10.37,7Z"/><path class="cls-2" d="M3.46,7c0-.45-.62-.84-1.42-.87a2.45,2.45,0,0,0-.79.09,2.37,2.37,0,0,0,.54-.47c.52-.62.67-1.35.32-1.64s-1,0-1.55.59a2.41,2.41,0,0,0-.37.57,2.15,2.15,0,0,0,0-.5C0,4-.47,3.43-.91,3.51s-.68.79-.53,1.58a2.18,2.18,0,0,0,.16.53,2.19,2.19,0,0,0-.47-.29C-2.47,5-3.21,5-3.41,5.42s.23,1,1,1.37l.32.13-.36.21c-.65.47-1,1.15-.71,1.51s1,.28,1.65-.19a1.71,1.71,0,0,0,.26-.21A2.34,2.34,0,0,0-1.46,9c0,.81.31,1.47.75,1.49s.84-.62.87-1.42A2.28,2.28,0,0,0,0,8.18h0a2.06,2.06,0,0,0,.48,1c.52.62,1.21.88,1.56.6s.2-1-.31-1.64a2.49,2.49,0,0,0-.56-.49A2.31,2.31,0,0,0,2,7.77C2.77,7.8,3.44,7.46,3.46,7Z"/><path class="cls-2" d="M13.83,14c0-.45-.62-.84-1.42-.87a2.45,2.45,0,0,0-.79.09,2.64,2.64,0,0,0,.55-.47c.51-.62.66-1.35.32-1.64s-1,0-1.56.59a2.09,2.09,0,0,0-.36.57,2.92,2.92,0,0,0-.05-.5c-.15-.79-.62-1.36-1.06-1.28s-.68.79-.53,1.58a2.18,2.18,0,0,0,.16.53,2,2,0,0,0-.47-.29C7.9,12,7.16,12,7,12.42s.23,1,1,1.37l.31.13-.36.21c-.65.47-1,1.15-.71,1.51s1,.28,1.65-.19a1.33,1.33,0,0,0,.26-.21,2.63,2.63,0,0,0-.16.77c0,.81.31,1.47.76,1.49s.83-.62.87-1.42a2.27,2.27,0,0,0-.14-.9h0a2.16,2.16,0,0,0,.48,1c.52.62,1.21.88,1.56.6s.2-1-.31-1.64a2.29,2.29,0,0,0-.56-.49,2.31,2.31,0,0,0,.73.14C13.15,14.8,13.81,14.46,13.83,14Z"/><path class="cls-2" d="M6.91,14c0-.45-.61-.84-1.42-.87a2.42,2.42,0,0,0-.78.09,2.6,2.6,0,0,0,.54-.47c.52-.62.66-1.35.32-1.64s-1,0-1.56.59a2.71,2.71,0,0,0-.36.57,2.89,2.89,0,0,0,0-.5C3.46,11,3,10.43,2.54,10.51s-.67.79-.53,1.58a2.74,2.74,0,0,0,.17.53,2.47,2.47,0,0,0-.47-.29C1,12,.24,12,.05,12.42s.23,1,1,1.37l.32.13L1,14.13c-.66.47-1,1.15-.71,1.51s1,.28,1.65-.19a1.71,1.71,0,0,0,.26-.21A2.34,2.34,0,0,0,2,16c0,.81.3,1.47.75,1.49s.84-.62.87-1.42a2.27,2.27,0,0,0-.14-.9h0a2.06,2.06,0,0,0,.48,1c.51.62,1.21.88,1.55.6s.21-1-.31-1.64a2.12,2.12,0,0,0-.56-.49,2.43,2.43,0,0,0,.74.14C6.23,14.8,6.9,14.46,6.91,14Z"/></pattern></defs><title>Socialstyren</title><g class="cls-3"><g id="Layer_1" data-name="Layer 1"><image class="cls-4" width="2859" height="2607" transform="translate(0.44 146.07) scale(0.24)" xlink:href="Socialstyren1.png"/><rect class="cls-5" x="12.13" y="148.62" width="661.12" height="600.81"/><rect class="cls-6" x="270.72" y="524.65" width="150.73" height="225.04"/><circle class="cls-7" cx="392.79" cy="644.6" r="7.43"/><rect class="cls-8" x="38.78" y="187.1" width="110.74" height="125.26"/><rect class="cls-9" x="38.78" y="344.21" width="110.74" height="125.26"/><rect class="cls-9" x="38.78" y="501.32" width="110.74" height="125.26"/><rect class="cls-8" x="539.83" y="501.32" width="110.74" height="125.26"/><rect class="cls-9" x="207.75" y="187.1" width="110.74" height="125.26"/><rect class="cls-9" x="207.21" y="344.21" width="110.74" height="125.26"/><rect class="cls-9" x="379.22" y="187.1" width="110.74" height="125.26"/><rect class="cls-9" x="378.48" y="344.21" width="110.74" height="125.26"/><rect class="cls-9" x="536.33" y="187.1" width="110.74" height="125.26"/><rect class="cls-9" x="535.8" y="344.21" width="110.74" height="125.26"/><rect class="cls-6" x="103.46" y="0.27" width="482.12" height="148.61"/><g id="GF98hY.tif"><path class="cls-10" d="M355.85,133.72c-1-1.25-4.47-.56-3.07-3.76.9-2,1.31-3.81,4.78-3.09,5.65,1.17,9.28-4,7.05-9.42-3.5-8.48-7.18-16.89-10.81-25.38,8.1-1.73,8.3-1.64,11,5.29,1.68,4.24,3.31,8.5,5.28,13.57,2.08-5.67,4.13-10.35,5.47-15.22,1.08-3.94,3.32-4.78,6.94-4.49,2.34.19,2.81,1.12,2,3q-6.9,16.67-13.87,33.28c-1.38,3.28-4.21,5-7.38,6.21Z"/><path class="cls-10" d="M307,44.62c1.5,1.57,1.91,3.44.34,5s-3.17.45-4.61-.59V45.8C303.79,44,305.15,43.38,307,44.62Z"/><path class="cls-10" d="M302.2,38.34c1.5-1.12,3.2-2,4.74-.49s.66,3.25-.47,4.75c-1.87,1.41-3.2.71-4.27-1.07Z"/><path class="cls-10" d="M161.31,80.26a16.46,16.46,0,0,1,8.26,1.83c1.43.72,4.46,1,2.91,3.88-1.19,2.23-2.45,4.9-6,2.69a11.33,11.33,0,0,0-5-1.49c-2.61-.19-5.24.57-5.79,3.5-.48,2.62,1.91,3.47,3.87,4.35,2.74,1.23,5.56,2.31,8.18,3.76,4.68,2.6,6.66,6.75,5.84,12s-4.29,8.57-9.27,9.79a21.63,21.63,0,0,1-15-1.52c-1.67-.84-4.59-1.27-2.45-4.43,1.36-2,2.15-4.55,5.53-2.34a10.47,10.47,0,0,0,8.66,1.38c2.14-.57,3.54-1.79,3.81-3.9s-1.06-3.27-2.79-4.06c-2.08-1-4.19-1.86-6.28-2.8-7.21-3.27-10-7.82-8.61-14C148.35,83.67,153.68,80.28,161.31,80.26Z"/><path class="cls-10" d="M207.58,106.05c-.05,9-6.44,15.13-15.58,15.07-8.76-.06-14.51-6.19-14.52-15.47,0-8.76,6.28-15,15.07-15C201.92,90.66,207.63,96.51,207.58,106.05Z"/><path class="cls-10" d="M281.47,108.68c0,1.42,0,2.83,0,4.25,0,7.38,0,7.31-7.43,6.49-1.29-.14-2.68.58-4,1-6.11,1.72-11.66-.62-13.12-5.56-1.85-6.22,1.3-11.22,8.24-12.9a38,38,0,0,1,5.24-.62c1.2-.12,2.8.2,3-1.39s-1.29-2.21-2.66-2.75a8.15,8.15,0,0,0-6.68.63c-3.49,1.75-4.5-.28-5.28-2.77-.92-2.93,1.92-2.78,3.35-3.3a20.38,20.38,0,0,1,12.5-.41c4.11,1.12,6.73,3.76,6.72,8.36v9Z"/><path class="cls-10" d="M428.41,108.35a42.28,42.28,0,0,0-4.78.05c-1.44.17-3.7-1-4.14.95s1.2,3.48,3.09,4.43a9.78,9.78,0,0,0,8.7-.06c2.85-1.27,3.72.25,4.73,2.37,1.36,2.83-1.19,3-2.51,3.53C420.78,125,410.09,117.5,411.06,104c.6-8.27,6.57-13.67,14.75-13.35,7.87.31,12.74,6.1,12.57,14.68,0,2.28-.8,3.17-3.07,3S430.71,108.35,428.41,108.35Z"/><path class="cls-10" d="M485.63,106.18c0-10.24,6.2-16.36,15.76-15.45,7.44.7,12.89,8.21,11.56,15.6-.45,2.46-2.05,2-3.53,2-4.24.06-8.49,0-12.73,0-.95,0-2.42-.52-2.64.88a4.06,4.06,0,0,0,1.05,2.82c2.84,3.41,6.68,3.11,10.19,1.84,2.82-1,4.22-.65,5.27,2.11,1.36,3.6-1.88,3.3-3.44,3.85C495.22,124.05,485.68,117.9,485.63,106.18Z"/><path class="cls-10" d="M544.43,109.2c0,2.13-.08,4.26,0,6.38.12,2.83.22,5-3.94,4.92s-4.67-1.61-4.49-5c.22-4.24,0-8.5-.06-12.75,0-3.07-1.23-5.3-4.63-5.15-3.2.15-5.13,1.52-4.89,5.32.31,4.77-.08,9.57.12,14.34.15,3.35-1.88,3.13-4.09,3.13s-4.2.12-4.13-3.17q.24-11.43,0-22.85c-.09-3.93,2.86-3.63,4.61-2.88,2.83,1.2,5,.2,7.58-.41,7.86-1.9,13.3,2.17,13.83,10.19.17,2.64,0,5.31,0,8Z"/><path class="cls-10" d="M344.12,121.12c-6.79,0-10.21-3.15-10.44-9.88-.11-3,0-6,0-9,0-2.15.38-4.39-3-4.32-2.05,0-2-1.68-1.9-3.1s-.51-3.38,1.53-3.32c3.55.1,3.65-2,3.32-4.42-.54-4,2.13-3.44,4.64-3.65,3.1-.26,4.22,1,3.72,3.9-.57,3.37.91,4.45,4.11,4,2.57-.34,4.34.06,4.35,3.52,0,3.88-2.49,3.26-4.64,3.09-3-.24-4.11.88-3.86,3.91.24,2.82,0,5.67.09,8.5.06,2.6,1.81,4.42,4,3.81,3.8-1,4.45,1.25,4.66,3.72.27,3.18-2.65,2.55-4.51,3.06A10.49,10.49,0,0,1,344.12,121.12Z"/><path class="cls-10" d="M472.77,90.66a49.41,49.41,0,0,1,4.86,1c1.5.42,3.27,1,2.19,3.28-.77,1.63-1.48,3.33-3.87,2.59-2.8-.87-6.81-2.89-7.82.81s3.89,3.49,6.35,4.63c4.48,2.08,7.26,5,6.36,10.29s-4.64,7.11-9.42,7.74A22.63,22.63,0,0,1,461,119.55c-1.38-.48-3.68-1-2.23-3.71,1.08-2,1.88-3.92,4.61-2.18a3.57,3.57,0,0,0,1.46.6c2.7.27,6.37,1.94,7.45-1.55,1-3.24-3-3.26-5-4.15-6.63-2.9-9-5.83-8-10.72C460.17,93.27,464.76,90.53,472.77,90.66Z"/><path class="cls-10" d="M312.42,121.15a18.56,18.56,0,0,1-7.75-1.71c-1.22-.55-3.48-.51-2.36-3,.89-2,1.67-4.17,4.53-2.81a12.19,12.19,0,0,0,7.25,1,2.46,2.46,0,0,0,2.2-2c.25-1.26-.54-1.94-1.59-2.41-2.41-1.07-4.85-2.09-7.21-3.26-3.13-1.57-4.9-4.21-4.62-7.71a8.38,8.38,0,0,1,5.78-7.59,18.43,18.43,0,0,1,13,.22c1.3.51,3.05.86,2,2.84-.75,1.39-1,3.7-3.63,2.88-1.84-.58-3.66-1.39-5.68-1.1-1.29.19-2.54.68-2.88,2-.38,1.45.81,2.19,2,2.71,1.46.64,2.95,1.21,4.41,1.83,4.42,1.86,7.63,4.59,7,10-.58,4.72-3.88,7.42-9.74,8C314.18,121.05,313.3,121.09,312.42,121.15Z"/><path class="cls-10" d="M227.27,121.12c-7.83,0-13.22-3.52-15.3-9.25-2.28-6.3-.57-13.63,4.08-17.52,4.86-4.07,13.24-5,18.51-2,1.29.72,2.77,1.51,1.61,3.18-1.06,1.52-1.43,3.75-4.72,2.68-6.27-2-10.62.19-11.79,5.32-.74,3.23-.4,6.46,2.25,8.85a7.41,7.41,0,0,0,8.89,1.21c3.54-1.94,5,0,5.87,2.68,1,3.15-2.27,3-3.85,3.63A25.07,25.07,0,0,1,227.27,121.12Z"/><path class="cls-10" d="M296.19,99.12c0,6-.16,12,.07,18,.12,3.25-1.65,3.29-3.95,3.2s-4.58.51-4.53-3.25q.25-18,0-36.07c0-3.8,2.35-3.11,4.57-3.2s4.07-.06,3.92,3.25C296,87.09,296.19,93.11,296.19,99.12Z"/><path class="cls-10" d="M444.08,98.56c0-5.85.15-11.71-.06-17.55-.12-3.31,1.79-3.26,4.06-3.16s4.65-.66,4.6,3.17q-.23,18.08,0,36.17c.05,3.84-2.42,3.06-4.61,3.16s-4.16.13-4.05-3.17C444.22,111,444.08,104.77,444.08,98.56Z"/><path class="cls-10" d="M409.84,91.38c-.25,3.53-.83,6.22-5.6,6.42-3.72.16-6.34,2.63-6,7.19.29,4.05-.1,8.15.1,12.21.19,3.86-2.43,3-4.61,3.16-2.39.15-4-.1-3.86-3.32.25-7.26.38-14.54,0-21.78-.27-4.72,3.08-5,5.18-3.73,3,1.76,5,.78,7.58-.24A8.76,8.76,0,0,1,409.84,91.38Z"/><path class="cls-10" d="M242,106c0-3.72.18-7.46-.06-11.16-.22-3.41,1.63-3.65,4.26-3.64s4.35,0,4.23,3.52q-.37,11.15,0,22.32c.12,3.26-1.53,3.42-3.89,3.29-2.19-.12-4.8.66-4.59-3.17S242,109.75,242,106Z"/><path class="cls-10" d="M250.85,83.19c-.15,3.27-1.74,4.9-4.71,4.8s-4.61-1.76-4.43-4.77c.16-2.67,1.71-4.25,4.45-4.24C249.05,79,250.84,80.34,250.85,83.19Z"/><path class="cls-10" d="M341.59,19.19a21.15,21.15,0,0,1,2,3.06,3.44,3.44,0,0,1-1.05,4.28,3.67,3.67,0,0,1-4.84.2c-2.09-1.4-2.47-3.24-1.37-5.45S338.85,17.41,341.59,19.19Z"/><path class="cls-10" d="M343.86,48.2c0,2.38-1.62,3.67-3.93,3.87-2.56.23-4.05-1.67-4.21-3.85a3.84,3.84,0,0,1,3.95-4.11C342,44,343.62,45.4,343.86,48.2Z"/><path class="cls-10" d="M325.86,49.54c-.15,2.59-1.86,3.42-3.93,3.39S319,51.2,319.05,49.3A3,3,0,0,1,322.33,46C324.79,46,325.71,47.44,325.86,49.54Z"/><path class="cls-10" d="M360.93,49.35C360.45,52,359,53,356.79,53s-3-2-3-3.67a3.29,3.29,0,0,1,3.41-3.34A3.75,3.75,0,0,1,360.93,49.35Z"/><path class="cls-10" d="M340.7,36.15c2.34.55,3.08,2.11,2.36,4.24a3.16,3.16,0,0,1-3.67,2.22,3,3,0,0,1-3-2.48c-.3-2,.17-3.86,2.79-4A.88.88,0,0,1,340.7,36.15Z"/><path class="cls-10" d="M343.8,60.38A3.14,3.14,0,0,1,340.86,57c0-2,1.11-3.4,3.17-3.35s3.59,1.25,3.48,3.57C347.41,59.3,345.9,60.09,343.8,60.38Z"/><path class="cls-10" d="M335.3,60.42c-1.91-.35-3.15-1.44-3-3.57s1.28-3.38,3.42-3.21c2,.15,3.41,1.35,3.27,3.41S337.33,60.06,335.3,60.42Z"/><path class="cls-10" d="M327.42,54.61c1.91.19,2.75,1.27,2.71,3.16s-1.38,2.84-3.07,2.86A3,3,0,0,1,324,57.2C324.11,55.49,325.6,54.61,327.42,54.61Z"/><path class="cls-10" d="M352.33,60.74c-1.73-.4-2.95-1.5-2.84-3.23.11-2,1.52-3.12,3.6-2.89s2.56,1.66,2.48,3.39C355.49,60,354,60.49,352.33,60.74Z"/><path class="cls-10" d="M339.28,62.82c2.43,0,3.51,1,3.55,2.83s-.77,3.12-2.68,3.27a3,3,0,0,1-3.43-2.58C336.44,64.29,338,63.31,339.28,62.82Z"/><path class="cls-10" d="M360.66,62c-2.71,0-3.69-1.49-3.73-3.38S358.65,56,360.22,56a2.72,2.72,0,0,1,2.88,3A2.82,2.82,0,0,1,360.66,62Z"/><path class="cls-10" d="M335.28,66.1c-.45,2.27-1.43,3.52-3.58,3.33-2-.17-2.64-1.43-2.53-3.22a2.83,2.83,0,0,1,3.15-2.77A3,3,0,0,1,335.28,66.1Z"/><path class="cls-10" d="M322.25,27.94c1.93.43,3.19,1.44,3,3.29A3.06,3.06,0,0,1,321.88,34a2.52,2.52,0,0,1-2.52-2.85A3.41,3.41,0,0,1,322.25,27.94Z"/><path class="cls-10" d="M365.88,68.33c-.14,2.06-1.19,3-3,3-1.57,0-2.73-.77-2.8-2.47s.69-3,2.69-3.09A2.73,2.73,0,0,1,365.88,68.33Z"/><path class="cls-10" d="M355.17,64.19c1.79.16,3,1.12,3.14,2.86s-1.14,2.82-2.91,3a2.57,2.57,0,0,1-3.1-2.66C352.22,65.53,353.61,64.72,355.17,64.19Z"/><path class="cls-10" d="M350.64,67a2.84,2.84,0,0,1-3.24,2.38,2.72,2.72,0,0,1-2.71-3.21c.13-2,1.45-2.73,3.21-2.68C349.86,63.54,350.6,64.88,350.64,67Z"/><path class="cls-10" d="M316.1,33c1.88.21,3,1.09,2.87,3.06a2.45,2.45,0,0,1-2.7,2.56c-1.88,0-3-.82-3.12-2.73S314.37,33.13,316.1,33Z"/><path class="cls-10" d="M377.6,39.78a2.71,2.71,0,0,1-3,2.88,2.58,2.58,0,0,1-2.86-2.43c-.17-1.93,1-2.86,2.75-3.1C376.48,36.87,377.36,38,377.6,39.78Z"/><path class="cls-10" d="M364.24,42.74c-.05,2-1.21,2.83-3,2.74a2.55,2.55,0,0,1-2.53-2.77c0-1.83.93-3,2.82-3S364.33,40.83,364.24,42.74Z"/><path class="cls-10" d="M319.62,62c-2.07-.18-3-1.29-3-3.14A2.69,2.69,0,0,1,319.75,56a3,3,0,0,1-.13,6Z"/><path class="cls-10" d="M371.39,57.24c-1.65-.36-3-1.18-3.1-3a2.54,2.54,0,0,1,2.53-2.83A2.94,2.94,0,0,1,374.25,54C374.51,55.83,373.18,56.83,371.39,57.24Z"/><path class="cls-10" d="M308.65,57.27c-1.56-.59-3.16-1.05-3.1-3.11a2.75,2.75,0,0,1,3.07-2.9A2.79,2.79,0,0,1,311.4,54C311.64,55.82,310.27,56.74,308.65,57.27Z"/><path class="cls-10" d="M374.92,44.61c2.14.1,2.75,1.42,2.61,3.19a2.4,2.4,0,0,1-2.81,2.4c-1.81-.11-3-1-3-2.93S373.26,44.7,374.92,44.61Z"/><path class="cls-10" d="M340.7,36.15l-1.48,0c.28-1-.2-1.44-1-2-1.68-1.2-1.87-2.8-.38-4.41a2.39,2.39,0,0,1,3.71-.17c1.48,1.36,1.89,3,.16,4.5C340.94,34.62,340.44,35.16,340.7,36.15Z"/><path class="cls-10" d="M331.14,28.7a2.93,2.93,0,0,1,2.66,3.4c-.11,2-1.84,2.66-3.44,2.5A2.71,2.71,0,0,1,328,31.51C328.11,29.51,329.38,28.81,331.14,28.7Z"/><path class="cls-10" d="M373.56,33.36c-.32,1.9-1.05,3.1-3.05,3.1-1.63,0-2.88-.62-2.92-2.27s.6-3.17,2.61-3.3A3.11,3.11,0,0,1,373.56,33.36Z"/><path class="cls-10" d="M360.19,32.35c0,.52-1.26,1.5-2.93,1.58-1.9.08-2.76-1.27-2.84-3.07a2.45,2.45,0,0,1,2.65-2.64C358.72,28.16,360.16,28.9,360.19,32.35Z"/><path class="cls-10" d="M324.06,64.2c2,.16,3.21,1.11,3.34,2.93a2.78,2.78,0,0,1-2.56,2.92,2.81,2.81,0,0,1-3.41-2.49C321.11,65.61,322.73,64.89,324.06,64.2Z"/><path class="cls-10" d="M321.29,42.65a3,3,0,0,1-3,2.82A2.66,2.66,0,0,1,315.32,43a2.76,2.76,0,0,1,2.6-3.33C319.75,39.49,320.76,40.79,321.29,42.65Z"/><path class="cls-10" d="M349,34.47c-1.61,0-2.92-.82-3-2.64a2.77,2.77,0,0,1,2.89-3,2.67,2.67,0,0,1,2.82,2.55C351.78,32.81,351.46,34.7,349,34.47Z"/><path class="cls-10" d="M314.71,61.4c-.27,1.89-1.51,2.66-3.32,2.47s-2.33-1.5-2.22-3a2.4,2.4,0,0,1,2.69-2.53C313.89,58.4,314.61,59.54,314.71,61.4Z"/><path class="cls-10" d="M309.07,30.82c2,.35,3,1.34,2.84,3.22a2.6,2.6,0,0,1-3.16,2.53,2.53,2.53,0,0,1-2.42-2.83A2.81,2.81,0,0,1,309.07,30.82Z"/><path class="cls-10" d="M342.68,12.75c-1.52,1.63-3.51,1.05-5.37,1.12.17-1.95-1.63-4.74,1.9-5.31C342.4,8,342.94,10.17,342.68,12.75Z"/><path class="cls-10" d="M337.39,13.79c1.66,3.45,1.39,5.79-3.25,5.59C330.84,15,333.2,13.85,337.39,13.79Z"/><path class="cls-10" d="M316.21,65.87c2.44,0,3.6,1.15,3.47,2.89a2.67,2.67,0,0,1-2.81,2.56,2.73,2.73,0,0,1-2.89-3A2.38,2.38,0,0,1,316.21,65.87Z"/><path class="cls-10" d="M367.66,58.41c1.52.09,2.82.53,2.88,2.34s-.7,3.08-2.69,3.13-2.87-1.12-2.9-3S366,58.48,367.66,58.41Z"/><path class="cls-10" d="M366.22,35.69a2.27,2.27,0,0,1-2.42,2.76c-1.61.09-2.77-.61-2.94-2.33-.19-1.93.72-3.06,2.71-3.08C365.28,33,366.11,34,366.22,35.69Z"/><path class="cls-10" d="M341.67,19.1c-.26-1.9-.31-3.76,1-5.36,2.13.24,4.72.25,4.16,3.38S343.73,19.28,341.67,19.1Z"/><path class="cls-6" d="M199.24,106c0,4.86-2.56,8.23-6.33,8.35-4.09.13-7.16-3.73-7.06-8.88.09-4.71,2.86-8,6.66-8S199.25,101,199.24,106Z"/><path class="cls-6" d="M270.41,106.88c1.62-.13,3.23-.11,3.32,2.88.11,4-2.22,4.73-5.33,4.88-2.43.13-4.17-.83-4.52-3.39S266.15,107,270.41,106.88Z"/><path class="cls-6" d="M419.13,102.69c.63-4,2.79-5.47,5.5-6a4.53,4.53,0,0,1,4.94,2.35c1.14,2,1.73,3.73-1.7,3.65C425.08,102.64,422.28,102.69,419.13,102.69Z"/><path class="cls-6" d="M493.7,102.69c.7-4.09,2.92-5.67,5.92-6a4.6,4.6,0,0,1,4.76,2.72c1,2,1.05,3.39-1.82,3.3S496.92,102.69,493.7,102.69Z"/></g><polygon class="cls-11" points="103.46 0.28 167.26 47.13 341.95 101.83 585.57 148.88 585.57 0.28 103.46 0.28"/><polygon class="cls-12" points="270.72 524.65 421.45 749.69 421.45 524.65 270.72 524.65"/><line class="cls-13" x1="94.15" y1="210.55" x2="94.15" y2="240.4"/><circle class="cls-10" cx="94.15" cy="240.15" r="1.12"/><line class="cls-13" x1="94.15" y1="367.66" x2="94.15" y2="397.51"/><circle class="cls-10" cx="94.15" cy="397.26" r="1.12"/><line class="cls-13" x1="94.15" y1="524.77" x2="94.15" y2="554.62"/><circle class="cls-10" cx="94.15" cy="554.37" r="1.12"/><line class="cls-13" x1="262.58" y1="210.55" x2="262.58" y2="240.4"/><circle class="cls-10" cx="262.58" cy="240.15" r="1.12"/><line class="cls-13" x1="262.58" y1="367.66" x2="262.58" y2="397.51"/><circle class="cls-10" cx="262.58" cy="397.26" r="1.12"/><line class="cls-13" x1="433.85" y1="210.55" x2="433.85" y2="240.4"/><circle class="cls-10" cx="433.85" cy="240.15" r="1.12"/><line class="cls-13" x1="433.85" y1="367.66" x2="433.85" y2="397.51"/><circle class="cls-10" cx="433.85" cy="397.26" r="1.12"/><line class="cls-13" x1="590.96" y1="367.66" x2="590.96" y2="397.51"/><circle class="cls-10" cx="590.96" cy="397.26" r="1.12"/><line class="cls-13" x1="595.2" y1="524.77" x2="595.2" y2="554.62"/><circle class="cls-10" cx="595.2" cy="554.37" r="1.12"/><line class="cls-13" x1="590.29" y1="208.7" x2="590.29" y2="238.56"/><circle class="cls-10" cx="590.29" cy="238.3" r="1.12"/><polygon id="_Path_" data-name="&lt;Path&gt;" class="cls-14" points="94.15 210.55 149.52 275.6 149.52 187.1 94.32 187.1 94.15 187.1 38.95 187.1 38.95 275.6 94.15 210.55"/><polygon id="_Path_2" data-name="&lt;Path&gt;" class="cls-15" points="94.15 210.2 149.52 275.25 149.52 186.74 94.32 186.74 94.15 186.74 38.95 186.74 38.95 275.25 94.15 210.2"/><polygon id="_Path_3" data-name="&lt;Path&gt;" class="cls-16" points="262.58 210.55 317.96 275.6 317.96 187.1 262.75 187.1 262.58 187.1 207.38 187.1 207.38 275.6 262.58 210.55"/><polygon id="_Path_4" data-name="&lt;Path&gt;" class="cls-15" points="262.58 210.2 317.96 275.25 317.96 186.74 262.75 186.74 262.58 186.74 207.38 186.74 207.38 275.25 262.58 210.2"/><polygon id="_Path_5" data-name="&lt;Path&gt;" class="cls-17" points="434.22 210.55 489.97 275.6 489.97 187.1 434.39 187.1 434.22 187.1 378.65 187.1 378.65 275.6 434.22 210.55"/><polygon id="_Path_6" data-name="&lt;Path&gt;" class="cls-15" points="434.18 210.55 489.97 275.6 489.97 187.1 434.35 187.1 434.18 187.1 378.56 187.1 378.56 275.6 434.18 210.55"/><polygon id="_Path_7" data-name="&lt;Path&gt;" class="cls-18" points="591.62 209.57 646.99 274.36 646.99 186.21 591.79 186.21 591.62 186.21 536.42 186.21 536.42 274.36 591.62 209.57"/><polygon id="_Path_8" data-name="&lt;Path&gt;" class="cls-15" points="591.62 209.22 646.99 274.01 646.99 185.86 591.79 185.86 591.62 185.86 536.42 185.86 536.42 274.01 591.62 209.22"/><polygon id="_Path_9" data-name="&lt;Path&gt;" class="cls-14" points="590.96 367.66 646.33 432.71 646.33 344.21 591.13 344.21 590.96 344.21 535.76 344.21 535.76 432.71 590.96 367.66"/><polygon id="_Path_10" data-name="&lt;Path&gt;" class="cls-15" points="590.96 367.31 646.33 432.36 646.33 343.85 591.13 343.85 590.96 343.85 535.76 343.85 535.76 432.36 590.96 367.31"/><polygon id="_Path_11" data-name="&lt;Path&gt;" class="cls-14" points="262.58 367.49 317.96 432.53 317.96 344.03 262.75 344.03 262.58 344.03 207.38 344.03 207.38 432.53 262.58 367.49"/><polygon id="_Path_12" data-name="&lt;Path&gt;" class="cls-15" points="262.58 367.13 317.96 432.18 317.96 343.68 262.75 343.68 262.58 343.68 207.38 343.68 207.38 432.18 262.58 367.13"/><polygon id="_Path_13" data-name="&lt;Path&gt;" class="cls-18" points="262.58 367.66 317.96 432.71 317.96 344.21 262.75 344.21 262.58 344.21 207.38 344.21 207.38 432.71 262.58 367.66"/><polygon id="_Path_14" data-name="&lt;Path&gt;" class="cls-15" points="262.58 367.31 317.96 432.36 317.96 343.85 262.75 343.85 262.58 343.85 207.38 343.85 207.38 432.36 262.58 367.31"/><polygon id="_Path_15" data-name="&lt;Path&gt;" class="cls-16" points="94.15 367.49 149.52 432.53 149.52 344.03 94.32 344.03 94.15 344.03 38.95 344.03 38.95 432.53 94.15 367.49"/><polygon id="_Path_16" data-name="&lt;Path&gt;" class="cls-15" points="94.15 367.13 149.52 432.18 149.52 343.68 94.32 343.68 94.15 343.68 38.95 343.68 38.95 432.18 94.15 367.13"/><polygon id="_Path_17" data-name="&lt;Path&gt;" class="cls-17" points="94.15 524.59 149.52 589.64 149.52 501.14 94.32 501.14 94.15 501.14 38.95 501.14 38.95 589.64 94.15 524.59"/><polygon id="_Path_18" data-name="&lt;Path&gt;" class="cls-15" points="94.15 524.24 149.52 589.29 149.52 500.79 94.32 500.79 94.15 500.79 38.95 500.79 38.95 589.29 94.15 524.24"/><polygon id="_Path_19" data-name="&lt;Path&gt;" class="cls-19" points="595.2 525.13 650.57 590.17 650.57 501.67 595.37 501.67 595.2 501.67 540 501.67 540 590.17 595.2 525.13"/><polygon id="_Path_20" data-name="&lt;Path&gt;" class="cls-15" points="595.2 524.77 650.57 589.82 650.57 501.32 595.37 501.32 595.2 501.32 540 501.32 540 589.82 595.2 524.77"/><polygon id="_Path_21" data-name="&lt;Path&gt;" class="cls-20" points="433.85 367.84 489.22 432.89 489.22 344.38 434.02 344.38 433.85 344.38 378.65 344.38 378.65 432.89 433.85 367.84"/><polygon id="_Path_22" data-name="&lt;Path&gt;" class="cls-15" points="433.85 367.49 489.22 432.53 489.22 344.03 434.02 344.03 433.85 344.03 378.65 344.03 378.65 432.53 433.85 367.49"/></g></g></svg>