<svg id="Layer_1" data-name="Layer 1" xmlns="http://www.w3.org/2000/svg" width="1920" height="1080" viewBox="0 0 1920 1080"><defs><style>.cls-1{fill:#5680c0;}.cls-2,.cls-61,.cls-63,.cls-64{fill:none;}.cls-2,.cls-49{stroke:#010101;}.cls-106,.cls-2,.cls-3,.cls-49,.cls-50,.cls-61,.cls-63{stroke-miterlimit:10;}.cls-2{stroke-width:8px;}.cls-3{fill:#0ba338;stroke:#cdcccc;}.cls-4,.cls-49,.cls-53{fill:#fff;}.cls-4,.cls-5,.cls-57{opacity:0.21;}.cls-5{fill:#575757;}.cls-6,.cls-62,.cls-67,.cls-68{fill:#010101;}.cls-7{fill:#404040;}.cls-8{fill:#f8f8f8;}.cls-9{fill:#3a3a3a;}.cls-10{fill:#fafafa;}.cls-11{fill:#323232;}.cls-12{fill:#f5f5f5;}.cls-13{fill:#393939;}.cls-14{fill:#fefefe;}.cls-15{fill:#303030;}.cls-16{fill:#060606;}.cls-17{fill:#313131;}.cls-18{fill:#050505;}.cls-19{fill:#444;}.cls-20{fill:#454545;}.cls-21{fill:#3c3c3c;}.cls-22{fill:#363636;}.cls-23{fill:#fbfbfb;}.cls-24{fill:#f2f2f2;}.cls-25{fill:#f9f9f9;}.cls-26{fill:#4b4b4b;}.cls-27{fill:#343434;}.cls-28{fill:#4a4a4a;}.cls-29{fill:#efefef;}.cls-30{fill:#f6f6f6;}.cls-31{fill:#f3f3f3;}.cls-32{fill:#474747;}.cls-33{fill:#3e3e3e;}.cls-34{fill:#3b3b3b;}.cls-35{fill:#373737;}.cls-36{fill:#353535;}.cls-37{fill:#040404;}.cls-38{fill:#f7f7f7;}.cls-39{fill:#4c4c4c;}.cls-40{fill:#333;}.cls-41{fill:#383838;}.cls-42{fill:#fcfcfc;}.cls-43{fill:#090909;}.cls-44{fill:#4e4e4e;}.cls-45{fill:#3f3f3f;}.cls-46{fill:#2f2f2f;}.cls-47{fill:#282828;}.cls-48{fill:#494949;}.cls-49{stroke-width:0.88px;}.cls-105,.cls-106,.cls-50{fill:#59b13c;}.cls-106,.cls-50{stroke:#fff;}.cls-50{stroke-width:13.24px;}.cls-51{fill:#0fb7d4;}.cls-52{fill:#fddabc;}.cls-54{fill:#915525;opacity:0.29;}.cls-55{fill:#fac6a2;opacity:0.49;}.cls-56{fill:#f9b460;}.cls-57{fill:#93571e;}.cls-58{fill:#dd6b6c;opacity:0.52;}.cls-59{fill:#4a2a15;}.cls-60{fill:#603617;}.cls-61{stroke:#b6b6b5;}.cls-62{opacity:0.27;}.cls-63{stroke:#6e4627;opacity:0.35;}.cls-65{fill:#332921;}.cls-66{fill:#cd5252;}.cls-67{font-size:4.73px;}.cls-67,.cls-68{font-family:Yantramanav-Black, Yantramanav;font-weight:800;}.cls-68{font-size:3.17px;}.cls-69{fill:#b4282f;}.cls-70{fill:#5d5d61;}.cls-71{fill:#5b5b5f;}.cls-72{fill:#f4ecec;}.cls-73{fill:#b52930;}.cls-74{fill:#b5292f;}.cls-75{fill:#b52a32;}.cls-76{fill:#b52b32;}.cls-77{fill:#5f5f63;}.cls-78{fill:#616165;}.cls-79{fill:#68686b;}.cls-80{fill:#67666a;}.cls-81{fill:#626266;}.cls-82{fill:#6c6b6f;}.cls-83{fill:#636367;}.cls-84{fill:#6b696d;}.cls-85{fill:#666569;}.cls-86{fill:#646468;}.cls-87{fill:#6e6d70;}.cls-88{fill:#68686c;}.cls-89{fill:#727073;}.cls-90{fill:#606064;}.cls-91{fill:#6b6b6e;}.cls-92{fill:#6a6a6e;}.cls-93{fill:#6f6d71;}.cls-94{fill:#6e6d71;}.cls-95{fill:#68676b;}.cls-96{fill:#6b6a6e;}.cls-97{fill:#f5efef;}.cls-98{fill:#787478;}.cls-99{fill:#656569;}.cls-100{fill:#5e5e62;}.cls-101{fill:#666468;}.cls-102{fill:#fefcfd;}.cls-103{fill:#fbf7f6;}.cls-104{fill:#f6ebec;}.cls-106{stroke-width:3px;}.cls-107{fill:#a8775e;opacity:0.15;}</style></defs><title>Startskærm</title><rect class="cls-1" x="-2.67" y="-2.35" width="1920.76" height="1076.07"/><line class="cls-2" x1="1642.88" y1="816.73" x2="1739.65" y2="475.46"/><path class="cls-3" d="M.44,1077.27V717.84l107-36.35H275.4l71.29-17.6H527.31l102-16.6s76.35,16.6,92.09,16.6S779,681.49,779,681.49l78.66-34.2H988.8s47.19,12.45,73.41,16.6,99.64,17.6,99.64,17.6l120.62,19.75,67.58,33.2L1455.52,751s152.37,33.19,165.34,37.34,72.07,8.3,72.07,8.3l135,4.15,40.15,12.45,20.07,8.3,26.8-4.15v259.84Z"/><path class="cls-4" d="M834.37,769.36A237.32,237.32,0,0,1,789,799.23c-28.9,14.7-30.4,37.31-1.67,22.69A376.16,376.16,0,0,0,856,776.49C881,755.63,859.56,748.37,834.37,769.36Z"/><path class="cls-4" d="M1433.74,824.22c-14.65,1.65-31,1.28-43.32-2.32-11-3.2-26.53-3.79-37.26,0-9.34,3.3-11,9.94,0,13.15,26.68,7.8,61,10.89,94.59,7.11C1479.94,838.53,1466.18,820.56,1433.74,824.22Z"/><path class="cls-4" d="M630.91,1054.11c-27.61.79-55.39.72-82.83-.71-14.19-.74-28.15,1.25-32.41,6.5-3.56,4.37,4.35,10.7,18.4,11.44,32.33,1.68,64.23,2.31,96.84,1.37C664.48,1071.75,664.77,1053.14,630.91,1054.11Z"/><path class="cls-4" d="M1371.32,936.31l-88-92.56c-21.08-22.17-52.09-24.94-31-2.71q44,46.29,88,92.56C1361.44,955.77,1392.46,958.54,1371.32,936.31Z"/><path class="cls-4" d="M1047.91,999.3l-88-92.56c-21.08-22.17-52.09-24.94-31-2.7q44,46.28,88,92.56C1038,1018.77,1069.05,1021.53,1047.91,999.3Z"/><path class="cls-4" d="M1611.1,993.62c3.75-14,14.86-28.88,5.6-57.28-4-12.27-11.15-25.36-17.58-37.77q-15.28-29.48-30.65-58.93c-15.63-30.06-31.89-21-16.31,8.94q8.74,16.84,17.51,33.67c4.67,9,14.4,25,17.51,33.68,3.55,9.93,1.73,11,.13,17q-2.47,9.26-5,18.53C1578.18,967,1606.88,1009.37,1611.1,993.62Z"/><path class="cls-4" d="M589.74,810.17c-32.42,14.31-68.29,27.54-106.3,39.79-27.92,9,3.58,21.39,31.45,12.41a1188.66,1188.66,0,0,0,115.76-44C654.41,807.92,613.26,799.79,589.74,810.17Z"/><path class="cls-4" d="M355.36,863.42c-32.42,14.31-68.3,27.54-106.31,39.79-27.92,9,3.59,21.4,31.45,12.41a1182.55,1182.55,0,0,0,115.76-44C420,861.17,378.88,853,355.36,863.42Z"/><path class="cls-4" d="M1176.1,704.91a541.08,541.08,0,0,1-67.57-8.39c-29.75-5.76-56.36,10.3-26.59,16.07a647.09,647.09,0,0,0,80.16,10.26c14,.92,28.42-1.37,32.41-6.5C1198,711.82,1190.16,705.84,1176.1,704.91Z"/><path class="cls-4" d="M1920,877.61v52c-10.71-14.66-36.06-29.07-45.24-43.1C1868.2,876.54,1904.69,871.48,1920,877.61Z"/><path class="cls-5" d="M422.14,770.31a237,237,0,0,1-45.41,29.86c-28.91,14.71-30.41,37.32-1.68,22.7a376.34,376.34,0,0,0,68.71-45.43C468.79,756.57,447.33,749.32,422.14,770.31Z"/><path class="cls-5" d="M1016.38,708.63c-14.65,1.65-31,1.28-43.32-2.32-10.95-3.2-26.53-3.78-37.26,0-9.34,3.3-11,9.94,0,13.16,26.68,7.79,61,10.88,94.59,7.1C1062.58,722.94,1048.82,705,1016.38,708.63Z"/><path class="cls-5" d="M293.83,1020.14c-27.61.79-55.39.72-82.83-.71-14.18-.74-28.15,1.25-32.41,6.5-3.56,4.37,4.35,10.7,18.41,11.44,32.32,1.69,64.22,2.31,96.83,1.37C327.4,1037.78,327.69,1019.17,293.83,1020.14Z"/><path class="cls-5" d="M1034.24,902.34l-88-92.56c-21.08-22.17-52.09-24.94-31-2.7l88,92.56C1024.36,921.8,1055.38,924.57,1034.24,902.34Z"/><path class="cls-5" d="M710.83,965.33q-44-46.27-88-92.56c-21.08-22.16-52.09-24.93-31-2.7l88,92.56C701,984.8,732,987.57,710.83,965.33Z"/><path class="cls-5" d="M1317.63,759.42c-10.49-10-18.2-26.9-47.55-32.42-12.69-2.39-27.6-2.41-41.58-2.73q-33.18-.75-66.4-1.42c-33.87-.73-33.75,17.88,0,18.6l38,.82c10.13.21,28.8-.65,38,.81,10.42,1.66,10.45,3.75,14.94,8l13.87,13.25C1278.47,775.5,1329.42,770.68,1317.63,759.42Z"/><path class="cls-5" d="M214.56,756.77c-32.43,14.31-68.3,27.54-106.31,39.79-27.92,9,3.59,21.4,31.45,12.41a1182.55,1182.55,0,0,0,115.76-44C279.23,754.52,238.07,746.39,214.56,756.77Z"/><path class="cls-5" d="M599.16,822.39A541,541,0,0,1,531.58,814c-29.75-5.76-56.36,10.3-26.59,16.07a645.68,645.68,0,0,0,80.16,10.26c14,.93,28.42-1.37,32.41-6.5C621.09,829.3,613.21,823.32,599.16,822.39Z"/><path class="cls-5" d="M1393.29,1057.09c-22.45-4.84-37-12.23-43.06-21.22-7.89-11.64-58.71-6.7-50.81,5,9.22,13.6,33.58,25.07,67.28,32.33C1395.72,1079.41,1422.22,1063.32,1393.29,1057.09Z"/><path class="cls-5" d="M1702.29,1044.37c-22.45-4.84-37-12.23-43.06-21.22-7.89-11.64-58.72-6.7-50.81,4.95,9.22,13.6,33.58,25.07,67.27,32.33C1704.71,1066.69,1731.22,1050.6,1702.29,1044.37Z"/><path class="cls-5" d="M1715.11,852.57c-7.63-11.66-58.45-6.72-50.82,4.95,13.15,20.11,59.47,41,48.45,62.25-6.06,11.71,44.71,16.72,50.81,5C1777.24,898.28,1731.27,877.28,1715.11,852.57Z"/><path class="cls-6" d="M1913.25,387.71c6.38,3,10.77,7.68,12.42,14.68a19.71,19.71,0,0,1,.1,8.81q-9.21,41.93-18.5,83.83a20.29,20.29,0,0,1-24.09,15.55q-76.37-16.71-152.69-33.63a8.39,8.39,0,0,1-.85-.27,1.42,1.42,0,0,1-.17-.64c.59-1.6,2.16-1.73,3.44-2.25a9.18,9.18,0,0,0,1.94-.82,2.51,2.51,0,0,1,1.82-.46c22.44,4.88,44.85,9.87,67.27,14.81l74.86,16.5a35.13,35.13,0,0,0,6.13,1,5.78,5.78,0,0,1,1.17.16,8.75,8.75,0,0,0,5.63-1.15c5.46-1.86,8.36-5.91,9.58-11.31,2.61-11.64,5.15-23.29,7.72-34.94q5.12-23.22,10.23-46.44c1.18-5.37.19-10.19-3.69-14.19-2.52-2.59-5.81-3.79-9.24-4.57-9-2-17.94-4-26.91-5.95q-32.34-7.12-64.67-14.27c-1.5-.33-3.09-.45-4.38-1.45a1.57,1.57,0,0,1-.33-.76c.17-1.48-.56-3.05.5-4.43a1.79,1.79,0,0,1,.62-.54,1.88,1.88,0,0,1,2.24.66c.29,1.29,1.46,1.09,2.33,1.28q31.23,6.91,62.47,13.79l24.08,5.31q-43.3-9.56-86.6-19.14c-.63-.14-2,.4-1.85-1.15a10.07,10.07,0,0,1,2.61.46q44.37,9.76,88.73,19.54A52.09,52.09,0,0,1,1913.25,387.71Z"/><path class="cls-7" d="M1811,365.68l-.38,4a1.47,1.47,0,0,1-1.24.18,49.84,49.84,0,0,0-5.37-1.4l-152.31-33.57c-1.49-.33-3-1-4.52-.11a1.77,1.77,0,0,1-.71.21c-2.18.2-4.41-.07-6.58.56a14.83,14.83,0,0,0-9.5,8.35,4.51,4.51,0,0,0-.58,1.77c-5.91,27.13-11.94,54.22-17.9,81.34a25.09,25.09,0,0,0-.75,5.26c0,5.67,2.22,10,7.3,12.75a9.72,9.72,0,0,1,2.61,1.84c.36.39.51,1,1.08,1.17a17.66,17.66,0,0,0,3,.79L1725.59,471a34.13,34.13,0,0,0,6.35,1c1.06.47,2.79-.18,3,1.77a29.1,29.1,0,0,1-5.16,2.47,5.12,5.12,0,0,1-2.6-.35L1621.1,452.48a7.21,7.21,0,0,0-2.61-.41,2.94,2.94,0,0,1-1.77-.75c0-.19-.15-.24-.32-.14l-1.17-.29c-.51-.47-1.59-.1-1.73-1.14-.43-.27-1-.22-1.28-.8a1.9,1.9,0,0,1-1-1.08c-4.3-4.5-7-9.65-6.42-16.09q8.34-38.26,16.83-76.49c1-4.48,2-9,3-13.44,2.19-7.34,10.62-13.36,18.55-13.19a2.49,2.49,0,0,0,1.27-.19c.65-.41,1.19.07,1.78.21s1,.43,1.46.67c.85.27,1.73.44,2.6.63l160.07,35.29A1.28,1.28,0,0,1,1811,365.68Z"/><path class="cls-8" d="M1646.1,328.88l-1.74-.41c-.12-.37-.73-1.21.33-.79,4.66,1.85,9.61,2.47,14.44,3.54q73.83,16.35,147.68,32.58c1.31.29,2.61.55,3.92.82a2.76,2.76,0,0,1,2.71.56c4.48,1,9,2.05,13.44,3q38.63,8.53,77.26,17l2.56.56.09-.39-92.29-20.35a4,4,0,0,1,2.61.11l91.38,20.13c1.8.4,3,1.84,4.76,2.39L1815.09,366a11.62,11.62,0,0,0-1.32-.17c-.18.17-.32.14-.42-.1l-2.19-.49a3.84,3.84,0,0,1-2.61-.08L1648.78,329.9A7.53,7.53,0,0,1,1646.1,328.88Z"/><path class="cls-9" d="M1624.54,341.85a4.91,4.91,0,0,1-.16,2.84q-9.3,42.22-18.61,84.42a5.36,5.36,0,0,1-1,2.67,13,13,0,0,1,.46-4.17q9.06-41.12,18.13-82.2A8.89,8.89,0,0,1,1624.54,341.85Z"/><path class="cls-10" d="M1813.44,365.18l-2.71-.56c-1-.82-2.19-.86-3.33-1.11L1650.85,329a6.73,6.73,0,0,1-3.2-1.15l2.93.65q79.8,17.59,159.59,35.2C1811.34,363.93,1812.78,363.76,1813.44,365.18Z"/><path class="cls-11" d="M1618.49,452.07a7.44,7.44,0,0,1,3.5.38l107.76,23.74c0,.16-.07.33-.11.49-1.38-.26-2.76-.5-4.14-.81l-103.16-22.74C1621.05,452.84,1619.78,452.43,1618.49,452.07Z"/><path class="cls-12" d="M1613.5,449.75l1.73,1.14C1614.53,450.71,1613.16,451.52,1613.5,449.75Z"/><path class="cls-12" d="M1611.18,447.87c.43.29.92.51,1,1.08C1611.49,449,1610.81,448.93,1611.18,447.87Z"/><path class="cls-13" d="M1616.4,451.18c.22-.3.48-.56.89-.36.1.05.14.21.2.33l-.77.17-.18,0Z"/><path class="cls-14" d="M1629.27,343.49c3.44-6.93,9.06-10.07,16.74-9.58.79-.58,1.59-.16,2.35,0q79.77,17.56,159.53,35.16a6,6,0,0,1,2.65,1.06c.85.24,1.69.52,2.56.71l94.21,20.77c10.46,2.31,15.22,9.77,12.92,20.24q-9,40.59-17.91,81.18c-1.33,6-4.72,10.26-10.85,12-1.78-.33-3.42.41-5.13.64l-.88-.11a6.74,6.74,0,0,0-2.31-.75l-141.76-31.25a12.84,12.84,0,0,0-1.75-.32,5,5,0,0,1-.86,0c-4.7,0-8.86-2.24-13.33-3.21-32.45-7-64.84-14.31-97.29-21.34-1.26-.27-2.48-.74-3.81-.24a1.86,1.86,0,0,1-1.9-.31c-1.11-1.3-2.69-1.35-4.09-1.88-6.21-2.5-9.55-10.25-8.1-16.75q2.61-11.7,5.16-23.42,6.75-30.69,13.49-61.39C1628.79,344.18,1628.76,343.74,1629.27,343.49Z"/><path class="cls-10" d="M1618.36,446.19a8.2,8.2,0,0,1,4.4,1.15c1.38.85,3.13,0,4.76.35,6,1.45,12,2.69,18,4l83.69,18.44a11.14,11.14,0,0,1,3.9,1.49c1.8,1.19,4.13.27,6.14,1.3q70.34,15.68,140.53,31.09l-140.65-31c.07,0,.13,0,.12-.09a4,4,0,0,1,2.77,0l140.44,31c1.14.25,2.41.29,3,1.58a12.63,12.63,0,0,1-4.14-.65l-142.76-31.45c-.87-.19-1.75-.29-2.62-.43a37.59,37.59,0,0,1-6.53-1q-52.85-11.6-105.66-23.28c-1-.22-2.11-.13-2.79-1.13Z"/><path class="cls-11" d="M1810.54,370.13c-.88-.15-1.76-.25-2.62-.44q-79.89-17.6-159.76-35.22c-.72-.16-1.43-.37-2.15-.56l-.87-.72a4.75,4.75,0,0,1,2.39.31q80,17.61,159.94,35.26a4.86,4.86,0,0,1,2.3.72l.86.19Z"/><path class="cls-15" d="M1646.1,328.88c1,.14,1.91.23,2.84.44l159.87,35.23c.79.18,1.57.43,2.35.64l-.15.49-.39-.1a4.87,4.87,0,0,1-2.39-.32q-79.53-17.5-159.06-35.06a4.82,4.82,0,0,1-2.3-.72Z"/><ellipse class="cls-16" cx="1810.07" cy="490.03" rx="0.15" ry="101.75" transform="translate(941.85 2152.17) rotate(-77.57)"/><path class="cls-17" d="M1621,447.59c1.74.36,3.48.7,5.22,1.08l107,23.57c.93.21,1.85.51,2.78.76l-1,.72c-.83-.83-2-.88-3-1.14a4.86,4.86,0,0,1-2.39-.31q-53.25-11.73-106.5-23.48a4.86,4.86,0,0,1-2.3-.72C1620.32,447.68,1620.71,447.67,1621,447.59Z"/><path class="cls-18" d="M1813.35,365.68l.42.1c.91.9,2.15,1,3.29,1.21l87.06,19.2,2.35.51-.06.36c-.66-.12-1.33-.21-2-.36q-44.42-9.78-88.8-19.6C1814.8,366.91,1813.36,367.34,1813.35,365.68Z"/><path class="cls-10" d="M1886.34,505.64c0-.79.38-1.1,1.1-.9a1.57,1.57,0,0,0,1.79-.4c1.18-1.28,1.72-.33,2.24.66A9,9,0,0,1,1886.34,505.64Z"/><path class="cls-19" d="M1809.77,369.48l-164.63-36.29c.79-.61,1.58-.09,2.33.08q79.71,17.53,159.42,35.13A5.58,5.58,0,0,1,1809.77,369.48Z"/><path class="cls-20" d="M1646.87,329.48l163.75,36.1a5.21,5.21,0,0,1-2.85-.18l-158.24-34.89A5.05,5.05,0,0,1,1646.87,329.48Z"/><path class="cls-19" d="M1620.73,448.07l111.19,24.51a5.09,5.09,0,0,1-2.84-.18l-105.69-23.3A5.09,5.09,0,0,1,1620.73,448.07Z"/><ellipse class="cls-21" cx="1618.83" cy="387.44" rx="59.47" ry="0.16" transform="translate(891.97 1884.89) rotate(-77.57)"/><path class="cls-22" d="M1629.27,343.49l-.36,1.14c-.12-.49-.36-1,.09-1.44Z"/><path class="cls-7" d="M1678,438.84c5.76-3.72,11.53-7.45,17.3-11.14a2.88,2.88,0,0,1,1-.22c.53.15.62.58.67,1,2.69,4.91,6,9.42,8.93,14.19.42.69.78,1.41,1.18,2.11s-.17,1.37-.22,2c.23-.43,0-1.09.57-1.48.48,1.35-.57,2.61-.25,3.95a10,10,0,0,0,5.36,1.17c1.19-3,1.49-6.23,2.31-9.33a5.9,5.9,0,0,1,.9-2.66c0,2.83-1.18,5.45-1.34,6.93.19-1.47,1.3-4.09,1.34-6.92l5.07-10.12c.15-.27.22-.6.52-.77a6.89,6.89,0,0,1,1.57-.2,8.59,8.59,0,0,0,7.76-.92c.48-.3.88-.87,1.52-.3.55,8.31,1.66,16.61-.86,24.85-1.15,3.74-1.79,7.64-2.57,11.48-.27,1.33-.7,1.88-2.2,1.55-16.75-3.74-33.52-7.41-50.28-11.12-.75-.16-1.81-.17-1.51-1.41,1-4.16,1.5-8.44,3-12.48,0,3-1,5.76-1.61,8.63-.88,4.37-.92,4.28,3.41,5.2,9.32,2,18.63,4.09,27.94,6.14l17.76,3.92-44.47-9.8a9.41,9.41,0,0,0-2.84-.44c-3.42-.64-2.69-.57-2.16-3.31C1676.47,445.85,1677.51,442.4,1678,438.84Z"/><path d="M1827.12,443.43c1.28-1,2-.6,2.84.77,2.55,4.16,5.28,8.21,7.94,12.3.67.25,1.2.6.95,1.45l1.11,2.29c-1.58,8.58-3.68,17-5.51,25.57-.45,2.1-2.27,1.6-3.56,1.45a65.24,65.24,0,0,1-6.72-1.41c-5.2-1.14-10.4-2.27-15.59-3.46-.83-.19-2.08,0-1.95-1.53,1.74-.12,3.34.53,5,.88,5.41,1.15,10.81,2.36,16.16,3.54,0,0-.13,0-.23,0-6.87-1.49-13.72-3.09-20.61-4.51-.54.23-1,1-1.67.26-.15-1.8.52-3.48.89-5.19,1.44-6.73,3-13.45,4.41-20.19a3.68,3.68,0,0,1,1.71-2.61c2.54-1.58,5-3.27,7.51-4.91l.24.23a1.7,1.7,0,0,1-.26,1.81.81.81,0,0,0,.25-.33,8.21,8.21,0,0,1,.5-1.36c2-1.2,3.55-3.27,6.22-3.15a2.23,2.23,0,0,1-.09-1.45A1.17,1.17,0,0,1,1827.12,443.43Z"/><path d="M1772.43,448.22a7.55,7.55,0,0,1,1.82,8.25c-1.08,3.36-1.56,6.92-2.39,10.37-.29,1.21,0,1.85,1.24,2a4.69,4.69,0,0,1,.65.14c3.79.86,3.82.86,4.75-2.93a2.84,2.84,0,0,1,1.35-1.89c3.76-2.36,7.51-4.73,11.23-7.16.94-.63,1.42-.56,2,.44,2.21,3.58,4.48,7.14,6.82,10.65a3.88,3.88,0,0,1,.63,3.51c-.6,2.06-1,4.16-1.5,6.25-.55,1.4-1.78,1.32-3,1.39q-24-5.28-48-10.6c-.73-.16-1.84.08-2-1s.77-1.54,1.5-2A156.84,156.84,0,0,0,1770,448.57,1.83,1.83,0,0,1,1772.43,448.22Z"/><path class="cls-7" d="M1772.43,448.22c-2.71,2.28-5.39,4.58-8.13,6.82a152.25,152.25,0,0,1-16.1,11.43c-.49.31-.94.67-2,1.42l50.36,11.1a1.78,1.78,0,0,1,2.11.55c-.79.62-1.57.08-2.31-.08-19.82-4.38-39.63-8.82-59.47-13.12-2.32-.5-2.61-1.32-2.09-3.41,1.29-5.18,2.47-10.39,3.44-15.63.45-2.45,1.53-4.07,3.84-4.89a4.52,4.52,0,0,0,3.27-2.09c.66-.8,1.47-.46,2.25-.29,7.09,1.56,14.15,3.19,21.26,4.63C1771,445.1,1771.56,446.72,1772.43,448.22Z"/><path class="cls-7" d="M1742,387.36l1.12-2.35c.22-.53.21-1.24,1-1.32,4.68-4.5,10.58-4.82,14.57-.77a6.22,6.22,0,0,1,.6.91,2.22,2.22,0,0,0,.76,1.55.78.78,0,0,1,0-.16.29.29,0,0,1,.25-.26c.73-3.19,1.44-6.39,2.21-9.58.16-.67,0-1.5.8-1.92a1.24,1.24,0,0,0,1.3.24c4.88.74,4.89.74,3.85,5.43-2,8.87-4,17.73-5.82,26.63-.4,1.88-1.06,2.62-2.92,1.85a3.13,3.13,0,0,0-.44-.1c-1.94-.32-4-.53-2.6-3.76-2.15,1.07-3.83,2.24-5.93,2-.19-.05-.37-.1-.56-.17-1.38-.53-2.76-1-4.25-.41a1.58,1.58,0,0,1-.65,0c-1-.2-1-1.08-1.35-1.76l-.77-1.13c0-.45-.11-.74-.6-.76-1.84-2.24-1.93-4.95-2-7.65a1.22,1.22,0,0,1,.13-1c.23-1.44,1-2.76.91-4.26A1.9,1.9,0,0,1,1742,387.36Z"/><path class="cls-7" d="M1676.38,354.65a9.84,9.84,0,0,1,6.5,1.45c-.09.12-.22.22-.25.36q-3.48,15.42-6.81,30.89a1.09,1.09,0,0,0,.06.43c0,1.18-.71,1.22-1.63,1-1.27-.3-2.56-.53-3.84-.79l-1.19-.31a.43.43,0,0,1-.06-.66c1.13-4.35,2.06-8.73,2.91-13.13,0-1-.9-1-1.53-1.23-3.74-1-7.43-2.17-11.35-2.28a2.42,2.42,0,0,0-.44.56,61.24,61.24,0,0,0-1.73,8.37,1.19,1.19,0,0,1-.59.52c-2.09-.18-4.21-.21-5.93-1.65a1.83,1.83,0,0,1,0-.66q2.88-13.61,6-27.18c0-.13.16-.24.24-.36a15.24,15.24,0,0,1,6.32,1.28c-.82,4-1.81,8-2.59,12a2,2,0,0,0,.19,1.06l12.14,2.72.81.12A61.54,61.54,0,0,0,1676.38,354.65Z"/><path class="cls-6" d="M1873.18,433.14l-4.06-2.28a15.2,15.2,0,0,1,.56-19.52,11.21,11.21,0,0,1,12.89-2.46c4.42,1.86,6.81,5.79,6.69,11,0,.74,0,1.47,0,2.21a1.51,1.51,0,0,1,.13,2.32c-.64.89-1.18,1.63-2.47,1.39-2.11-.39-4.19-.89-6.29-1.33-1.37-.29-2.74-.63-4.12-.89-.87-.16-1.9-.43-2.37.58s.25,2,1.09,2.65c1.34,1.06,2.8.89,4.64-.49s2.87-1.19,4.22.94a6.65,6.65,0,0,0,.56.36c2.73,1.45,2.69,2.37,0,4.31-3.21,2.3-6.68,2.45-10.32,1.42C1873.91,433.26,1873.54,433.21,1873.18,433.14Z"/><path class="cls-7" d="M1800.94,399.68c.58,6.46-2.5,11.23-9.13,14.15a1.78,1.78,0,0,1-2,.81c-2.4-1.16-4.84-2.12-7.59-1.52a1.72,1.72,0,0,1-.74.12,2.1,2.1,0,0,1-1.89-2.05c-4.4-3.8-5.16-8.64-3.63-13.9,1.32-4.55,4.19-7.86,9-8.82,6.94-1.39,14.15,2.07,15.71,9.55A1.18,1.18,0,0,0,1800.94,399.68Z"/><path d="M1822.21,420.49c-2.1,1.05-6-.09-6.82-2q-1.83-11.22-3.65-22.45c-.41-2.52-.42-2.52,2-2,4.39,1,4.38,1,5,5.45.38,2.76.79,5.5,1.19,8.25.59.39-.12,1,.24,1.41a2,2,0,0,0,.13,1.81c.2.39.47.42.8.18.73-1.17,1.47-2.34,2.2-3.52.45-1.08.52-2.41,1.9-2.87,1.28-1.9,2.61-3.77,3.81-5.72a1.94,1.94,0,0,1,2.52-1.09c1.54.46,3.15.72,5,1.12l-8.89,13.48a12.09,12.09,0,0,1-3.47,5.17A9,9,0,0,0,1822.21,420.49Z"/><path class="cls-6" d="M1850.29,414.71c-1.28,3-1.59,6.25-2.37,9.38-.83,3.33-.42,2.85-3.54,2.17-.35-.07-.72-.11-1.08-.16-2.22-.19-2.38-1.32-1.9-3.29,1.57-6.48,3-13,4.33-19.54.33-1.57.86-2.27,2.49-1.62a4.1,4.1,0,0,0,1.29.29c2.13.13,3.2,1,2.08,3.21,1,.26,1.25-.53,1.75-.87a6.33,6.33,0,0,1,7.62.39,1.1,1.1,0,0,1,.27,1.69,19.63,19.63,0,0,0-1.18,1.88c-.79,1.55-1.6,2.62-3.36,1a2.16,2.16,0,0,0-2.32-.29c-1.6.87-2.29,2.57-3.5,3.79Z"/><path class="cls-7" d="M1727.44,400.07c-2,.46-3.89-.51-5.8-.92-1.08-.24-.57-1.22-.42-1.87q2.47-11.25,5-22.5c2,.58,4.89.13,5.91,1.8s-.51,3.93-.93,5.94C1730,388.38,1728.7,394.23,1727.44,400.07Z"/><path class="cls-7" d="M1695.4,393q-2.07-12.13-4.18-24.26c-.23-1.32,0-1.67,1.44-1.41,5,.95,5.06.9,5.73,6.09.5,3.81,1.31,7.58,1.35,11.44-1.26,2.12-1.56,4.54-2.15,6.87C1697.3,392.88,1696.93,393.94,1695.4,393Z"/><path class="cls-7" d="M1699.73,385.29c.91.59,1-.33,1.22-.73,2.47-3.85,5-7.66,7.32-11.58.93-1.56,1.89-1.85,3.59-1.43,4.33,1.07,4.36,1,1.78,4.75s-5,7.25-7.53,10.87c-1.51.93-3.41-.59-4.85.77a3.33,3.33,0,0,0-2,1.54c-.43.58-1,1.12-1.58,0,.18-.93.35-1.86.62-2.77C1698.47,386,1698.67,385.2,1699.73,385.29Z"/><path class="cls-23" d="M1884,427.27c-1.66-.64-3.06-1-4.51.82-1.15,1.44-3.58,1.06-5.27-.25-1.52-1.18-2.43-3.88-1.93-5.37.35-1.05,1-.6,1.62-.48,3.83.82,7.65,1.67,11.48,2.52,3.06.67,3.06.67,3.78-2.41l1.61-1.35a7.92,7.92,0,0,1-.57,5.2c-.28-.21-.64-1.05-.88-.38-.84,2.32-2.47,2-4.25,1.6A3.38,3.38,0,0,0,1884,427.27Z"/><path class="cls-24" d="M1654.68,384.94l.09-.39c.15-1.52-.06-3.14,1.22-4.35a3.25,3.25,0,0,1,.76-.72l.1-.45a42.86,42.86,0,0,1,1.93-8.66.69.69,0,0,0,.22-.34,60.91,60.91,0,0,1,11.63,2.44c.54.29,1.23.27,1.62.84a94.55,94.55,0,0,1-3,13.92l0,.45c-.53-.94-.16-1.88,0-2.81.68-3.18,1.36-6.36,2.1-9.53.33-1.44-.1-2.24-1.59-2.55-2.82-.58-5.64-1.2-8.44-1.86-1.46-.34-2.25.14-2.54,1.61-.39,2-.81,3.91-1.29,5.85-.36,1.46.15,2.28,1.62,2.53,1.9.32,2,1.51,1.7,3.13-.36,1.81-1.4,2-2.92,1.64C1656.83,385.43,1655.67,385.55,1654.68,384.94Z"/><path class="cls-22" d="M1697.78,389.9a5.16,5.16,0,0,0,.7-1.33c.31-1.56,1.2-2,2.67-1.58,1.6-.17,3.19-.3,4.39,1.09l-.45,1.11-3.56,4.74c-1.62.86-3-.1-4.49-.51-.12-.91.57-1.72.38-2.65A1,1,0,0,1,1697.78,389.9Z"/><path class="cls-7" d="M1727.1,370.85c0-.22,0-.44.07-.65.94-5,1.39-5.22,6.25-3.48.59.21,1.19.41,1,1.17-.44,1.6-.29,3.37-1.38,4.78-.3,0,.14-.5-.37-.48A8.9,8.9,0,0,1,1727.1,370.85Z"/><path class="cls-13" d="M1678,438.84c0,3.56-1.23,6.88-1.94,10.3-.4,2-.17,3.17,2,3.36a3,3,0,0,1,1.73.16l46.13,10.17a3,3,0,0,1,1.64.58c-.79.62-1.57.08-2.32-.08q-23.62-5.18-47.25-10.4c-3-.66-3-.75-2.39-3.7q1.08-5.1,2.15-10.21A.21.21,0,0,1,1678,438.84Z"/><path class="cls-18" d="M1806.63,480.85a4.47,4.47,0,0,0,2.22.93c7,1.54,14,3,21,4.71,1.59.38,2.72-1.09,4.17-.44a10.74,10.74,0,0,0,.41-1.25c1.57-7.9,3.83-15.66,4.94-23.66,0-.32.38-.6.58-.9a3.55,3.55,0,0,1-.22,2.16q-2.52,11.55-5.1,23.11c-.17.76-.11,1.64-.83,2.22a3,3,0,0,1-2.85-.1c-8.08-1.93-16.23-3.52-24.3-5.47a1.68,1.68,0,0,1-.65-.53c-.25-.22-.7-.19-.74-.64Z"/><path class="cls-10" d="M1748.29,469.5l49,10.8-.06.28-49-10.8Z"/><path class="cls-23" d="M1845.36,401.3l-5,22.92-.41-.08,5-22.88Z"/><path class="cls-10" d="M1831.2,487.18l2.61.55c-.41,1.44-1.51,1-2.35.71-8.15-2.43-16.53-3.82-24.8-5.7-.67-.15-1.84.09-.65-1.11l.43.09a6.23,6.23,0,0,0,2.72.81q9.93,2.24,19.88,4.39A4.09,4.09,0,0,0,1831.2,487.18Z"/><path class="cls-10" d="M1649.28,376.75l5.38-24.39.2,0-5.37,24.36Z"/><path class="cls-25" d="M1809.79,455.76l-5.16,23.36-.25-.05,5.14-23.35Z"/><path class="cls-26" d="M1732.12,424.3l.3.56-.24,1.29c-2.86,2.3-6,3.44-9.59,2A1.3,1.3,0,0,1,1724,427a13,13,0,0,0,7.51-2.67C1731.63,424.2,1731.9,424.26,1732.12,424.3Z"/><path class="cls-27" d="M1727.1,370.85c.86.19,1.75.31,2.58.58,2.1.69,3.5.3,4.08-2.12l-.74,3.36C1731,372.29,1728.69,372.71,1727.1,370.85Z"/><path class="cls-28" d="M1697.11,392.93a6,6,0,0,0,4.42,1c-1.39,1.49-2.8-.2-4.2,0-.59-.42-1.54-.12-1.93-1,1.21,0,1.41-.86,1.61-1.75.32-1.37.61-2.74.93-4.11.25-1,.58-2,1.8-2.28v.43c-1.62,1.13-1.48,3-2,4.61-.06.29-.12.57-.19.86A2.59,2.59,0,0,1,1697.11,392.93Z"/><path class="cls-29" d="M1832.76,447c1.11.44,1.33-2,2.16-1,.58.71.23,2.2.24,3.35,0,.26-.23.52-.36.79Z"/><path class="cls-8" d="M1838.85,458a2.89,2.89,0,0,1-.95-1.45c.18-.45.53-.37.91-.38.58,0,.39-1.55,1.35-.76a2,2,0,0,1,.57,1.38c0,.86-.83.91-1.45,1.11A3.34,3.34,0,0,1,1838.85,458Z"/><path class="cls-30" d="M1824.12,417.72a26.42,26.42,0,0,1,3.47-5.17C1827.79,415.19,1826.07,416.53,1824.12,417.72Z"/><path class="cls-31" d="M1850.87,412.7c.6-1.78,1.24-3.53,3.5-3.79C1853.54,410.48,1852.92,412.26,1850.87,412.7Z"/><path class="cls-32" d="M1705.54,388.08l-4.39-1.09c-.14-.74.15-.95.86-.77,1.36.33,2.73.63,4.1.95Z"/><path class="cls-33" d="M1750.66,406c-1.77-.24-3.58-.37-5.08-1.54,0-.11.05-.23.08-.35a12.91,12.91,0,0,1,5.22,1.14l-.09.48C1750.74,405.81,1750.7,405.9,1750.66,406Z"/><path class="cls-23" d="M1891.12,427.31c-.16.51-.38,1.09-1,1s-.75-.93-.68-1.37.46-1.17,1.21-.93S1891.22,426.79,1891.12,427.31Z"/><path class="cls-12" d="M1825.18,404.76a8.82,8.82,0,0,1-1.9,2.87C1823.16,406.18,1822.89,404.62,1825.18,404.76Z"/><path class="cls-34" d="M1760.69,385.54l.29,2.3c-.81-1.25-1.9-2.36-1.67-4l1,1.13.35.57Z"/><path class="cls-25" d="M1712.34,448.77a3.65,3.65,0,0,1-4.36-.9A6.77,6.77,0,0,0,1712.34,448.77Z"/><path class="cls-30" d="M1740.87,393l-.3.85c-.64-2.41.46-4.44,1.44-6.49l-.21,1.31A10.94,10.94,0,0,1,1740.87,393Z"/><path class="cls-34" d="M1745.36,440.32c-.37,1.83-1.46,2.54-3.27,2.09Z"/><path class="cls-27" d="M1712.53,450.44c-2,.64-3.77-.37-5.6-.87,0-.06,0-.14.06-.18s.11-.08.18-.12Z"/><path class="cls-18" d="M1798.68,479.54l-2.11-.55c.65-.77,1.78-.54,2.5-1.17Z"/><path class="cls-30" d="M1697,428.51l-.67-1c.26-.4.47-1.13,1.08-.59S1697.35,428,1697,428.51Z"/><path class="cls-30" d="M1744.14,383.69l-1,1.32c-.18-.31-1-.25-.6-.87A1.08,1.08,0,0,1,1744.14,383.69Z"/><path class="cls-33" d="M1800.94,399.68c-.55.63-.65,0-.82-.31-.3-.66,0-1.08.59-1.35A2.7,2.7,0,0,1,1800.94,399.68Z"/><path class="cls-22" d="M1707.42,445.32l-.56,2.52-.44-.1.65-2.93Z"/><path class="cls-35" d="M1764.65,373.7c-.52.07-.44,1.06-1.09.77-.18-.09-.14-.66-.21-1Z"/><path class="cls-24" d="M1708.72,386.35l-.56.28c-.05-.11-.16-.29-.13-.31a4.79,4.79,0,0,1,.53-.34Z"/><path class="cls-22" d="M1742.61,401.5c.28-.19.6-.56.88-.26s0,.73-.28,1Z"/><path class="cls-12" d="M1821.08,411.15c-.06.39,0,1-.53.91s-.37-.67-.27-1.09Z"/><path class="cls-30" d="M1740.68,387.1c0-.12,0-.23-.07-.35a1.05,1.05,0,0,1,.18,0,3.58,3.58,0,0,1,.09.35Z"/><path class="cls-12" d="M1820.15,409.16l-.24-1.41C1821.36,408,1820.07,408.69,1820.15,409.16Z"/><ellipse class="cls-14" cx="1811.18" cy="488.85" rx="0.07" ry="104.33" transform="matrix(0.22, -0.98, 0.98, 0.22, 943.87, 2152.32)"/><path class="cls-36" d="M1732.12,424.3c-1,2.35-3.15,3-5.34,3.45a36.45,36.45,0,0,1-4.19.4,1.57,1.57,0,0,1-1.26-.26l2.52-5.37a.72.72,0,0,1,.2-.84c2.39-1.06,3.62-3.07,4.44-5.42,1.27-1.25,1-2.64.39-4.07a1.36,1.36,0,0,1,1.23-1.42l1.44-2C1731.75,414.36,1731.93,419.33,1732.12,424.3Z"/><path class="cls-19" d="M1727.56,463.41l-49.5-10.91a5.09,5.09,0,0,1,2.84.18l44,9.7A5.14,5.14,0,0,1,1727.56,463.41Z"/><path class="cls-27" d="M1715.74,438.46c.22,3.75-1.41,7.16-2.35,10.68q1.17-5.34,2.35-10.69Z"/><path class="cls-18" d="M1819.72,448.26l7.32-4.51.82,1.31c.25.41,1,.73.63,1.24a1.48,1.48,0,0,1-1.83.36c-2-1-3-.11-3.67,1.64-.44,1.23-1.64-.46-2,.63-.41.44-.72,1.1-1.5.58C1819.55,449.1,1819.63,448.68,1819.72,448.26Z"/><path class="cls-18" d="M1806.88,480.62l23.06,5.09,0,.11-23.25-5.13Z"/><path class="cls-37" d="M1819.46,449.51l1.5-.58c.34,2.43-2.11,2.24-3.17,3.38A4.89,4.89,0,0,1,1819.46,449.51Z"/><ellipse class="cls-18" cx="1771.93" cy="472.97" rx="0.16" ry="33.82" transform="translate(928.58 2101.53) rotate(-77.57)"/><path class="cls-37" d="M1771.24,470.36c1.8.16,3.36,1.05,5.15.87C1774.47,471.84,1772.81,471.07,1771.24,470.36Z"/><path class="cls-37" d="M1770.69,468.29c-.34,1.06,1,1.44,0,2.17-.32.23-.79.64-1.15.13C1769,469.75,1769.7,469.26,1770.69,468.29Z"/><path class="cls-13" d="M1675.88,387.78a5.08,5.08,0,0,1,.17-2.62q2.92-13.31,5.87-26.62a4.82,4.82,0,0,1,1-2.44Q1679.38,371.94,1675.88,387.78Z"/><path class="cls-11" d="M1676.38,354.65a34.69,34.69,0,0,1-2.82,12.49Z"/><path class="cls-14" d="M1752.27,401c-3.13-.4-4.7-1.94-4.87-5a13.63,13.63,0,0,1,1.72-7.68,5.07,5.07,0,0,1,9.58,2.17c.46,4.33-1.39,8.55-4.43,10.11C1753.57,400.54,1752.79,400.1,1752.27,401Z"/><path class="cls-38" d="M1752.27,401c-.39-.64-.45-1.32.32-1.63,1.11-.45,1.18.73,1.68,1.24A2.22,2.22,0,0,1,1752.27,401Z"/><path class="cls-22" d="M1761.78,381l1.07-4.85.21.05-1.08,4.9Z"/><path class="cls-39" d="M1750.88,405.24l-5.22-1.14A7.16,7.16,0,0,1,1750.88,405.24Z"/><path class="cls-17" d="M1740.87,393a12.92,12.92,0,0,1,.93-4.33A5.73,5.73,0,0,1,1740.87,393Z"/><path class="cls-35" d="M1758.41,406.56l2.28.5v.15l-2.29-.51Z"/><path class="cls-27" d="M1747.34,390.91a1.67,1.67,0,0,1-.25,1.66C1746.75,391.93,1747.23,391.45,1747.34,390.91Z"/><path class="cls-22" d="M1760.69,385.53l.43-.91c.09.17.25.34.25.51,0,.52-.26.59-.68.41Z"/><path class="cls-40" d="M1650.09,378.92q3-14,6.07-28c.09-.42.17-.9.76-.93l-6.21,28.18a.59.59,0,0,1-.08.81A.45.45,0,0,1,1650.09,378.92Z"/><path class="cls-11" d="M1669.25,387.23c.74-4.69,1.9-9.3,3-13.92.48,1.83-.28,3.51-.7,5.2C1670.83,381.43,1670.71,384.51,1669.25,387.23Z"/><path class="cls-9" d="M1670.63,372.47,1659,370c-.08-.32,0-.77.32-.64C1663,370.76,1667.05,370.75,1670.63,372.47Z"/><path class="cls-34" d="M1662.88,351.69l-2.68,12.14A39,39,0,0,1,1662.88,351.69Z"/><path class="cls-32" d="M1650.52,379l.19-.87,6,1.33-.19.88a4.68,4.68,0,0,1-.7.37,5.7,5.7,0,0,1-5.21-1.33Z"/><path class="cls-41" d="M1670.26,367.33,1662,365.5l0-.17,8.23,1.81Z"/><path class="cls-34" d="M1658.78,370.37l-1.93,8.66A20.13,20.13,0,0,1,1658.78,370.37Z"/><path class="cls-42" d="M1877.16,413.07c3.86-.08,6,1.74,6,5.07,0,1.18-.26,1.77-1.65,1.41-2.2-.59-4.43-1.07-6.67-1.48-1.36-.25-1.49-.84-.94-2a7.14,7.14,0,0,1,2.71-2.82A.73.73,0,0,1,1877.16,413.07Z"/><path class="cls-43" d="M1877.16,413.07l-.54.22c-.33-.41-1.12-.27-1.27-1C1876.28,411.94,1876.67,412.62,1877.16,413.07Z"/><path class="cls-14" d="M1784.87,407.75c-3-1.36-2.76-4.14-2.93-6.74a2.21,2.21,0,0,1,.52-2.3c.4-.78.74-1.6,1.21-2.33a5.74,5.74,0,0,1,6.09-2.62,5.44,5.44,0,0,1,4.46,4.86c.32,3.15-.16,6.16-2.66,8.48A10.82,10.82,0,0,1,1784.87,407.75Z"/><path class="cls-38" d="M1784.87,407.75a6.57,6.57,0,0,0,2.64-.92c1.27-.86,2.66.52,4,.27C1788.46,409.42,1787.51,409.35,1784.87,407.75Z"/><path class="cls-7" d="M1789,414.09a12.87,12.87,0,0,1-7.36-1.68c0-.12,0-.25.08-.37,2.41,0,4.66.9,7,1.35C1789,413.46,1789.11,413.77,1789,414.09Z"/><path class="cls-44" d="M1789,414.09c-2.23-1.39-4.86-1.33-7.28-2a16.57,16.57,0,0,1,8.36,1.93Z"/><path class="cls-45" d="M1782.46,398.71c-.17.77-.35,1.54-.52,2.3-.25.5-.27,1.15-1.1,1.48a23.54,23.54,0,0,1,1.27-4.13C1782.48,397.66,1782.32,398.59,1782.46,398.71Z"/><path class="cls-46" d="M1656.17,380.27l.39.09c-.62,1.39.38,3.46-1.79,4.19-1.77-.79-3.9-.46-5.53-1.72a7.38,7.38,0,0,1,.68-.69,1.94,1.94,0,0,1,1.26-.3C1653.21,382.42,1654.73,381.48,1656.17,380.27Z"/><path class="cls-47" d="M1649.76,382.49l-.52.34a11.72,11.72,0,0,1,.85-3.91l.43.1h0A2.17,2.17,0,0,1,1649.76,382.49Z"/><ellipse class="cls-13" cx="1729.32" cy="388.1" rx="14.43" ry="0.16" transform="translate(978.02 1993.32) rotate(-77.57)"/><path class="cls-21" d="M1726.16,378.57l-4,18.32-.21-.05,4-18.31Z"/><path class="cls-13" d="M1722.4,398.61l3.56.78,0,.17-3.56-.79Z"/><path class="cls-9" d="M1728.33,375.8l2.84.63,0,.2-2.84-.63Z"/><path class="cls-9" d="M1694.1,368.23l2.31.51,0,.21-2.4-.53Z"/><path class="cls-7" d="M1697.11,392.93l.48-2.17A1.87,1.87,0,0,1,1697.11,392.93Z"/><path class="cls-14" d="M1831.2,487.18a4.35,4.35,0,0,1-2.4-.08l-20.14-4.44a4.41,4.41,0,0,1-2.22-.94Q1818.88,484.18,1831.2,487.18Z"/><path class="cls-48" d="M1724.35,422.17c1.53-3,2.54-6.22,5-8.61.83,1.08-.43,2.29.22,3.38A8.25,8.25,0,0,1,1724.35,422.17Z"/><path class="cls-39" d="M1729.61,416.94c-.9-1.07-.33-2.24-.22-3.38l-.05-1.24c.78-.14,1.33-.05,1.08,1C1730.13,414.51,1729.87,415.72,1729.61,416.94Z"/><path class="cls-36" d="M1649.76,382.49l.76-3.47,5.65,1.25c-.79,3.46-.79,3.46-4.25,2.7Z"/><path class="cls-49" d="M929.34,50.13q.76,22.33,1.52,44.69-38.72,1-77.37,3.6l18.06,205q-29.19,2-58.32,5L785.42,104.25q-38.22,4-76.31,9.52-4.2-22-8.42-44.1A1933.61,1933.61,0,0,1,929.34,50.13Z"/><path class="cls-49" d="M670.09,453l0,.1c5.5.81,9.48.24,11.93-1.79s3.37-5.25,2.75-9.61a16.43,16.43,0,0,0-5.35-10.47c-3-2.59-8.35-5.52-16.17-8.55-16.79-5.68-29-10.52-36.7-15.18s-12.43-10.87-14.25-19.21,1-15.77,8.6-23.19,18.3-13.19,32.06-16.35,25.49-1.94,35,4.33,14.88,16.17,16.07,28.79c0,.22-.07.44-.1.65q-13.57,1.14-27.12,2.37c-.75-5.35-3-9.44-6.73-12.11s-8.44-3.53-14.07-2.65-9.87,2.8-12.71,5.64-4,5.88-3.35,9.24,2.6,5.88,6,7.7,9.92,4,19.55,7c14.88,3.66,26,9.14,33.41,16s11.78,16.63,13.21,28.75-1.41,21.27-8.43,26.67-17.09,6.39-30.28,3.38a92.19,92.19,0,0,1-24.91-9.79A80.09,80.09,0,0,1,628.78,449c-5.49-6-8.94-12.2-10.29-19.08v-.37q13.23,1.11,26.5,2.13c1.16,6.33,3.76,11.09,7.79,14.47S662.57,451.86,670.09,453Z"/><path class="cls-49" d="M735.28,334.24c11.6,35.8,22.89,73.57,33.87,113.05.44,2,.87,4,1.31,5.94l.54,0,.36-5.36c4.57-38.79,9.48-79.36,14.72-121.44q15-2,30-3.81c-9.89,60-19,117.22-27.43,170.57q-14.65-2.07-29.27-4.41c-17.27-54.08-35.25-104.16-53.93-149.27Q720.36,336.77,735.28,334.24Z"/><path class="cls-49" d="M856.47,318.43q4.08,91.8,8.18,183.62-13.6-1.24-27.19-2.72l-9.75-178Q842.08,319.75,856.47,318.43Z"/><path class="cls-49" d="M981.61,311.71,983,508.31q-13.61-.21-27.21-.64c-15-42-30.5-83.5-46.52-123.83l-.46.3,3.45,121.51q-13.66-.82-27.34-1.89-3.5-93.58-7-187.17,14.46-1.14,28.92-2c16.3,39.67,32.09,80.7,47.35,122.3l.54-.3q-.93-62.08-1.85-124.16Q967.21,311.92,981.61,311.71Z"/><path class="cls-49" d="M1044,508q-21.22.51-42.48.45-.13-98.48-.28-197,22.47-.07,44.94.47c14.82.37,27,8.4,36.41,23.63s13.7,34.22,13.1,57.16l-.9,34.59c-.6,22.95-5.8,41.91-15.42,57.12S1058,507.69,1044,508Zm-.18-161-13.83-.18-.84,126.39q6.67-.06,13.34-.15c7.32-.11,13.11-4.34,17.43-12.6s6.61-19.21,6.85-32.88q.32-17.69.62-35.36.36-20.5-5.89-32.74C1057.35,351.3,1051.43,347.1,1043.85,347Z"/><path class="cls-49" d="M1144.5,317.38q-3.09,76.25-6.19,152.48,25.51-1.33,51-3.19L1187.41,498q-38.81,4.53-77.77,7.11,3-94.95,6-189.89Q1130.06,316.15,1144.5,317.38Z"/><path class="cls-49" d="M1281.08,394.82q-1.36,13.38-2.74,26.76-23.35.45-46.81.81-1.58,20.57-3.16,41.13,27.21-2.41,54.3-5.42l-2.82,26.24q-40.32,7.19-80.93,12.23,5.55-86.13,11.11-172.27,43,5.43,85.79,13.16L1293,363.69q-28.17-3.37-56.48-6.07-1.37,17.67-2.72,35.34Q1257.48,393.8,1281.08,394.82Z"/><path class="cls-49" d="M1319.13,476.62q-13.45,2.75-27,5.25l16.5-142.26q23.6,4.49,47.06,9.66c14.22,3.16,24.89,9,31.93,16.5s9.49,15.63,7.48,25.17c-2.22,10.45-10.23,17.72-23.94,23.12q10.11,2.9,13.67,8.9c2.38,4,2.87,9.06,1.51,15.45l-1.35,6.4a29.93,29.93,0,0,0-.55,9.36c.3,3,1.34,4.89,3.09,5.7l-.3,1.36q-13.72,3.47-27.51,6.68c-2.92-1.83-3.45-8.25-1.56-19.07q.6-3.51,1.22-7c1-5.51.22-9.55-2.24-12.3s-6.58-4.06-12.34-3.81q-9.39.31-18.8.6Q1322.6,451.46,1319.13,476.62ZM1333.93,369,1329.25,403l18.2.62c5.57.19,10-.95,13.39-3.29s5.45-5.83,6.27-10.57,0-8.7-2.63-12-6.64-5.43-12.17-6.24Q1343.13,370.22,1333.93,369Z"/><path class="cls-50" d="M668.71,263.86c3.24-4.83,3.83-11,1.69-18.4s-6-12.94-11.74-16.48-15.3-6.36-28.87-8.33c-40.68-4.82-68.82-10.84-83.43-19.83-11.87-7.34-20.71-17.95-26.26-32-6.57-16.62-4.64-32.09,6.42-46.27s29.53-25,55.11-31.85L571.49,59.28q16.59-3.24,33.24-6.23l9.54,32.26c25.59-1.89,47.11,2.44,64.12,12.62s27.23,25,31.2,44.06c-.09.24-.18.48-.28.73q-32.17,4.53-64.22,10.11c-3.06-10.66-8-18.25-14.93-22.74s-15.11-5.87-24.43-4.11-15.61,5.25-18.82,10.35-3.61,11.15-1.26,18.14A26.72,26.72,0,0,0,598.36,170c6.09,3.37,17,6,32.7,8.22a383,383,0,0,1,39.76,7.47,140.8,140.8,0,0,1,29.59,10.88c8.86,4.51,15.59,10,20.26,16.37s8,14.18,10.16,23.36c4,17.36.85,32.28-8.93,44.88s-24.77,21.56-45.22,27.25l9,30.08q-13,2.36-26,4.93l-9.81-30.1c-23.85,2.59-44.71-.25-63.16-8.87s-32-23.34-40.2-44.61c.07-.37.14-.74.2-1.12q29.34-7.12,58.88-13.29c8.06,23.07,23.31,32.14,45.87,27.85l.25.13C659.81,271.86,665.47,268.7,668.71,263.86Z"/><path class="cls-49" d="M1201.36,164.37l-6.78,44.71c-4.7,30.82-18.95,54.78-41.39,72.59s-48.81,25.58-80.34,24-56.73-11.82-77-31.71-31.36-45.07-32.12-76.16q-.51-22.54-1-45.08c-.48-20.37,4.1-38.73,14.25-54.95s25-28.88,44.67-37.72,42.3-12.77,67.41-11.55c38.08,1.86,68.19,14.37,88.91,36.37S1206.05,133.59,1201.36,164.37ZM1131.89,203l4.68-45.29c1.9-18.27-1.4-33.38-10.25-45.27S1103.93,94,1086,93.16s-32.19,4.26-42.39,15.14-15.37,25.63-15.8,44.09q-.55,22.73-1.1,45.46c-.44,18.6,3.84,33.57,12.47,45s20.68,17.44,36.44,18.2,28.41-4,38.35-14.56S1130,221.5,1131.89,203Z"/><path class="cls-49" d="M1255.92,323.32q-28.92-5-58-9Q1220.18,190.66,1242.4,67q57.76,7.92,115.12,19.33c34.74,6.93,60.2,19.81,75.7,37.48s19,37.86,11.26,60.15c-8.52,24.54-29.57,38.4-62.19,43,14.93,8,24.4,17.82,28.44,29.21s3.34,24.6-1.88,39.58l-5.22,15a87.58,87.58,0,0,0-4.66,23.53q-.75,12.18,4.09,18.69c-.39,1.09-.78,2.19-1.18,3.28q-29.3-8-58.81-14.82c-5.52-7.34-5-22.34,1.69-45q2.19-7.41,4.39-14.8c3.43-11.59,2.77-21.16-2.14-28.67s-13.94-12.66-27-15.28q-21.24-4.44-42.55-8.36Q1266.7,276.3,1255.92,323.32ZM1302,122.1q-7.3,31.86-14.6,63.7,21.12,3.69,42.18,7.88c12.91,2.58,23.44,2.1,31.74-1.55s14-10.39,16.87-20.32,1.66-18.68-3.93-26.19S1359.24,133,1346,130.31Q1324.05,125.95,1302,122.1Z"/><rect class="cls-51" x="211.06" y="519.92" width="254.5" height="313.7" rx="127.25" transform="translate(-90.38 53.31) rotate(-7.95)"/><ellipse class="cls-52" cx="306.5" cy="446.06" rx="108.5" ry="110.32" transform="translate(-58.76 46.69) rotate(-7.95)"/><rect class="cls-53" x="234.63" y="443.67" width="42.25" height="42.25" rx="9.05" transform="translate(573.36 889.73) rotate(172.05)"/><circle class="cls-6" cx="255.76" cy="464.79" r="7.94"/><rect class="cls-53" x="337.22" y="434.79" width="35.02" height="35.02" rx="7.5" transform="translate(768.62 851.17) rotate(172.05)"/><circle class="cls-6" cx="354.73" cy="452.3" r="6.58"/><circle class="cls-52" cx="422.53" cy="425.05" r="22.84"/><circle class="cls-52" cx="181.7" cy="469.77" r="22.84"/><circle class="cls-54" cx="434.17" cy="423.42" r="6.22"/><circle class="cls-54" cx="170.06" cy="471.4" r="6.22"/><rect class="cls-55" x="317.44" y="538.5" width="6.03" height="14.93" rx="0.98" transform="translate(713.36 1042.36) rotate(172.05)"/><rect class="cls-17" x="227.79" y="426.47" width="51.34" height="10.5" rx="1.7" transform="translate(564.21 824.22) rotate(172.05)"/><rect class="cls-17" x="323.9" y="412.56" width="51.34" height="11.46" rx="1.86" transform="translate(753.64 784.21) rotate(172.05)"/><circle class="cls-51" cx="219.1" cy="588.22" r="49.48"/><path class="cls-56" d="M155.38,446.6l.63-4.27c0-.27.08-.54.1-.8l.47-5.23c0-.21.09-.42.13-.64a40.56,40.56,0,0,0,.53-6.68l1.9-21.18c0-.46.11-.91.19-1.35,2.69-8.45,7.26-16.29,10-24.68l17.05-22.4,10.68-14.26L208.65,331a26.11,26.11,0,0,0,3.61-1.66c3.81-2.2,7.07-5,11-7.09,6.24-3.26,12.75-5.93,19.13-8.9,5.61-.59,19-2.08,22.58-3.25,4.16-1.36,27.66-3.25,34.82-4.7a6,6,0,0,0,1.74.19c7.23-.21,14.43-1.7,21.63-2.59l2.12.07c6.75.89,15.89,2.31,18.33,2.69a3.58,3.58,0,0,1,1.12.35,93.58,93.58,0,0,0,13,5.52c7.27,2.39,16.48,10.47,20.8,12.42s7,8.39,14.74,12.41A48,48,0,0,1,407.92,348c2.74,3,20.78,24.35,20.78,24.35a49.84,49.84,0,0,1,8.7,15.81c1.37,4.37,3.21,8.87,4.81,12.83,1.4,6.14,2.65,12.34,3.59,18.56a12.4,12.4,0,0,0,.23,1.54,133.65,133.65,0,0,1,1.29,28.47c-.73,10.22-3.4,19.07-7.25,28.48-2.9,7.06-5.31,14.17-5.52,21.68-.72.31-1.66.68-3,1.18-5.5,2.06-2.85,4.45-8.3,6.81l-4.89,2.12a3.91,3.91,0,0,0-.91.54,27,27,0,0,1-12.17,5.28,95.52,95.52,0,0,0-11.71,3,4.26,4.26,0,0,1-3.12-.14,21.44,21.44,0,0,0,1.07-4.72,36.16,36.16,0,0,0-.06-9.53,4.09,4.09,0,0,0,.69-3.4c-1.59-8.14-1.17-16.78-1.23-25-.2-24.27,3.81-101.23-39.67-90.07a4.83,4.83,0,0,0-3.44,3.08,52.37,52.37,0,0,0-5.65.76l-.36.08c-14.11-.39-38.32-5.52-48.72-4.33-.25,0,17.89,7.47,17.62,7.5l-1.49.23-1.32.17a4.4,4.4,0,0,0-.67.14c-19.95,3.12-39.55,8.31-59.5,11.34a3.51,3.51,0,0,0-.78-.38q-.94-.31-1.92-.57a3.88,3.88,0,0,0-4.77-2.52c-6.07,1.38-10.07,5.77-12.61,11.09a4.41,4.41,0,0,0-1.38,3.36c-.06.17-.13.33-.18.5-.51,1.51-.95,3.06-1.35,4.62l0,0A2.62,2.62,0,0,0,224,422a4.46,4.46,0,0,0-.11,2.54,105.2,105.2,0,0,0-1.83,23.6,5.83,5.83,0,0,0-1.38,4.25,1.15,1.15,0,0,0-.06.17c-1.79,5.6-1,11.18.29,16.8,1.4,5.83,2.7,11.57,3.87,17.45a95.8,95.8,0,0,0,3.07,11.46,2,2,0,0,0,.82,2.38q1,2.87,2.17,5.68c2.73,6.7,5,13.66,8.11,20.21l0,.11a2.33,2.33,0,0,1-.92,2.05l-5.72,4.78a2.28,2.28,0,0,0-.92,2l.34,2.43c-.42.29-.84.57-1.27.84a4.21,4.21,0,0,0-1.78,2.36,40.31,40.31,0,0,1-9.77,3.13l-.47,0-2.3-2.62c-1.16-1.33-3.79-1.36-5.31-.08a4.34,4.34,0,0,1-4,.74l-7.65-2.54a2.42,2.42,0,0,1-1.77-1.84l-.93-6.66c-.24-1-.48-2-.73-3-.88-2.46-2.77-6.7-5.23-6.57-2.08.11-4.88-2.1-7.2-4.08-.55-.8-1.13-1.59-1.71-2.39a26.13,26.13,0,0,0-2.8-6.09c-.3-2.21-1.11-4.3-3.69-4.68a30.52,30.52,0,0,0-5.2-4.18c-5.71-7.43-10.75-15.18-12.66-24.46S155.52,456.59,155.38,446.6Z"/><path class="cls-57" d="M325.48,317.29a27.35,27.35,0,0,0,5.68,2.7c3.55,1.22,4.09,3.79.56,2.58a44.16,44.16,0,0,1-8.61-4.11C319.91,316.46,322.25,315.29,325.48,317.29Z"/><path class="cls-57" d="M252.68,326.07a13.53,13.53,0,0,0,4.93-1,7.76,7.76,0,0,1,4.27-.59c1.13.22,1.42,1,.21,1.5a28.7,28.7,0,0,1-10.73,2.33C247.61,328.45,248.9,326.17,252.68,326.07Z"/><path class="cls-57" d="M350.49,368.19c3.18-.35,6.36-.8,9.48-1.41,1.62-.31,3.25-.3,3.82.23s-.32,1.3-1.92,1.61c-3.68.71-7.33,1.29-11.08,1.7S346.59,368.62,350.49,368.19Z"/><path class="cls-57" d="M171.59,428.66c3.26-2,9.14-3.1,14.37-3.92,3.88-.61,4.16,1.53.29,2.13s-7.84,1.24-10.17,2.7S169.36,430.06,171.59,428.66Z"/><path class="cls-57" d="M263.7,366.54l8.61-12c2.06-2.88,5.57-3.69,3.51-.81l-8.61,12C265.15,368.62,261.63,369.43,263.7,366.54Z"/><path class="cls-57" d="M301.79,368.59l8.61-12c2.06-2.88,5.58-3.69,3.51-.8l-8.61,12C303.24,370.66,299.73,371.47,301.79,368.59Z"/><path class="cls-57" d="M228.92,354.69c1-1.31,1.65-3.37,4.93-4.47a31,31,0,0,1,4.72-1c2.53-.42,5.06-.82,7.6-1.23,3.87-.63,4.15,1.51.29,2.13l-4.34.7a43,43,0,0,0-4.33.71,2.2,2.2,0,0,0-1.59,1.16l-1.38,1.74C233.66,355.91,227.75,356.18,228.92,354.69Z"/><path class="cls-57" d="M391.67,379.39,407,376.14c3-.64,1.75,2.41-1.29,3.05l-15.37,3.25C387.36,383.08,388.63,380,391.67,379.39Z"/><path class="cls-57" d="M420.19,394.88a16.12,16.12,0,0,1,4.12-1.11l1.72-.25h.05c1.93-1.27,6.81-.9,5.14.51-1.21,1-3.65,1.44-6.09,1.8l-.58.09h0c0,.1-.09.23,0,.35a2,2,0,0,0,.3.42c1.09,1.2-4.66,2.59-5.74,1.38C418.24,397.15,417.89,396,420.19,394.88Z"/><path class="cls-57" d="M417.57,473.9a16.23,16.23,0,0,1,4.12-1.11l1.73-.25h.05c1.92-1.27,6.81-.9,5.14.51-1.22,1-3.66,1.44-6.1,1.8l-.58.09h0c0,.1-.08.23,0,.35a1.73,1.73,0,0,0,.31.42c1.08,1.2-4.66,2.59-5.75,1.38C415.63,476.17,415.27,475,417.57,473.9Z"/><path class="cls-57" d="M351.3,339.56a129.38,129.38,0,0,0,12.83,2.86c3.34.59-.07,2.51-3.41,1.93a137,137,0,0,1-14-3.19C343.85,340.34,348.44,338.75,351.3,339.56Z"/><path class="cls-57" d="M379,341.91a126.61,126.61,0,0,0,12.83,2.86c3.34.59-.07,2.51-3.41,1.93a136.43,136.43,0,0,1-14-3.19C371.58,342.69,376.17,341.1,379,341.91Z"/><path class="cls-57" d="M281.4,323.94a63,63,0,0,0,7.62-2c3.32-1.14,6.63.28,3.3,1.41a73.86,73.86,0,0,1-9,2.46c-1.59.33-3.28.3-3.82-.22S279.81,324.27,281.4,323.94Z"/><path class="cls-57" d="M225,390c2.5-.92,4-2,4.6-3.12.71-1.46,6.62-1.71,5.9-.25-.84,1.71-3.45,3.41-7.19,4.79C225.09,392.64,221.79,391.22,225,390Z"/><path class="cls-57" d="M189.37,393.53c2.5-.91,4-2,4.6-3.12.72-1.46,6.63-1.71,5.91-.25-.84,1.71-3.45,3.41-7.2,4.79C189.45,396.13,186.16,394.71,189.37,393.53Z"/><path class="cls-57" d="M211,425.57c1.4-.34,3.49-.3,3.82.23a7.81,7.81,0,0,1,1.25,4.25c0,1.39-6.08,2.25-6,.84a6.78,6.78,0,0,0-1-3.71C208.7,426.64,209.28,426,211,425.57Z"/><path class="cls-57" d="M206.91,469.85c1.41-.34,3.5-.31,3.82.23a7.64,7.64,0,0,1,1.25,4.25c0,1.39-6.07,2.24-6,.84a6.61,6.61,0,0,0-1-3.71C204.66,470.92,205.24,470.26,206.91,469.85Z"/><path class="cls-57" d="M202.11,354.13c.68-1.45,6.59-1.7,5.9-.24-1.18,2.51-6.16,5.65-4.56,7.91.89,1.25-4.86,2.64-5.74,1.38C195.71,360.37,200.65,357.23,202.11,354.13Z"/><path class="cls-57" d="M408.94,414.58a52.6,52.6,0,0,1,4-8.31c.86-1.47,6.77-1.72,5.9-.25a54.06,54.06,0,0,0-4,8.32C414.3,415.79,408.4,416,408.94,414.58Z"/><path class="cls-57" d="M426.3,444.45a53.5,53.5,0,0,1,4-8.32c.87-1.46,6.78-1.72,5.91-.24a52.27,52.27,0,0,0-4,8.32C431.66,445.65,425.75,445.9,426.3,444.45Z"/><path class="cls-57" d="M383.86,589.45c3.18-.35,6.36-.81,9.49-1.41,1.61-.31,3.24-.31,3.82.23s-.33,1.29-1.93,1.6c-3.68.71-7.33,1.3-11.08,1.71S380,589.88,383.86,589.45Z"/><path class="cls-57" d="M425,600.64l15.38-3.25c3-.64,1.74,2.42-1.3,3.06l-15.37,3.25C420.73,604.34,422,601.28,425,600.64Z"/><path class="cls-57" d="M453.56,616.14a15.83,15.83,0,0,1,4.12-1.11c.57-.1,1.15-.17,1.73-.26h0c1.92-1.26,6.81-.89,5.14.52-1.22,1-3.66,1.44-6.1,1.8l-.58.09h0c0,.1-.08.24,0,.36a1.7,1.7,0,0,0,.31.41c1.08,1.21-4.66,2.59-5.75,1.38C451.62,618.41,451.26,617.23,453.56,616.14Z"/><path class="cls-57" d="M384.67,560.82a130,130,0,0,0,12.83,2.86c3.35.58-.07,2.51-3.41,1.92a137.1,137.1,0,0,1-14-3.18C377.22,561.59,381.81,560,384.67,560.82Z"/><path class="cls-57" d="M412.4,563.17A129.38,129.38,0,0,0,425.23,566c3.34.58-.07,2.51-3.41,1.93a139.76,139.76,0,0,1-14-3.19C405,564,409.54,562.36,412.4,563.17Z"/><path class="cls-57" d="M459.67,665.71a52.27,52.27,0,0,1,4-8.32c.86-1.47,6.77-1.72,5.9-.25a54.5,54.5,0,0,0-4,8.32C465,666.91,459.13,667.15,459.67,665.71Z"/><path class="cls-58" d="M303.68,466.33l4.3-2.14-6.27-12.58a4.15,4.15,0,1,1,7.42-3.7l7.36,14.78a3.94,3.94,0,0,1,.37,1.13,3.42,3.42,0,0,1-1.62,4.38l-8.51,4.24a3.41,3.41,0,1,1-3.05-6.11Z"/><path class="cls-51" d="M147.12,696.29c-6.26,73.92,4.39,69.79,20.24,71.13s30.89,7.65,37.15-66.27S203,566.22,187.14,564.88,153.38,622.37,147.12,696.29Z"/><path class="cls-52" d="M147.56,696.3c-6.26,73.92,4.39,69.78,20.24,71.13s30.89,7.64,37.14-66.28"/><circle class="cls-51" cx="418.02" cy="560.73" r="49.48"/><path class="cls-51" d="M535.91,468.73c65.83-34.22,66.11-22.8,73.45-8.69s18.94,25.57-46.88,59.79S437.35,570.35,430,556.24,470.09,503,535.91,468.73Z"/><path class="cls-52" d="M535.91,468.73c65.83-34.22,66.11-22.8,73.45-8.69s18.94,25.57-46.88,59.79"/><polygon class="cls-59" points="477.39 816.77 244.69 849.28 233.43 768.7 464.88 737.76 477.39 816.77"/><rect class="cls-59" x="412.48" y="784.21" width="72.24" height="178.73" rx="27.11" transform="translate(-116.54 70.46) rotate(-7.95)"/><rect class="cls-59" x="251.6" y="811.97" width="69.85" height="178.73" rx="31.91" transform="matrix(0.99, -0.14, 0.14, 0.99, -121.94, 48.31)"/><rect class="cls-60" x="233.81" y="756.19" width="234.94" height="16.95" transform="translate(-104.18 57.09) rotate(-8.1)"/><rect class="cls-61" x="339.37" y="757.28" width="30.2" height="15.36" transform="translate(-95.43 51.94) rotate(-7.39)"/><circle class="cls-62" cx="344.42" cy="767.21" r="1.01"/><circle class="cls-62" cx="374.88" cy="762.88" r="1.01"/><circle class="cls-62" cx="331.98" cy="768.98" r="1.01"/><circle class="cls-62" cx="318.44" cy="770.9" r="1.01"/><circle class="cls-62" cx="306.6" cy="772.59" r="1.01"/><circle class="cls-62" cx="293.06" cy="774.51" r="1.01"/><circle class="cls-62" cx="281.22" cy="776.2" r="1.01"/><circle class="cls-62" cx="271.07" cy="777.64" r="1.01"/><circle class="cls-62" cx="259.23" cy="779.33" r="1.01"/><circle class="cls-62" cx="247.38" cy="781.01" r="1.01"/><circle class="cls-63" cx="362.47" cy="764.64" r="1.01"/><rect class="cls-61" x="363.59" y="774.33" width="6.13" height="0.39" rx="0.06" transform="translate(-94.76 52.43) rotate(-7.25)"/><path class="cls-64" d="M508.3,700.22l35.14-18.47s17.65-21.88,22.25-26,42.39-30.08,42.39-30.08"/><path class="cls-65" d="M301.11,519.23c11.85-4.74,22.19-5.45,29.85-3.81l-.53.06.51-.06c.93,6.66-7.27,8.47-13.93,9.41s-14.95,1-15.9-5.6Z"/><path class="cls-66" d="M332.16,516.35c0,7.44-10.4,8.9-15,9.54-9.89,1.38-15.6-.51-17-5.62m0,0c3.95-6,21.86-7.94,30.81-6.08h0a1.82,1.82,0,0,1,1,1.38l.1.77m-29.58,3.26a.21.21,0,0,0-.12.26c1.22,3.66,6.05,4.92,14.4,3.76,8.95-1.25,12.94-3.42,13-7.16a.21.21,0,0,0-.17-.21C321.7,514.81,312.16,516,302.58,519.61Z"/><path class="cls-66" d="M300.08,520.3l.11,0-.1-.06c4-6,21.81-8,30.93-6.14l.07,0a1.9,1.9,0,0,1,1.08,1.47l.11.77h0c0,7.54-10.56,9-15.09,9.65C307.24,527.39,301.48,525.47,300.08,520.3Zm31.86-4.7a1.67,1.67,0,0,0-1-1.3c-4.47-.93-11.24-.88-17.23.11-6.77,1.11-11.65,3.26-13.43,5.88,1.39,5,7.06,6.85,16.85,5.48,4.46-.62,14.92-2.08,14.89-9.41Zm-29.59,4.3a.31.31,0,0,1,.19-.39c9.55-3.62,19.21-4.81,27.19-3.36h0a.32.32,0,0,1,.26.32c-.08,3.82-4,6-13.12,7.27C308.48,524.91,303.59,523.62,302.35,519.9Zm.27-.18s-.08.08-.05.11c1.13,1.43,5.65,1.5,13.9.47,8.95-1.12,13.17-2.07,13.29-3.84a.1.1,0,0,0-.07-.09h0c-3.75,0-8.15,2.2-13.48,2.2C312.06,519.83,307.42,519.27,302.62,519.72Z"/><rect class="cls-53" x="362.68" y="581.73" width="55.01" height="14.29" transform="matrix(0.99, -0.14, 0.14, 0.99, -77.72, 59.64)"/><text class="cls-67" transform="translate(368.32 591.47) rotate(-7.95)">Britta Nielsen</text><text class="cls-68" transform="translate(370.8 593.88) rotate(-7.95)">Socialstyrelsen</text><g id="GF98hY.tif"><path class="cls-69" d="M371.67,597.75s-.14,0-.11-.11,0-.12.13-.11a.21.21,0,0,0,.18-.33l-.45-.74c.25-.09.25-.09.37.12l.22.39c0-.18.09-.34.11-.49s.08-.17.19-.17.09,0,.08.08l-.29,1.1a.36.36,0,0,1-.2.22Z"/><path class="cls-70" d="M364.5,595.57c.06,0,.08.1,0,.15s-.1,0-.15,0v-.1A.08.08,0,0,1,364.5,595.57Z"/><path class="cls-71" d="M364.34,595.39s.09-.08.15,0,0,.1,0,.15-.09,0-.13,0Z"/><path class="cls-72" d="M364.36,595.49a.15.15,0,0,0,.13,0v.07a.17.17,0,0,0-.12,0Z"/><path class="cls-69" d="M365.38,596.93a.51.51,0,0,1,.27,0c.05,0,.14,0,.11.11s-.06.16-.18.11a.45.45,0,0,0-.16,0c-.08,0-.16,0-.17.14s.08.1.14.11a2.14,2.14,0,0,1,.27.09.34.34,0,0,1,.24.34.37.37,0,0,1-.25.35.69.69,0,0,1-.47,0c-.06,0-.15,0-.1-.13s.05-.15.16-.1a.34.34,0,0,0,.28,0,.15.15,0,0,0,.1-.14.12.12,0,0,0-.1-.11l-.21-.06c-.24-.07-.35-.2-.33-.4S365.15,597,365.38,596.93Z"/><path class="cls-69" d="M366.93,597.53a.46.46,0,0,1-.41.54.48.48,0,0,1-.12-1A.43.43,0,0,1,366.93,597.53Z"/><path class="cls-69" d="M369.24,597.29l0,.13c0,.23,0,.23-.2.24a.56.56,0,0,0-.12,0,.31.31,0,0,1-.43-.11.3.3,0,0,1,.2-.44l.16,0s.09,0,.09-.06,0-.06-.1-.07a.23.23,0,0,0-.2,0c-.11.07-.15,0-.18-.07s0-.09.09-.11a.59.59,0,0,1,.39-.07.26.26,0,0,1,.24.23c0,.09,0,.19,0,.28Z"/><path class="cls-69" d="M373.81,596.64l-.14,0c-.05,0-.12,0-.13.05s0,.1.12.13a.32.32,0,0,0,.27,0c.08-.06.11,0,.15.05s0,.1-.06.12a.47.47,0,0,1-.76-.39.43.43,0,0,1,.4-.48.41.41,0,0,1,.45.4c0,.07,0,.11-.08.11Z"/><path class="cls-69" d="M375.58,596.32a.44.44,0,1,1,.86-.11c0,.08-.06.07-.11.08l-.39.06s-.08,0-.08,0a.15.15,0,0,0,0,.09.27.27,0,0,0,.33,0c.08,0,.13,0,.17,0s0,.11-.09.14A.46.46,0,0,1,375.58,596.32Z"/><path class="cls-69" d="M377.43,596.16a1.2,1.2,0,0,0,0,.2c0,.09,0,.15-.11.17s-.15,0-.16-.14,0-.26-.05-.39-.07-.16-.17-.14a.14.14,0,0,0-.13.19c0,.14,0,.29.07.44s-.05.11-.12.12-.13,0-.14-.08-.06-.48-.1-.72.07-.12.13-.11a.33.33,0,0,0,.24,0,.32.32,0,0,1,.47.26c0,.08,0,.16,0,.24Z"/><path class="cls-73" d="M371.25,597.4a.28.28,0,0,1-.37-.26,2.36,2.36,0,0,1,0-.28c0-.07,0-.14-.11-.12s-.07,0-.07-.09,0-.1,0-.11.1-.08.08-.15.05-.12.13-.13.14,0,.13.1.05.14.15.11.13,0,.15.09-.06.11-.13.12-.12,0-.1.13,0,.18,0,.27.07.13.14.1.14,0,.16.09-.07.1-.13.12Z"/><path class="cls-69" d="M375.12,595.9h.15c.05,0,.11,0,.09.09s0,.11-.11.1-.23-.06-.24.06.13.09.21.11.25.13.25.3a.31.31,0,0,1-.26.28.74.74,0,0,1-.33,0c-.05,0-.12,0-.09-.11s0-.13.14-.09l0,0c.09,0,.21,0,.23-.08s-.11-.09-.18-.11-.3-.14-.29-.3S374.87,595.93,375.12,595.9Z"/><path class="cls-74" d="M370.26,597.54a.43.43,0,0,1-.25,0s-.11,0-.08-.08,0-.14.12-.11a.36.36,0,0,0,.23,0,.07.07,0,0,0,.06-.07s0-.06-.06-.07l-.23-.07a.23.23,0,0,1-.18-.22.25.25,0,0,1,.15-.26.61.61,0,0,1,.4,0s.1,0,.07.08,0,.12-.1.11a.37.37,0,0,0-.18,0,.1.1,0,0,0-.08.07s0,.06.08.08l.14,0c.15,0,.26.11.26.28s-.09.25-.27.3Z"/><path class="cls-74" d="M367.61,597.91a.45.45,0,0,1-.51-.22.49.49,0,0,1,0-.56.57.57,0,0,1,.56-.15c.05,0,.1,0,.07.1s0,.12-.14.1-.33.05-.34.22a.25.25,0,0,0,.11.26.23.23,0,0,0,.28,0c.1-.07.16,0,.19.06s-.05.1-.1.13A.5.5,0,0,1,367.61,597.91Z"/><path class="cls-75" d="M369.66,596.93c0,.19,0,.37.08.56s0,.11-.11.12-.14,0-.15-.09c-.05-.37-.1-.74-.16-1.12,0-.12.06-.1.13-.12s.13,0,.13.09S369.63,596.74,369.66,596.93Z"/><path class="cls-75" d="M374.26,596.27c0-.18-.05-.37-.08-.55s0-.11.11-.11.15,0,.16.08c.05.37.1.75.16,1.12,0,.12-.06.11-.13.12s-.13,0-.14-.08S374.29,596.46,374.26,596.27Z"/><path class="cls-73" d="M373.16,596.19c0,.11,0,.2-.14.23a.19.19,0,0,0-.16.25c0,.12,0,.25.06.38s-.07.1-.13.12-.13,0-.14-.09,0-.46-.09-.68.07-.17.14-.14a.23.23,0,0,0,.24,0A.28.28,0,0,1,373.16,596.19Z"/><path class="cls-76" d="M368,597.38c0-.12,0-.23-.05-.35s0-.12.11-.13.14,0,.15.09.06.47.1.7,0,.11-.11.11-.15.05-.16-.07S368,597.49,368,597.38Z"/><path class="cls-73" d="M368.18,596.63c0,.1,0,.16-.12.17s-.16,0-.16-.13a.12.12,0,0,1,.12-.15C368.11,596.51,368.17,596.54,368.18,596.63Z"/><path class="cls-77" d="M365.49,594.62l.07.09a.12.12,0,0,1,0,.14.11.11,0,0,1-.15,0,.11.11,0,0,1-.07-.16C365.35,594.63,365.39,594.58,365.49,594.62Z"/><path class="cls-78" d="M365.68,595.52a.11.11,0,0,1-.1.13.12.12,0,0,1-.15-.1.11.11,0,0,1,.1-.14C365.61,595.39,365.66,595.43,365.68,595.52Z"/><path class="cls-79" d="M365.13,595.64c0,.08,0,.11-.11.12s-.1,0-.1-.1a.09.09,0,0,1,.08-.12C365.08,595.53,365.11,595.57,365.13,595.64Z"/><path class="cls-80" d="M366.22,595.48a.13.13,0,0,1-.11.13.1.1,0,0,1-.11-.1.1.1,0,0,1,.09-.12A.12.12,0,0,1,366.22,595.48Z"/><path class="cls-81" d="M365.53,595.15a.09.09,0,0,1,.09.13.09.09,0,0,1-.1.08.09.09,0,0,1-.1-.06c0-.07,0-.12.07-.14S365.51,595.14,365.53,595.15Z"/><path class="cls-79" d="M365.73,595.89c-.05,0-.09,0-.1-.09a.1.1,0,0,1,.08-.12c.07,0,.12,0,.12.1S365.8,595.88,365.73,595.89Z"/><path class="cls-82" d="M365.47,595.93a.1.1,0,0,1-.11-.1c0-.06,0-.11.09-.11a.11.11,0,0,1,.12.09A.13.13,0,0,1,365.47,595.93Z"/><path class="cls-83" d="M365.2,595.79c.06,0,.09,0,.1.08a.1.1,0,0,1-.09.11c-.06,0-.1,0-.11-.1A.09.09,0,0,1,365.2,595.79Z"/><path class="cls-84" d="M366,595.87c-.06,0-.1,0-.1-.09s0-.1.1-.1.08,0,.09.09S366.05,595.85,366,595.87Z"/><path class="cls-85" d="M365.6,596c.08,0,.12,0,.13.07s0,.1-.07.12a.1.1,0,0,1-.06-.19Z"/><path class="cls-86" d="M366.26,595.87a.1.1,0,0,1-.13-.09c0-.06.05-.09.09-.09a.09.09,0,0,1,.11.08A.08.08,0,0,1,366.26,595.87Z"/><path class="cls-78" d="M365.49,596.11c0,.07,0,.12-.09.12s-.09,0-.1-.09a.1.1,0,0,1,.09-.1A.09.09,0,0,1,365.49,596.11Z"/><path class="cls-87" d="M364.92,595c.06,0,.11,0,.11.09a.1.1,0,0,1-.09.1.08.08,0,0,1-.09-.08A.1.1,0,0,1,364.92,595Z"/><path class="cls-88" d="M366.45,596.05a.08.08,0,0,1-.08.1.07.07,0,0,1-.09-.06c0-.06,0-.1.07-.11A.08.08,0,0,1,366.45,596.05Z"/><path class="cls-89" d="M366.1,596a.1.1,0,0,1,.11.08c0,.06,0,.09-.07.1a.08.08,0,0,1-.11-.06C366,596,366.06,596,366.1,596Z"/><path class="cls-90" d="M366,596.07a.09.09,0,0,1-.18,0c0-.06,0-.09.08-.1S366,596,366,596.07Z"/><path class="cls-91" d="M364.75,595.16c.06,0,.1,0,.1.09s0,.08-.07.09a.09.09,0,0,1-.11-.07A.09.09,0,0,1,364.75,595.16Z"/><path class="cls-92" d="M366.7,595.11a.09.09,0,0,1-.09.1.07.07,0,0,1-.09-.06.08.08,0,0,1,.07-.11C366.65,595,366.68,595.05,366.7,595.11Z"/><path class="cls-88" d="M366.29,595.26c0,.06,0,.09-.08.1a.1.1,0,0,1,0-.19C366.25,595.17,366.29,595.2,366.29,595.26Z"/><path class="cls-90" d="M365,596.05a.1.1,0,0,1-.11-.09c0-.06,0-.09.09-.1a.1.1,0,0,1,0,.19Z"/><path class="cls-93" d="M366.58,595.68c-.06,0-.1,0-.11-.08a.08.08,0,0,1,.06-.1.09.09,0,0,1,.12.06C366.67,595.62,366.63,595.66,366.58,595.68Z"/><path class="cls-91" d="M364.63,596c-.05,0-.11,0-.11-.08a.09.09,0,0,1,.08-.11.1.1,0,0,1,.1.08A.11.11,0,0,1,364.63,596Z"/><path class="cls-88" d="M366.63,595.27c.07,0,.09,0,.1.09a.07.07,0,0,1-.08.08c-.06,0-.1,0-.1-.07S366.58,595.28,366.63,595.27Z"/><path class="cls-80" d="M365.53,595.15h0s0,0-.05-.06a.09.09,0,0,1,0-.14.08.08,0,0,1,.12,0c.05,0,.07.09,0,.14S365.52,595.12,365.53,595.15Z"/><path class="cls-94" d="M365.2,595c.07,0,.09,0,.1.1a.09.09,0,0,1-.1.09.08.08,0,0,1-.08-.08C365.11,595,365.15,595,365.2,595Z"/><path class="cls-95" d="M366.54,594.92c0,.07,0,.11-.08.11s-.09,0-.1,0a.09.09,0,0,1,.07-.12A.1.1,0,0,1,366.54,594.92Z"/><path class="cls-86" d="M366.12,595s0,0-.08.06-.09,0-.1-.08,0-.09.07-.09S366.11,594.84,366.12,595Z"/><path class="cls-96" d="M365.14,596.1c.06,0,.1,0,.11.08a.09.09,0,0,1-.06.1.09.09,0,0,1-.12-.06C365.05,596.16,365.1,596.13,365.14,596.1Z"/><path class="cls-97" d="M365.49,594.62a.32.32,0,0,0-.16.09l-.08-.05a.27.27,0,0,0,.08-.19h0a.14.14,0,0,1,.16-.06v0a.17.17,0,0,1,0,.17Z"/><path class="cls-98" d="M365,595.44a.09.09,0,0,1-.09.1.09.09,0,0,1-.1-.06.09.09,0,0,1,.07-.12C364.89,595.35,364.93,595.39,365,595.44Z"/><path class="cls-90" d="M365.78,595.07a.09.09,0,0,1-.1-.07.09.09,0,0,1,.07-.11.08.08,0,0,1,.1.07S365.86,595.06,365.78,595.07Z"/><path class="cls-99" d="M364.83,596.05a.08.08,0,0,1-.09.09c-.05,0-.08,0-.08-.08s0-.08.07-.09S364.82,596,364.83,596.05Z"/><path class="cls-100" d="M364.52,595.13c.07,0,.1,0,.11.08a.1.1,0,0,1-.09.1.09.09,0,0,1-.09-.08A.09.09,0,0,1,364.52,595.13Z"/><path class="cls-101" d="M365.49,594.42c0,.06-.1.05-.16.06s-.07-.14,0-.18S365.49,594.34,365.49,594.42Z"/><path class="cls-85" d="M365.33,594.47c.07.1.07.18-.08.19S365.2,594.49,365.33,594.47Z"/><path class="cls-78" d="M364.9,596.19c.07,0,.12,0,.12.07a.08.08,0,0,1-.08.09c-.05,0-.09,0-.1-.08A.06.06,0,0,1,364.9,596.19Z"/><path class="cls-70" d="M366.47,595.73s.09,0,.1.06,0,.1-.07.11a.09.09,0,1,1,0-.17Z"/><path class="cls-71" d="M366.32,595a.07.07,0,0,1-.06.1.08.08,0,0,1-.1-.06.08.08,0,0,1,.07-.11S366.31,595,366.32,595Z"/><path class="cls-70" d="M365.49,594.62a.17.17,0,0,1,0-.17c.06,0,.14,0,.14.09S365.55,594.62,365.49,594.62Z"/><path class="cls-102" d="M366.67,597.56a.22.22,0,0,1-.16.29c-.12,0-.24-.08-.25-.25a.22.22,0,0,1,.17-.27C366.55,597.31,366.65,597.41,366.67,597.56Z"/><path class="cls-103" d="M368.89,597.28c.05,0,.1,0,.12.08s-.05.15-.15.17a.11.11,0,0,1-.15-.08C368.69,597.37,368.76,597.3,368.89,597.28Z"/><path class="cls-104" d="M373.5,596.51a.19.19,0,0,1,.15-.21.12.12,0,0,1,.16.05s.07.1,0,.12Z"/><path class="cls-104" d="M375.82,596.18A.19.19,0,0,1,376,596a.15.15,0,0,1,.16.06c0,.06.05.1,0,.11Z"/></g><path class="cls-105" d="M331.58,180.16,218.18,62q17-11.37,35.77-25l120.4,64.85Q353.82,139.87,331.58,180.16Z"/><path class="cls-106" d="M324.15,156.91c-63.58-53.84-50.9-71.83-91.84-93.84C244.84,55.82,258.69,58.82,261,48c54.5,35.88,53.7,50.61,98.37,61.44C344,128.47,326.4,134.23,324.15,156.91Z"/><path class="cls-53" d="M270.62,92.4a5.1,5.1,0,0,1,2.91-2.46c-.69-1.46-.7-3.09.08-3.92a23.65,23.65,0,0,1,3.48.77,2.35,2.35,0,0,0-.63,3.11c.8,1.72,3,2.8,6,3.45s4.55.44,5.66-.56c1.46-1.45,3.72-1.56,8.5-.39,4.54,1.09,8.11,1.68,10.36,3.31a8.68,8.68,0,0,0,4.16-2.56l1.28,1.23a9.5,9.5,0,0,1-4.23,2.51,2.25,2.25,0,0,1,.22,2.87,24.21,24.21,0,0,1-4.2-.35,1.6,1.6,0,0,0,.21-2.43c-1.1-1.51-3.85-2.13-6.11-2.62-2.94-.61-4.12-.39-5.47.77-1.52,1.41-4.33,1.39-9,.37-4.16-.93-7.47-1.64-9.39-4a4.79,4.79,0,0,0-2.79,2.63Z"/><path class="cls-105" d="M535.61,538.31l-144,78q-6.45-19.44-14.59-41.11l94.47-98.88Q502.67,506.19,535.61,538.31Z"/><path class="cls-106" d="M511.23,539.31c-68.78,47-82.76,30-114.85,63.65-3.67-14,2.9-26.57-6.93-31.69,49.06-43,63-38.34,85.34-78.54C489.08,512.6,490,531.12,511.23,539.31Z"/><path class="cls-53" d="M434.82,573.8a5.14,5.14,0,0,1-1.59-3.46c-1.59.28-3.17-.15-3.76-1.12a22.39,22.39,0,0,1,1.67-3.14,2.36,2.36,0,0,0,2.83,1.43c1.87-.32,3.5-2.2,4.91-4.89s1.64-4.27,1-5.6c-1-1.79-.51-4,1.89-8.3,2.25-4.08,3.77-7.37,5.94-9.11a8.61,8.61,0,0,0-1.37-4.69l1.53-.91a9.59,9.59,0,0,1,1.3,4.75,2.24,2.24,0,0,1,2.82.55,24,24,0,0,1-1.45,4,1.59,1.59,0,0,0-2.28-.85c-1.76.66-3.08,3.15-4.16,5.2-1.37,2.66-1.46,3.86-.7,5.47.95,1.84.19,4.55-2,8.8-2,3.76-3.57,6.76-6.36,8a4.83,4.83,0,0,0,1.79,3.39Z"/><path class="cls-105" d="M1168.36,178.16l161.82-25.46q-6.67-19.37-13.36-41.53l-135.1-21.25Q1175,132.64,1168.36,178.16Z"/><path class="cls-106" d="M1188.35,164.15c83.19-4.38,84-26.37,129.91-19.11-5.59-13.37-18.43-19.36-13.73-29.4-65.1-4.42-73.37,7.79-115.49-10.62C1189.74,129.48,1200.29,144.73,1188.35,164.15Z"/><path class="cls-53" d="M1268.15,145.94a4.83,4.83,0,0,0-.63-3.78c-3,.72-6-.72-9.91-2.49-4.35-2-6.6-3.72-6.95-5.75-.38-1.74-1.18-2.64-3.89-3.93-2.09-1-4.66-2.15-6.45-1.61a1.6,1.6,0,0,0-1.31,2.06,24.09,24.09,0,0,1-3.55-2.26c0-.85.47-1.73,1.91-2.15a9.49,9.49,0,0,1-1.84-4.56l1.76-.21a8.68,8.68,0,0,0,1.75,4.56c2.79.06,6,1.76,10.26,3.63,4.51,2,6.24,3.42,6.53,5.45.27,1.48,1.47,2.64,4.17,3.87s5.19,1.79,6.86.9a2.35,2.35,0,0,0,1.39-2.85,23.06,23.06,0,0,1,3.23,1.49c.12,1.12-.87,2.42-2.31,3.17a5.08,5.08,0,0,1,.84,3.71Z"/><path class="cls-105" d="M232.44,272.09,81.58,335.92Q77,316,71,293.61l103.5-89.4Q202.73,237,232.44,272.09Z"/><path class="cls-106" d="M208.08,270.75c-73,40.22-85.26,22-120.42,52.37-2.31-14.3,5.43-26.17-3.87-32.2,53-38.14,66.43-32.14,92.47-70C188.58,242,187.68,260.56,208.08,270.75Z"/><path class="cls-53" d="M128.72,297.77a5.1,5.1,0,0,1-1.26-3.59c-1.61.12-3.14-.45-3.63-1.47a22.05,22.05,0,0,1,2-3,2.35,2.35,0,0,0,2.68,1.7c1.89-.14,3.69-1.85,5.36-4.39s2-4.1,1.49-5.49c-.83-1.88-.12-4,2.67-8.08,2.63-3.85,4.46-7,6.79-8.5a8.66,8.66,0,0,0-.92-4.8l1.61-.75a9.54,9.54,0,0,1,.84,4.84,2.24,2.24,0,0,1,2.76.82,25.36,25.36,0,0,1-1.82,3.8,1.6,1.6,0,0,0-2.2-1.06c-1.81.49-3.37,2.84-4.63,4.77-1.62,2.53-1.83,3.71-1.23,5.39.78,1.92-.24,4.54-2.86,8.56-2.36,3.55-4.2,6.39-7.1,7.34a4.86,4.86,0,0,0,1.46,3.55Z"/><path class="cls-105" d="M587.55,506.81l163.78-3q-3.21,20.24-6,43.22L616,591.39Q602,550.47,587.55,506.81Z"/><path class="cls-106" d="M609.66,517.13c82.7-10.13,87.31,11.39,131.26-3.74-3.18,14.14-14.79,22.27-8.41,31.34-63.35,15.66-73.61,5.07-111.9,30.51C617.06,551,624.8,534.18,609.66,517.13Z"/><path class="cls-53" d="M693.38,521.62a5.09,5.09,0,0,1-.18,3.81c1.54.48,2.75,1.58,2.83,2.71a22.48,22.48,0,0,1-2.93,2,2.36,2.36,0,0,0-1.86-2.57c-1.8-.58-4.11.34-6.61,2.08s-3.42,3-3.43,4.54c.07,2-1.38,3.78-5.48,6.5-3.88,2.59-6.74,4.81-9.47,5.36a8.67,8.67,0,0,0-.94,4.79l-1.77.11a9.59,9.59,0,0,1,1-4.82,2.22,2.22,0,0,1-2.25-1.78,23.6,23.6,0,0,1,3.11-2.85c0,.56.08,1.6,1.64,1.8,1.86.22,4.18-1.38,6.07-2.7,2.45-1.74,3.08-2.77,3.15-4.54,0-2.07,1.92-4.13,5.85-6.88,3.51-2.42,6.28-4.36,9.32-4.17a4.85,4.85,0,0,0,0-3.83Z"/><path class="cls-105" d="M895.6,299.32q19.73-79.48,39.46-159,18.71,8.34,40.21,16.93,4.69,68.21,9.4,136.43Q941.53,296.63,895.6,299.32Z"/><path class="cls-106" d="M911.29,280.63c11.61-82.5,33.59-81.38,30.36-127.75,12.83,6.73,17.68,20.05,28.09,16.23-1.27,65.25-14.16,72.42.52,116C946,282.26,931.68,270.43,911.29,280.63Z"/><path class="cls-53" d="M937.3,200.94a5.09,5.09,0,0,1,3.63,1.15c.86-1.36,2.24-2.24,3.35-2a21.48,21.48,0,0,1,1.2,3.35,2.34,2.34,0,0,0-3,1.13c-1,1.59-.74,4.06.3,6.92s2,4.09,3.49,4.48c2,.47,3.3,2.32,4.86,7,1.5,4.41,2.91,7.75,2.73,10.53a8.61,8.61,0,0,0,4.39,2.14q-.19.88-.36,1.74a9.52,9.52,0,0,1-4.39-2.23,2.24,2.24,0,0,1-2.3,1.72,23.71,23.71,0,0,1-2-3.75,1.59,1.59,0,0,0,2.16-1.12c.7-1.74-.25-4.39-1-6.56-1-2.81-1.87-3.69-3.57-4.22-2-.53-3.49-2.92-5.12-7.43-1.43-4-2.59-7.19-1.62-10.08a4.82,4.82,0,0,0-3.71-1C936.69,202.11,937,201.52,937.3,200.94Z"/><path class="cls-105" d="M1920.81,422,1814.73,297.18q17.68-10.33,37.2-22.78l116.29,72Q1945.44,383.12,1920.81,422Z"/><path class="cls-106" d="M1914.79,398.34c-60.22-57.57-46.48-74.76-86-99.2,13-6.49,26.6-2.66,29.57-13.34,52.25,39.1,50.56,53.76,94.5,67.26C1936.34,371.15,1918.4,375.83,1914.79,398.34Z"/><path class="cls-53" d="M1865.24,330.72a5.15,5.15,0,0,1,3.06-2.28c-.6-1.49-.51-3.13.31-3.9a23.05,23.05,0,0,1,3.43,1,2.34,2.34,0,0,0-.82,3.06c.7,1.77,2.87,3,5.8,3.8s4.51.72,5.68-.22c1.54-1.35,3.81-1.32,8.51.13,4.46,1.36,8,2.16,10.14,3.93a8.69,8.69,0,0,0,4.3-2.31l1.21,1.3a9.51,9.51,0,0,1-4.38,2.26,2.25,2.25,0,0,1,0,2.88,24.51,24.51,0,0,1-4.17-.6,1.6,1.6,0,0,0,.35-2.42c-1-1.58-3.71-2.36-5.94-3-2.89-.79-4.09-.64-5.5.44-1.6,1.31-4.41,1.13-9-.17-4.09-1.19-7.35-2.1-9.13-4.58a4.86,4.86,0,0,0-2.95,2.46Z"/><path class="cls-105" d="M1744.92,615.56q-5.61-81.72-11.2-163.43,20.35,2.21,43.45,3.78,25.39,63.49,50.8,127Q1787.8,598.91,1744.92,615.56Z"/><path class="cls-106" d="M1754.12,593c-14.25-82.09,7-87.77-10.28-130.91,14.27,2.47,23,13.66,31.71,6.83,18.8,62.49,8.74,73.28,36.06,110.24C1787.61,583.88,1770.4,577,1754.12,593Z"/><path class="cls-53" d="M1754.43,509.12a5.07,5.07,0,0,1,3.81,0c.4-1.56,1.44-2.83,2.57-3A23.47,23.47,0,0,1,1763,509a2.36,2.36,0,0,0-2.47,2c-.49,1.83.54,4.09,2.4,6.49s3.21,3.27,4.7,3.2c2.05-.17,3.85,1.2,6.77,5.16,2.78,3.74,5.15,6.49,5.83,9.19a8.67,8.67,0,0,0,4.83.69c.06.6.13,1.18.19,1.77a9.58,9.58,0,0,1-4.85-.79,2.26,2.26,0,0,1-1.67,2.35,23.35,23.35,0,0,1-3-3c.56,0,1.59-.16,1.71-1.73.13-1.87-1.58-4.1-3-5.93-1.86-2.35-2.91-2.94-4.69-2.91-2.07.1-4.22-1.71-7.16-5.5-2.59-3.38-4.67-6.05-4.63-9.11a4.86,4.86,0,0,0-3.83.23C1754.22,510.43,1754.32,509.77,1754.43,509.12Z"/><path class="cls-105" d="M1646.63,292.06l-144-78.06q12.77-16,26.47-34.68l134.43,25.11Q1655.54,246.93,1646.63,292.06Z"/><path class="cls-106" d="M1632.47,272.18c-77-31.92-70.35-52.92-116-61.42,9.73-10.73,23.83-12.09,22.75-23.12,62.84,17.59,66.56,31.86,112.41,28.58C1642.74,239,1627.71,249.89,1632.47,272.18Z"/><path class="cls-53" d="M1561.84,227a5.14,5.14,0,0,1,2-3.23c-1.1-1.17-1.61-2.73-1.12-3.75a22.8,22.8,0,0,1,3.55-.33,2.35,2.35,0,0,0,.35,3.16c1.28,1.39,3.74,1.73,6.77,1.44s4.47-.95,5.22-2.25c.95-1.82,3.07-2.61,8-3,4.65-.34,8.23-.87,10.88,0a8.53,8.53,0,0,0,3.17-3.71l1.6.79a9.54,9.54,0,0,1-3.26,3.68,2.25,2.25,0,0,1,1.08,2.66,23.45,23.45,0,0,1-4.11.95,1.59,1.59,0,0,0-.54-2.37c-1.51-1.11-4.32-.87-6.62-.65-3,.32-4,.89-5,2.41-1,1.8-3.71,2.64-8.48,3.1-4.25.37-7.61.7-10.17-1a4.85,4.85,0,0,0-1.86,3.35Z"/><path class="cls-105" d="M1562,689l-80.87-142.45q19.32-6.84,40.81-15.41l100.77,92.45Q1593.44,655.43,1562,689Z"/><path class="cls-106" d="M1560.49,664.66c-48.39-67.82-31.68-82.15-66-113.54,13.94-4,26.63,2.36,31.54-7.58,44,48.19,39.61,62.26,80.25,83.75C1586.74,642,1568.25,643.22,1560.49,664.66Z"/><path class="cls-53" d="M1524.46,589a5.07,5.07,0,0,1,3.43-1.66c-.31-1.59.08-3.18,1-3.78a22.55,22.55,0,0,1,3.18,1.6,2.35,2.35,0,0,0-1.37,2.86c.35,1.87,2.26,3.46,5,4.81s4.3,1.56,5.62.85c1.77-1,4-.59,8.34,1.72,4.12,2.17,7.44,3.62,9.22,5.76a8.66,8.66,0,0,0,4.66-1.47l.94,1.51a9.55,9.55,0,0,1-4.72,1.4,2.23,2.23,0,0,1-.49,2.83,24.16,24.16,0,0,1-4-1.37,1.59,1.59,0,0,0,.8-2.3c-.69-1.74-3.21-3-5.27-4.05-2.7-1.31-3.9-1.39-5.49-.59-1.82,1-4.55.28-8.84-1.86-3.8-1.93-6.83-3.43-8.12-6.2a4.86,4.86,0,0,0-3.35,1.86Q1524.75,589.91,1524.46,589Z"/><path class="cls-105" d="M1334.38,558.62l-161.81-25.46q6.67-19.36,13.36-41.53L1321,470.38Q1327.71,513.1,1334.38,558.62Z"/><path class="cls-106" d="M1314.4,544.61c-83.2-4.38-84-26.37-129.91-19.11,5.59-13.37,18.43-19.36,13.72-29.4,65.11-4.42,73.38,7.79,115.5-10.62C1313,509.94,1302.46,525.19,1314.4,544.61Z"/><path class="cls-53" d="M1232.74,525.65a5.11,5.11,0,0,1,.83-3.72c-1.43-.74-2.43-2-2.31-3.16a21.64,21.64,0,0,1,3.24-1.49,2.34,2.34,0,0,0,1.38,2.85c1.68.89,4.11.38,6.87-.9s3.89-2.39,4.16-3.87c.29-2,2-3.49,6.54-5.45,4.27-1.88,7.47-3.57,10.25-3.63a8.6,8.6,0,0,0,1.75-4.56l1.77.2a9.55,9.55,0,0,1-1.84,4.56c1.44.43,1.91,1.31,1.91,2.16a24.2,24.2,0,0,1-3.56,2.26,1.6,1.6,0,0,0-1.3-2.06c-1.8-.54-4.36.63-6.46,1.61-2.7,1.29-3.51,2.19-3.88,3.92-.36,2-2.61,3.74-7,5.76-3.87,1.77-6.94,3.21-9.9,2.49a4.79,4.79,0,0,0-.63,3.78Z"/><path class="cls-105" d="M487.24,377.17,397.3,240.26q18.82-8.07,39.73-18Q490.31,265.1,543.58,308,516.46,341.62,487.24,377.17Z"/><path class="cls-106" d="M484.18,353c-52.69-64.54-36.95-79.91-73.19-109,13.65-4.85,26.72.63,31-9.6,47,45.22,43.56,59.55,85.51,78.35C508.9,328.62,490.53,331.06,484.18,353Z"/><path class="cls-53" d="M443.31,279.76a5.12,5.12,0,0,1,3.31-1.88c-.41-1.56-.12-3.17.8-3.84a22.85,22.85,0,0,1,3.27,1.39,2.37,2.37,0,0,0-1.18,2.95c.47,1.83,2.48,3.3,5.28,4.48s4.4,1.27,5.67.48c1.7-1.15,3.94-.85,8.43,1.17,4.26,1.9,7.66,3.13,9.58,5.15a8.61,8.61,0,0,0,4.55-1.77l1,1.45a9.61,9.61,0,0,1-4.62,1.7,2.25,2.25,0,0,1-.3,2.86,24.91,24.91,0,0,1-4.07-1.11,1.6,1.6,0,0,0,.65-2.35c-.81-1.69-3.4-2.8-5.53-3.7-2.78-1.14-4-1.13-5.52-.24-1.75,1.11-4.51.58-8.94-1.27-3.91-1.68-7-3-8.5-5.66a4.82,4.82,0,0,0-3.22,2.07Z"/><line class="cls-107" x1="306.78" y1="282.86" x2="437.19" y2="264.13"/><line class="cls-107" x1="321.31" y1="285.5" x2="420.22" y2="271.3"/><line class="cls-107" x1="339.43" y1="287.58" x2="399.49" y2="278.95"/></svg>
