<svg id="Layer_1" data-name="Layer 1" xmlns="http://www.w3.org/2000/svg" xmlns:xlink="http://www.w3.org/1999/xlink" width="1714.36" height="969.93" viewBox="0 0 1714.36 969.93"><defs><style>.cls-1,.cls-16,.cls-17,.cls-20,.cls-65{fill:none;}.cls-2{fill:#1d1d1b;}.cls-3{fill:#adadad;}.cls-4{fill:#4c4a49;}.cls-5,.cls-62,.cls-64{fill:#fff;}.cls-6{fill:url(#New_Pattern);}.cls-7{fill:#fddabc;}.cls-15,.cls-8{fill:#010101;}.cls-9{fill:#915525;opacity:0.29;}.cls-10{fill:#fac6a2;opacity:0.49;}.cls-11{fill:#313131;}.cls-12{fill:#f9b460;}.cls-13{fill:#93571e;opacity:0.21;}.cls-14{fill:#dd6b6c;opacity:0.52;}.cls-15{opacity:0.27;}.cls-16{stroke:#6e4627;opacity:0.35;}.cls-16,.cls-17,.cls-20,.cls-62,.cls-64,.cls-65{stroke-miterlimit:10;}.cls-16,.cls-17{stroke-width:0.61px;}.cls-17{stroke:#b6b6b5;}.cls-18{fill:#332921;}.cls-19{fill:#cd5252;}.cls-20{stroke:#010101;stroke-width:8px;}.cls-21{fill:#404040;}.cls-22{fill:#f8f8f8;}.cls-23{fill:#3a3a3a;}.cls-24{fill:#fafafa;}.cls-25{fill:#323232;}.cls-26{fill:#f5f5f5;}.cls-27{fill:#393939;}.cls-28{fill:#fefefe;}.cls-29{fill:#303030;}.cls-30{fill:#060606;}.cls-31{fill:#050505;}.cls-32{fill:#444;}.cls-33{fill:#454545;}.cls-34{fill:#3c3c3c;}.cls-35{fill:#363636;}.cls-36{fill:#fbfbfb;}.cls-37{fill:#f2f2f2;}.cls-38{fill:#f9f9f9;}.cls-39{fill:#4b4b4b;}.cls-40{fill:#343434;}.cls-41{fill:#4a4a4a;}.cls-42{fill:#efefef;}.cls-43{fill:#f6f6f6;}.cls-44{fill:#f3f3f3;}.cls-45{fill:#474747;}.cls-46{fill:#3e3e3e;}.cls-47{fill:#3b3b3b;}.cls-48{fill:#373737;}.cls-49{fill:#353535;}.cls-50{fill:#040404;}.cls-51{fill:#f7f7f7;}.cls-52{fill:#4c4c4c;}.cls-53{fill:#333;}.cls-54{fill:#383838;}.cls-55{fill:#fcfcfc;}.cls-56{fill:#090909;}.cls-57{fill:#4e4e4e;}.cls-58{fill:#3f3f3f;}.cls-59{fill:#2f2f2f;}.cls-60{fill:#282828;}.cls-61{fill:#494949;}.cls-62{stroke:#fffdf1;stroke-width:9.48px;}.cls-63{fill:#c4171e;}.cls-64{stroke:#1d1d1b;}.cls-65{stroke:#b7b7ae;stroke-width:5px;}.cls-66{fill:#b7b7ae;}</style><pattern id="New_Pattern" data-name="New Pattern" width="133" height="111.67" patternTransform="translate(71.98 5.54)" patternUnits="userSpaceOnUse" viewBox="0 0 133 111.67"><rect class="cls-1" width="133" height="111.67"/><rect class="cls-2" y="2.37" width="133" height="11.59"/><rect class="cls-2" y="30.28" width="133" height="11.59"/><rect class="cls-2" y="58.2" width="133" height="11.59"/><rect class="cls-2" y="86.12" width="133" height="11.59"/></pattern><symbol id="SKy" data-name="SKy" viewBox="0 0 282.43 242.15"><circle class="cls-3" cx="110.21" cy="59.21" r="59.21"/><circle class="cls-3" cx="110.21" cy="108.94" r="59.21"/><circle class="cls-3" cx="59.21" cy="78.94" r="59.21"/><circle class="cls-3" cx="152.21" cy="131.94" r="59.21"/><circle class="cls-3" cx="172.21" cy="60.94" r="59.21"/><circle class="cls-3" cx="223.21" cy="100.94" r="59.21"/><circle class="cls-3" cx="213.21" cy="181.94" r="59.21"/><circle class="cls-3" cx="72.21" cy="131.94" r="59.21"/><circle class="cls-3" cx="123.21" cy="182.94" r="59.21"/></symbol></defs><title>tabt</title><rect class="cls-4" x="-33.56" y="-13.16" width="1920.76" height="1076.07"/><rect class="cls-5" x="721.12" y="670.15" width="154.23" height="190.1" rx="77.11" ry="77.11" transform="translate(-18.51 19.79) rotate(-1.4)"/><path class="cls-6" d="M800.57,860.22h0a77.11,77.11,0,0,1-79-75.2l-.88-35.86a77.1,77.1,0,0,1,75.2-79h0a77.1,77.1,0,0,1,79,75.2l.88,35.86A77.11,77.11,0,0,1,800.57,860.22Z"/><ellipse class="cls-7" cx="795.03" cy="624.1" rx="65.75" ry="66.86" transform="translate(-15.05 19.67) rotate(-1.4)"/><rect class="cls-5" x="750.38" y="619.07" width="25.6" height="25.6" rx="5.48" ry="5.48" transform="translate(1541.63 1244.85) rotate(178.6)"/><circle class="cls-8" cx="763.19" cy="631.87" r="4.81"/><rect class="cls-7" x="750.22" y="619.07" width="25.6" height="12.44" rx="3.82" ry="3.82" transform="translate(1541.14 1231.7) rotate(178.6)"/><rect class="cls-5" x="813.03" y="620.58" width="21.22" height="21.22" rx="4.55" ry="4.55" transform="translate(1662.49 1242.01) rotate(178.6)"/><circle class="cls-8" cx="823.64" cy="631.19" r="3.99"/><rect class="cls-7" x="813.64" y="620.51" width="25.6" height="12.44" rx="3.82" ry="3.82" transform="translate(1667.99 1233.02) rotate(178.6)"/><circle class="cls-7" cx="866.34" cy="619.47" r="13.84"/><circle class="cls-7" cx="718.26" cy="629.75" r="13.84"/><circle class="cls-9" cx="873.46" cy="619.3" r="3.77"/><circle class="cls-9" cx="711.14" cy="629.93" r="3.77"/><rect class="cls-10" x="794.7" y="680.69" width="3.65" height="9.05" rx="0.59" ry="0.59" transform="translate(1609.61 1350.71) rotate(178.6)"/><rect class="cls-11" x="748.53" y="608.62" width="31.11" height="6.37" rx="1.03" ry="1.03" transform="translate(1542.94 1204.7) rotate(178.6)"/><rect class="cls-11" x="807.32" y="606.89" width="31.11" height="6.95" rx="1.13" ry="1.13" transform="translate(1660.46 1200.38) rotate(178.6)"/><circle class="cls-5" cx="732.59" cy="703.65" r="29.99"/><circle class="cls-6" cx="732.59" cy="703.65" r="29.99"/><path class="cls-12" d="M704,614l.68-2.52c0-.16.08-.32.11-.48l.65-3.12.12-.37a24.68,24.68,0,0,0,.78-4L709,590.88a7.79,7.79,0,0,1,.2-.8c2.21-4.9,5.5-9.3,7.76-14.16l11.81-12.31,7.42-7.84,7.92-7.7a15.33,15.33,0,0,0,2.29-.75c2.44-1.07,4.6-2.55,7.11-3.51,4-1.53,8.09-2.69,12.13-4,3.43,0,11.61.06,13.82-.39,2.6-.54,16.88,0,21.29-.43a3.69,3.69,0,0,0,1,.24c4.37.37,8.8,0,13.2-.07l1.27.19c4,1,9.41,2.49,10.85,2.89a2,2,0,0,1,.65.29,56.37,56.37,0,0,0,7.46,4.22c4.21,1.94,9.2,7.44,11.67,8.91s3.61,5.54,8,8.5a29.29,29.29,0,0,1,8,8c1.43,2,10.82,16.09,10.82,16.09a30.27,30.27,0,0,1,4.15,10.12c.52,2.73,1.32,5.57,2,8.06.42,3.8.75,7.61.89,11.42a7.42,7.42,0,0,0,0,1A81.55,81.55,0,0,1,879.57,636a54.57,54.57,0,0,1-6.34,16.64c-2.23,4-4.17,8.16-4.82,12.67-.45.14-1,.3-1.88.5-3.44.86-2,2.48-5.46,3.53l-3.09.94a2.18,2.18,0,0,0-.58.26,16.36,16.36,0,0,1-7.7,2.34,58.33,58.33,0,0,0-7.26,1,2.6,2.6,0,0,1-1.87-.3,12.92,12.92,0,0,0,1-2.77,21.69,21.69,0,0,0,.63-5.74,2.49,2.49,0,0,0,.65-2c-.4-5,.45-10.18,1-15.15,1.56-14.62,9.3-60.68-17.66-57a3,3,0,0,0-2.28,1.62,32.65,32.65,0,0,0-3.45.07l-.22,0c-8.47-1.2-22.7-6-29-6-.15,0,10.26,5.73,10.09,5.73l-.91,0h-.81a2.73,2.73,0,0,0-.41,0c-12.23.51-24.38,2.28-36.61,2.72a2,2,0,0,0-.44-.28c-.36-.17-.74-.33-1.11-.48a2.35,2.35,0,0,0-2.7-1.84c-3.75.41-6.46,2.78-8.36,5.8a2.72,2.72,0,0,0-1.07,1.93c0,.1-.09.19-.14.29-.41.87-.78,1.77-1.13,2.68l0,0a1.52,1.52,0,0,0-.49.59,2.63,2.63,0,0,0-.24,1.52,63.48,63.48,0,0,0-2.74,14.08,3.56,3.56,0,0,0-1.12,2.46.93.93,0,0,0-.05.1c-1.47,3.25-1.4,6.66-1,10.14s.82,7.15,1.12,10.77a58.9,58.9,0,0,0,1.06,7.11,1.19,1.19,0,0,0,.32,1.49c.28,1.2.58,2.39.91,3.57,1.19,4.22,2.08,8.57,3.5,12.73V668a1.4,1.4,0,0,1-.7,1.17l-3.77,2.49a1.39,1.39,0,0,0-.7,1.17l0,1.48c-.27.15-.55.29-.82.42a2.57,2.57,0,0,0-1.24,1.3,24.18,24.18,0,0,1-6.1,1.21l-.28-.05-1.2-1.73a2.47,2.47,0,0,0-3.19-.41,2.65,2.65,0,0,1-2.48.16L724,673.1a1.49,1.49,0,0,1-.94-1.23l-.1-4.07c-.07-.62-.15-1.24-.23-1.86-.36-1.54-1.21-4.22-2.69-4.32-1.26-.07-2.8-1.6-4.06-3-.27-.52-.57-1-.86-1.55a16,16,0,0,0-1.27-3.87c0-1.35-.37-2.66-1.9-3.07a17.5,17.5,0,0,0-2.84-2.87c-2.92-4.87-5.42-9.89-5.93-15.6S703.41,620,704,614Z"/><path class="cls-13" d="M815.35,547.89a17,17,0,0,0,3.24,2c2,1,2.2,2.56.16,1.58a26.25,26.25,0,0,1-4.9-3.06C812.06,547,813.55,546.46,815.35,547.89Z"/><path class="cls-13" d="M770.92,548.14a8.32,8.32,0,0,0,3-.23,4.77,4.77,0,0,1,2.62-.07c.66.22.79.68,0,.93a17.77,17.77,0,0,1-6.62.66C767.7,549.23,768.64,547.94,770.92,548.14Z"/><path class="cls-13" d="M826.9,580.26c1.93,0,3.88,0,5.8-.19a3.25,3.25,0,0,1,2.29.4c.26.3-.29.76-1.27.83-2.27.18-4.5.28-6.79.27S824.52,580.25,826.9,580.26Z"/><path class="cls-13" d="M715,604.3c2.11-1,5.72-1.23,8.92-1.37,2.38-.09,2.41,1.21,0,1.31s-4.8.2-6.31.92S713.57,605,715,604.3Z"/><path class="cls-13" d="M774.76,573.27l6-6.64c1.44-1.59,3.61-1.84,2.17-.25l-6,6.65C775.49,574.62,773.32,574.87,774.76,573.27Z"/><path class="cls-13" d="M797.55,577.13l6-6.64c1.44-1.59,3.61-1.84,2.16-.24l-6,6.64C798.28,578.48,796.11,578.73,797.55,577.13Z"/><path class="cls-13" d="M754.64,563.73c.72-.72,1.23-1.91,3.28-2.35a18,18,0,0,1,2.91-.26l4.65-.22c2.38-.11,2.4,1.2,0,1.31l-2.66.12a25.4,25.4,0,0,0-2.66.12,1.37,1.37,0,0,0-1,.59l-.95,1C757.41,564.79,753.83,564.54,754.64,563.73Z"/><path class="cls-13" d="M850.92,589.85l9.47-.9c1.87-.17.89,1.58-1,1.75l-9.48.9C848.06,591.77,849,590,850.92,589.85Z"/><path class="cls-13" d="M867,601.15a9.3,9.3,0,0,1,2.56-.39l1.06,0h0c1.25-.63,4.16-.07,3.06.66a8.26,8.26,0,0,1-3.8.66l-.35,0h0c0,.06-.07.14-.05.21a1.06,1.06,0,0,0,.15.27c.57.8-3,1.24-3.55.44C865.69,602.38,865.55,601.64,867,601.15Z"/><path class="cls-13" d="M860,648.54a10,10,0,0,1,2.55-.39l1.06,0h0c1.25-.63,4.16-.07,3.06.66a8.22,8.22,0,0,1-3.8.67h-.35c0,.06-.07.14,0,.21a.87.87,0,0,0,.16.27c.57.81-3,1.24-3.56.44C858.65,649.77,858.52,649,860,648.54Z"/><path class="cls-13" d="M829.36,563.08a78.55,78.55,0,0,0,7.53,2.61c2,.58-.22,1.5-2.19.92a82.89,82.89,0,0,1-8.19-2.88C824.82,563,827.7,562.39,829.36,563.08Z"/><path class="cls-13" d="M845.89,566.41a75.89,75.89,0,0,0,7.53,2.61c2,.58-.22,1.51-2.18.93a84.77,84.77,0,0,1-8.2-2.89C841.35,566.37,844.23,565.72,845.89,566.41Z"/><path class="cls-13" d="M788.36,548.85a38.85,38.85,0,0,0,4.73-.71c2.07-.45,4,.63,1.89,1.08a44.31,44.31,0,0,1-5.61.86,3.23,3.23,0,0,1-2.28-.4C786.84,549.37,787.38,548.94,788.36,548.85Z"/><path class="cls-13" d="M749.84,584.74a4.93,4.93,0,0,0,3-1.56c.53-.83,4.1-.57,3.57.26s-2.31,1.82-4.67,2.38C749.71,586.31,747.82,585.23,749.84,584.74Z"/><path class="cls-13" d="M728.15,584.38a4.89,4.89,0,0,0,3-1.56c.53-.83,4.11-.57,3.57.26s-2.31,1.82-4.66,2.38C728,586,726.13,584.87,728.15,584.38Z"/><path class="cls-13" d="M738.93,605.16c.87-.11,2.12.06,2.28.4a4.77,4.77,0,0,1,.46,2.65c-.12.84-3.81.93-3.7.09a4,4,0,0,0-.32-2.3C737.49,605.65,737.89,605.3,738.93,605.16Z"/><path class="cls-13" d="M733.43,631.54c.87-.11,2.13.06,2.28.4a4.6,4.6,0,0,1,.46,2.65c-.11.83-3.81.93-3.69.09a4,4,0,0,0-.32-2.3C732,632,732.39,631.67,733.43,631.54Z"/><path class="cls-13" d="M738.53,561.54c.52-.83,4.09-.57,3.58.26-.89,1.44-4.1,3-3.29,4.45.44.81-3.11,1.25-3.56.44C734.25,564.86,737.44,563.3,738.53,561.54Z"/><path class="cls-13" d="M858.88,612.23a32.31,32.31,0,0,1,3-4.73c.63-.82,4.2-.57,3.58.26a31.58,31.58,0,0,0-3,4.73C862,613.33,858.45,613.06,858.88,612.23Z"/><path class="cls-13" d="M867.26,631.41a33.27,33.27,0,0,1,3-4.73c.62-.82,4.2-.57,3.57.26a32.31,32.31,0,0,0-3,4.73C870.41,632.51,866.84,632.24,867.26,631.41Z"/><path class="cls-13" d="M831.7,715.77c1.93,0,3.88,0,5.81-.19a3.23,3.23,0,0,1,2.28.4c.26.3-.29.76-1.27.84-2.27.17-4.5.27-6.79.26S829.32,715.76,831.7,715.77Z"/><path class="cls-13" d="M855.72,725.36l9.48-.9c1.86-.17.88,1.58-1,1.76l-9.48.89C852.87,727.29,853.84,725.54,855.72,725.36Z"/><path class="cls-13" d="M871.82,736.66a10,10,0,0,1,2.55-.39l1.06,0h0c1.25-.63,4.16-.07,3.06.66a8.22,8.22,0,0,1-3.8.67h-.35c0,.06-.07.14,0,.21a1.06,1.06,0,0,0,.15.27c.57.81-3,1.24-3.55.44C870.49,737.89,870.35,737.16,871.82,736.66Z"/><path class="cls-13" d="M834.16,698.59a75.89,75.89,0,0,0,7.53,2.61c2,.58-.22,1.51-2.19.93a82.85,82.85,0,0,1-8.19-2.89C829.62,698.55,832.5,697.9,834.16,698.59Z"/><path class="cls-13" d="M850.7,701.92a74.8,74.8,0,0,0,7.52,2.61c2,.59-.21,1.51-2.18.93a82.17,82.17,0,0,1-8.2-2.89C846.16,701.88,849,701.24,850.7,701.92Z"/><path class="cls-13" d="M872.07,766.92a32.85,32.85,0,0,1,3-4.73c.62-.82,4.2-.56,3.57.26a32.85,32.85,0,0,0-3,4.73C875.21,768,871.64,767.76,872.07,766.92Z"/><path class="cls-14" d="M791.93,636.11l2.74-1-2.91-8a2.51,2.51,0,0,1,4.73-1.71l3.41,9.4a2.55,2.55,0,0,1,.14.71,2.07,2.07,0,0,1-1.28,2.53l-5.41,2a2.07,2.07,0,1,1-1.42-3.89Z"/><path class="cls-5" d="M681.78,763.74c-8.87,44.07-2.18,42.32,7.27,44.22s18.07,6.74,27-37.33,8.41-81.34-1-83.24S690.66,719.67,681.78,763.74Z"/><path class="cls-6" d="M681.78,763.74c-8.87,44.07-2.18,42.32,7.27,44.22s18.07,6.74,27-37.33,8.41-81.34-1-83.24S690.66,719.67,681.78,763.74Z"/><path class="cls-7" d="M682.05,763.77c-8.88,44.07-2.18,42.32,7.27,44.22s18.07,6.74,26.94-37.33"/><circle class="cls-5" cx="854.25" cy="700.84" r="29.99"/><circle class="cls-6" cx="854.25" cy="700.84" r="29.99"/><path class="cls-5" d="M928.44,741.15c28.76,34.55,22,36.2,14.63,42.36s-12.69,14.52-41.46-20S855.54,695.92,863,689.75,899.68,706.6,928.44,741.15Z"/><path class="cls-6" d="M926.57,738.16c29.22,34.17,22.52,35.91,15.19,42.17s-12.5,14.68-41.71-19.49-47-67-39.64-73.21S897.36,704,926.57,738.16Z"/><path class="cls-7" d="M928.21,740.75c29.22,34.17,22.52,35.9,15.19,42.16s-12.5,14.69-41.71-19.48"/><polygon class="cls-5" points="872.3 859.1 729.95 862.59 728.74 813.3 870.22 810.67 872.3 859.1"/><polygon class="cls-6" points="872.3 859.1 729.95 862.59 728.74 813.3 870.22 810.67 872.3 859.1"/><rect class="cls-5" x="829.15" y="837.15" width="43.78" height="108.31" rx="16.43" ry="16.43" transform="translate(-21.58 21.12) rotate(-1.4)"/><path class="cls-6" d="M857.82,945.31l-10.91.27a16.48,16.48,0,0,1-16.83-16l-1.85-75.42a16.48,16.48,0,0,1,16-16.83l10.92-.27a16.48,16.48,0,0,1,16.82,16l1.85,75.42A16.48,16.48,0,0,1,857.82,945.31Z"/><rect class="cls-5" x="730.38" y="842.66" width="42.33" height="108.31" rx="19.34" ry="19.34" transform="translate(-21.75 18.68) rotate(-1.4)"/><path class="cls-6" d="M754.69,950.91,751,951a19.41,19.41,0,0,1-19.81-18.86l-1.7-69.61a19.4,19.4,0,0,1,18.86-19.81l3.65-.09a19.4,19.4,0,0,1,19.81,18.86l1.7,69.61A19.39,19.39,0,0,1,754.69,950.91Z"/><circle class="cls-15" cx="814.3" cy="819.56" r="0.61"/><circle class="cls-15" cx="779.77" cy="820.5" r="0.61"/><circle class="cls-15" cx="772.53" cy="820.69" r="0.61"/><circle class="cls-15" cx="757" cy="821.11" r="0.61"/><circle class="cls-15" cx="750.79" cy="821.28" r="0.61"/><circle class="cls-15" cx="743.54" cy="821.48" r="0.61"/><circle class="cls-15" cx="736.29" cy="821.67" r="0.61"/><circle class="cls-16" cx="806.71" cy="819.77" r="0.61"/><rect class="cls-17" x="806.69" y="825.89" width="3.72" height="0.24" rx="0.04" ry="0.04" transform="matrix(1, -0.01, 0.01, 1, -9.99, 9.9)"/><path class="cls-1" d="M899,791.06l22.43-8.69s12.14-12,15.19-14.1,27.6-15.18,27.6-15.18"/><path class="cls-18" d="M786.09,669c6.11-4.75,16.19-7.24,18.56,2.07,0-.42,0-.84-.08-1.26,0,.4,0,.82.09,1.19-1.51-1.39-6.74-1.39-9.43-1.28s-7.45,2.77-9.14-.72Z"/><path class="cls-19" d="M804.6,672.37c-1.2-1.83-7.29-2.13-9.1-2-3.9.24-6.92,2.31-10.35.44m.05,0c4.9-8.33,16.24-10.38,19.92.1,0,0,0-.06,0,.09h0c0,.16,0,1.61-.23,1.68s-.07-.24-.23-.26m-17.11-4.28a.3.3,0,0,0-.12.27c1.38,3,5.38.71,8,.7,2.8,0,6.48,1.52,8.82-.86.06-.06.08-.15,0-.19C798.65,664.39,793.24,664.83,787.56,668.14Z"/><path class="cls-19" d="M785.08,670.9c.07,0,.1-.07.11-.08s-.06,0-.07,0c4.93-8.42,16.31-10.44,20,.06a.62.62,0,0,1,0,.13,2.71,2.71,0,0,1-.23,1.69c-.25.19-.08-.22-.22-.19s0-.09,0-.09.08.09,0,.07c-1.33-1.87-7.36-2.16-9.17-2.05C791.53,670.67,788.54,672.71,785.08,670.9Zm19.78,1.7a3.45,3.45,0,0,0,.2-1.79c-.58-5.54-5.69-7-10.44-6.44-5.35.65-6.8,2.28-9.38,6.36,3.44,1.81,6.38-.2,10.26-.45,1.78-.11,7.75.26,9.14,2C804.68,672.31,804.69,672.73,804.86,672.6Zm-17.52-4.08c-.06-.13.07-.35.16-.41,5.64-3.31,11.31-3.91,16.79,0h0c.11.07.07.24,0,.33-2.43,2.21-6,.73-8.85.73C792.81,669.17,788.8,671.5,787.34,668.52Zm.26-.34s-.09.09-.05.12c1.57,1.32,6.14-.88,8.05-.87,2.07,0,6.67,2.05,8.61.66,0,0,0-.08,0-.06h0c-2.57,1.4-5.91-1-8.58-1.5A78.66,78.66,0,0,0,787.6,668.18Z"/><line class="cls-20" x1="339.71" y1="980.77" x2="300.25" y2="628.25"/><path class="cls-8" d="M427.78,481.37c7,.36,12.88,3,17.05,8.89a19.62,19.62,0,0,1,3.43,8.12q7.32,42.3,14.57,84.61a20.29,20.29,0,0,1-16.43,23.5q-77,13.39-154.07,26.6a8.69,8.69,0,0,1-.88.07,1.31,1.31,0,0,1-.4-.53c-.06-1.7,1.34-2.42,2.33-3.38a8.4,8.4,0,0,0,1.48-1.5,2.51,2.51,0,0,1,1.52-1.1c22.62-4,45.25-7.82,67.87-11.74l75.54-13a34.69,34.69,0,0,0,6-1.39,6.48,6.48,0,0,1,1.15-.3,8.76,8.76,0,0,0,4.78-3.19c4.35-3.79,5.5-8.63,4.58-14.1-2-11.76-4-23.51-6.06-35.26q-4-23.43-8.08-46.87c-.94-5.41-3.68-9.49-8.79-11.73-3.31-1.44-6.81-1.31-10.28-.73-9.06,1.5-18.11,3.1-27.16,4.66q-32.64,5.63-65.27,11.24c-1.51.26-3,.75-4.6.31a1.64,1.64,0,0,1-.6-.57c-.4-1.43-1.66-2.62-1.2-4.29a1.62,1.62,0,0,1,.37-.74,1.89,1.89,0,0,1,2.31-.24c.77,1.08,1.77.46,2.65.31q31.53-5.4,63.05-10.86l24.3-4.19q-43.71,7.55-87.41,15c-.64.11-1.68,1.12-2.15-.36A10,10,0,0,1,330,498q44.78-7.73,89.54-15.46A51.9,51.9,0,0,1,427.78,481.37Z"/><path class="cls-21" d="M324.81,499.63l1.15,3.84a1.45,1.45,0,0,1-1.08.64,50.78,50.78,0,0,0-5.5.73q-76.85,13.24-153.7,26.52c-1.49.26-3.15.2-4.22,1.61a1.71,1.71,0,0,1-.58.45c-1.94,1-4.11,1.61-5.88,3a14.87,14.87,0,0,0-5.64,11.32,4.68,4.68,0,0,0,.13,1.86c4.79,27.35,9.45,54.72,14.19,82.07a25,25,0,0,0,1.29,5.16c2.12,5.26,5.85,8.42,11.58,9a9.57,9.57,0,0,1,3.12.71c.48.23.83.7,1.44.68a17.66,17.66,0,0,0,3.09-.41l101.33-17.47a33.53,33.53,0,0,0,6.26-1.48c1.16,0,2.51-1.22,3.41.51a27.61,27.61,0,0,1-3.84,4.24,5.16,5.16,0,0,1-2.54.67l-107,18.47a7.11,7.11,0,0,0-2.57.61,3,3,0,0,1-1.92,0c-.12-.16-.24-.17-.36,0l-1.19.17c-.65-.25-1.51.51-2-.4-.49-.09-1.05.19-1.48-.26a1.93,1.93,0,0,1-1.37-.6c-5.68-2.55-10.11-6.31-12-12.47q-6.74-38.58-13.34-77.18c-.78-4.52-1.53-9-2.35-13.55-.75-7.64,4.78-16.39,12.18-19.24a2.54,2.54,0,0,0,1.11-.65c.44-.62,1.13-.38,1.73-.48.53.08,1.07,0,1.6.07.89-.07,1.76-.25,2.64-.4L324,499.53A1.31,1.31,0,0,1,324.81,499.63Z"/><path class="cls-22" d="M158.22,527.92l-1.76.28c-.25-.3-1.14-.84,0-.86,5,0,9.82-1.34,14.7-2.18q74.54-12.78,149-25.68c1.31-.22,2.62-.48,3.94-.72a2.77,2.77,0,0,1,2.72-.51c4.53-.75,9.06-1.48,13.59-2.26l78-13.44,2.58-.45-.07-.4-93.13,16.06a4,4,0,0,1,2.46-.88L422.47,481c1.82-.31,3.52.54,5.31.41l-99.1,17a12.11,12.11,0,0,0-1.28.34c-.11.23-.25.25-.43.07l-2.21.38a3.86,3.86,0,0,1-2.44.91L161.09,527.85A7.5,7.5,0,0,1,158.22,527.92Z"/><path class="cls-23" d="M143.17,548.09a5,5,0,0,1,.93,2.69q7.35,42.59,14.69,85.18a5.44,5.44,0,0,1,.07,2.86,13,13,0,0,1-1.15-4.05q-7.16-41.47-14.3-82.95A8.86,8.86,0,0,1,143.17,548.09Z"/><path class="cls-24" d="M326.87,498.25l-2.72.51c-1.2-.4-2.36,0-3.51.23l-158,27.22a6.75,6.75,0,0,1-3.4.15l3-.51q80.52-13.89,161-27.76C324.45,497.89,325.71,497.19,326.87,498.25Z"/><path class="cls-25" d="M179.25,652.41a7.18,7.18,0,0,1,3.37-1l108.74-18.78.09.5c-1.38.28-2.75.58-4.14.82l-104.1,17.95C181.9,652.15,180.57,652.25,179.25,652.41Z"/><path class="cls-26" d="M173.74,652.15l2,.4C175.06,652.64,174.1,653.91,173.74,652.15Z"/><path class="cls-26" d="M170.89,651.29c.5.1,1,.11,1.37.6C171.59,652.17,170.94,652.4,170.89,651.29Z"/><path class="cls-27" d="M177,652.38c.09-.37.23-.71.69-.68.11,0,.21.15.31.23l-.64.45-.18,0Z"/><path class="cls-28" d="M148.17,547.81c.57-7.72,4.58-12.74,11.87-15.2.51-.83,1.41-.75,2.18-.88q80.49-13.9,161-27.77a6,6,0,0,1,2.85,0c.88-.1,1.77-.16,2.64-.31l95.07-16.39c10.56-1.82,17.79,3.28,19.61,13.85q7.06,41,14.12,81.93c1.05,6.08-.49,11.28-5.51,15.18-1.78.36-3,1.67-4.52,2.53l-.85.23a6.59,6.59,0,0,0-2.42.18l-143,24.67a12.82,12.82,0,0,0-1.74.37,5,5,0,0,1-.82.28c-4.34,1.8-9,1.28-13.56,2.08-32.69,5.76-65.44,11.26-98.13,17-1.27.22-2.58.25-3.62,1.21a1.82,1.82,0,0,1-1.87.43c-1.52-.78-3-.23-4.5-.19-6.69,0-12.72-5.88-13.83-12.44q-2-11.82-4.08-23.64-5.36-31-10.73-61.92C148,548.63,147.79,548.24,148.17,547.81Z"/><path class="cls-24" d="M176.9,647a8.19,8.19,0,0,1,4.51-.6c1.59.27,2.87-1.23,4.54-1.48,6.07-.91,12.11-2,18.17-3.08l84.45-14.56a11,11,0,0,1,4.17-.1c2.12.42,3.93-1.32,6.18-1.12Q370,614,440.77,601.72L298.84,626.19c.07,0,.13,0,.08-.12a3.94,3.94,0,0,1,2.58-1l141.73-24.44c1.14-.19,2.34-.64,3.38.33a12.53,12.53,0,0,1-4.08,1l-144,24.88c-.88.15-1.73.39-2.6.58a37.31,37.31,0,0,1-6.42,1.55q-53.29,9.24-106.61,18.39c-1,.17-2,.68-3,0Z"/><path class="cls-25" d="M326.05,503.93c-.86.2-1.72.44-2.59.59l-161.22,27.8c-.72.13-1.46.19-2.2.29l-1.08-.33a4.67,4.67,0,0,1,2.33-.62q80.7-13.93,161.4-27.83a4.77,4.77,0,0,1,2.4-.21l.87-.15Z"/><path class="cls-29" d="M158.22,527.92c.94-.22,1.86-.5,2.8-.67q80.65-13.92,161.32-27.82c.8-.14,1.61-.21,2.42-.3,0,.16,0,.33.05.5l-.4.07a5.06,5.06,0,0,1-2.34.6Q241.82,514.16,161.56,528a4.65,4.65,0,0,1-2.4.2Z"/><ellipse class="cls-30" cx="370.96" cy="615.11" rx="101.75" ry="0.15" transform="matrix(0.99, -0.17, 0.17, 0.99, -99.14, 71.99)"/><path class="cls-11" d="M179.84,647.32c1.74-.32,3.48-.67,5.23-1q54-9.33,108-18.63c.94-.16,1.9-.23,2.85-.35-.22.35-.45.7-.68,1-1.07-.45-2.13-.07-3.19.09a4.88,4.88,0,0,1-2.33.61Q236,638.41,182.21,647.65a4.89,4.89,0,0,1-2.4.21C179.28,647.65,179.64,647.49,179.84,647.32Z"/><path class="cls-31" d="M327,498.75l.43-.07c1.18.49,2.35.07,3.5-.12l87.86-15.15,2.37-.41.08.35c-.66.14-1.31.31-2,.43q-44.79,7.73-89.61,15.42C328.78,499.34,327.61,500.28,327,498.75Z"/><path class="cls-24" d="M447.46,600.72c-.33-.71-.07-1.16.68-1.25a1.57,1.57,0,0,0,1.51-1c.61-1.63,1.47-1,2.33-.24A9.14,9.14,0,0,1,447.46,600.72Z"/><path class="cls-32" d="M325.09,503.62,159,532.28c.51-.87,1.43-.68,2.19-.81q80.43-13.9,160.87-27.76A5.53,5.53,0,0,1,325.09,503.62Z"/><path class="cls-33" d="M159.16,528.18,324.41,499.7a5.34,5.34,0,0,1-2.71.9L162,528.14A5.11,5.11,0,0,1,159.16,528.18Z"/><path class="cls-32" d="M179.81,647.86,292,628.51a5.09,5.09,0,0,1-2.7.9l-106.65,18.4A5.21,5.21,0,0,1,179.81,647.86Z"/><ellipse class="cls-34" cx="155.11" cy="592.44" rx="0.16" ry="59.47" transform="translate(-98.43 34.98) rotate(-9.78)"/><path class="cls-35" d="M148.17,547.81l.09,1.2c-.29-.41-.7-.79-.45-1.37Z"/><path class="cls-21" d="M229.29,617.67q5.9-8.43,11.8-16.85c.19-.27.58-.4.88-.6.54-.06.79.3,1,.71,4.34,3.53,9.13,6.44,13.63,9.76.65.47,1.26,1,1.89,1.51s.36,1.32.56,1.92c0-.49-.38-1,0-1.59,1,1.07.46,2.63,1.26,3.75a10,10,0,0,0,5.41-.94c0-3.23-1-6.33-1.4-9.51a5.77,5.77,0,0,1-.16-2.8c1,2.63,1,5.49,1.37,6.92-.38-1.44-.34-4.28-1.37-6.91q.44-5.65.86-11.29c0-.31,0-.64.19-.91a7.21,7.21,0,0,1,1.38-.78,8.6,8.6,0,0,0,6.84-3.79c.33-.45.49-1.13,1.29-.84,3.65,7.48,7.82,14.74,8.6,23.32.36,3.9,1.24,7.75,2,11.6.25,1.33.06,2-1.46,2.27-16.92,2.87-33.83,5.81-50.75,8.72-.75.13-1.73.53-1.93-.74-.64-4.23-1.8-8.38-2-12.68,1.16,2.75,1.22,5.73,1.77,8.6.84,4.37.76,4.3,5.12,3.52,9.39-1.68,18.8-3.26,28.19-4.88l17.92-3.09-44.86,7.74a10,10,0,0,0-2.8.67c-3.41.7-2.71.5-3.25-2.24C230.56,624.72,230.22,621.14,229.29,617.67Z"/><path d="M369.11,565.52c.83-1.37,1.64-1.31,2.93-.36,3.93,2.89,8,5.6,12,8.38.71,0,1.33.11,1.42,1l1.9,1.7c1.78,8.54,3,17.17,4.57,25.75.38,2.12-1.5,2.34-2.75,2.69a66.27,66.27,0,0,1-6.75,1.24c-5.25.91-10.49,1.83-15.74,2.69-.84.14-1.94.75-2.39-.68,1.56-.77,3.29-.78,4.95-1.07,5.45-1,10.91-1.9,16.3-2.83,0,0-.13,0-.22,0-6.93,1.22-13.88,2.33-20.79,3.63-.41.41-.54,1.29-1.45.87-.81-1.62-.83-3.42-1.14-5.15-1.21-6.78-2.34-13.57-3.55-20.35A3.7,3.7,0,0,1,359,580c1.75-2.42,3.41-4.92,5.1-7.39l.3.13a1.55,1.55,0,0,1,.53,1.13,1.74,1.74,0,0,1-.08.64.88.88,0,0,0,.11-.4,7.79,7.79,0,0,1-.06-1.45c1.39-1.85,2.05-4.37,4.56-5.26a2.27,2.27,0,0,1-.62-1.31A1.17,1.17,0,0,1,369.11,565.52Z"/><path d="M320.29,590.63a7.54,7.54,0,0,1,4.81,7c.27,3.53,1.18,7,1.72,10.51.18,1.23.66,1.72,1.89,1.35a4.66,4.66,0,0,1,.65-.12c3.83-.63,3.86-.64,3.29-4.51a2.77,2.77,0,0,1,.54-2.25c2.58-3.61,5.16-7.22,7.68-10.88.64-.93,1.11-1,2.05-.36Q348,595,353.27,598.6a3.83,3.83,0,0,1,1.9,3c.23,2.13.65,4.24,1,6.36,0,1.49-1.14,1.89-2.2,2.39q-24.22,4.2-48.44,8.34c-.73.13-1.67.77-2.25-.12s.13-1.71.63-2.42a156.67,156.67,0,0,0,14.31-24.29A1.83,1.83,0,0,1,320.29,590.63Z"/><path class="cls-21" d="M320.29,590.63c-1.64,3.14-3.25,6.29-4.94,9.4a153.07,153.07,0,0,1-10.58,16.66c-.34.47-.62,1-1.31,2.07L354.28,610a1.79,1.79,0,0,1,2.16-.3c-.49.88-1.42.67-2.17.8-20,3.45-40,6.82-60,10.35-2.33.41-2.91-.25-3.21-2.38-.77-5.27-1.64-10.54-2.73-15.76-.51-2.44-.12-4.34,1.7-6a4.51,4.51,0,0,0,2.24-3.17c.31-1,1.19-1,2-1.12,7.14-1.24,14.3-2.4,21.43-3.75C317.8,588.28,318.93,589.57,320.29,590.63Z"/><path class="cls-21" d="M269.13,545.79l.14-2.59c0-.57-.27-1.23.44-1.61,2.63-5.94,8-8.46,13.19-6.21a5.36,5.36,0,0,1,.91.61,2.21,2.21,0,0,0,1.29,1.15s0-.14-.05-.16a.28.28,0,0,1,.14-.33c-.53-3.24-1.08-6.47-1.58-9.71-.11-.68-.55-1.4,0-2.08a1.24,1.24,0,0,0,1.29-.27c4.8-1.16,4.8-1.16,5.62,3.57,1.54,9,3,17.92,4.67,26.85.35,1.9,0,2.83-2,2.82a1.7,1.7,0,0,0-.44.08c-1.91.43-3.9,1-3.83-2.5-1.59,1.8-2.7,3.52-4.75,4.07l-.57,0c-1.48,0-2.95.09-4.1,1.23a1.78,1.78,0,0,1-.6.25c-1,.18-1.35-.61-1.91-1.12l-1.14-.76c-.12-.43-.38-.63-.84-.47-2.55-1.38-3.66-3.85-4.78-6.32a1.18,1.18,0,0,1-.25-.94c-.33-1.42-.13-2.93-.77-4.29A1.93,1.93,0,0,1,269.13,545.79Z"/><path class="cls-21" d="M196,540.33a9.89,9.89,0,0,1,6.57-1.12,1.12,1.12,0,0,0-.1.43q2.61,15.6,5.37,31.17a1.45,1.45,0,0,0,.22.38c.42,1.1-.19,1.4-1.13,1.54-1.29.21-2.57.48-3.85.72l-1.22.17a.45.45,0,0,1-.31-.6c-.6-4.44-1.39-8.86-2.27-13.25-.41-.91-1.2-.55-1.88-.56-3.82.54-7.7.8-11.37,2.18a2.76,2.76,0,0,0-.19.68,61.62,61.62,0,0,0,1.56,8.41,1.2,1.2,0,0,1-.35.71c-2,.62-4,1.39-6.12.71a1.81,1.81,0,0,1-.29-.59q-2.47-13.69-4.72-27.43a1.11,1.11,0,0,1,.09-.43,15.45,15.45,0,0,1,6.33-1.21c.75,4,1.34,8.07,2.13,12.08a2.15,2.15,0,0,0,.58.9l12.27-2.07.79-.19A62.08,62.08,0,0,0,196,540.33Z"/><path class="cls-8" d="M407.87,538.58l-4.62-.58a15.19,15.19,0,0,1-6.87-18.28,11.21,11.21,0,0,1,11-7.15c4.8,0,8.5,2.78,10.36,7.67.27.68.53,1.37.79,2.06a1.51,1.51,0,0,1,1,2.1c-.26,1.06-.48,2-1.76,2.22-2.1.43-4.22.76-6.33,1.14-1.38.26-2.77.45-4.15.74-.86.18-1.92.32-2,1.43s1,1.74,2,2c1.64.48,2.92-.23,4.11-2.2s2.2-2.19,4.26-.73c.22,0,.44.1.65.12,3.08.31,3.4,1.18,1.62,4-2.11,3.34-5.26,4.79-9,5.22C408.58,538.42,408.23,538.51,407.87,538.58Z"/><path class="cls-21" d="M328.34,534.92c3,5.76,1.93,11.35-3.11,16.55-.24.77-.62,1.42-1.53,1.5-2.66-.17-5.28-.13-7.61,1.47a1.71,1.71,0,0,1-.63.39,2.12,2.12,0,0,1-2.53-1.19c-5.51-1.85-8-6-8.62-11.49-.49-4.71.92-8.86,5-11.59,5.91-3.9,13.89-3.42,18.16,2.9A1.19,1.19,0,0,0,328.34,534.92Z"/><path d="M355.9,546.14c-1.55,1.77-5.59,2.19-7.07.74q-5.93-9.71-11.87-19.41c-1.33-2.17-1.34-2.17,1.08-2.59,4.42-.78,4.42-.77,6.69,3.15,1.39,2.41,2.81,4.8,4.22,7.19.69.13.26,1,.75,1.21a2,2,0,0,0,.82,1.63c.32.29.59.21.8-.14.24-1.36.47-2.72.7-4.08,0-1.17-.43-2.43.68-3.38.46-2.25,1-4.48,1.36-6.74.2-1.2.64-1.83,1.92-2,1.61-.16,3.19-.52,5-.84-1.07,5.43-2.1,10.63-3.13,15.84a12,12,0,0,1-1.27,6.09A9.07,9.07,0,0,0,355.9,546.14Z"/><path class="cls-8" d="M379.71,530.17c0,3.26.89,6.39,1.35,9.58.5,3.4.69,2.79-2.45,3.35-.36.06-.71.17-1.07.26-2.13.67-2.7-.32-3-2.33-1-6.59-2.16-13.16-3.38-19.72-.29-1.58-.06-2.43,1.69-2.44a3.88,3.88,0,0,0,1.31-.23c2-.68,3.32-.32,3.13,2.19,1-.12,1-1,1.3-1.46a6.32,6.32,0,0,1,7.19-2.53,1.11,1.11,0,0,1,.9,1.47,20.46,20.46,0,0,0-.38,2.19c-.15,1.73-.49,3-2.75,2.15a2.17,2.17,0,0,0-2.26.61c-1.15,1.41-1.15,3.25-1.81,4.84Z"/><path class="cls-21" d="M260.45,563.07c-1.73,1.2-3.8,1-5.73,1.34-1.08.19-1-.91-1.09-1.57q-2-11.36-3.88-22.72c2.1-.23,4.58-1.73,6.16-.57s1,3.84,1.38,5.85C258.38,551.29,259.4,557.18,260.45,563.07Z"/><path class="cls-21" d="M228.11,568.64c-4.34-7-8.67-13.94-13-20.88-.72-1.14-.6-1.56.79-1.85,5-1,5-1.08,7.62,3.47,1.89,3.34,4.07,6.52,5.57,10.08-.36,2.44.27,4.79.6,7.17C229.82,567.81,229.88,568.94,228.11,568.64Z"/><path class="cls-21" d="M229.21,559.87c1.06.2.75-.67.84-1.14.84-4.49,1.73-9,2.41-13.49.26-1.8,1-2.43,2.77-2.68,4.42-.65,4.42-.73,3.45,3.72s-1.91,8.61-2.86,12.91c-1,1.43-3.38.75-4.2,2.55a3.37,3.37,0,0,0-1.31,2.2c-.18.7-.52,1.42-1.44.64-.18-.94-.38-1.86-.48-2.8C228.31,561,228.19,560.18,229.21,559.87Z"/><path class="cls-36" d="M415.7,529c-1.78,0-3.21.22-3.87,2.46-.51,1.77-2.91,2.34-5,1.76-1.85-.52-3.71-2.67-3.82-4.24-.07-1.1.74-.94,1.32-1,3.86-.69,7.72-1.35,11.58-2,3.09-.54,3.09-.54,2.59-3.66l1-1.86a7.92,7.92,0,0,1,1.43,5c-.34-.08-1-.72-1,0,.1,2.46-1.52,2.8-3.33,3.09A3.53,3.53,0,0,0,415.7,529Z"/><path class="cls-37" d="M187.37,576.58l-.07-.4c-.44-1.46-1.24-2.89-.52-4.49a3.15,3.15,0,0,1,.44-1l-.08-.45a43.29,43.29,0,0,1-1.49-8.75.7.7,0,0,0,.08-.4A61,61,0,0,1,197.41,559c.61.07,1.25-.22,1.82.17a93.77,93.77,0,0,1,2.49,14c.05.14.09.28.14.43-.84-.68-.86-1.68-1-2.62-.57-3.2-1.14-6.4-1.66-9.61-.23-1.47-.93-2-2.43-1.77-2.83.54-5.67,1-8.52,1.47-1.48.24-2,1-1.74,2.46.38,2,.73,3.92,1,5.9.22,1.49,1,2,2.45,1.72,1.88-.42,2.45.64,2.76,2.26.35,1.81-.54,2.38-2.09,2.62C189.54,576.22,188.51,576.76,187.37,576.58Z"/><path class="cls-35" d="M229.14,564.87a5.14,5.14,0,0,0,.15-1.49c-.31-1.57.34-2.34,1.87-2.48,1.41-.76,2.84-1.48,4.48-.65v1.2q-.76,2.87-1.51,5.74c-1.16,1.4-2.83,1-4.34,1.22-.46-.8-.12-1.81-.66-2.59A1,1,0,0,1,229.14,564.87Z"/><path class="cls-21" d="M249.08,536.15c-.06-.21-.14-.42-.18-.63-1-5-.69-5.36,4.47-5.58.63,0,1.26-.07,1.35.71.2,1.65,1,3.23.53,5-.28.1-.06-.52-.53-.31A8.87,8.87,0,0,1,249.08,536.15Z"/><path class="cls-27" d="M229.29,617.67c1.38,3.28,1.46,6.84,2.1,10.28.36,2,1,3,3.16,2.33a3,3,0,0,1,1.67-.5q23.27-4,46.54-8a3.07,3.07,0,0,1,1.75-.09c-.5.87-1.43.68-2.18.81q-23.83,4.14-47.68,8.23c-3,.52-3.08.46-3.62-2.52-.61-3.42-1.24-6.84-1.86-10.26A.22.22,0,0,1,229.29,617.67Z"/><path class="cls-31" d="M364.3,607.91a4.39,4.39,0,0,0,2.41,0c7.07-1.22,14.13-2.53,21.23-3.59,1.61-.24,2.1-2,3.69-2a11.53,11.53,0,0,0-.09-1.31c-1.54-7.9-2.38-15.94-4.38-23.76-.08-.32.13-.71.2-1.06a3.59,3.59,0,0,1,.61,2.08q2,11.66,4,23.32c.13.77.52,1.57.07,2.37a3,3,0,0,1-2.68,1c-8.2,1.26-16.35,2.87-24.56,4.12a1.57,1.57,0,0,1-.81-.25c-.3-.1-.71.1-.92-.3Z"/><path class="cls-24" d="M306,619.46l49.43-8.52,0,.28L306,619.75Z"/><path class="cls-36" d="M370.08,519.62l4,23.13-.41.08-4-23.09Z"/><path class="cls-24" d="M389.44,604.48l2.62-.48c.16,1.49-1,1.46-1.91,1.55-8.46.83-16.74,2.71-25.11,4.1-.68.11-1.67.77-1-.79l.44-.07a6.17,6.17,0,0,0,2.83-.28q10-1.69,20.06-3.46A4,4,0,0,0,389.44,604.48Z"/><path class="cls-24" d="M179.27,571,175,546.42l.2,0L179.47,571Z"/><path class="cls-38" d="M357.73,583.49l4.07,23.58-.26,0-4.07-23.56Z"/><path class="cls-39" d="M273.93,583.73l.5.41.26,1.29c-1.77,3.2-4.21,5.43-8.12,5.48a1.3,1.3,0,0,1,.83-1.6,13,13,0,0,0,6-5.31C273.45,583.82,273.72,583.78,273.93,583.73Z"/><path class="cls-40" d="M249.08,536.15a25.85,25.85,0,0,1,2.61-.44c2.2-.15,3.35-1.05,3-3.51l.59,3.4C253.21,536,251.25,537.27,249.08,536.15Z"/><path class="cls-41" d="M229.66,567.93a5.94,5.94,0,0,0,4.47-.74c-.72,1.9-2.66.87-3.87,1.6-.71-.15-1.47.48-2.15-.15,1.13-.43,1-1.33.83-2.23-.23-1.39-.48-2.77-.69-4.16-.17-1-.24-2.08.8-2.79l.16.41c-1.08,1.65-.25,3.33-.07,5l.15.87A2.54,2.54,0,0,1,229.66,567.93Z"/><path class="cls-42" d="M375.68,566.68c1.2,0,.48-2.34,1.64-1.7.81.44,1.05,1.95,1.49,3,.1.24,0,.57,0,.86Z"/><path class="cls-22" d="M385.46,574.53a2.9,2.9,0,0,1-1.42-1c0-.48.35-.54.7-.69.54-.22-.23-1.59,1-1.22a1.94,1.94,0,0,1,1.05,1.07c.31.79-.43,1.15-.93,1.57A2.36,2.36,0,0,1,385.46,574.53Z"/><path class="cls-43" d="M356.61,542.85a27.49,27.49,0,0,1,1.27-6.09C359.06,539.12,358,541,356.61,542.85Z"/><path class="cls-44" d="M379.48,528.1c-.11-1.88-.18-3.75,1.81-4.84C381.12,525,381.22,526.91,379.48,528.1Z"/><path class="cls-45" d="M235.64,560.25l-4.48.65c-.41-.63-.22-.93.5-1,1.39-.2,2.77-.44,4.16-.67Z"/><path class="cls-46" d="M284.18,559.77c-1.74.45-3.46,1-5.28.5,0-.12,0-.23-.07-.35a12.82,12.82,0,0,1,5.26-.92l.1.48A2.71,2.71,0,0,0,284.18,559.77Z"/><path class="cls-36" d="M422.28,526.4c0,.53.05,1.16-.53,1.3s-1-.57-1.14-1,0-1.26.76-1.32S422.17,525.88,422.28,526.4Z"/><path class="cls-26" d="M352.7,530.46a8.76,8.76,0,0,1-.68,3.38C351.37,532.53,350.52,531.19,352.7,530.46Z"/><path class="cls-47" d="M285.73,537.05l1.14,2c-1.22-.85-2.65-1.47-3.06-3.08l1.38.66.53.39Z"/><path class="cls-38" d="M264.88,613.87a3.65,3.65,0,0,1-4.38.81A6.85,6.85,0,0,0,264.88,613.87Z"/><path class="cls-43" d="M270.2,551.45l.05.89c-1.51-2-1.25-4.28-1.12-6.55l.3,1.3A10.86,10.86,0,0,1,270.2,551.45Z"/><path class="cls-47" d="M292.25,593.56c.35,1.83-.39,2.89-2.24,3.17Z"/><path class="cls-40" d="M265.69,615.34c-1.62,1.35-3.63,1.08-5.52,1.31a.62.62,0,0,1,0-.19.55.55,0,0,1,.13-.18Z"/><path class="cls-31" d="M356.44,609.7l-2.16.3c.31-1,1.44-1.18,1.87-2Z"/><path class="cls-43" d="M243,600.93l-1-.71c.09-.47,0-1.22.78-1S243.15,600.33,243,600.93Z"/><path class="cls-43" d="M269.71,541.59l-.44,1.61c-.28-.22-1,.13-.88-.58A1.09,1.09,0,0,1,269.71,541.59Z"/><path class="cls-46" d="M328.34,534.92c-.27.79-.59.28-.87,0-.54-.5-.43-1,0-1.48A2.74,2.74,0,0,1,328.34,534.92Z"/><path class="cls-35" d="M259,612.53l.43,2.54-.44.08-.51-2.95Z"/><path class="cls-48" d="M284.92,524.59c-.45.26,0,1.14-.72,1.12-.2,0-.38-.56-.57-.85Z"/><path class="cls-37" d="M237.92,557.44l-.41.48c-.08-.08-.25-.21-.24-.24a5.88,5.88,0,0,1,.36-.51Z"/><path class="cls-35" d="M275,558.66c.18-.28.34-.74.72-.58s.29.67.12,1Z"/><path class="cls-26" d="M351.32,537.92c.09.38.37.94-.15,1.05s-.59-.48-.65-.91Z"/><path class="cls-43" d="M267.8,546.06l-.2-.3.16-.1.21.29Z"/><path class="cls-26" d="M349.7,536.43l-.75-1.21C350.38,534.89,349.46,536,349.7,536.43Z"/><ellipse class="cls-28" cx="371.53" cy="613.6" rx="104.33" ry="0.07" transform="translate(-98.88 72.07) rotate(-9.78)"/><path class="cls-49" d="M273.93,583.73c0,2.56-1.78,4-3.63,5.21a37.81,37.81,0,0,1-3.73,2,1.6,1.6,0,0,1-1.26.22l.3-5.92a.72.72,0,0,1-.14-.85c1.82-1.89,2.19-4.22,2.06-6.7.72-1.63-.08-2.82-1.17-3.91A1.37,1.37,0,0,1,267,572l.59-2.37C269.84,574.67,271.89,579.2,273.93,583.73Z"/><path class="cls-32" d="M284.51,621.66l-50,8.62a5.16,5.16,0,0,1,2.7-.91l44.41-7.66A5.21,5.21,0,0,1,284.51,621.66Z"/><path class="cls-40" d="M264.13,603c1.62,3.38,1.4,7.15,1.86,10.78L264.13,603Z"/><path class="cls-31" d="M364.09,572.79l5.08-6.94,1.25.9c.39.28,1.22.3,1.05.91a1.48,1.48,0,0,1-1.56,1c-2.18-.2-2.85,1-2.77,2.9.05,1.31-1.7.2-1.65,1.36-.2.56-.25,1.29-1.16,1.1Z"/><path class="cls-31" d="M364.45,607.61l23.27-4,0,.11-23.47,4Z"/><path class="cls-50" d="M364.33,574.05l1.16-1.1c1.24,2.12-1.1,2.86-1.66,4.32A4.85,4.85,0,0,1,364.33,574.05Z"/><ellipse class="cls-31" cx="329.19" cy="613.74" rx="33.82" ry="0.16" transform="translate(-99.52 64.87) rotate(-9.78)"/><path class="cls-50" d="M327.57,611.58c1.72-.53,3.51-.3,5.09-1.14C331.12,611.73,329.29,611.64,327.57,611.58Z"/><path class="cls-50" d="M326.28,609.88c.08,1.11,1.49.94.86,2-.2.34-.49.89-1,.55C325.27,611.86,325.73,611.14,326.28,609.88Z"/><path class="cls-27" d="M208.06,571.19a5.13,5.13,0,0,1-.83-2.49q-2.32-13.43-4.64-26.87a4.86,4.86,0,0,1,0-2.62Z"/><path class="cls-25" d="M196,540.33A34.61,34.61,0,0,1,198.11,553Q197.06,546.65,196,540.33Z"/><path class="cls-28" d="M283.76,554.51c-3,.8-5.08,0-6.39-2.78a13.71,13.71,0,0,1-1.31-7.77,5.07,5.07,0,0,1,9.68-1.61c2.07,3.84,2,8.45-.27,11C284.81,553.63,283.92,553.51,283.76,554.51Z"/><path class="cls-51" d="M283.76,554.51c-.6-.45-.91-1-.32-1.63.86-.84,1.38.22,2,.51A2.22,2.22,0,0,1,283.76,554.51Z"/><path class="cls-35" d="M285,532.43l-.85-4.89.21,0,.86,5Z"/><path class="cls-52" d="M284.09,559l-5.26.92A7,7,0,0,1,284.09,559Z"/><path class="cls-11" d="M270.2,551.45a12.76,12.76,0,0,1-.77-4.36A5.72,5.72,0,0,1,270.2,551.45Z"/><path class="cls-48" d="M291.56,557.37l2.31-.4.05.14-2.32.4Z"/><path class="cls-40" d="M275.4,547.06a1.67,1.67,0,0,1,.4,1.63C275.24,548.23,275.5,547.61,275.4,547.06Z"/><path class="cls-35" d="M285.72,537l.06-1c.15.13.36.22.43.38.22.47,0,.64-.48.64Z"/><path class="cls-53" d="M180.84,572.74l-5-28.24c-.07-.42-.18-.89.36-1.15q2.44,14.22,4.9,28.44a.58.58,0,0,1,.23.78A.44.44,0,0,1,180.84,572.74Z"/><path class="cls-25" d="M201.72,573.19c-1.09-4.63-1.76-9.33-2.49-14,1.13,1.51,1.07,3.36,1.32,5.07C201,567.22,202,570.11,201.72,573.19Z"/><path class="cls-23" d="M197.41,559l-11.68,2.14c-.2-.26-.31-.71.05-.72C189.7,560.3,193.45,558.76,197.41,559Z"/><path class="cls-47" d="M182.38,542.69l2.11,12.25A39,39,0,0,1,182.38,542.69Z"/><path class="cls-45" d="M181.27,572.67l-.15-.88,6.1-1,.15.88a4.31,4.31,0,0,1-.51.62,5.72,5.72,0,0,1-5.32.73Z"/><path class="cls-54" d="M195.13,554.38l-8.39,1.45,0-.17,8.32-1.43Z"/><path class="cls-47" d="M185.65,561.54l1.49,8.75A20.31,20.31,0,0,1,185.65,561.54Z"/><path class="cls-55" d="M404,518.5c3.55-1.54,6.21-.67,7.49,2.41.45,1.1.43,1.74-1,1.93-2.26.29-4.51.69-6.74,1.16-1.35.28-1.69-.22-1.6-1.46a7.08,7.08,0,0,1,1.44-3.64A.65.65,0,0,1,404,518.5Z"/><path class="cls-56" d="M404,518.5l-.41.4c-.46-.25-1.14.18-1.56-.45C402.72,517.78,403.34,518.26,404,518.5Z"/><path class="cls-28" d="M316.52,548.47c-3.3-.13-4.13-2.79-5.27-5.13a2.21,2.21,0,0,1-.38-2.33,23,23,0,0,1,.24-2.62,5.71,5.71,0,0,1,4.64-4.72,5.45,5.45,0,0,1,6,2.81c1.48,2.79,2.18,5.76.74,8.86A10.86,10.86,0,0,1,316.52,548.47Z"/><path class="cls-51" d="M316.52,548.47a6.58,6.58,0,0,0,2.09-1.86c.85-1.27,2.66-.52,3.85-1.27C320.47,548.65,319.56,549,316.52,548.47Z"/><path class="cls-21" d="M322.74,552.77a12.9,12.9,0,0,1-7.46,1.23l-.06-.37c2.24-.89,4.66-.93,7-1.39C322.52,552.18,322.72,552.43,322.74,552.77Z"/><path class="cls-57" d="M322.74,552.77c-2.59-.44-5,.61-7.52.86a16.62,16.62,0,0,1,8.46-1.38Z"/><path class="cls-58" d="M310.87,541c.12.78.25,1.55.38,2.33-.05.55.19,1.16-.46,1.78a23.41,23.41,0,0,1-.38-4.3C310.48,540,310.69,541,310.87,541Z"/><path class="cls-59" d="M187,571.69l.39-.07c-.05,1.52,1.66,3.07-.07,4.56-1.94-.06-3.78,1.05-5.77.5a7.74,7.74,0,0,1,.37-.9c.3-.31.62-.7,1-.75C185.05,574.8,186.1,573.35,187,571.69Z"/><path class="cls-60" d="M181.88,576.17l-.35.51a11.75,11.75,0,0,1-.69-3.94l.43-.07h0A2.17,2.17,0,0,1,181.88,576.17Z"/><ellipse class="cls-27" cx="257.66" cy="551.28" rx="0.16" ry="14.43" transform="translate(-89.94 51.81) rotate(-9.78)"/><path class="cls-34" d="M251.13,543.65l3.19,18.48-.22,0-3.18-18.47Z"/><path class="cls-27" d="M255.22,563.62l3.59-.62,0,.17-3.59.62Z"/><path class="cls-23" d="M252.09,540.27l2.87-.5,0,.2-2.86.5Z"/><path class="cls-23" d="M217.54,546.2l2.33-.4,0,.21-2.42.42Z"/><path class="cls-21" d="M229.66,567.93c-.12-.73-.24-1.46-.37-2.19A1.87,1.87,0,0,1,229.66,567.93Z"/><path class="cls-28" d="M389.44,604.48a4.3,4.3,0,0,1-2.26.83l-20.32,3.51a4.39,4.39,0,0,1-2.41,0Q376.9,606.36,389.44,604.48Z"/><path class="cls-61" d="M265.94,584.69c.29-3.31,0-6.71,1.4-9.87,1.18.69.47,2.29,1.49,3A8.23,8.23,0,0,1,265.94,584.69Z"/><path class="cls-52" d="M268.83,577.87c-1.24-.65-1.15-2-1.49-3l-.5-1.12c.66-.43,1.2-.55,1.36.49C268.39,575.42,268.62,576.64,268.83,577.87Z"/><path class="cls-49" d="M181.88,576.17l-.6-3.5,5.7-1c.58,3.5.58,3.5-2.91,4.11Z"/><use width="282.42" height="242.15" transform="translate(1170.75 3.73)" xlink:href="#SKy"/><line class="cls-62" x1="1408.41" y1="513.1" x2="1329.13" y2="1029.44"/><circle class="cls-9" cx="827.87" cy="475.75" r="6.22"/><circle class="cls-63" cx="1411.14" cy="525.52" r="13.59"/><use id="SKy-5" data-name="SKy" width="282.42" height="242.15" transform="translate(241.56 50.17)" xlink:href="#SKy"/><use width="282.42" height="242.15" transform="translate(692.88 -13.35)" xlink:href="#SKy"/><path class="cls-64" d="M772.87,261c0,.54,0,1.08,0,1.62A26.42,26.42,0,0,1,770.48,275a19.71,19.71,0,0,1-7.61,8.42,22.47,22.47,0,0,1-11.39,3.21,23.86,23.86,0,0,1-10.19-1.82q-1.34,2.33-2.66,4.65l-7.16.24,4.62-8.16q-7.1-6.13-7.52-17.85l-.06-1.66a26.6,26.6,0,0,1,2.29-12.4,19.21,19.21,0,0,1,7.54-8.45A23.16,23.16,0,0,1,750,237.88a23.72,23.72,0,0,1,10.13,1.81l2-3.53,7.27-.19-4.06,7Q772.59,249.31,772.87,261ZM741,263.53a24.86,24.86,0,0,0,1.2,7.39q6.48-11.42,13-22.8a8.79,8.79,0,0,0-5-1.23q-9.71.29-9.33,14.47C740.91,262.09,740.94,262.81,741,263.53ZM760.4,261a25.11,25.11,0,0,0-1.21-7.43q-6.59,11.4-13.11,22.83a8.49,8.49,0,0,0,5.13,1.33,8.12,8.12,0,0,0,7-3.86c1.58-2.48,2.33-6,2.22-10.67Z"/><path class="cls-64" d="M786.54,237.31q5.36,17.15,10.62,34.31l.39,1.72h.23c.1-.53.21-1.07.31-1.6q4.7-17.42,9.46-34.84l12.37-.19q-7.9,23.82-15.66,47.66-6.33.11-12.66.24-8.62-23.53-17.43-47Z"/><path class="cls-64" d="M844.17,236.44q7.76-.08,15.53-.11,5.81,16.56,11.52,33.14h.2q5.69-16.61,11.47-33.2,7.8,0,15.6,0-.07,23.7-.16,47.4c-3.91,0-7.83,0-11.74,0q0-5.88,0-11.76.55-10.82,1.14-21.63l-.2,0q-6.13,16.71-12.2,33.44l-7.89,0q-6.09-16.56-12.26-33.09l-.19,0q.63,10.66,1.25,21.34l.07,11.76c-3.91,0-7.83.05-11.74.09Q844.37,260.14,844.17,236.44Z"/><path class="cls-64" d="M936,284l-2.79-9.26-15.93-.15q-1.47,4.6-2.92,9.2l-11.78-.07q8.25-23.65,16.67-47.29l12.72.12q8,23.79,15.81,47.6Zm-10.61-34.78q-2.72,8.46-5.42,16.92l10.75.1-5.13-17Z"/><path class="cls-64" d="M994.57,237.66q-.59,23.7-1.18,47.39l-11.67-.28q-8.9-15.3-17.93-30.58l-.19.07-.55,30.13-11.74-.19q.36-23.7.73-47.39l11.87.19q9,15.28,18,30.58l.23-.06q.33-15.07.67-30.13Z"/><path class="cls-64" d="M1014.06,276.34l-.27,9.26-11.7-.33q.12-4.62.25-9.26Z"/><path class="cls-64" d="M1035.55,277c-.11,3.09-.22,6.17-.32,9.26q-5.85-.21-11.7-.39c.1-3.09.19-6.17.29-9.26Z"/><path class="cls-64" d="M86.22,446.19q-8.82,1.65-17.62,3.32L59.72,403q8.91-1.69,17.81-3.35a21,21,0,0,1,15.62,2.67A18.14,18.14,0,0,1,101.46,415q.75,4.2,1.52,8.4a18.3,18.3,0,0,1-3.27,14.8A20.85,20.85,0,0,1,86.22,446.19Zm-7.93-38.12-5.52,1q2.81,15,5.63,29.94l5.48-1a9.15,9.15,0,0,0,6.55-4.26,11.6,11.6,0,0,0,1.13-8.32L90,417a11.43,11.43,0,0,0-4-7.33A9.22,9.22,0,0,0,78.29,408.07Z"/><path class="cls-64" d="M124.7,440q-5.78,1-9.54-1.92t-5.06-10.14q-1.91-10.57-3.8-21.15,5.7-1,11.42-2,1.89,10.62,3.77,21.23,1,5.81,5.47,5a7.78,7.78,0,0,0,5.27-2.91q-2.19-12.56-4.39-25.12l11.43-2q3,17.37,6,34.73l-9.92,1.72c-.48-1.32-1-2.65-1.43-4A12.08,12.08,0,0,1,124.7,440Z"/><path class="cls-64" d="M164.93,396.54l10.73-1.77,1.26,4.82a12,12,0,0,1,9.45-7.21q11.46-1.85,13.65,12L203.44,426l-11.37,1.81q-1.73-10.8-3.47-21.61c-.32-1.95-1-3.28-1.94-4a5.6,5.6,0,0,0-4.28-.61,6.37,6.37,0,0,0-4.44,2.85l4.08,25-11.32,1.87Q167.82,413.93,164.93,396.54Z"/><path class="cls-64" d="M219.52,424.26a12.44,12.44,0,0,1-8.9-1.55,9.82,9.82,0,0,1-4.41-7.11,9.25,9.25,0,0,1,2.82-8.7c2.45-2.27,6.42-3.84,11.93-4.68l4.18-.64c-.13-.82-.25-1.65-.38-2.47q-.7-4.62-5.22-3.92c-2.61.4-3.73,1.81-3.35,4.25q-5.53.82-11.06,1.68c0-.05-.07-.11-.11-.17-.66-3.21.32-6.11,2.93-8.67s6.28-4.22,11-4.95,8.66-.21,11.75,1.55a11.11,11.11,0,0,1,5.52,8.57q1,6.57,2,13.13a25.72,25.72,0,0,0,3.43,9.62l-11.23,1.66a16,16,0,0,1-2.1-3.75A11.52,11.52,0,0,1,219.52,424.26ZM225,371.41a5.83,5.83,0,0,1-1.47,4.92A9.16,9.16,0,0,1,212.59,378a5.78,5.78,0,0,1-2.88-4.25,5.92,5.92,0,0,1,1.5-5,8.88,8.88,0,0,1,10.87-1.67A5.9,5.9,0,0,1,225,371.41Zm-6.73,38.38a4,4,0,0,0-.83,3.17,3.37,3.37,0,0,0,1.48,2.51,4.14,4.14,0,0,0,2.89.49,6.83,6.83,0,0,0,5-3.15q-.42-2.71-.83-5.44L222,408A5.68,5.68,0,0,0,218.26,409.79Zm-1.41-40.62a3.55,3.55,0,0,0-2.43,1.36,3.35,3.35,0,0,0-.59,2.58,3.3,3.3,0,0,0,1.34,2.27,3.58,3.58,0,0,0,2.71.55,3.47,3.47,0,0,0,2.41-1.34,3.28,3.28,0,0,0,.58-2.56,3.36,3.36,0,0,0-1.32-2.28A3.46,3.46,0,0,0,216.85,369.17Z"/><path class="cls-64" d="M242.78,403.39c-.06-.42-.13-.83-.19-1.25q-1.22-8.16,2.55-13.76t11.77-6.73c5-.72,9.09.14,12.32,2.55s5.18,6.08,5.87,11q.4,2.86.8,5.73-10.44,1.47-20.88,3a1.05,1.05,0,0,0-.05.19,7,7,0,0,0,3,4.14,7.63,7.63,0,0,0,5.33.95,24,24,0,0,0,5-1.15,39.84,39.84,0,0,0,4.9-2.45q1.81,3.1,3.62,6.21a20.82,20.82,0,0,1-5.91,3.72,29.9,29.9,0,0,1-7.88,2.23q-8,1.14-13.52-2.9A16.49,16.49,0,0,1,242.78,403.39Zm20.87-8.56q-.79-5.47-5.53-4.8c-3.1.45-4.53,2.75-4.31,6.91a2.09,2.09,0,0,1,.14.17l9.82-1.42Z"/><path class="cls-64" d="M290.56,377a10.26,10.26,0,0,1,8.89,3.17q-1.27-9.52-2.56-19.07l11.56-1.54q3.32,25.19,6.64,50.36l-9.9,1.32-1.4-4.2a10.64,10.64,0,0,1-8.32,6.21c-4.45.6-8.14-.48-11.07-3.27s-4.78-6.83-5.52-12.16c-.05-.22-.09-.45-.13-.67q-1.17-8.36,1.92-13.79A12.63,12.63,0,0,1,290.56,377Zm-.34,18.56.09.68a13.71,13.71,0,0,0,2.26,6.54,4.66,4.66,0,0,0,4.64,1.68,6.27,6.27,0,0,0,5.08-3.2q-1-7.07-1.9-14.13a6,6,0,0,0-5.74-2.14Q288.88,385.74,290.22,395.53Z"/><path class="cls-64" d="M318.39,392.86c-.05-.42-.1-.84-.16-1.26q-1.07-8.18,2.78-13.72t11.88-6.51q7.5-.94,12.27,2.77t5.68,11.07c.23,1.92.47,3.83.7,5.75q-10.47,1.28-20.92,2.62l-.06.19a7,7,0,0,0,2.91,4.19,7.58,7.58,0,0,0,5.3,1,23.54,23.54,0,0,0,5-1.06,38.22,38.22,0,0,0,4.94-2.36q1.77,3.14,3.52,6.27a21,21,0,0,1-6,3.62,29.79,29.79,0,0,1-7.91,2.08q-8,1-13.46-3.13A16.54,16.54,0,0,1,318.39,392.86Zm21-8.2c-.46-3.66-2.27-5.29-5.45-4.89s-4.56,2.67-4.42,6.83l.14.17,9.84-1.25C339.47,385.24,339.44,385,339.4,384.66Z"/><path class="cls-64" d="M386.29,365a10.26,10.26,0,0,1,8.81,3.38Q394,358.79,393,349.23L404.55,348l5.52,50.49-9.92,1.1c-.43-1.41-.87-2.82-1.31-4.22a10.59,10.59,0,0,1-8.45,6q-6.67.76-11-3.5t-5.25-12.28l-.12-.68q-1-8.37,2.22-13.74A12.64,12.64,0,0,1,386.29,365Zm-.75,18.55c0,.23,0,.46.08.69a13.71,13.71,0,0,0,2.1,6.58,4.69,4.69,0,0,0,4.61,1.79,6.23,6.23,0,0,0,5.14-3.09l-1.59-14.17a6,6,0,0,0-5.69-2.27Q384.42,373.72,385.54,383.53Z"/><path class="cls-64" d="M413.75,381.48c-.05-.42-.09-.84-.14-1.25q-.89-8.21,3.08-13.65t12-6.26q7.5-.78,12.2,3t5.43,11.2q.29,2.88.58,5.76-10.49,1.05-21,2.16a1.21,1.21,0,0,0-.05.18,7,7,0,0,0,2.8,4.26,7.64,7.64,0,0,0,5.28,1.16,24.07,24.07,0,0,0,5-.95,39,39,0,0,0,5-2.26c1.13,2.12,2.25,4.24,3.38,6.35a21,21,0,0,1-6.05,3.49,30,30,0,0,1-7.95,1.91q-8,.83-13.38-3.43A16.49,16.49,0,0,1,413.75,381.48Zm21.16-7.72c-.38-3.67-2.15-5.35-5.33-5s-4.62,2.57-4.57,6.74c.05,0,.09.11.14.17l9.85-1Z"/><path class="cls-64" d="M467,386v0c3.11-.3,4.57-1.55,4.35-3.76a2.8,2.8,0,0,0-1.82-2.21,18.24,18.24,0,0,0-5.74-1.25q-6.67-.59-10.12-2.79a8.55,8.55,0,0,1-3.89-6.76,9.44,9.44,0,0,1,3.38-8.12q3.84-3.56,11-4.24t11.8,2a9,9,0,0,1,4.89,7.74,1.33,1.33,0,0,1-.05.19l-11.16,1a4.16,4.16,0,0,0-1.42-3.06,4.62,4.62,0,0,0-3.35-.73,5.26,5.26,0,0,0-3.26,1.26,2.93,2.93,0,0,0-1,2.53,2.77,2.77,0,0,0,1.75,2.26,18.18,18.18,0,0,0,5.75,1.16q7.05.63,10.45,2.87a8.7,8.7,0,0,1,3.84,6.91q.42,4.68-3.7,8.12t-11.33,4.12q-7.21.71-12-2.39t-5.09-7.78l.06-.19c3.45-.35,6.91-.69,10.36-1Q461.27,386.54,467,386Z"/><path class="cls-64" d="M494.31,354.6q3.39,10.11,6.78,20.22c.33,1.22.67,2.43,1,3.65l.2,0,.42-3.81q1.53-10.55,3.09-21.08l12.1-1q-4.53,18.06-9,36.13-5.81.49-11.62,1-7.53-17-15.15-34Z"/><path class="cls-64" d="M562.56,385.09q-8.2.62-13.21-3.39a14.43,14.43,0,0,1-5.25,3.67,22.27,22.27,0,0,1-7.06,1.68c-4.52.36-8.12-.33-10.8-2.1a9.83,9.83,0,0,1-4.47-7.87,8.83,8.83,0,0,1,3.76-8.33q4.2-3.11,12.86-3.84l4.81-.37-.12-1.48a4.69,4.69,0,0,0-1.42-3.28,4.54,4.54,0,0,0-3.54-.94,6.24,6.24,0,0,0-3.56,1.23,2.76,2.76,0,0,0-1.15,2.48l-11.52.33a9.38,9.38,0,0,1,3.9-8.42q4.32-3.48,11.57-4t11.42,2.08c2.7-2.21,6.28-3.47,10.71-3.78,4.86-.36,8.79.81,11.79,3.48s4.67,6.48,5,11.42q.19,2.81.4,5.63-10.89.76-21.77,1.58,1.43,6.29,8.55,5.75a20.5,20.5,0,0,0,7.46-1.85l2-1q1.6,3.24,3.23,6.48a19.43,19.43,0,0,1-6,3.24A28.6,28.6,0,0,1,562.56,385.09Zm-29.35-8.84c.19,2.34,2,3.36,5.37,3.1a9.18,9.18,0,0,0,5.57-2.51q-.21-2.85-.44-5.7l-4.72.37a7.94,7.94,0,0,0-4.31,1.56A3.55,3.55,0,0,0,533.21,376.25Zm31.7-13.93a6.53,6.53,0,0,0-1.42-4,4.29,4.29,0,0,0-3.68-1.16q-5.13.39-5.36,6.82l10.52-.78Zm11.31,17.87,0,0S576.22,380.16,576.22,380.19Z"/><path class="cls-64" d="M593.84,382.21l-11.49.78-2.43-35.16,10.9-.74.72,5.14q2.12-6,7.21-6.32a11.73,11.73,0,0,1,3.22.19l-.54,10-4.17.23c-2.58.17-4.23,1.11-5,2.8Z"/><path class="cls-64" d="M606,365c0-.42,0-.84-.08-1.26q-.52-8.24,3.67-13.5t12.27-5.72q7.53-.45,12,3.58t4.93,11.42q.15,2.89.32,5.78-10.51.6-21,1.23l-.07.19a7,7,0,0,0,2.62,4.37,7.6,7.6,0,0,0,5.22,1.39,23.36,23.36,0,0,0,5-.73,38.91,38.91,0,0,0,5.07-2l3.1,6.49a21.14,21.14,0,0,1-6.19,3.22,29.87,29.87,0,0,1-8,1.56q-8,.47-13.21-4A16.58,16.58,0,0,1,606,365Zm21.47-6.78q-.33-5.54-5.11-5.25t-4.85,6.53l.12.17,9.89-.59C627.49,358.78,627.47,358.5,627.46,358.21Z"/><path class="cls-64" d="M655.71,342.66a10.23,10.23,0,0,1,8.58,3.91l-1-19.22q5.8-.3,11.63-.57l2.4,50.74-10,.48-1-4.29a10.59,10.59,0,0,1-8.79,5.48A12.74,12.74,0,0,1,646.83,375c-2.68-3-4.18-7.22-4.47-12.59,0-.23-.06-.45-.08-.68q-.46-8.42,3.06-13.58A12.64,12.64,0,0,1,655.71,342.66Zm-1.89,18.47c0,.23,0,.45,0,.68a13.68,13.68,0,0,0,1.69,6.71,4.7,4.7,0,0,0,4.49,2.07,6.27,6.27,0,0,0,5.31-2.77q-.36-7.12-.71-14.24a6,6,0,0,0-5.53-2.62Q653.31,351.26,653.82,361.13Z"/><path class="cls-64" d="M682.07,360.82l-.06-1.26q-.37-8.25,3.91-13.44c2.86-3.46,7-5.3,12.36-5.5q7.53-.31,12,3.79T715,355.92c.07,1.93.15,3.85.22,5.78q-10.51.41-21,.86a1.46,1.46,0,0,0-.07.19,6.92,6.92,0,0,0,2.54,4.41,7.59,7.59,0,0,0,5.19,1.49,23.64,23.64,0,0,0,5-.64,37.82,37.82,0,0,0,5.11-1.95l3,6.55a21.14,21.14,0,0,1-6.24,3.11,30.1,30.1,0,0,1-8.05,1.41q-8,.35-13.13-4.24A16.55,16.55,0,0,1,682.07,360.82Zm21.58-6.41q-.23-5.52-5-5.33t-5,6.44l.12.18,9.89-.42Z"/><path class="cls-64" d="M750.73,323.78c.07,2.46.15,4.91.22,7.37l-11.62.37-.24-7.38Zm.46,15.55q.54,17.61,1.06,35.22l-11.5.36q-.59-17.61-1.15-35.22C743.46,339.56,747.33,339.44,751.19,339.33Z"/><path class="cls-64" d="M770.41,360l.36,14c-3.83.09-7.67.2-11.5.31l-1.44-50.78,11.64-.32q.36,14.24.73,28.47l1.52,0q3.78-6.56,7.58-13.11l13.23-.29q-5.58,8.07-11.11,16.17,6.86,9.49,13.65,19-6.52.12-13.05.28-4.83-6.88-9.68-13.77Z"/><path class="cls-64" d="M808.53,359.22q.12,7,.23,14l-11.5.21q-.51-25.4-1-50.79l11.64-.21.48,28.47,1.52,0q3.84-6.51,7.7-13,6.61-.1,13.23-.18-5.64,8-11.25,16.07,6.76,9.56,13.48,19.15L820,373q-4.77-6.93-9.55-13.85Z"/><path class="cls-64" d="M833.37,356.48c0-.42,0-.84,0-1.27q-.09-8.25,4.37-13.29t12.55-5.06q7.53-.06,11.83,4.19t4.32,11.67c0,1.93,0,3.86,0,5.79q-10.53,0-21.05.13l-.07.18a7,7,0,0,0,2.38,4.5,7.56,7.56,0,0,0,5.14,1.67,23.66,23.66,0,0,0,5-.47,39.06,39.06,0,0,0,5.17-1.76c.92,2.21,1.84,4.43,2.75,6.64a21.13,21.13,0,0,1-6.35,2.89,29.54,29.54,0,0,1-8.08,1.14q-8,.06-13-4.7A16.58,16.58,0,0,1,833.37,356.48Zm21.78-5.66q0-5.54-4.82-5.5c-3.11,0-4.85,2.12-5.19,6.27l.12.18,9.89-.08Z"/><path class="cls-64" d="M901.05,373.39a12.42,12.42,0,0,1-8.52-2.92,9.83,9.83,0,0,1-3.23-7.72,9.22,9.22,0,0,1,4.14-8.15q4.14-2.79,12.48-2.75l4.21,0c0-.83,0-1.66,0-2.5q0-4.67-4.52-4.69-4,0-4,3.67l-11.15-.07-.08-.18a9.09,9.09,0,0,1,4.23-8.11c3-2.13,6.85-3.18,11.64-3.16s8.55,1.15,11.32,3.37a11.1,11.1,0,0,1,4.1,9.33q-.06,6.64-.11,13.28a25.78,25.78,0,0,0,1.87,10l-11.32-.13a15.5,15.5,0,0,1-1.48-4A11.5,11.5,0,0,1,901.05,373.39Zm1-14.49a3.9,3.9,0,0,0-1.32,3,3.39,3.39,0,0,0,1.07,2.72,4.07,4.07,0,0,0,2.77.93,6.79,6.79,0,0,0,5.46-2.32l0-5.5-4.09,0A5.61,5.61,0,0,0,902.08,358.9Z"/><path class="cls-64" d="M930.47,328.92l11.55.14-.12,8.76,6.28.09c0,2.54-.08,5.09-.11,7.63l-6.27-.09q-.1,8.07-.22,16.14c0,2.36.95,3.56,2.94,3.58a15.54,15.54,0,0,0,3.33-.27q.36,4.07.71,8.15a31.87,31.87,0,0,1-7.07.69c-3.85-.05-6.71-1.06-8.6-3s-2.82-5-2.77-9.19l.18-16.21-5.21-.05c0-2.55,0-5.09.08-7.63l5.21.05Z"/><path class="cls-64" d="M975.75,329.65l11.55.26-.21,8.75,6.27.15c-.06,2.55-.13,5.09-.19,7.64l-6.26-.16-.39,16.14q-.09,3.54,2.9,3.61a15.75,15.75,0,0,0,3.34-.24c.21,2.72.41,5.44.62,8.16a31.9,31.9,0,0,1-7.07.62c-3.85-.09-6.7-1.13-8.57-3.13s-2.77-5.06-2.68-9.21q.16-8.1.34-16.21l-5.2-.1.15-7.64,5.21.11C975.63,335.48,975.69,332.57,975.75,329.65Z"/><path class="cls-64" d="M1015.12,339.24a21.49,21.49,0,0,1,6,1q1.25-2.28,2.51-4.56l6.05.2-3.73,6.79q6.77,5.09,6.38,15.75-.28,8.31-5.18,13t-13.08,4.4a22.63,22.63,0,0,1-5.78-.89c-.85,1.57-1.71,3.14-2.55,4.7l-6-.16,3.73-6.92q-6.88-4.89-6.61-15.78a20.1,20.1,0,0,1,2.39-9.4,14.93,14.93,0,0,1,6.33-6.14A19.26,19.26,0,0,1,1015.12,339.24Zm-.22,8.46q-5.8-.18-6.5,8l-.09,1.91a18,18,0,0,0,.46,5.19q4-7.37,8.1-14.74A7.17,7.17,0,0,0,1014.9,347.7Zm-.55,19.57q6.12.18,6.56-8.85c0-.35,0-.7,0-1.05a20,20,0,0,0-.41-4.83q-4,7.24-7.91,14.49A7,7,0,0,0,1014.35,367.27Z"/><path class="cls-64" d="M1070.35,351.36v1.73q-.51,11.76-1,23.5l-11.46-.48q.43-10.71.86-21.43c.09-2.22-.2-3.78-.87-4.69a4.14,4.14,0,0,0-3.37-1.46,6.25,6.25,0,0,0-5.09,2l-1,25.23-11.5-.42q.61-17.61,1.25-35.22l10.87.4.2,4.68q3.88-5.18,10.93-4.89t9.26,6.17a11.72,11.72,0,0,1,10.92-5.31q5.55.25,8.41,4t2.5,11l-1,21.43-11.5-.54,1-21.43c.1-2.22-.18-3.78-.85-4.69a4.07,4.07,0,0,0-3.32-1.47A6.5,6.5,0,0,0,1070.35,351.36Z"/><path class="cls-64" d="M1130.56,354.35c0,.58,0,1.16,0,1.74q-.68,11.75-1.33,23.48l-11.46-.63q.57-10.71,1.16-21.43c.12-2.21-.16-3.78-.81-4.7a4.2,4.2,0,0,0-3.35-1.5,6.27,6.27,0,0,0-5.12,1.91q-.64,12.6-1.31,25.22l-11.49-.58q.86-17.61,1.73-35.2l10.87.55c0,1.56.09,3.12.14,4.68q4-5.13,11-4.74c4.69.25,7.75,2.36,9.17,6.3a11.73,11.73,0,0,1,11-5.16q5.54.33,8.35,4.1t2.35,11l-1.32,21.41q-5.74-.36-11.49-.69l1.26-21.42c.13-2.22-.14-3.78-.79-4.7a4.09,4.09,0,0,0-3.3-1.52A6.54,6.54,0,0,0,1130.56,354.35Z"/><path class="cls-64" d="M1156.69,364.8c0-.42,0-.85.08-1.27q.51-8.23,5.34-12.93c3.22-3.13,7.53-4.5,12.89-4.12q7.53.5,11.5,5.06t3.44,12c-.13,1.92-.27,3.85-.4,5.77q-10.51-.74-21-1.43l-.09.18a7,7,0,0,0,2,4.66,7.54,7.54,0,0,0,5,2,23.88,23.88,0,0,0,5.07-.09,38.93,38.93,0,0,0,5.29-1.37l2.25,6.83a21.18,21.18,0,0,1-6.55,2.41,30,30,0,0,1-8.15.53q-8-.54-12.59-5.65A16.5,16.5,0,0,1,1156.69,364.8Zm22.15-4q.38-5.52-4.4-5.84t-5.64,5.86c0,.06.07.12.1.19,3.29.21,6.59.43,9.88.66Z"/><path class="cls-64" d="M1228,379.77v0c3.12.24,4.76-.74,4.94-2.95a2.82,2.82,0,0,0-1.41-2.49,18.31,18.31,0,0,0-5.43-2.23q-6.46-1.74-9.48-4.51a8.53,8.53,0,0,1-2.65-7.33,9.46,9.46,0,0,1,4.74-7.41q4.39-2.83,11.53-2.27c4.75.38,8.52,1.73,11.27,4.05a9,9,0,0,1,3.47,8.47l-.09.18-11.17-.91a4.15,4.15,0,0,0-.86-3.27,4.63,4.63,0,0,0-3.17-1.3,5.35,5.35,0,0,0-3.43.67,2.92,2.92,0,0,0-1.4,2.32,2.79,2.79,0,0,0,1.32,2.54,18.52,18.52,0,0,0,5.47,2.14c4.55,1.23,7.8,2.78,9.78,4.64a8.69,8.69,0,0,1,2.58,7.47q-.39,4.69-5,7.35T1227,387c-4.82-.38-8.61-1.86-11.41-4.44s-4-5.44-3.66-8.55l.09-.18,10.38.8Q1222.23,379.32,1228,379.77Z"/><path class="cls-64" d="M1248.41,370.74l.06-.69q.67-8.07,5.83-12.58t13.54-3.76q8.39.74,12.68,6.07t3.54,13.41l-.06.68q-.76,8.11-5.91,12.56t-13.46,3.71q-8.31-.72-12.6-6T1248.41,370.74ZM1260,371l-.06.69c-.55,6.29,1.29,9.62,5.49,10s6.6-2.58,7.16-8.88l.06-.68q.86-9.45-5.49-10T1260,371Z"/><path class="cls-64" d="M1298.79,375.3q-.43,4.65.69,7.15a4.87,4.87,0,0,0,4.36,2.82q4.56.45,5-4.27l10.49,1c0,.07,0,.13.05.19a11.49,11.49,0,0,1-5.06,8.93q-4.59,3.19-11.31,2.54c-5.47-.53-9.56-2.55-12.31-6.08s-3.87-8-3.37-13.4l.07-.76q.75-8.07,5.79-12.52t13.28-3.66c4.72.46,8.35,2.08,10.86,4.84s3.52,6.27,3,10.53a2,2,0,0,0-.1.21l-10.5-1a6.66,6.66,0,0,0-.79-4.24,4.15,4.15,0,0,0-3.31-1.87,4.8,4.8,0,0,0-4.77,2,14.48,14.48,0,0,0-2,6.85C1298.84,374.8,1298.82,375.05,1298.79,375.3Z"/><path class="cls-64" d="M1340.11,345.62c-.26,2.45-.52,4.89-.77,7.34l-11.58-1.2.75-7.34Zm-1.62,15.47-3.66,35.05L1323.36,395l3.57-35.06Z"/><path class="cls-64" d="M1351.76,398.71a12.39,12.39,0,0,1-8.18-3.79,9.86,9.86,0,0,1-2.42-8,9.23,9.23,0,0,1,5-7.68c2.94-1.56,7.18-2.05,12.71-1.44l4.19.46c.09-.83.19-1.65.28-2.48.34-3.09-1-4.81-4-5.14-2.62-.29-4.07.8-4.34,3.24l-11.1-1.23-.06-.18a9.07,9.07,0,0,1,5.06-7.63q4.77-2.71,11.91-1.93t10.94,4.52c2.53,2.49,3.56,5.73,3.12,9.71l-1.5,13.2a25.91,25.91,0,0,0,.83,10.17l-11.26-1.3a15.71,15.71,0,0,1-1.07-4.16A11.47,11.47,0,0,1,1351.76,398.71Zm2.53-14.3a3.93,3.93,0,0,0-1.63,2.84,3.41,3.41,0,0,0,.78,2.82,4.17,4.17,0,0,0,2.67,1.22,6.83,6.83,0,0,0,5.68-1.75l.6-5.46-4.07-.45A5.58,5.58,0,0,0,1354.29,384.41Z"/><path class="cls-64" d="M1396.42,351.87q-3,25.23-5.93,50.45L1379,401l5.79-50.47Z"/><path class="cls-64" d="M1412.67,398.43v0q4.65.57,5.06-2.73a2.81,2.81,0,0,0-1.3-2.55,18.46,18.46,0,0,0-5.34-2.46q-6.4-2-9.28-4.91a8.56,8.56,0,0,1-2.35-7.44,9.42,9.42,0,0,1,5.06-7.19q4.53-2.66,11.63-1.78t11.09,4.52a9,9,0,0,1,3.12,8.62l-.1.17-11.13-1.39a4.14,4.14,0,0,0-.72-3.3,4.68,4.68,0,0,0-3.12-1.44,5.39,5.39,0,0,0-3.46.53,2.93,2.93,0,0,0-1.5,2.26,2.79,2.79,0,0,0,1.22,2.59,18.36,18.36,0,0,0,5.37,2.37q6.75,2.14,9.59,5.06a8.69,8.69,0,0,1,2.26,7.57q-.6,4.67-5.36,7.13c-3.19,1.65-7.17,2.17-12,1.58s-8.54-2.23-11.23-4.93-3.79-5.6-3.29-8.7l.1-.17,10.35,1.24C1407.1,396.17,1408.86,398,1412.67,398.43Z"/><path class="cls-64" d="M1440.56,364.22,1452,365.7c-.38,2.89-.75,5.79-1.13,8.68l6.23.82q-.5,3.8-1,7.57l-6.22-.82q-1.05,8-2.09,16c-.31,2.35.53,3.65,2.5,3.91a15.46,15.46,0,0,0,3.35.11l-.24,8.18a32,32,0,0,1-7.12-.13q-5.73-.75-8.2-4t-1.69-9.45q1-8,2-16.08l-5.17-.65,1-7.58,5.18.66Z"/><path class="cls-64" d="M1474,399.15l.23,0q4.38-9.48,8.78-18.95l12.23,1.71q-10.14,19-20.17,38.07-3.15,5.14-6.56,6.51a14.68,14.68,0,0,1-7.43.64l-.78-.11a4,4,0,0,1-.71-.15l-.58-.15c-.13,0-.36-.1-.7-.22l-.65-.23-.87-.32c-.48-.17-.81-.3-1-.37l2.43-7.59a12.12,12.12,0,0,0,1.24.34,8.25,8.25,0,0,0,4-.19,4.28,4.28,0,0,0,2.19-2.08l1.2-2.13q-3.91-18.49-7.94-37l12.24,1.64q1.45,10.13,2.88,20.26C1474,399,1474,399.06,1474,399.15Z"/><path class="cls-64" d="M1504.8,417.3l-11.42-1.64,4.95-34.89,10.83,1.55-.36,5.18q3.32-5.42,8.38-4.67a11.13,11.13,0,0,1,3.11.86l-2.61,9.67-4.14-.64c-2.56-.37-4.37.19-5.43,1.7Q1506.45,405.85,1504.8,417.3Z"/><path class="cls-64" d="M1520.29,403c.07-.42.13-.84.19-1.26q1.2-8.16,6.42-12.43t13.22-3q7.47,1.14,11.05,6t2.45,12.21c-.3,1.9-.59,3.81-.89,5.72q-10.43-1.62-20.87-3.19a1.4,1.4,0,0,1-.1.16,7,7,0,0,0,1.65,4.83,7.67,7.67,0,0,0,4.83,2.45,23.77,23.77,0,0,0,5.07.33,38.79,38.79,0,0,0,5.4-.92q.84,3.5,1.67,7a20.91,20.91,0,0,1-6.74,1.85,29.7,29.7,0,0,1-8.19-.15q-8-1.2-12.1-6.68A16.53,16.53,0,0,1,1520.29,403Zm22.46-2.15q.84-5.48-3.9-6.2c-3.09-.47-5.13,1.33-6.12,5.37a1.67,1.67,0,0,0,.08.2l9.81,1.48C1542.67,401.42,1542.71,401.13,1542.75,400.85Z"/><path class="cls-64" d="M1575.31,376.63q-4,25.08-8,50.17l-11.4-1.81,7.86-50.18Z"/><path class="cls-64" d="M1589.67,423.82v0c3.1.51,4.82-.33,5.19-2.51a2.84,2.84,0,0,0-1.21-2.61,18.26,18.26,0,0,0-5.23-2.67q-6.33-2.28-9.09-5.29a8.53,8.53,0,0,1-2-7.54,9.37,9.37,0,0,1,5.35-7q4.62-2.46,11.71-1.3c4.72.77,8.36,2.44,10.91,5a9,9,0,0,1,2.77,8.74l-.11.16-11.07-1.85a4.17,4.17,0,0,0-.59-3.32,4.65,4.65,0,0,0-3.07-1.57,5.43,5.43,0,0,0-3.47.38,2.92,2.92,0,0,0-1.6,2.2,2.78,2.78,0,0,0,1.11,2.64,18.51,18.51,0,0,0,5.28,2.59c4.44,1.61,7.56,3.43,9.39,5.45a8.69,8.69,0,0,1,1.95,7.66c-.52,3.1-2.41,5.39-5.66,6.91s-7.26,1.87-12,1.08-8.46-2.58-11-5.39-3.56-5.75-2.94-8.83l.11-.17,10.3,1.67C1584.18,421.33,1585.88,423.2,1589.67,423.82Z"/><path class="cls-64" d="M1611.21,417.4c.07-.42.15-.83.22-1.25q1.36-8.13,6.68-12.3t13.29-2.74q7.44,1.29,10.94,6.24t2.19,12.26q-.51,2.85-1,5.7-10.41-1.85-20.81-3.64l-.11.17a6.94,6.94,0,0,0,1.55,4.86,7.58,7.58,0,0,0,4.78,2.55,23.61,23.61,0,0,0,5.06.44,38.51,38.51,0,0,0,5.42-.81q.78,3.53,1.54,7a21.22,21.22,0,0,1-6.79,1.71,29.89,29.89,0,0,1-8.19-.33q-8-1.38-12-6.94A16.51,16.51,0,0,1,1611.21,417.4Zm22.52-1.67q1-5.46-3.78-6.28t-6.24,5.24l.09.2,9.78,1.69Z"/><path class="cls-64" d="M1651.86,405.33l10.71,1.92c-.14,1.66-.28,3.31-.43,5a12.11,12.11,0,0,1,11.34-3.64q11.41,2.1,8.85,15.92-2,10.74-4,21.48L1667,443.88q2-10.77,4-21.53c.36-2,.19-3.42-.49-4.41a5.61,5.61,0,0,0-3.84-2,6.39,6.39,0,0,0-5.13,1.2q-2.27,12.47-4.51,24.92l-11.3-2Z"/><path class="cls-64" d="M1698.87,440.41c-.58,3-1.15,6.07-1.73,9.1l-11.32-2.14,1.71-9.1Z"/><rect class="cls-65" x="599.36" y="530.41" width="430.87" height="430.87"/><rect class="cls-66" x="616.36" y="530.41" width="9" height="430.87"/><rect class="cls-66" x="655.03" y="530.41" width="9" height="430.87"/><rect class="cls-66" x="693.69" y="530.41" width="9" height="430.87"/><rect class="cls-66" x="732.36" y="530.41" width="9" height="430.87"/><rect class="cls-66" x="771.03" y="530.41" width="9" height="430.87"/><rect class="cls-66" x="809.69" y="530.41" width="9" height="430.87"/><rect class="cls-66" x="848.36" y="530.41" width="9" height="430.87"/><rect class="cls-66" x="887.03" y="530.41" width="9" height="430.87"/><rect class="cls-66" x="925.69" y="530.41" width="9" height="430.87"/><rect class="cls-66" x="964.36" y="530.41" width="9" height="430.87"/><rect class="cls-66" x="996.03" y="531.41" width="9" height="430.87"/><rect class="cls-66" x="1022.36" y="530.41" width="9" height="430.87"/><path class="cls-63" d="M1377.27,710.77C1282.53,671,1187.79,741.86,1093,678q14-83.73,28-171.14c94.74,39.74,189.48-31.09,284.23,32.77Q1391.24,623.36,1377.27,710.77Z"/><path class="cls-5" d="M1273.63,700.23q-6.95.62-13.88,1.34,13.93-94.4,27.88-188.29c4.63-.27,9.26-.47,13.89-.55Q1287.57,605.94,1273.63,700.23Z"/><path class="cls-5" d="M1395.35,619.8l-2.13,13c-95.77-53.51-191.54,20.05-287.31-32.69l2.13-13.05C1203.81,637.93,1299.58,564.4,1395.35,619.8Z"/></svg>