<svg id="Layer_1" data-name="Layer 1" xmlns="http://www.w3.org/2000/svg" xmlns:xlink="http://www.w3.org/1999/xlink" width="1714.36" height="969.93" viewBox="0 0 1714.36 969.93"><defs><style>.cls-1,.cls-30,.cls-43,.cls-48{fill:none;}.cls-2{fill:#33922e;}.cls-3{fill:url(#linear-gradient);}.cls-4{fill:url(#radial-gradient);}.cls-5{fill:url(#linear-gradient-2);}.cls-6{fill:#fdc300;}.cls-7{fill:url(#linear-gradient-3);}.cls-8{fill:url(#linear-gradient-4);}.cls-9{fill:url(#radial-gradient-2);}.cls-10{fill:url(#linear-gradient-5);}.cls-11{fill:url(#radial-gradient-3);}.cls-12{fill:url(#linear-gradient-6);}.cls-13{fill:url(#linear-gradient-7);}.cls-14{fill:url(#linear-gradient-8);}.cls-15{fill:url(#linear-gradient-9);}.cls-16{fill:url(#linear-gradient-10);}.cls-17{fill:url(#linear-gradient-11);}.cls-18{fill:url(#radial-gradient-4);}.cls-19{fill:url(#linear-gradient-12);}.cls-20{fill:url(#linear-gradient-13);}.cls-21{fill:url(#linear-gradient-14);}.cls-22{fill:url(#linear-gradient-15);}.cls-23{fill:url(#radial-gradient-5);}.cls-24{fill:url(#linear-gradient-16);}.cls-25{fill:#5680c0;}.cls-26,.cls-49{fill:#fff;}.cls-27{fill:#d61016;}.cls-28{fill:#c4171e;}.cls-29{fill:#ffed00;}.cls-30,.cls-49{stroke:#1d1d1b;}.cls-30,.cls-43,.cls-48,.cls-49{stroke-miterlimit:10;}.cls-30{stroke-width:12.18px;}.cls-31{fill:#e2b796;}.cls-32{fill:#828282;}.cls-33{fill:#fddabc;}.cls-34{fill:#010101;}.cls-35{fill:#915525;opacity:0.29;}.cls-36{fill:#fac6a2;opacity:0.49;}.cls-37{fill:#313131;}.cls-38{fill:#f9b460;}.cls-39{fill:#93571e;opacity:0.21;}.cls-40{fill:#dd6b6c;opacity:0.52;}.cls-41{fill:#332921;}.cls-42{fill:#cd5252;}.cls-43{stroke:#cd5252;stroke-width:3px;}.cls-44{fill:#9c4d98;}.cls-45{fill:url(#Foliage);}.cls-46{fill:#1d1d1b;}.cls-47{fill:#e8c324;}.cls-48{stroke:#e8c324;stroke-width:11px;}</style><linearGradient id="linear-gradient" x1="-39038.45" y1="-53021.07" x2="-39061.74" y2="-53013.14" gradientTransform="matrix(1, 0, 0, -1, 39406.56, -52792.32)" gradientUnits="userSpaceOnUse"><stop offset="0.23" stop-color="#f7a600"/><stop offset="0.76" stop-color="#fdc300"/></linearGradient><radialGradient id="radial-gradient" cx="-38959.92" cy="-53051.51" r="133.44" gradientTransform="matrix(1, 0, 0, -1, 39406.56, -52792.32)" gradientUnits="userSpaceOnUse"><stop offset="0.35" stop-color="#5ea62b"/><stop offset="0.76" stop-color="#86bc25"/></radialGradient><linearGradient id="linear-gradient-2" x1="55120.19" y1="-52965.25" x2="55120.19" y2="-52937.15" gradientTransform="translate(55537.87 -52792.32) rotate(180)" xlink:href="#linear-gradient"/><linearGradient id="linear-gradient-3" x1="55459.34" y1="-53021.07" x2="55436.05" y2="-53013.14" gradientTransform="translate(55537.87 -52792.32) rotate(180)" xlink:href="#linear-gradient"/><linearGradient id="linear-gradient-4" x1="-39377.59" y1="-52965.25" x2="-39377.59" y2="-52937.15" xlink:href="#linear-gradient"/><radialGradient id="radial-gradient-2" cx="-39406.56" cy="-53051.51" r="133.44" xlink:href="#radial-gradient"/><linearGradient id="linear-gradient-5" x1="55056.19" y1="37148.94" x2="55056.19" y2="37177.05" gradientTransform="matrix(-1, 0, 0, 1, 55473.87, -37062.69)" xlink:href="#linear-gradient"/><radialGradient id="radial-gradient-3" cx="-38959.92" cy="-52792.32" r="133.44" xlink:href="#radial-gradient"/><linearGradient id="linear-gradient-6" x1="-39038.45" y1="37107.66" x2="-39061.74" y2="37115.6" gradientTransform="translate(39406.56 -37077.23)" xlink:href="#linear-gradient"/><linearGradient id="linear-gradient-7" x1="55279.51" y1="37278.53" x2="55279.51" y2="37306.64" gradientTransform="matrix(-1, 0, 0, 1, 55473.87, -37062.69)" xlink:href="#linear-gradient"/><linearGradient id="linear-gradient-8" x1="-39090.27" y1="37278.53" x2="-39090.27" y2="37306.64" gradientTransform="translate(39342.56 -37062.69)" xlink:href="#linear-gradient"/><linearGradient id="linear-gradient-9" x1="55236.02" y1="-52891.48" x2="55212.73" y2="-52883.54" gradientTransform="translate(55537.87 -52792.32) rotate(180)" xlink:href="#linear-gradient"/><linearGradient id="linear-gradient-10" x1="-39261.77" y1="-52891.48" x2="-39285.06" y2="-52883.54" xlink:href="#linear-gradient"/><linearGradient id="linear-gradient-11" x1="-39154.27" y1="-52835.66" x2="-39154.27" y2="-52807.55" xlink:href="#linear-gradient"/><radialGradient id="radial-gradient-4" cx="-39183.24" cy="-52921.91" r="133.44" xlink:href="#radial-gradient"/><linearGradient id="linear-gradient-12" x1="55236.02" y1="37237.25" x2="55212.73" y2="37245.19" gradientTransform="matrix(-1, 0, 0, 1, 55537.87, -37077.23)" xlink:href="#linear-gradient"/><linearGradient id="linear-gradient-13" x1="-39261.77" y1="37237.25" x2="-39285.06" y2="37245.19" gradientTransform="translate(39406.56 -37077.23)" xlink:href="#linear-gradient"/><linearGradient id="linear-gradient-14" x1="55343.51" y1="-52835.66" x2="55343.51" y2="-52807.55" gradientTransform="translate(55537.87 -52792.32) rotate(180)" xlink:href="#linear-gradient"/><linearGradient id="linear-gradient-15" x1="-39313.59" y1="37148.94" x2="-39313.59" y2="37177.05" gradientTransform="translate(39342.56 -37062.69)" xlink:href="#linear-gradient"/><radialGradient id="radial-gradient-5" cx="-39406.56" cy="-52792.32" r="133.44" xlink:href="#radial-gradient"/><linearGradient id="linear-gradient-16" x1="55459.34" y1="37107.66" x2="55436.05" y2="37115.6" gradientTransform="matrix(-1, 0, 0, 1, 55537.87, -37077.23)" xlink:href="#linear-gradient"/><pattern id="Foliage" data-name="Foliage" width="446.64" height="259.18" patternTransform="translate(0 -1036.74)" patternUnits="userSpaceOnUse" viewBox="0 0 446.64 259.18"><rect class="cls-1" width="446.64" height="259.18"/><path class="cls-2" d="M378.84,190.69a32.84,32.84,0,0,1,11.44,22.75c1.08-10.23,3.2-18.13,8.21-24,0,0-6.32,3.09-8.61,9.15C386.92,193.38,378.84,190.69,378.84,190.69Z"/><path class="cls-2" d="M364.84,139.81c1.22,6,6.31,11.17,12.92,13.73a21.14,21.14,0,0,1,2.16-19.79,21.48,21.48,0,0,0,5.78,18,18.19,18.19,0,0,1,1.08-13.87c-.94,8.48,6.17,12.79,15.62,18.44,12.66,7.58,17.27,16,19.25,27.23-3.46-6.87-9.91-13.14-27.86-17.29C371.49,161.14,363.39,153.88,364.84,139.81Z"/><path class="cls-3" d="M365.11,232c-4.69-4.59-6.91-12.18-7.27-21.72-.47-12.52-5.41-17.65-13.33-18.52,11.8,4.57,4.45,17.11,7.95,25.84-6.45-4.78-4.39-20.68-17.64-21.4,9.78,3.19,2.84,16.67,9.29,24.5-7.81-.11-11.4,6.12-21.54,3.23,4.72,3.63,10,5.92,18.85,5.92-6.26,3.86-9,8.63-11.31,15.35C340.24,234.61,355,230.54,365.11,232Z"/><path class="cls-4" d="M482.48,266.46c29.44,4,46.23,20.79,49.15,36.55-3.92-9.25-13-15.22-23.6-18.63,10.62,14,7.19,31.87,21.12,41.7-10.37-11-7.22-24.47-14.91-36.73,12.26,6.89,14.12,16.67,17,27.15,4.39,15.84,11.55,20.08,17.23,22.17-11.7.45-28.66-4.53-36.79-20.1-8.61-16.51-1.45-34.41-22.48-43.77,9.61,8.05,14.73,19.52,8.7,34.42,2.25-21.92-20.63-25.51-24.31-40.45-.63,11.53,7.18,21.22,14.55,25.9-10.29-3.37-19.22-9-23.42-21.82-6.93,21.39,5.31,38.45,12.9,38.45,2.62,0,4.53-1.67,4.53-4.16,0-6.45-11.64-6.45-14.59-18.86,5.32,10.83,25.55,8.88,25.55,20.76,0,9.74-13.64,14-22.36,8,6.39,8.34,21.26,8.62,25.55-1.42.66,4.3-1.31,10.75-7.45,13.13-7,2.7-13.49-2.49-13.49-2.49,7.64,11,20.94,3.67,34.07,3.91,10.87.19,18.11,5.82,21.29,11.17a15.32,15.32,0,0,0-7.63-1.95,21.13,21.13,0,0,1,9,21.47c-1.3-6.25-8.57-10.68-22.35-11.63-15.56-1.08-23.81-3.57-29.1-9.3,11.2,4.95,28.93-1.91,41,6-7.45-8.54-23.93-6.09-35.71-8-20.71-3.33-33.33-38.29-31.71-53.64-5.66,23.43,9.46,36.21,12.79,49.14,3.63,14.13-3.37,23.82-9.95,28.8,10.28-15.4-7.42-24.63-4.61-44.36-5.23,19.19,4.43,24.67,4.43,34.6,0,9.76-8.58,13-10.29,25.55-1.71-12.55-10.29-15.79-10.29-25.55,0-9.93,9.66-15.41,4.43-34.6,2.81,19.73-14.89,29-4.61,44.36-6.58-5-13.58-14.67-9.95-28.8,3.33-12.93,18.45-25.71,12.79-49.14,1.62,15.35-11,50.31-31.71,53.64-11.78,1.89-28.26-.56-35.71,8,12.05-7.94,29.78-1.08,41-6-5.29,5.73-13.54,8.22-29.09,9.3-13.79.95-21.06,5.38-22.36,11.63a21.13,21.13,0,0,1,9.05-21.47,15.32,15.32,0,0,0-7.63,1.95c3.18-5.35,10.42-11,21.29-11.17,13.13-.24,26.42,7.11,34.07-3.91,0,0-6.5,5.19-13.49,2.49-6.14-2.38-8.11-8.83-7.45-13.13,4.29,10,19.16,9.76,25.55,1.42-8.72,6.05-22.36,1.75-22.36-8,0-11.88,20.23-9.93,25.55-20.76-2.95,12.41-14.59,12.41-14.59,18.86,0,2.49,1.91,4.16,4.53,4.16,7.59,0,19.83-17.06,12.9-38.45-4.2,12.83-13.13,18.45-23.42,21.82,7.37-4.68,15.18-14.37,14.55-25.9-3.68,14.94-26.56,18.53-24.31,40.45-6-14.9-.91-26.37,8.7-34.42-21,9.36-13.87,27.26-22.48,43.77-8.13,15.57-25.09,20.55-36.79,20.1,5.68-2.09,12.84-6.33,17.23-22.17,2.89-10.48,4.76-20.26,17-27.15-7.69,12.26-4.54,25.69-14.9,36.73,13.92-9.83,10.49-27.69,21.11-41.7-10.62,3.41-19.68,9.38-23.6,18.63,2.92-15.76,19.71-32.53,49.15-36.55-30.33-1.29-36.17,15.55-51.46,16.16-9.68.39-18.13-8.39-28-13.68,12.11,3.08,31.11,11.33,41.16-2.13,0,0-6.19,5.27-18.27,3.73-12.27-1.56-23.46-9.4-54.12-11.35,30.66-2,41.85-9.8,54.12-11.36,12.08-1.54,18.27,3.72,18.27,3.72-10.05-13.45-29.05-5.19-41.16-2.12,9.9-5.29,18.35-14.06,28-13.68,15.29.61,21.13,17.45,51.46,16.16-29.44-4-46.23-20.79-49.15-36.55,3.92,9.25,13,15.22,23.6,18.63-10.62-14-7.19-31.87-21.11-41.7,10.36,11,7.21,24.47,14.9,36.73-12.26-6.89-14.13-16.67-17-27.14-4.39-15.85-11.55-20.09-17.23-22.18,11.7-.45,28.66,4.53,36.79,20.1,8.61,16.51,1.44,34.41,22.48,43.77-9.61-8.06-14.73-19.52-8.7-34.42-2.25,21.92,20.63,25.5,24.31,40.45.63-11.53-7.18-21.22-14.55-25.9,10.29,3.37,19.22,9,23.42,21.82,6.93-21.39-5.31-38.45-12.9-38.45-2.62,0-4.53,1.67-4.53,4.16,0,6.45,11.64,6.45,14.59,18.86-5.32-10.83-25.55-8.87-25.55-20.76,0-9.74,13.64-14,22.36-8-6.39-8.34-21.26-8.62-25.55,1.42-.66-4.3,1.31-10.75,7.45-13.13,7-2.7,13.49,2.49,13.49,2.49-7.65-11-20.94-3.67-34.07-3.91C373,188,365.72,182.39,362.54,177a15.32,15.32,0,0,0,7.63,2,21.13,21.13,0,0,1-9.05-21.47c1.3,6.25,8.57,10.68,22.36,11.63,15.55,1.08,23.8,3.57,29.09,9.31-11.2-5-28.93,1.9-41-6,7.45,8.54,23.93,6.09,35.71,8C428,183.73,440.63,218.69,439,234c5.66-23.42-9.46-36.2-12.79-49.13-3.63-14.13,3.37-23.83,9.95-28.8-10.28,15.4,7.42,24.63,4.61,44.36,5.23-19.19-4.43-24.67-4.43-34.6,0-9.76,8.58-13,10.29-25.55,1.71,12.55,10.29,15.79,10.29,25.55,0,9.93-9.66,15.41-4.43,34.6-2.81-19.73,14.89-29,4.61-44.36,6.58,5,13.58,14.67,9.95,28.8-3.33,12.93-18.45,25.71-12.79,49.13-1.62-15.34,11-50.3,31.71-53.63,11.78-1.89,28.26.56,35.71-8-12.05,7.94-29.78,1.08-41,6,5.29-5.74,13.54-8.23,29.1-9.31,13.78-1,21.05-5.38,22.35-11.63a21.13,21.13,0,0,1-9,21.47,15.32,15.32,0,0,0,7.63-2c-3.18,5.35-10.42,11-21.29,11.17-13.13.24-26.43-7.11-34.07,3.91,0,0,6.5-5.19,13.49-2.49,6.14,2.38,8.11,8.83,7.45,13.13-4.29-10-19.16-9.76-25.55-1.42,8.72-6.05,22.36-1.75,22.36,8,0,11.89-20.23,9.93-25.55,20.76,2.95-12.41,14.59-12.41,14.59-18.86,0-2.49-1.91-4.16-4.53-4.16-7.59,0-19.83,17.06-12.9,38.45,4.2-12.83,13.13-18.45,23.42-21.82-7.37,4.68-15.18,14.37-14.55,25.9,3.68-14.95,26.56-18.53,24.31-40.45,6,14.9.91,26.36-8.7,34.42,21-9.36,13.87-27.26,22.48-43.77,8.13-15.57,25.09-20.55,36.79-20.1-5.68,2.09-12.84,6.33-17.23,22.18-2.9,10.47-4.76,20.25-17,27.14,7.69-12.26,4.54-25.69,14.91-36.73C515.22,202.12,518.65,220,508,234c10.62-3.41,19.68-9.38,23.6-18.63-2.92,15.76-19.71,32.53-49.15,36.55,30.33,1.29,36.17-15.55,51.45-16.16,9.69-.38,18.14,8.39,28,13.68-12.11-3.07-31.11-11.33-41.16,2.12,0,0,6.19-5.26,18.27-3.72,12.27,1.56,23.46,9.4,54.12,11.36-30.66,1.95-41.85,9.79-54.12,11.35-12.08,1.54-18.27-3.73-18.27-3.73,10.05,13.46,29.05,5.21,41.16,2.13-9.9,5.29-18.35,14.07-28,13.68C518.65,282,512.81,265.17,482.48,266.46Zm33.36-7.27c4.61,1.24,8.63,3.77,14.49,3.77,7.11,0,11.07-2.76,16.74-3.77-5.67-1-9.63-3.77-16.74-3.77C524.47,255.42,520.45,257.94,515.84,259.19Zm-72.22-90.32c0,5.13,3,8.4,3,12.13,0-3.73,3-7,3-12.13,0-4.56-2.25-6.65-3-11.43C445.87,162.22,443.62,164.31,443.62,168.87Zm-66.18,90.32c-4.61-1.25-8.63-3.77-14.49-3.77-7.11,0-11.07,2.75-16.74,3.77,5.67,1,9.63,3.77,16.74,3.77C368.81,263,372.83,260.43,377.44,259.19Zm72.22,90.31c0-5.13-3-8.4-3-12.13,0,3.73-3,7-3,12.13,0,4.56,2.25,6.65,3,11.43C447.41,356.15,449.66,354.06,449.66,349.5Zm42-90.31c-9.94,0-24.09-5-35-3a24.73,24.73,0,0,0,7.46-6.74c-4.41.43-6.76.79-10.12,2.3,2.66-6,3.2-9.4,3.73-15.43a31.42,31.42,0,0,0-6.57,10.64c.71-12.42-4.25-15.24-4.61-31.76-.36,16.52-5.32,19.34-4.61,31.76a31.42,31.42,0,0,0-6.57-10.64c.53,6,1.07,9.42,3.73,15.43-3.36-1.51-5.71-1.87-10.12-2.3a24.73,24.73,0,0,0,7.46,6.74c-10.87-2-25,3-35,3,9.94,0,24.09,5,35,3a24.73,24.73,0,0,0-7.46,6.74c4.41-.43,6.76-.79,10.12-2.3-2.66,6-3.2,9.4-3.73,15.43A31.42,31.42,0,0,0,442,271.43c-.71,12.42,4.25,15.24,4.61,31.76.36-16.52,5.32-19.34,4.61-31.76a31.42,31.42,0,0,0,6.57,10.64c-.53-6-1.07-9.42-3.73-15.43,3.36,1.51,5.71,1.87,10.12,2.3a24.73,24.73,0,0,0-7.46-6.74C467.62,264.17,481.77,259.19,491.71,259.19Z"/><path class="cls-5" d="M391.76,137.92c2.64,13.83,25.37,16.26,30.29,34.06,3.77-19.12,21.29-19.87,21.54-33.12-3.18,7.8-10.84,5.79-15.89,12.12.85-6.15,4.64-11.89,12.39-15.08-7.67-1.07-15.63,1.83-19.12,9.56-2.55-4.17-2.81-8.45-.67-13.87a15.2,15.2,0,0,0-5.65,16.56C407.38,140.88,396.74,144.92,391.76,137.92Z"/><path class="cls-6" d="M464.86,259.19c-4.26-.67-9.39-3.21-14.13-1.22,2.32-1.81,1.14-3.52,2.53-5.2-1.92,1.39-3.51.5-5,2.74,1.54-5.31-.53-8.14-1.63-14.11-1.1,6-3.17,8.8-1.63,14.11-1.48-2.24-3.07-1.35-5-2.74,1.39,1.68.21,3.39,2.53,5.2-4.74-2-9.87.55-14.13,1.22,4.26.66,9.39,3.19,14.13,1.21-2.32,1.81-1.14,3.52-2.53,5.2,1.92-1.39,3.51-.5,5-2.74-1.54,5.31.53,8.14,1.63,14.12,1.1-6,3.17-8.81,1.63-14.12,1.48,2.24,3.07,1.35,5,2.74-1.39-1.68-.21-3.39-2.53-5.2C455.47,262.38,460.6,259.85,464.86,259.19Z"/><path class="cls-7" d="M81.53,232c4.69-4.59,6.91-12.18,7.27-21.72.47-12.52,5.41-17.65,13.33-18.52-11.8,4.57-4.45,17.11-7.95,25.84,6.44-4.78,4.39-20.68,17.64-21.4-9.78,3.19-2.84,16.67-9.29,24.5,7.81-.11,11.4,6.12,21.54,3.23-4.72,3.63-10,5.92-18.85,5.92,6.26,3.86,9,8.63,11.31,15.35C106.4,234.61,91.68,230.54,81.53,232Z"/><path class="cls-2" d="M67.8,190.69a32.84,32.84,0,0,0-11.44,22.75c-1.08-10.23-3.2-18.13-8.21-24,0,0,6.32,3.09,8.61,9.15C59.72,193.38,67.8,190.69,67.8,190.69Z"/><path class="cls-2" d="M81.8,139.81c-1.22,6-6.31,11.17-12.92,13.73a21.14,21.14,0,0,0-2.16-19.79,21.46,21.46,0,0,1-5.79,18,18.14,18.14,0,0,0-1.07-13.87c.94,8.48-6.17,12.79-15.62,18.44C31.58,163.94,27,172.41,25,183.59c3.45-6.87,9.91-13.14,27.86-17.29C75.15,161.14,83.25,153.88,81.8,139.81Z"/><path class="cls-8" d="M54.88,137.92C52.24,151.75,29.51,154.18,24.59,172c-3.77-19.12-21.3-19.87-21.54-33.12,3.18,7.8,10.84,5.79,15.89,12.12-.85-6.15-4.64-11.89-12.39-15.08,7.67-1.07,15.63,1.83,19.12,9.56,2.55-4.17,2.81-8.45.67-13.87A15.2,15.2,0,0,1,32,148.15C39.26,140.88,49.9,144.92,54.88,137.92Z"/><path class="cls-9" d="M35.84,266.46c29.44,4,46.23,20.79,49.15,36.55-3.92-9.25-13-15.22-23.6-18.63,10.61,14,7.19,31.87,21.11,41.7-10.36-11-7.21-24.47-14.9-36.73,12.26,6.89,14.12,16.67,17,27.15,4.39,15.84,11.55,20.08,17.22,22.17-11.69.45-28.66-4.53-36.78-20.1-8.61-16.51-1.45-34.41-22.48-43.77,9.6,8.05,14.73,19.52,8.7,34.42C53.53,287.3,30.65,283.71,27,268.77c-.63,11.53,7.18,21.22,14.55,25.9-10.29-3.37-19.22-9-23.42-21.82C11.17,294.24,23.41,311.3,31,311.3c2.62,0,4.53-1.67,4.53-4.16,0-6.45-11.64-6.45-14.59-18.86,5.32,10.83,25.55,8.88,25.55,20.76,0,9.74-13.64,14-22.36,8,6.39,8.34,21.26,8.62,25.55-1.42.66,4.3-1.31,10.75-7.45,13.13-7,2.7-13.49-2.49-13.49-2.49,7.64,11,20.94,3.67,34.07,3.91,10.87.19,18.11,5.82,21.29,11.17a15.32,15.32,0,0,0-7.63-1.95,21.14,21.14,0,0,1,9,21.47c-1.3-6.25-8.57-10.68-22.35-11.63-15.56-1.08-23.81-3.57-29.1-9.3,11.2,4.95,28.93-1.91,41,6-7.45-8.54-23.93-6.09-35.71-8C18.63,334.64,6,299.68,7.63,284.33,2,307.76,17.09,320.54,20.42,333.47c3.63,14.13-3.37,23.82-10,28.8,10.28-15.4-7.42-24.63-4.62-44.36-5.22,19.19,4.44,24.67,4.44,34.6,0,9.76-8.58,13-10.29,25.55-1.71-12.55-10.29-15.79-10.29-25.55,0-9.93,9.66-15.41,4.43-34.6,2.81,19.73-14.89,29-4.61,44.36-6.58-5-13.58-14.67-10-28.8C-17.09,320.54-2,307.76-7.63,284.33c1.62,15.35-11,50.31-31.71,53.64-11.78,1.89-28.26-.56-35.71,8,12-7.94,29.78-1.08,41-6-5.29,5.73-13.54,8.22-29.09,9.3-13.79.95-21.06,5.38-22.36,11.63a21.13,21.13,0,0,1,9-21.47,15.32,15.32,0,0,0-7.63,1.95c3.18-5.35,10.42-11,21.29-11.17,13.13-.24,26.42,7.11,34.07-3.91,0,0-6.5,5.19-13.49,2.49-6.14-2.38-8.11-8.83-7.45-13.13,4.29,10,19.16,9.76,25.55,1.42-8.72,6.05-22.36,1.75-22.36-8,0-11.88,20.23-9.93,25.55-20.76-2.95,12.41-14.59,12.41-14.59,18.86,0,2.49,1.91,4.16,4.53,4.16,7.59,0,19.83-17.06,12.9-38.45-4.2,12.83-13.13,18.45-23.42,21.82C-34.15,290-26.34,280.3-27,268.77c-3.68,14.94-26.56,18.53-24.31,40.45-6-14.9-.91-26.37,8.7-34.42-21,9.36-13.87,27.26-22.49,43.77-8.12,15.57-25.08,20.55-36.78,20.1,5.68-2.09,12.84-6.33,17.23-22.17,2.89-10.48,4.76-20.26,17-27.15-7.69,12.26-4.54,25.69-14.9,36.73,13.92-9.83,10.49-27.69,21.11-41.7C-72,287.79-81.07,293.76-85,303c2.91-15.76,19.71-32.53,49.15-36.55C-66.17,265.17-72,282-87.3,282.62c-9.68.39-18.13-8.39-28-13.68,12.11,3.08,31.11,11.33,41.16-2.13,0,0-6.19,5.27-18.27,3.73-12.27-1.56-23.46-9.4-54.12-11.35,30.66-2,41.85-9.8,54.12-11.36,12.08-1.54,18.27,3.72,18.27,3.72-10-13.45-29-5.19-41.16-2.12,9.9-5.29,18.35-14.06,28-13.68,15.29.61,21.13,17.45,51.46,16.16-29.44-4-46.24-20.79-49.15-36.55,3.92,9.25,13,15.22,23.6,18.63-10.62-14-7.19-31.87-21.11-41.7,10.36,11,7.21,24.47,14.9,36.73-12.26-6.89-14.13-16.67-17-27.14C-89,186-96.17,181.79-101.85,179.7c11.7-.45,28.66,4.53,36.78,20.1,8.62,16.51,1.45,34.41,22.49,43.77-9.61-8.06-14.73-19.52-8.7-34.42-2.25,21.92,20.63,25.5,24.31,40.45.63-11.53-7.18-21.22-14.55-25.9,10.29,3.37,19.22,9,23.42,21.82,6.93-21.39-5.31-38.45-12.9-38.45-2.62,0-4.53,1.67-4.53,4.16,0,6.45,11.64,6.45,14.59,18.86-5.32-10.83-25.55-8.87-25.55-20.76,0-9.74,13.64-14,22.36-8-6.39-8.34-21.26-8.62-25.55,1.42-.66-4.3,1.31-10.75,7.45-13.13,7-2.7,13.49,2.49,13.49,2.49-7.65-11-20.94-3.67-34.07-3.91C-73.68,188-80.92,182.39-84.1,177a15.32,15.32,0,0,0,7.63,2,21.13,21.13,0,0,1-9-21.47c1.3,6.25,8.57,10.68,22.36,11.63,15.55,1.08,23.8,3.57,29.09,9.31-11.2-5-28.93,1.9-41-6,7.45,8.54,23.93,6.09,35.71,8C-18.63,183.73-6,218.69-7.63,234c5.65-23.42-9.46-36.2-12.79-49.13-3.63-14.13,3.37-23.83,10-28.8C-20.75,171.5-3,180.73-5.86,200.46c5.23-19.19-4.43-24.67-4.43-34.6,0-9.76,8.58-13,10.29-25.55,1.71,12.55,10.29,15.79,10.29,25.55,0,9.93-9.66,15.41-4.44,34.6-2.8-19.73,14.9-29,4.62-44.36,6.58,5,13.58,14.67,10,28.8C17.09,197.83,2,210.61,7.63,234c-1.62-15.34,11-50.3,31.71-53.63,11.78-1.89,28.26.56,35.71-8-12,7.94-29.78,1.08-41,6,5.29-5.74,13.54-8.23,29.1-9.31,13.78-1,21-5.38,22.35-11.63a21.14,21.14,0,0,1-9,21.47,15.32,15.32,0,0,0,7.63-2c-3.18,5.35-10.42,11-21.29,11.17-13.13.24-26.43-7.11-34.07,3.91,0,0,6.5-5.19,13.49-2.49,6.14,2.38,8.11,8.83,7.45,13.13-4.29-10-19.16-9.76-25.55-1.42,8.72-6.05,22.36-1.75,22.36,8,0,11.89-20.23,9.93-25.55,20.76,2.95-12.41,14.59-12.41,14.59-18.86,0-2.49-1.91-4.16-4.53-4.16-7.59,0-19.83,17.06-12.9,38.45,4.2-12.83,13.13-18.45,23.42-21.82-7.37,4.68-15.18,14.37-14.55,25.9,3.68-14.95,26.56-18.53,24.31-40.45,6,14.9.9,26.36-8.7,34.42,21-9.36,13.87-27.26,22.48-43.77,8.12-15.57,25.09-20.55,36.78-20.1C96.17,181.79,89,186,84.62,201.88c-2.9,10.47-4.76,20.25-17,27.14,7.69-12.26,4.54-25.69,14.9-36.73C68.58,202.12,72,220,61.39,234,72,230.58,81.07,224.61,85,215.36c-2.92,15.76-19.71,32.53-49.15,36.55C66.17,253.2,72,236.36,87.29,235.75c9.69-.38,18.14,8.39,28,13.68-12.11-3.07-31.11-11.33-41.16,2.12,0,0,6.19-5.26,18.27-3.72,12.27,1.56,23.46,9.4,54.12,11.36-30.66,1.95-41.85,9.79-54.12,11.35-12.08,1.54-18.27-3.73-18.27-3.73,10,13.46,29.05,5.21,41.16,2.13-9.9,5.29-18.35,14.07-28,13.68C72,282,66.17,265.17,35.84,266.46Zm33.36-7.27c4.61,1.24,8.63,3.77,14.48,3.77,7.12,0,11.08-2.76,16.74-3.77-5.66-1-9.62-3.77-16.74-3.77C77.83,255.42,73.81,257.94,69.2,259.19ZM-3,168.87c0,5.13,3,8.4,3,12.13,0-3.73,3-7,3-12.13,0-4.56-2.25-6.65-3-11.43C-.77,162.22-3,164.31-3,168.87ZM-69.2,259.19c-4.61-1.25-8.63-3.77-14.49-3.77-7.11,0-11.07,2.75-16.74,3.77,5.67,1,9.63,3.77,16.74,3.77C-77.83,263-73.81,260.43-69.2,259.19ZM3,349.5c0-5.13-3-8.4-3-12.13,0,3.73-3,7-3,12.13,0,4.56,2.25,6.65,3,11.43C.77,356.15,3,354.06,3,349.5Zm42.05-90.31c-9.94,0-24.09-5-35-3a24.73,24.73,0,0,0,7.46-6.74c-4.41.43-6.76.79-10.12,2.3,2.66-6,3.2-9.4,3.73-15.43a31.42,31.42,0,0,0-6.57,10.64C5.32,234.52.35,231.7,0,215.18c-.36,16.52-5.32,19.34-4.61,31.76a31.42,31.42,0,0,0-6.57-10.64c.53,6,1.07,9.42,3.73,15.43-3.36-1.51-5.71-1.87-10.12-2.3a24.73,24.73,0,0,0,7.46,6.74c-10.87-2-25,3-35,3,9.94,0,24.09,5,35,3a24.73,24.73,0,0,0-7.46,6.74c4.41-.43,6.76-.79,10.12-2.3-2.66,6-3.2,9.4-3.73,15.43a31.42,31.42,0,0,0,6.57-10.64C-5.32,283.85-.36,286.67,0,303.19c.35-16.52,5.32-19.34,4.61-31.76a31.42,31.42,0,0,0,6.57,10.64c-.53-6-1.07-9.42-3.73-15.43,3.36,1.51,5.71,1.87,10.12,2.3a24.73,24.73,0,0,0-7.46-6.74C21,264.17,35.13,259.19,45.07,259.19Z"/><path class="cls-6" d="M18.22,259.19C14,258.52,8.83,256,4.09,258c2.32-1.81,1.14-3.52,2.53-5.2-1.92,1.39-3.51.5-5,2.74C3.17,250.2,1.1,247.37,0,241.4c-1.1,6-3.17,8.8-1.63,14.11-1.48-2.24-3.07-1.35-5-2.74,1.39,1.68.21,3.39,2.53,5.2-4.74-2-9.87.55-14.13,1.22,4.26.66,9.39,3.19,14.13,1.21-2.32,1.81-1.14,3.52-2.53,5.2,1.92-1.39,3.51-.5,5-2.74C-3.17,268.17-1.1,271,0,277c1.1-6,3.17-8.81,1.63-14.12,1.48,2.24,3.07,1.35,5,2.74-1.39-1.68-.21-3.39-2.53-5.2C8.83,262.38,14,259.85,18.22,259.19Z"/><path class="cls-10" d="M391.76,121.26c2.64-13.83,25.37-16.25,30.29-34.05,3.77,19.11,21.29,19.87,21.54,33.11-3.18-7.8-10.84-5.78-15.89-12.11.85,6.15,4.64,11.89,12.39,15.07-7.67,1.08-15.63-1.83-19.12-9.56-2.55,4.18-2.81,8.45-.67,13.87A15.19,15.19,0,0,1,414.65,111C407.38,118.3,396.74,114.26,391.76,121.26Z"/><path class="cls-2" d="M378.84,68.5a32.84,32.84,0,0,0,11.44-22.75c1.08,10.23,3.2,18.13,8.21,24,0,0-6.32-3.1-8.61-9.16C386.92,65.8,378.84,68.5,378.84,68.5Z"/><path class="cls-2" d="M364.84,119.38c1.22-6,6.31-11.18,12.92-13.73a21.14,21.14,0,0,0,2.16,19.79,21.47,21.47,0,0,1,5.78-18,18.16,18.16,0,0,0,1.08,13.86c-.94-8.48,6.17-12.78,15.62-18.44,12.66-7.58,17.27-16,19.25-27.22-3.46,6.86-9.91,13.13-27.86,17.29C371.49,98.05,363.39,105.3,364.84,119.38Z"/><path class="cls-11" d="M482.48,7.27c29.44,4,46.23,20.79,49.15,36.56-3.92-9.26-13-15.23-23.6-18.64,10.62,14,7.19,31.87,21.12,41.7-10.37-11-7.22-24.46-14.91-36.73,12.26,6.9,14.12,16.67,17,27.15,4.39,15.84,11.55,20.09,17.23,22.18-11.7.45-28.66-4.53-36.79-20.1-8.61-16.51-1.45-34.41-22.48-43.78,9.61,8.06,14.73,19.52,8.7,34.43,2.25-21.93-20.63-25.51-24.31-40.46-.63,11.53,7.18,21.22,14.55,25.91-10.29-3.38-19.22-9-23.42-21.83-6.93,21.39,5.31,38.46,12.9,38.46,2.62,0,4.53-1.67,4.53-4.17,0-6.45-11.64-6.45-14.59-18.85,5.32,10.82,25.55,8.87,25.55,20.76,0,9.74-13.64,14-22.36,8,6.39,8.34,21.26,8.62,25.55-1.42.66,4.31-1.31,10.76-7.45,13.13-7,2.7-13.49-2.48-13.49-2.48,7.64,11,20.94,3.67,34.07,3.9,10.87.19,18.11,5.82,21.29,11.18a15.11,15.11,0,0,0-7.63-2,21.12,21.12,0,0,1,9,21.47C530.86,95.42,523.59,91,509.81,90c-15.56-1.07-23.81-3.57-29.1-9.3,11.2,5,28.93-1.91,41,6-7.45-8.54-23.93-6.09-35.71-8-20.71-3.32-33.33-38.28-31.71-53.63-5.66,23.42,9.46,36.2,12.79,49.13,3.63,14.14-3.37,23.83-9.95,28.81,10.28-15.4-7.42-24.63-4.61-44.36-5.23,19.19,4.43,24.66,4.43,34.6,0,9.76-8.58,13-10.29,25.55-1.71-12.56-10.29-15.79-10.29-25.55,0-9.94,9.66-15.41,4.43-34.6,2.81,19.73-14.89,29-4.61,44.36-6.58-5-13.58-14.67-9.95-28.81,3.33-12.93,18.45-25.71,12.79-49.13,1.62,15.35-11,50.31-31.71,53.63-11.78,1.89-28.26-.56-35.71,8,12.05-7.94,29.78-1.07,41-6C407.28,86.46,399,89,383.48,90c-13.79,1-21.06,5.39-22.36,11.64a21.12,21.12,0,0,1,9.05-21.47,15.11,15.11,0,0,0-7.63,2c3.18-5.36,10.42-11,21.29-11.18,13.13-.23,26.42,7.11,34.07-3.9,0,0-6.5,5.18-13.49,2.48-6.14-2.37-8.11-8.82-7.45-13.13,4.29,10,19.16,9.76,25.55,1.42-8.72,6-22.36,1.76-22.36-8,0-11.89,20.23-9.94,25.55-20.76C422.75,41.5,411.11,41.5,411.11,48c0,2.5,1.91,4.17,4.53,4.17,7.59,0,19.83-17.07,12.9-38.46-4.2,12.84-13.13,18.45-23.42,21.83,7.37-4.69,15.18-14.38,14.55-25.91C416,24.53,393.11,28.11,395.36,50c-6-14.91-.91-26.37,8.7-34.43C383,25,390.19,42.88,381.58,59.39c-8.13,15.57-25.09,20.55-36.79,20.1,5.68-2.09,12.84-6.34,17.23-22.18,2.89-10.48,4.76-20.25,17-27.15-7.69,12.27-4.54,25.69-14.9,36.73,13.92-9.83,10.49-27.68,21.11-41.7-10.62,3.41-19.68,9.38-23.6,18.64,2.92-15.77,19.71-32.53,49.15-36.56C380.47,6,374.63,22.83,359.34,23.44c-9.68.38-18.13-8.4-28-13.68,12.11,3.07,31.11,11.33,41.16-2.13,0,0-6.19,5.26-18.27,3.73C341.93,9.8,330.74,2,300.08,0c30.66-2,41.85-9.8,54.12-11.36,12.08-1.53,18.27,3.73,18.27,3.73-10.05-13.46-29.05-5.2-41.16-2.13,9.9-5.29,18.35-14.06,28-13.68C374.63-22.83,380.47-6,410.8-7.28c-29.44-4-46.23-20.79-49.15-36.54,3.92,9.24,13,15.22,23.6,18.62-10.62-14-7.19-31.86-21.11-41.69,10.36,11,7.21,24.46,14.9,36.73-12.26-6.9-14.13-16.67-17-27.15-4.39-15.85-11.55-20.09-17.23-22.18,11.7-.45,28.66,4.53,36.79,20.1C390.19-42.87,383-25,404.06-15.62c-9.61-8.05-14.73-19.51-8.7-34.42C393.11-28.11,416-24.53,419.67-9.58c.63-11.53-7.18-21.22-14.55-25.91,10.29,3.37,19.22,9,23.42,21.83,6.93-21.39-5.31-38.46-12.9-38.46-2.62,0-4.53,1.67-4.53,4.17,0,6.45,11.64,6.45,14.59,18.85-5.32-10.82-25.55-8.87-25.55-20.76,0-9.74,13.64-14,22.36-8-6.39-8.34-21.26-8.62-25.55,1.42-.66-4.31,1.31-10.76,7.45-13.13,7-2.7,13.49,2.48,13.49,2.48-7.65-11-20.94-3.67-34.07-3.9-10.87-.19-18.11-5.82-21.29-11.18a15.11,15.11,0,0,0,7.63,2,21.13,21.13,0,0,1-9.05-21.47c1.3,6.25,8.57,10.68,22.36,11.64,15.55,1.07,23.8,3.57,29.09,9.3-11.2-5-28.93,1.91-41-6,7.45,8.54,23.93,6.09,35.71,8C428-75.46,440.63-40.5,439-25.15c5.66-23.42-9.46-36.2-12.79-49.14-3.63-14.13,3.37-23.82,9.95-28.8-10.28,15.4,7.42,24.63,4.61,44.36,5.23-19.19-4.43-24.66-4.43-34.6,0-9.76,8.58-13,10.29-25.55,1.71,12.56,10.29,15.79,10.29,25.55,0,9.94-9.66,15.41-4.43,34.6-2.81-19.73,14.89-29,4.61-44.36,6.58,5,13.58,14.67,9.95,28.8-3.33,12.94-18.45,25.72-12.79,49.14-1.62-15.35,11-50.31,31.71-53.63,11.78-1.89,28.26.56,35.71-8-12.05,7.94-29.78,1.07-41,6C486-86.46,494.25-89,509.81-90c13.78-1,21.05-5.39,22.35-11.64a21.13,21.13,0,0,1-9,21.47,15.11,15.11,0,0,0,7.63-2c-3.18,5.36-10.42,11-21.29,11.18-13.13.23-26.43-7.11-34.07,3.9,0,0,6.5-5.18,13.49-2.48,6.14,2.37,8.11,8.82,7.45,13.13-4.29-10-19.16-9.76-25.55-1.42,8.72-6,22.36-1.76,22.36,8,0,11.89-20.23,9.94-25.55,20.76,2.95-12.4,14.59-12.4,14.59-18.85,0-2.5-1.91-4.17-4.53-4.17-7.59,0-19.83,17.07-12.9,38.46,4.2-12.84,13.13-18.46,23.42-21.83C480.79-30.8,473-21.11,473.61-9.58c3.68-14.95,26.56-18.53,24.31-40.46,6,14.91.91,26.37-8.7,34.42,21-9.36,13.87-27.25,22.48-43.77,8.13-15.57,25.09-20.55,36.79-20.1-5.68,2.09-12.84,6.33-17.23,22.18-2.9,10.48-4.76,20.25-17,27.15,7.69-12.27,4.54-25.69,14.91-36.73C515.22-57.06,518.65-39.21,508-25.2c10.62-3.4,19.68-9.38,23.6-18.62-2.92,15.75-19.71,32.52-49.15,36.54,30.33,1.3,36.17-15.55,51.45-16.16,9.69-.38,18.14,8.39,28,13.68-12.11-3.07-31.11-11.33-41.16,2.13,0,0,6.19-5.26,18.27-3.73C551.35-9.8,562.54-2,593.2,0c-30.66,2-41.85,9.8-54.12,11.36C527,12.89,520.81,7.63,520.81,7.63c10.05,13.46,29.05,5.2,41.16,2.13-9.9,5.28-18.35,14.06-28,13.68C518.65,22.83,512.81,6,482.48,7.27ZM515.84,0c4.61,1.24,8.63,3.77,14.49,3.77C537.44,3.77,541.4,1,547.07,0c-5.67-1-9.63-3.77-16.74-3.77C524.47-3.77,520.45-1.24,515.84,0ZM443.62-90.31c0,5.12,3,8.4,3,12.12,0-3.72,3-7,3-12.12,0-4.57-2.25-6.65-3-11.44C445.87-97,443.62-94.88,443.62-90.31ZM377.44,0c-4.61-1.24-8.63-3.77-14.49-3.77C355.84-3.77,351.88-1,346.21,0c5.67,1,9.63,3.77,16.74,3.77C368.81,3.77,372.83,1.24,377.44,0Zm72.22,90.31c0-5.12-3-8.4-3-12.12,0,3.72-3,7-3,12.12,0,4.57,2.25,6.65,3,11.43C447.41,97,449.66,94.88,449.66,90.31ZM491.71,0c-9.94,0-24.09-5-35-3a24.73,24.73,0,0,0,7.46-6.74c-4.41.43-6.76.8-10.12,2.31,2.66-6,3.2-9.4,3.73-15.44a31.47,31.47,0,0,0-6.57,10.65C452-24.66,447-27.49,446.64-44c-.36,16.51-5.32,19.34-4.61,31.76a31.47,31.47,0,0,0-6.57-10.65c.53,6,1.07,9.42,3.73,15.44-3.36-1.51-5.71-1.88-10.12-2.31A24.73,24.73,0,0,0,436.53-3c-10.87-2-25,3-35,3,9.94,0,24.09,5,35,3a24.6,24.6,0,0,0-7.46,6.74c4.41-.43,6.76-.8,10.12-2.31-2.66,6-3.2,9.4-3.73,15.44A31.47,31.47,0,0,0,442,12.24c-.71,12.42,4.25,15.25,4.61,31.76.36-16.51,5.32-19.34,4.61-31.76a31.47,31.47,0,0,0,6.57,10.65c-.53-6-1.07-9.42-3.73-15.44,3.36,1.51,5.71,1.88,10.12,2.31A24.6,24.6,0,0,0,456.75,3C467.62,5,481.77,0,491.71,0Z"/><path class="cls-12" d="M365.11,27.17c-4.69,4.6-6.91,12.19-7.27,21.72-.47,12.53-5.41,17.66-13.33,18.53,11.8-4.58,4.45-17.12,7.95-25.85C346,46.36,348.07,62.25,334.82,63c9.78-3.2,2.84-16.68,9.29-24.5-7.81.1-11.4-6.13-21.54-3.23,4.72-3.64,10-5.93,18.85-5.93-6.26-3.86-9-8.62-11.31-15.34C340.24,24.57,355,28.64,365.11,27.17Z"/><path class="cls-6" d="M464.86,0c-4.26-.66-9.39-3.2-14.13-1.22,2.32-1.8,1.14-3.51,2.53-5.2-1.92,1.39-3.51.51-5,2.75,1.54-5.31-.53-8.14-1.63-14.12-1.1,6-3.17,8.81-1.63,14.12-1.48-2.24-3.07-1.36-5-2.75,1.39,1.69.21,3.4,2.53,5.2-4.74-2-9.87.56-14.13,1.22,4.26.67,9.39,3.2,14.13,1.22-2.32,1.8-1.14,3.51-2.53,5.2,1.92-1.39,3.51-.5,5-2.75-1.54,5.31.53,8.14,1.63,14.12,1.1-6,3.17-8.81,1.63-14.12,1.48,2.25,3.07,1.36,5,2.75-1.39-1.69-.21-3.4-2.53-5.2C455.47,3.2,460.6.67,464.86,0Z"/><path class="cls-13" d="M168.44,250.86c2.64-13.83,25.37-16.26,30.29-34.06,3.77,19.11,21.29,19.87,21.54,33.11-3.18-7.8-10.84-5.78-15.89-12.11.85,6.15,4.64,11.89,12.39,15.07-7.68,1.08-15.63-1.83-19.12-9.55-2.56,4.17-2.81,8.45-.67,13.86a15.18,15.18,0,0,1-5.65-16.55C184.06,247.89,173.42,243.86,168.44,250.86Z"/><path class="cls-14" d="M278.2,250.86c-2.64-13.83-25.37-16.26-30.29-34.06-3.77,19.11-21.3,19.87-21.54,33.11,3.18-7.8,10.84-5.78,15.89-12.11-.85,6.15-4.64,11.89-12.39,15.07C237.54,254,245.5,251,249,243.32c2.55,4.17,2.81,8.45.67,13.86a15.18,15.18,0,0,0,5.65-16.55C262.58,247.89,273.22,243.86,278.2,250.86Z"/><path class="cls-15" d="M304.85,102.42c4.69-4.59,6.91-12.18,7.27-21.72.47-12.53,5.41-17.66,13.33-18.53C313.65,66.75,321,79.29,317.5,88c6.44-4.79,4.39-20.68,17.64-21.4-9.78,3.19-2.84,16.67-9.29,24.49,7.81-.1,11.4,6.13,21.54,3.24-4.72,3.63-10,5.92-18.85,5.92,6.26,3.86,9,8.63,11.31,15.34C329.72,105,315,101,304.85,102.42Z"/><path class="cls-2" d="M155.52,61.1A32.82,32.82,0,0,1,167,83.85c1.08-10.23,3.2-18.14,8.21-24,0,0-6.33,3.1-8.61,9.16C163.6,63.79,155.52,61.1,155.52,61.1Z"/><path class="cls-2" d="M141.52,10.21c1.22,6,6.31,11.18,12.92,13.73A21.14,21.14,0,0,1,156.6,4.15a21.46,21.46,0,0,0,5.78,18,18.17,18.17,0,0,1,1.08-13.86c-.94,8.48,6.17,12.79,15.62,18.44,12.66,7.58,17.27,16,19.25,27.23-3.46-6.87-9.91-13.14-27.86-17.29C148.17,31.54,140.07,24.29,141.52,10.21Z"/><path class="cls-16" d="M141.79,102.42c-4.69-4.59-6.91-12.18-7.27-21.72-.47-12.53-5.41-17.66-13.33-18.53,11.8,4.58,4.45,17.12,7.94,25.85-6.44-4.79-4.38-20.68-17.63-21.4,9.78,3.19,2.83,16.67,9.29,24.49-7.81-.1-11.4,6.13-21.54,3.24,4.71,3.63,10,5.92,18.85,5.92-6.26,3.86-9,8.63-11.31,15.34C116.92,105,131.64,101,141.79,102.42Z"/><path class="cls-2" d="M291.12,61.1a32.82,32.82,0,0,0-11.44,22.75c-1.08-10.23-3.2-18.14-8.21-24,0,0,6.32,3.1,8.61,9.16C283,63.79,291.12,61.1,291.12,61.1Z"/><path class="cls-2" d="M305.12,10.21c-1.22,6-6.31,11.18-12.92,13.73A21.14,21.14,0,0,0,290,4.15a21.41,21.41,0,0,1-5.79,18,18.12,18.12,0,0,0-1.07-13.86c.94,8.48-6.17,12.79-15.62,18.44-12.66,7.58-17.27,16-19.25,27.23,3.45-6.87,9.91-13.14,27.86-17.29C298.47,31.54,306.57,24.29,305.12,10.21Z"/><path class="cls-17" d="M278.2,8.33c-2.64,13.83-25.37,16.25-30.29,34.05-3.77-19.11-21.3-19.87-21.54-33.11,3.18,7.8,10.84,5.79,15.89,12.12-.85-6.16-4.64-11.9-12.39-15.08,7.67-1.08,15.63,1.83,19.12,9.56,2.55-4.18,2.81-8.45.67-13.87a15.2,15.2,0,0,1,5.65,16.56C262.58,11.29,273.22,15.33,278.2,8.33Z"/><path class="cls-2" d="M155.52,198.09A32.84,32.84,0,0,0,167,175.34c1.08,10.23,3.2,18.13,8.21,24,0,0-6.33-3.1-8.61-9.15C163.6,195.4,155.52,198.09,155.52,198.09Z"/><path class="cls-2" d="M141.52,249c1.22-6,6.31-11.18,12.92-13.73A21.14,21.14,0,0,0,156.6,255a21.47,21.47,0,0,1,5.78-18,18.19,18.19,0,0,0,1.08,13.87c-.94-8.48,6.17-12.79,15.62-18.45,12.66-7.57,17.27-16,19.25-27.22-3.46,6.86-9.91,13.14-27.86,17.29C148.17,227.64,140.07,234.9,141.52,249Z"/><path class="cls-18" d="M259.16,136.87c29.44,4,46.23,20.79,49.15,36.55-3.92-9.25-13-15.23-23.6-18.63,10.62,14,7.19,31.86,21.12,41.69-10.37-11-7.22-24.46-14.91-36.73,12.26,6.9,14.12,16.68,17,27.15,4.39,15.85,11.55,20.09,17.23,22.18-11.7.45-28.67-4.53-36.79-20.1-8.61-16.51-1.45-34.41-22.48-43.77,9.6,8,14.73,19.51,8.7,34.42,2.25-21.93-20.63-25.51-24.31-40.46-.63,11.53,7.18,21.23,14.55,25.91-10.29-3.37-19.22-9-23.42-21.83-6.93,21.4,5.31,38.46,12.9,38.46,2.62,0,4.53-1.67,4.53-4.17,0-6.44-11.64-6.44-14.59-18.85,5.32,10.82,25.55,8.87,25.55,20.76,0,9.74-13.64,14-22.36,8,6.39,8.34,21.26,8.62,25.55-1.42.66,4.31-1.31,10.76-7.45,13.13-7,2.7-13.49-2.48-13.49-2.48,7.64,11,20.94,3.67,34.07,3.9,10.87.2,18.11,5.82,21.29,11.18a15.32,15.32,0,0,0-7.63-2,21.14,21.14,0,0,1,9,21.47c-1.3-6.25-8.57-10.68-22.35-11.63-15.56-1.08-23.81-3.57-29.1-9.31,11.2,5,28.93-1.91,41,6-7.45-8.54-23.93-6.09-35.71-8C242,205.05,229.33,170.09,231,154.74c-5.66,23.42,9.46,36.2,12.79,49.14,3.63,14.13-3.37,23.82-10,28.8,10.28-15.4-7.42-24.63-4.62-44.36-5.22,19.19,4.44,24.66,4.44,34.6,0,9.76-8.58,13-10.29,25.55C221.61,235.91,213,232.68,213,222.92c0-9.94,9.66-15.41,4.43-34.6,2.81,19.73-14.89,29-4.61,44.36-6.58-5-13.58-14.67-9.95-28.8,3.33-12.94,18.44-25.72,12.79-49.14,1.62,15.35-11,50.31-31.71,53.63-11.78,1.9-28.26-.55-35.71,8,12-8,29.78-1.08,41-6-5.29,5.74-13.54,8.23-29.09,9.31-13.79,1-21.06,5.38-22.36,11.63a21.13,21.13,0,0,1,9-21.47,15.32,15.32,0,0,0-7.63,2c3.18-5.36,10.42-11,21.29-11.18,13.13-.23,26.42,7.11,34.07-3.9,0,0-6.5,5.18-13.49,2.48-6.14-2.37-8.11-8.82-7.45-13.13,4.29,10,19.16,9.76,25.55,1.42-8.72,6.06-22.36,1.76-22.36-8,0-11.89,20.23-9.94,25.55-20.76-2.95,12.41-14.59,12.41-14.59,18.85,0,2.5,1.91,4.17,4.53,4.17,7.59,0,19.83-17.06,12.9-38.46-4.2,12.84-13.13,18.46-23.42,21.83,7.37-4.68,15.18-14.38,14.55-25.91-3.68,15-26.56,18.53-24.31,40.46-6-14.91-.91-26.37,8.7-34.42-21,9.36-13.87,27.26-22.49,43.77-8.12,15.57-25.08,20.55-36.78,20.1,5.68-2.09,12.84-6.33,17.23-22.18,2.89-10.47,4.76-20.25,17-27.15-7.69,12.27-4.54,25.69-14.9,36.73,13.92-9.83,10.49-27.68,21.11-41.69-10.62,3.4-19.68,9.38-23.6,18.63,2.92-15.76,19.71-32.53,49.15-36.55C157.15,135.58,151.31,152.42,136,153c-9.68.38-18.13-8.39-28-13.68,12.11,3.07,31.11,11.33,41.16-2.13,0,0-6.19,5.26-18.27,3.73-12.27-1.56-23.46-9.4-54.12-11.36,30.66-2,41.85-9.79,54.12-11.35C143,116.7,149.15,122,149.15,122c-10.05-13.46-29.05-5.2-41.16-2.13,9.9-5.28,18.35-14.06,28-13.67,15.29.6,21.13,17.45,51.46,16.16-29.44-4-46.23-20.79-49.15-36.55,3.92,9.25,13,15.22,23.6,18.63-10.62-14-7.19-31.87-21.11-41.7,10.36,11,7.21,24.46,14.9,36.73-12.26-6.9-14.13-16.67-17-27.15-4.39-15.84-11.55-20.09-17.23-22.18,11.7-.45,28.66,4.53,36.78,20.11,8.62,16.51,1.45,34.41,22.49,43.77-9.61-8.06-14.73-19.52-8.7-34.42-2.25,21.92,20.63,25.5,24.31,40.45.63-11.53-7.18-21.22-14.55-25.9,10.29,3.37,19.22,9,23.42,21.82,6.93-21.39-5.31-38.46-12.9-38.46-2.62,0-4.53,1.68-4.53,4.17,0,6.45,11.64,6.45,14.59,18.85-5.32-10.82-25.55-8.87-25.55-20.75,0-9.74,13.64-14,22.36-8-6.39-8.34-21.26-8.62-25.55,1.42C173,68.86,175,62.41,181.09,60c7-2.7,13.49,2.48,13.49,2.48-7.65-11-20.94-3.67-34.07-3.9-10.87-.19-18.11-5.82-21.29-11.18a15.11,15.11,0,0,0,7.63,2,21.1,21.1,0,0,1-9-21.46c1.3,6.24,8.57,10.67,22.36,11.63,15.55,1.07,23.8,3.57,29.09,9.3-11.2-5-28.93,1.91-41-6,7.45,8.54,23.93,6.09,35.71,8,20.71,3.32,33.33,38.29,31.71,53.63,5.65-23.42-9.46-36.2-12.79-49.13-3.63-14.14,3.37-23.83,9.95-28.8-10.28,15.39,7.42,24.62,4.61,44.35C222.69,51.67,213,46.2,213,36.26c0-9.75,8.58-13,10.29-25.55,1.71,12.56,10.29,15.8,10.29,25.55,0,9.94-9.66,15.41-4.44,34.6-2.8-19.73,14.9-29,4.62-44.35,6.58,5,13.58,14.66,10,28.8C240.41,68.24,225.29,81,231,104.44c-1.62-15.34,11-50.31,31.71-53.63,11.78-1.89,28.26.56,35.71-8-12.05,7.94-29.78,1.07-41,6,5.29-5.73,13.54-8.23,29.1-9.3,13.78-1,21.05-5.39,22.35-11.63a21.12,21.12,0,0,1-9,21.46,15.11,15.11,0,0,0,7.63-2c-3.18,5.36-10.42,11-21.29,11.18-13.13.23-26.43-7.11-34.07,3.9,0,0,6.5-5.18,13.49-2.48,6.14,2.37,8.11,8.82,7.45,13.13-4.29-10-19.16-9.76-25.55-1.42,8.72-6,22.36-1.75,22.36,8,0,11.88-20.23,9.93-25.55,20.75,3-12.4,14.59-12.4,14.59-18.85,0-2.49-1.91-4.17-4.53-4.17-7.59,0-19.83,17.07-12.9,38.46,4.2-12.84,13.13-18.45,23.42-21.82-7.37,4.68-15.18,14.37-14.55,25.9,3.68-15,26.56-18.53,24.31-40.45,6,14.9.9,26.36-8.7,34.42,21-9.36,13.87-27.26,22.48-43.77,8.12-15.58,25.09-20.56,36.79-20.11-5.68,2.09-12.84,6.34-17.23,22.18-2.9,10.48-4.76,20.25-17,27.15,7.69-12.27,4.54-25.69,14.91-36.73-13.93,9.83-10.5,27.68-21.12,41.7,10.62-3.41,19.68-9.38,23.6-18.63-2.92,15.76-19.71,32.53-49.15,36.55,30.33,1.29,36.17-15.56,51.45-16.16,9.69-.39,18.14,8.39,28,13.67-12.11-3.07-31.11-11.33-41.16,2.13,0,0,6.19-5.26,18.27-3.72,12.27,1.56,23.46,9.39,54.12,11.35-30.66,2-41.85,9.8-54.12,11.36-12.08,1.53-18.27-3.73-18.27-3.73,10.05,13.46,29.05,5.2,41.16,2.13-9.9,5.29-18.35,14.06-28,13.68C295.33,152.42,289.49,135.58,259.16,136.87Zm33.36-7.28c4.61,1.24,8.63,3.77,14.48,3.77,7.12,0,11.08-2.75,16.75-3.77-5.67-1-9.63-3.77-16.75-3.77C301.15,125.82,297.13,128.35,292.52,129.59ZM220.3,39.28c0,5.12,3,8.4,3,12.12,0-3.72,3-7,3-12.12,0-4.57-2.25-6.65-3-11.43C222.55,32.63,220.3,34.71,220.3,39.28Zm-66.18,90.31c-4.61-1.24-8.63-3.77-14.49-3.77-7.11,0-11.07,2.76-16.74,3.77,5.67,1,9.63,3.77,16.74,3.77C145.49,133.36,149.51,130.83,154.12,129.59Zm72.22,90.31c0-5.12-3-8.4-3-12.12,0,3.72-3,7-3,12.12,0,4.57,2.25,6.66,3,11.44C224.09,226.56,226.34,224.47,226.34,219.9Zm42-90.31c-9.94,0-24.09-5-35-3a24.76,24.76,0,0,0,7.46-6.75c-4.41.44-6.76.8-10.12,2.31,2.66-6,3.2-9.4,3.73-15.44a31.47,31.47,0,0,0-6.57,10.65c.71-12.42-4.26-15.25-4.61-31.76-.36,16.51-5.32,19.34-4.61,31.76a31.47,31.47,0,0,0-6.57-10.65c.53,6,1.07,9.42,3.73,15.44-3.36-1.51-5.71-1.87-10.12-2.31a24.76,24.76,0,0,0,7.46,6.75c-10.87-2-25,3-35,3,9.94,0,24.09,5,35,3a24.73,24.73,0,0,0-7.46,6.74c4.41-.43,6.76-.8,10.12-2.31-2.66,6-3.2,9.4-3.73,15.44a31.37,31.37,0,0,0,6.57-10.65c-.71,12.42,4.25,15.25,4.61,31.76.35-16.51,5.32-19.34,4.61-31.76a31.37,31.37,0,0,0,6.57,10.65c-.53-6-1.07-9.42-3.73-15.44,3.36,1.51,5.71,1.88,10.12,2.31a24.73,24.73,0,0,0-7.46-6.74C244.3,134.57,258.45,129.59,268.39,129.59Z"/><path class="cls-2" d="M291.12,198.09a32.84,32.84,0,0,1-11.44-22.75c-1.08,10.23-3.2,18.13-8.21,24,0,0,6.32-3.1,8.61-9.15C283,195.4,291.12,198.09,291.12,198.09Z"/><path class="cls-2" d="M305.12,249c-1.22-6-6.31-11.18-12.92-13.73A21.14,21.14,0,0,1,290,255a21.42,21.42,0,0,0-5.79-18,18.14,18.14,0,0,1-1.07,13.87c.94-8.48-6.17-12.79-15.62-18.45-12.66-7.57-17.27-16-19.25-27.22,3.45,6.86,9.91,13.14,27.86,17.29C298.47,227.64,306.57,234.9,305.12,249Z"/><path class="cls-19" d="M304.85,156.76c4.69,4.6,6.91,12.19,7.27,21.72.47,12.53,5.41,17.66,13.33,18.53-11.8-4.58-4.45-17.11-7.95-25.85,6.44,4.79,4.39,20.68,17.64,21.41-9.78-3.2-2.84-16.68-9.29-24.5,7.81.11,11.4-6.13,21.54-3.23-4.72-3.64-10-5.93-18.85-5.93,6.26-3.85,9-8.62,11.31-15.34C329.72,154.16,315,158.24,304.85,156.76Z"/><path class="cls-20" d="M141.79,156.76c-4.69,4.6-6.91,12.19-7.27,21.72-.47,12.53-5.41,17.66-13.33,18.53,11.8-4.58,4.45-17.11,7.94-25.85-6.44,4.79-4.38,20.68-17.63,21.41,9.78-3.2,2.83-16.68,9.29-24.5-7.81.11-11.4-6.13-21.54-3.23,4.71-3.64,10-5.93,18.85-5.93-6.26-3.85-9-8.62-11.31-15.34C116.92,154.16,131.64,158.24,141.79,156.76Z"/><path class="cls-21" d="M168.44,8.33c2.64,13.83,25.37,16.25,30.29,34.05C202.5,23.27,220,22.51,220.27,9.27c-3.18,7.8-10.84,5.79-15.89,12.12.85-6.16,4.64-11.9,12.39-15.08-7.68-1.08-15.63,1.83-19.12,9.56C195.09,11.69,194.84,7.42,197,2a15.2,15.2,0,0,0-5.65,16.56C184.06,11.29,173.42,15.33,168.44,8.33Z"/><path class="cls-6" d="M241.54,129.59c-4.26-.66-9.39-3.2-14.13-1.22,2.32-1.8,1.14-3.51,2.53-5.19-1.92,1.38-3.51.5-5,2.74,1.54-5.31-.53-8.14-1.63-14.12-1.1,6-3.17,8.81-1.63,14.12-1.48-2.24-3.07-1.36-5-2.74,1.39,1.68.21,3.39,2.53,5.19-4.74-2-9.87.56-14.13,1.22,4.26.67,9.39,3.2,14.13,1.22-2.32,1.81-1.14,3.52-2.53,5.2,1.92-1.39,3.51-.5,5-2.74-1.54,5.3.53,8.14,1.63,14.11,1.1-6,3.17-8.81,1.63-14.11,1.48,2.24,3.07,1.35,5,2.74-1.39-1.68-.21-3.39-2.53-5.2C232.15,132.79,237.28,130.26,241.54,129.59Z"/><path class="cls-22" d="M54.88,121.26C52.24,107.43,29.51,105,24.59,87.21c-3.77,19.11-21.3,19.87-21.54,33.11,3.18-7.8,10.84-5.78,15.89-12.11-.85,6.15-4.64,11.89-12.39,15.07,7.67,1.08,15.63-1.83,19.12-9.56,2.55,4.18,2.81,8.45.67,13.87A15.19,15.19,0,0,0,32,111C39.26,118.3,49.9,114.26,54.88,121.26Z"/><path class="cls-23" d="M35.84,7.27C65.28,11.3,82.07,28.06,85,43.83c-3.92-9.26-13-15.23-23.6-18.64,10.61,14,7.19,31.87,21.11,41.7-10.36-11-7.21-24.46-14.9-36.73,12.26,6.9,14.12,16.67,17,27.15C89,73.15,96.17,77.4,101.84,79.49c-11.69.45-28.66-4.53-36.78-20.1C56.45,42.88,63.61,25,42.58,15.61c9.6,8.06,14.73,19.52,8.7,34.43C53.53,28.11,30.65,24.53,27,9.58c-.63,11.53,7.18,21.22,14.55,25.91-10.29-3.38-19.22-9-23.42-21.83C11.17,35.05,23.41,52.12,31,52.12c2.62,0,4.53-1.67,4.53-4.17,0-6.45-11.64-6.45-14.59-18.85C26.26,39.92,46.49,38,46.49,49.86c0,9.74-13.64,14-22.36,8,6.39,8.34,21.26,8.62,25.55-1.42.66,4.31-1.31,10.76-7.45,13.13-7,2.7-13.49-2.48-13.49-2.48,7.64,11,20.94,3.67,34.07,3.9,10.87.19,18.11,5.82,21.29,11.18a15.11,15.11,0,0,0-7.63-2,21.14,21.14,0,0,1,9,21.47C84.22,95.42,77,91,63.17,90c-15.56-1.07-23.81-3.57-29.1-9.3,11.2,5,28.93-1.91,41,6-7.45-8.54-23.93-6.09-35.71-8C18.63,75.46,6,40.5,7.63,25.15,2,48.57,17.09,61.35,20.42,74.28c3.63,14.14-3.37,23.83-10,28.81,10.28-15.4-7.42-24.63-4.62-44.36-5.22,19.19,4.44,24.66,4.44,34.6,0,9.76-8.58,13-10.29,25.55-1.71-12.56-10.29-15.79-10.29-25.55,0-9.94,9.66-15.41,4.43-34.6,2.81,19.73-14.89,29-4.61,44.36-6.58-5-13.58-14.67-10-28.81C-17.09,61.35-2,48.57-7.63,25.15-6,40.5-18.63,75.46-39.34,78.78c-11.78,1.89-28.26-.56-35.71,8,12-7.94,29.78-1.07,41-6C-39.36,86.46-47.61,89-63.16,90c-13.79,1-21.06,5.39-22.36,11.64a21.12,21.12,0,0,1,9-21.47,15.11,15.11,0,0,0-7.63,2c3.18-5.36,10.42-11,21.29-11.18,13.13-.23,26.42,7.11,34.07-3.9,0,0-6.5,5.18-13.49,2.48-6.14-2.37-8.11-8.82-7.45-13.13,4.29,10,19.16,9.76,25.55,1.42-8.72,6-22.36,1.76-22.36-8,0-11.89,20.23-9.94,25.55-20.76C-23.89,41.5-35.53,41.5-35.53,48c0,2.5,1.91,4.17,4.53,4.17,7.59,0,19.83-17.07,12.9-38.46C-22.3,26.5-31.23,32.11-41.52,35.49-34.15,30.8-26.34,21.11-27,9.58c-3.68,15-26.56,18.53-24.31,40.46-6-14.91-.91-26.37,8.7-34.43-21,9.37-13.87,27.27-22.49,43.78C-73.19,75-90.15,79.94-101.85,79.49-96.17,77.4-89,73.15-84.62,57.31c2.89-10.48,4.76-20.25,17-27.15-7.69,12.27-4.54,25.69-14.9,36.73C-68.58,57.06-72,39.21-61.39,25.19-72,28.6-81.07,34.57-85,43.83-82.08,28.06-65.28,11.3-35.84,7.27-66.17,6-72,22.83-87.3,23.44c-9.68.38-18.13-8.4-28-13.68,12.11,3.07,31.11,11.33,41.16-2.13,0,0-6.19,5.26-18.27,3.73C-104.71,9.8-115.9,2-146.56,0c30.66-2,41.85-9.8,54.12-11.36,12.08-1.53,18.27,3.73,18.27,3.73-10-13.46-29-5.2-41.16-2.13,9.9-5.29,18.35-14.06,28-13.68C-72-22.83-66.17-6-35.84-7.28-65.28-11.3-82.08-28.07-85-43.82c3.92,9.24,13,15.22,23.6,18.62C-72-39.21-68.58-57.06-82.5-66.89c10.36,11,7.21,24.46,14.9,36.73-12.26-6.9-14.13-16.67-17-27.15C-89-73.16-96.17-77.4-101.85-79.49c11.7-.45,28.66,4.53,36.78,20.1C-56.45-42.87-63.62-25-42.58-15.62c-9.61-8.05-14.73-19.51-8.7-34.42C-53.53-28.11-30.65-24.53-27-9.58c.63-11.53-7.18-21.22-14.55-25.91,10.29,3.37,19.22,9,23.42,21.83C-11.17-35-23.41-52.12-31-52.12c-2.62,0-4.53,1.67-4.53,4.17,0,6.45,11.64,6.45,14.59,18.85C-26.26-39.92-46.49-38-46.49-49.86c0-9.74,13.64-14,22.36-8-6.39-8.34-21.26-8.62-25.55,1.42-.66-4.31,1.31-10.76,7.45-13.13,7-2.7,13.49,2.48,13.49,2.48-7.65-11-20.94-3.67-34.07-3.9-10.87-.19-18.11-5.82-21.29-11.18a15.11,15.11,0,0,0,7.63,2,21.13,21.13,0,0,1-9-21.47C-84.22-95.42-76.95-91-63.16-90c15.55,1.07,23.8,3.57,29.09,9.3-11.2-5-28.93,1.91-41-6,7.45,8.54,23.93,6.09,35.71,8C-18.63-75.46-6-40.5-7.63-25.15-2-48.57-17.09-61.35-20.42-74.29c-3.63-14.13,3.37-23.82,10-28.8C-20.75-87.69-3-78.46-5.86-58.73c5.23-19.19-4.43-24.66-4.43-34.6,0-9.76,8.58-13,10.29-25.55,1.71,12.56,10.29,15.79,10.29,25.55,0,9.94-9.66,15.41-4.44,34.6-2.8-19.73,14.9-29,4.62-44.36,6.58,5,13.58,14.67,10,28.8C17.09-61.35,2-48.57,7.63-25.15,6-40.5,18.63-75.46,39.34-78.78c11.78-1.89,28.26.56,35.71-8-12,7.94-29.78,1.07-41,6C39.36-86.46,47.61-89,63.17-90c13.78-1,21-5.39,22.35-11.64a21.14,21.14,0,0,1-9,21.47,15.11,15.11,0,0,0,7.63-2c-3.18,5.36-10.42,11-21.29,11.18-13.13.23-26.43-7.11-34.07,3.9,0,0,6.5-5.18,13.49-2.48,6.14,2.37,8.11,8.82,7.45,13.13-4.29-10-19.16-9.76-25.55-1.42,8.72-6,22.36-1.76,22.36,8,0,11.89-20.23,9.94-25.55,20.76,2.95-12.4,14.59-12.4,14.59-18.85,0-2.5-1.91-4.17-4.53-4.17-7.59,0-19.83,17.07-12.9,38.46C22.3-26.5,31.23-32.12,41.52-35.49,34.15-30.8,26.34-21.11,27-9.58,30.65-24.53,53.53-28.11,51.28-50c6,14.91.9,26.37-8.7,34.42,21-9.36,13.87-27.25,22.48-43.77C73.18-75,90.15-79.94,101.84-79.49,96.17-77.4,89-73.16,84.62-57.31c-2.9,10.48-4.76,20.25-17,27.15,7.69-12.27,4.54-25.69,14.9-36.73C68.58-57.06,72-39.21,61.39-25.2,72-28.6,81.07-34.58,85-43.82,82.07-28.07,65.28-11.3,35.84-7.28,66.17-6,72-22.83,87.29-23.44c9.69-.38,18.14,8.39,28,13.68-12.11-3.07-31.11-11.33-41.16,2.13,0,0,6.19-5.26,18.27-3.73C104.71-9.8,115.9-2,146.56,0,115.9,2,104.71,9.8,92.44,11.36,80.36,12.89,74.17,7.63,74.17,7.63c10,13.46,29.05,5.2,41.16,2.13C105.43,15,97,23.82,87.29,23.44,72,22.83,66.17,6,35.84,7.27ZM69.2,0c4.61,1.24,8.63,3.77,14.48,3.77C90.8,3.77,94.76,1,100.42,0,94.76-1,90.8-3.77,83.68-3.77,77.83-3.77,73.81-1.24,69.2,0ZM-3-90.31c0,5.12,3,8.4,3,12.12,0-3.72,3-7,3-12.12C3-94.88.77-97,0-101.75-.77-97-3-94.88-3-90.31ZM-69.2,0c-4.61-1.24-8.63-3.77-14.49-3.77C-90.8-3.77-94.76-1-100.43,0c5.67,1,9.63,3.77,16.74,3.77C-77.83,3.77-73.81,1.24-69.2,0ZM3,90.31c0-5.12-3-8.4-3-12.12,0,3.72-3,7-3,12.12C-3,94.88-.77,97,0,101.74.77,97,3,94.88,3,90.31ZM45.07,0C35.13,0,21-5,10.11-3a24.73,24.73,0,0,0,7.46-6.74c-4.41.43-6.76.8-10.12,2.31,2.66-6,3.2-9.4,3.73-15.44A31.47,31.47,0,0,0,4.61-12.24C5.32-24.66.35-27.49,0-44-.36-27.49-5.32-24.66-4.61-12.24a31.47,31.47,0,0,0-6.57-10.65c.53,6,1.07,9.42,3.73,15.44C-10.81-9-13.16-9.33-17.57-9.76A24.73,24.73,0,0,0-10.11-3c-10.87-2-25,3-35,3,9.94,0,24.09,5,35,3a24.6,24.6,0,0,0-7.46,6.74c4.41-.43,6.76-.8,10.12-2.31-2.66,6-3.2,9.4-3.73,15.44A31.47,31.47,0,0,0-4.61,12.24C-5.32,24.66-.36,27.49,0,44,.35,27.49,5.32,24.66,4.61,12.24a31.47,31.47,0,0,0,6.57,10.65c-.53-6-1.07-9.42-3.73-15.44C10.81,9,13.16,9.33,17.57,9.76A24.6,24.6,0,0,0,10.11,3C21,5,35.13,0,45.07,0Z"/><path class="cls-2" d="M67.8,68.5A32.84,32.84,0,0,1,56.36,45.75c-1.08,10.23-3.2,18.13-8.21,24,0,0,6.32-3.1,8.61-9.16C59.72,65.8,67.8,68.5,67.8,68.5Z"/><path class="cls-2" d="M81.8,119.38c-1.22-6-6.31-11.18-12.92-13.73a21.14,21.14,0,0,1-2.16,19.79,21.45,21.45,0,0,0-5.79-18,18.11,18.11,0,0,1-1.07,13.86c.94-8.48-6.17-12.78-15.62-18.44C31.58,95.24,27,86.78,25,75.6c3.45,6.86,9.91,13.13,27.86,17.29C75.15,98.05,83.25,105.3,81.8,119.38Z"/><path class="cls-24" d="M81.53,27.17c4.69,4.6,6.91,12.19,7.27,21.72.47,12.53,5.41,17.66,13.33,18.53-11.8-4.58-4.45-17.12-7.95-25.85,6.44,4.79,4.39,20.68,17.64,21.41-9.78-3.2-2.84-16.68-9.29-24.5,7.81.1,11.4-6.13,21.54-3.23-4.72-3.64-10-5.93-18.85-5.93,6.26-3.86,9-8.62,11.31-15.34C106.4,24.57,91.68,28.64,81.53,27.17Z"/><path class="cls-6" d="M18.22,0C14-.66,8.83-3.2,4.09-1.22,6.41-3,5.23-4.73,6.62-6.42,4.7-5,3.11-5.91,1.63-3.67,3.17-9,1.1-11.81,0-17.79-1.1-11.81-3.17-9-1.63-3.67-3.11-5.91-4.7-5-6.62-6.42c1.39,1.69.21,3.4,2.53,5.2C-8.83-3.2-14-.66-18.22,0-14,.67-8.83,3.2-4.09,1.22-6.41,3-5.23,4.73-6.62,6.42c1.92-1.39,3.51-.5,5-2.75C-3.17,9-1.1,11.81,0,17.79,1.1,11.81,3.17,9,1.63,3.67,3.11,5.92,4.7,5,6.62,6.42,5.23,4.73,6.41,3,4.09,1.22,8.83,3.2,14,.67,18.22,0Z"/></pattern></defs><title>vundet</title><rect class="cls-25" x="-32.68" y="-13.16" width="1920.76" height="1076.07"/><circle class="cls-26" cx="1622.57" cy="48.52" r="59.21"/><circle class="cls-26" cx="1622.57" cy="98.24" r="59.21"/><circle class="cls-26" cx="1571.57" cy="68.24" r="59.21"/><circle class="cls-26" cx="1664.57" cy="121.24" r="59.21"/><circle class="cls-26" cx="1684.57" cy="50.24" r="59.21"/><circle class="cls-26" cx="1735.57" cy="90.24" r="59.21"/><circle class="cls-26" cx="1725.57" cy="171.24" r="59.21"/><circle class="cls-26" cx="1584.57" cy="121.24" r="59.21"/><circle class="cls-26" cx="1635.57" cy="172.24" r="59.21"/><g id="_Group_" data-name="&lt;Group&gt;"><g id="_Group_2" data-name="&lt;Group&gt;"><path class="cls-27" d="M1290.18,110.4v214c123,50.3,246-51.64,369-.45V110C1536.16,58.76,1413.17,160.71,1290.18,110.4Z"/><path class="cls-26" d="M1516.61,315.53c-9.07,1.59-18.15,3.37-27.22,5.22V106.8c9.07-1.85,18.15-3.63,27.22-5.22Z"/><path class="cls-26" d="M1659.15,204.26v27.22c-123-51.2-246,50.75-369,.44V204.71C1413.17,255,1536.16,153.06,1659.15,204.26Z"/><path class="cls-28" d="M1659.15,175.52c-123-51.2-246,50.75-369,.44V110.4c123,50.31,246-51.64,369-.44Z"/><path class="cls-28" d="M1659.15,323.9c-123.35-51.34-246.7,51.35-370.05,0V264.57c123.35,51.35,246.7-51.34,370.05,0Z"/><path class="cls-29" d="M1659.15,264.57c-123-51.2-246,50.75-369,.45V176c123,50.31,246-51.64,369-.44Z"/></g></g><line class="cls-30" x1="1653.57" y1="93.01" x2="1653.57" y2="764.08"/><path class="cls-31" d="M-11.78,967.44V608l107-36.35h168l71.28-17.6H515.1L617,537.47s76.36,16.59,92.09,16.59,57.68,17.6,57.68,17.6l78.67-34.19h131.1s47.2,12.44,73.42,16.59,99.64,17.6,99.64,17.6l120.61,19.75,67.58,33.2,105.48,16.6s152.36,33.19,165.33,37.34,72.07,8.3,72.07,8.3l135,4.15,40.14,12.45,20.07,8.3,26.81-4.15V967.44Z"/><path class="cls-32" d="M1169.49,798c-3.51,34-164.86,212-212.54,267.32C810.84,976.37,590.38,736.72,451.36,609,535.2,529.07,627,458.24,712.59,380.3,836.43,522.28,1004.89,712.22,1169.49,798Z"/><rect class="cls-33" x="712.86" y="589.5" width="254.5" height="313.7" rx="127.25" ry="127.25" transform="translate(-265.36 544.47) rotate(-31.27)"/><ellipse class="cls-33" cx="719.58" cy="547.07" rx="108.5" ry="110.32" transform="translate(-179.43 452.96) rotate(-31.27)"/><rect class="cls-26" x="659.27" y="563.23" width="42.25" height="42.25" rx="9.05" ry="9.05" transform="translate(1565.27 730.67) rotate(148.73)"/><circle class="cls-34" cx="680.4" cy="584.35" r="7.94"/><rect class="cls-26" x="748.83" y="516.2" width="35.02" height="35.02" rx="7.5" ry="7.5" transform="translate(1698.4 592.12) rotate(148.73)"/><circle class="cls-34" cx="766.35" cy="533.71" r="6.58"/><path class="cls-33" d="M600.86,687.71c4.13-19.42,58.44-68.24,13.44-84.05s-72.46,86.62-64.11,117S690.47,767.44,694.91,736,596.74,707.14,600.86,687.71Z"/><path class="cls-33" d="M619.09,658.6c27.5-68.89,16.11-68,1.34-73.94s-27.33-16.31-54.83,52.59"/><path class="cls-33" d="M892.15,527.24c-53.64-16-96.08-1.8-82.55-41.7s41.63-31.32,120.4,1.29S906.36,618.2,882.72,591.15,945.8,543.23,892.15,527.24Z"/><path class="cls-33" d="M874.76,522.92c-74.61-12.86-72.64-14.45-65.45-37.76,8-25.77,20.55-35.84,84.08-13"/><circle class="cls-33" cx="817.82" cy="481.85" r="22.84"/><circle class="cls-33" cx="614.36" cy="618.24" r="22.84"/><circle class="cls-35" cx="827.87" cy="475.75" r="6.22"/><circle class="cls-35" cx="604.32" cy="624.34" r="6.22"/><rect class="cls-36" x="768.93" y="625.83" width="6.03" height="14.93" rx="0.98" ry="0.98" transform="translate(1760.47 773.92) rotate(148.73)"/><rect class="cls-37" x="639.53" y="549.64" width="51.34" height="10.5" rx="1.7" ry="1.7" transform="translate(1521.79 683.91) rotate(148.73)"/><rect class="cls-37" x="722.47" y="498.79" width="51.34" height="11.46" rx="1.86" ry="1.86" transform="translate(1649.49 547.44) rotate(148.73)"/><path class="cls-33" d="M721.27,754.5a49.2,49.2,0,0,1-23.52,7.15c-.79,0-1.59,0-2.39,0a49.48,49.48,0,0,1-25.45-91.78c10.75-6.53,23-7.11,23-7.11l.37,0c.42,0,1.14,0,1.93,0h.78c8.9.07,31,5.74,41.94,23.8A49.48,49.48,0,0,1,721.27,754.5Z"/><path class="cls-38" d="M581,607.38l-1.1-4.17c-.07-.26-.14-.52-.23-.78l-1.64-5c0-.21-.08-.42-.13-.63a39.91,39.91,0,0,0-2.16-6.35l-6.64-20.2q-.21-.64-.36-1.32c-.87-8.82.23-17.83-.54-26.64L575,515l4.17-17.33,5-17.52a25.87,25.87,0,0,0,2.66-3c2.62-3.53,4.5-7.43,7.29-10.87,4.45-5.45,9.37-10.49,14-15.74,4.92-2.76,16.66-9.45,19.45-11.91,3.28-2.91,24.12-14,30.11-18.11a5.77,5.77,0,0,0,1.68-.51C666,417,672,412.77,678.25,409.1l2-.78c6.56-1.85,15.51-4.17,17.9-4.79a3.66,3.66,0,0,1,1.17-.11,93.7,93.7,0,0,0,14.14-.09c7.63-.69,19.29,3.08,24,3.17s9.71,4.95,18.45,5.56a48.32,48.32,0,0,1,18,4.85c3.71,1.7,28.71,14.13,28.71,14.13a50,50,0,0,1,14.25,11.08c3,3.47,6.46,6.88,9.49,9.88,3.72,5.09,7.32,10.28,10.65,15.62a14.28,14.28,0,0,0,.82,1.33,132.87,132.87,0,0,1,12.45,25.64c3.38,9.67,4.43,18.85,4.62,29,.14,7.63.74,15.11,3.51,22.09-.53.57-1.25,1.28-2.27,2.26-4.23,4.07-.86,5.21-4.93,9.54l-3.65,3.88a3.76,3.76,0,0,0-.61.86,26.88,26.88,0,0,1-9.09,9.66,94.18,94.18,0,0,0-9.56,7.44,4.26,4.26,0,0,1-2.92,1.1,21.33,21.33,0,0,0-.88-4.76,36.21,36.21,0,0,0-3.83-8.73,4.1,4.1,0,0,0-.71-3.39c-4.68-6.85-7.71-14.95-11-22.5-9.78-22.2-36.56-94.46-72.08-67a4.86,4.86,0,0,0-1.94,4.2,52.5,52.5,0,0,0-4.88,2.93l-.3.21c-13.11,5.24-37.38,10.11-46.45,15.31-.23.1,19.37-.22,19.14-.08l-1.28.8-1.14.67a5,5,0,0,0-.56.4c-17.08,10.76-33,23.29-50.15,34a4.29,4.29,0,0,0-.87,0c-.66.06-1.33.14-2,.24a3.88,3.88,0,0,0-5.38-.42c-5,3.66-7,9.28-7.19,15.17a4.48,4.48,0,0,0,.06,3.64c0,.17,0,.34,0,.52.13,1.59.34,3.19.59,4.78l0,0a2.56,2.56,0,0,0-.22,1.25,4.35,4.35,0,0,0,.9,2.37,105.91,105.91,0,0,0,7.66,22.4,5.88,5.88,0,0,0,.42,4.45V587c.58,5.85,3.47,10.68,6.93,15.31,3.59,4.81,7.06,9.56,10.46,14.49a93,93,0,0,0,7.36,9.32,2,2,0,0,0,1.69,1.86q2.07,2.22,4.23,4.35c5.17,5.08,10,10.57,15.46,15.36l.05.09a2.29,2.29,0,0,1,0,2.24l-3.36,6.66a2.29,2.29,0,0,0,0,2.24l1.28,2.1c-.27.43-.54.86-.83,1.28a4.12,4.12,0,0,0-.7,2.87,40.1,40.1,0,0,1-7.74,6.74l-.43.16-3.15-1.49c-1.59-.76-4,.25-4.91,2a4.36,4.36,0,0,1-3.4,2.28l-8,.69a2.4,2.4,0,0,1-2.35-1l-3.49-5.75-1.86-2.47c-1.79-1.9-5.2-5-7.4-4-1.87.92-5.32,0-8.23-.89-.83-.52-1.67-1-2.51-1.52a26.49,26.49,0,0,0-5-4.49c-1.15-1.91-2.72-3.51-5.24-2.83a30.22,30.22,0,0,0-6.43-1.78c-8.19-4.57-15.88-9.69-21.31-17.45S585.1,616.5,581,607.38Z"/><path class="cls-39" d="M686,421.31a27.64,27.64,0,0,0,6.29.22c3.75-.28,5.25,1.87,1.53,2.15a43.48,43.48,0,0,1-9.53-.37C680.6,422.75,682.29,420.74,686,421.31Z"/><path class="cls-39" d="M622.67,458.18a13.36,13.36,0,0,0,4.14-2.83,7.86,7.86,0,0,1,3.69-2.24c1.12-.23,1.69.32.79,1.3a28.81,28.81,0,0,1-8.93,6.39C619,462.38,619.24,459.77,622.67,458.18Z"/><path class="cls-39" d="M729.16,458.15c2.78-1.58,5.52-3.26,8.15-5,1.36-.93,2.86-1.57,3.6-1.3s.21,1.32-1.13,2.23c-3.1,2.11-6.22,4.09-9.5,6S725.75,460.09,729.16,458.15Z"/><path class="cls-39" d="M588.81,584.49c2.18-3.17,7.16-6.47,11.64-9.29,3.32-2.09,4.43-.25,1.11,1.84s-6.71,4.24-8.27,6.51S587.31,586.66,588.81,584.49Z"/><path class="cls-39" d="M648.81,491q1.58-7.23,3.14-14.45c.76-3.46,3.66-5.6,2.9-2.13q-1.56,7.23-3.14,14.45C651,492.32,648.05,494.46,648.81,491Z"/><path class="cls-39" d="M684.6,477.78q1.57-7.21,3.14-14.44c.76-3.46,3.66-5.6,2.91-2.13l-3.15,14.45C686.74,479.12,683.84,481.26,684.6,477.78Z"/><path class="cls-39" d="M612.17,493.87c.44-1.62.19-3.75,2.76-6.06a31.07,31.07,0,0,1,4-2.77l6.49-4.13c3.31-2.11,4.41-.26,1.12,1.84l-3.71,2.36c-1,.63-2.89,1.67-3.71,2.36a2.19,2.19,0,0,0-1,1.69c-.2.72-.39,1.43-.58,2.15C617,493.11,611.68,495.7,612.17,493.87Z"/><path class="cls-39" d="M771.41,452.13l12.83-9.07c2.52-1.78,2.56,1.53,0,3.32l-12.83,9.07C768.91,457.23,768.87,453.92,771.41,452.13Z"/><path class="cls-39" d="M803.73,455.07a16.11,16.11,0,0,1,3.34-2.65l1.49-.92,0,0c1.27-1.93,5.9-3.52,4.93-1.57-.71,1.43-2.79,2.77-4.89,4.07l-.5.31h0c0,.09,0,.24.11.33a1.51,1.51,0,0,0,.44.27c1.48.68-3.25,4.22-4.73,3.54C802.84,457.93,802.05,457,803.73,455.07Z"/><path class="cls-39" d="M832.61,528.67A15.85,15.85,0,0,1,836,526l1.48-.91,0,0c1.27-1.93,5.9-3.52,4.93-1.56-.71,1.42-2.79,2.76-4.89,4.06l-.5.32h0c0,.09,0,.25.1.34a2,2,0,0,0,.44.26c1.48.68-3.25,4.22-4.73,3.54C831.72,531.53,830.92,530.59,832.61,528.67Z"/><path class="cls-39" d="M718.57,431.53a127.25,127.25,0,0,0,12.91-2.45c3.31-.78.93,2.34-2.36,3.12a139.06,139.06,0,0,1-14.1,2.61C712,435.2,715.62,431.92,718.57,431.53Z"/><path class="cls-39" d="M745,422.72a127.77,127.77,0,0,0,12.91-2.45c3.3-.79.93,2.33-2.37,3.12a136,136,0,0,1-14.09,2.6C738.43,426.38,742,423.1,745,422.72Z"/><path class="cls-39" d="M648.2,444.86a63.62,63.62,0,0,0,6.19-4.9c2.59-2.35,6.19-2.36,3.59,0a75.66,75.66,0,0,1-7.31,5.83c-1.33.93-2.9,1.57-3.6,1.3S646.87,445.79,648.2,444.86Z"/><path class="cls-39" d="M622.57,527.88c1.94-1.83,2.93-3.43,3-4.69.08-1.63,5.41-4.19,5.33-2.56-.1,1.9-1.82,4.5-4.72,7.24C623.68,530.23,620.09,530.23,622.57,527.88Z"/><path class="cls-39" d="M591.23,545.19c1.93-1.83,2.92-3.43,3-4.69.08-1.63,5.41-4.19,5.32-2.56-.09,1.9-1.81,4.5-4.71,7.24C592.33,547.54,588.74,547.54,591.23,545.19Z"/><path class="cls-39" d="M623.73,566.07c1.16-.87,3.09-1.67,3.6-1.3a7.72,7.72,0,0,1,2.83,3.4c.53,1.3-4.69,4.47-5.21,3.17a6.73,6.73,0,0,0-2.35-3C622.09,567.94,622.36,567.11,623.73,566.07Z"/><path class="cls-39" d="M637.55,608.33c1.15-.87,3.08-1.66,3.59-1.3a7.69,7.69,0,0,1,2.83,3.41c.53,1.29-4.68,4.47-5.21,3.16a6.72,6.72,0,0,0-2.35-3C635.9,610.21,636.17,609.37,637.55,608.33Z"/><path class="cls-39" d="M587.33,504c0-1.61,5.38-4.18,5.33-2.56-.1,2.78-3.43,7.62-1.06,9.07,1.31.79-3.42,4.34-4.73,3.54C583.93,512.23,587.22,507.39,587.33,504Z"/><path class="cls-39" d="M801.2,477.62a53,53,0,0,1,.4-9.23c.21-1.69,5.54-4.26,5.32-2.57a53,53,0,0,0-.4,9.23C806.6,476.6,801.27,479.16,801.2,477.62Z"/><path class="cls-39" d="M829,498.18a53,53,0,0,1,.4-9.23c.21-1.69,5.54-4.27,5.32-2.57a53,53,0,0,0-.39,9.23C834.36,497.16,829,499.72,829,498.18Z"/><path class="cls-39" d="M847.38,648.13c2.78-1.58,5.53-3.26,8.16-5,1.35-.93,2.86-1.57,3.59-1.31s.22,1.32-1.13,2.24c-3.1,2.11-6.22,4.09-9.5,6S844,650.06,847.38,648.13Z"/><path class="cls-39" d="M889.63,642.11,902.46,633c2.52-1.79,2.56,1.52,0,3.32q-6.42,4.53-12.83,9.07C887.13,647.21,887.1,643.9,889.63,642.11Z"/><path class="cls-39" d="M836.79,621.51a127.94,127.94,0,0,0,12.92-2.45c3.3-.79.93,2.33-2.37,3.12a139.06,139.06,0,0,1-14.1,2.61C830.26,625.18,833.84,621.9,836.79,621.51Z"/><path class="cls-39" d="M863.19,612.7a130.62,130.62,0,0,0,12.91-2.45c3.31-.79.93,2.33-2.36,3.11a136.83,136.83,0,0,1-14.1,2.61C856.66,616.36,860.24,613.08,863.19,612.7Z"/><path class="cls-40" d="M725,566.8l3.1-3.67-10.74-9.07a4.15,4.15,0,0,1,5.35-6.34l12.61,10.66a4.19,4.19,0,0,1,.79.9,3.42,3.42,0,0,1,.25,4.66l-6.14,7.27A3.42,3.42,0,0,1,725,566.8Z"/><path class="cls-33" d="M893.07,650.53A49.5,49.5,0,0,1,827,579.65c.6-.83,1.21-1.65,1.86-2.45a49.49,49.49,0,1,1,64.24,73.33Z"/><polygon class="cls-33" points="1023.26 819.87 957.05 860.07 955.21 861.19 878.53 907.75 822.42 941.82 787.77 884.79 780.18 872.28 854.12 827.97 909.34 794.9 980.49 752.26 984.94 759.32 1022.23 818.23 1023.26 819.87"/><path class="cls-33" d="M1168.36,825.45c.72,5,.07,13.08-1.69,17.71-5.83,15.31-10.25,25.88-32,23.81-45.38-4.32-99.88-4.14-145.1-6.61-21.66-1.18-23.15-12.71-26.28-28.29-.95-4.71-.54-13,.77-17.74,4.37-15.84,7.8-26.23,29.68-25.66,45.65,1.19,101.58,1.59,147,6.91C1162.53,798.12,1166,808.79,1168.36,825.45Z"/><path class="cls-33" d="M1023.61,984.79a14.44,14.44,0,0,1-2.21,5.72c-13,19.8-23.45,24.67-49.27,14.23C929.87,987.66,875,965.87,834,948c-25-10.9-19-23.27-17.82-42.13a11.46,11.46,0,0,1,2.41-5.53c12.9-14.47,18.43-25.91,43.42-15.82,40.9,16.5,94,38,135.41,55.57C1022.73,950.87,1027.29,961.17,1023.61,984.79Z"/><path class="cls-1" d="M1005.5,700.6l25-30.87s7.55-27.08,10.16-32.66,27-44.4,27-44.4"/><path class="cls-41" d="M743.6,616.4c9-9,18.22-13.79,25.9-15.32l-.46.27.44-.26c3.5,5.75-3.32,10.66-9.07,14.15s-13.31,6.88-16.81,1.16Z"/><path class="cls-42" d="M771,601.46c3,6.82-6,12.29-10,14.69-8.54,5.19-14.52,5.71-17.82,1.57m0,0c1.27-7.06,16.93-15.94,25.89-17.79h0a1.79,1.79,0,0,1,1.48.87l.4.66M745.1,616.17a.2.2,0,0,0,0,.28c2.57,2.87,7.51,2.12,14.71-2.25,7.72-4.69,10.53-8.26,9.12-11.73a.22.22,0,0,0-.24-.12C760.76,604.18,752.46,609,745.1,616.17Z"/><path class="cls-42" d="M743.07,617.79l.09-.07-.11,0c1.27-7.06,16.85-16,26-17.88h.08a1.89,1.89,0,0,1,1.57.92l.4.66-.1.06.11,0c3,6.9-6.13,12.46-10,14.83C752.45,621.46,746.41,622,743.07,617.79Zm27.4-16.93a1.67,1.67,0,0,0-1.4-.81c-4.47.92-10.67,3.64-15.79,6.92-5.77,3.7-9.41,7.6-10,10.71,3.26,4.05,9.2,3.5,17.64-1.63,3.86-2.34,12.88-7.82,10-14.54ZM745,616.52a.32.32,0,0,1,0-.44c7.34-7.1,15.73-12,23.64-13.84h0a.32.32,0,0,1,.36.19c1.44,3.54-1.3,7.09-9.16,11.87C752.61,618.7,747.61,619.45,745,616.52Zm.18-.27s0,.1,0,.12c1.61.86,5.79-.86,13-5.07,7.78-4.57,11.28-7.12,10.69-8.78a.09.09,0,0,0-.1-.06h0c-3.45,1.45-6.61,5.25-11.5,7.36C753.89,612.61,749.4,613.93,745.18,616.25Z"/><path class="cls-43" d="M777,709.37c19.34-16.5,41.73-21.52,60.2-34.66"/><path class="cls-42" d="M727,745.46c-8.8,6.26-12.06,7-14.93,7.58s-5.34,1.13-14.28,8.61c-.79,0-1.59,0-2.39,0l-1.24,0c10.67-9.11,13.88-10.85,17.28-11.58,2.59-.54,5.53-1.17,13.82-7.07Z"/><path class="cls-42" d="M892.83,644.47l-2-2.28c10.33-8.81,11.49-8.88,13.33-7.78l.14.08c.3,0,1.52-.18,8.6-5.21l2.27,2.24c-9,6.43-10.88,6.46-12.55,5.46h0C901.91,637.19,899.58,638.71,892.83,644.47Z"/><path class="cls-42" d="M727.19,717.68l-2.44,1.74c-5.79-8.14-9.71-16.29-13.5-24.18-4.89-10.18-10.52-21.55-19.73-32.33l1.71-.13c.42,0,1.14,0,1.93,0,9,10.76,14,21.14,18.79,31.21C717.86,702.07,721.55,709.75,727.19,717.68Z"/><path class="cls-42" d="M861.32,632.7l-2.44,1.74c-5.79-8.14-9.71-16.3-13.51-24.19-4.77-9.9-9.68-20.12-18.4-30.6.6-.83,1.21-1.65,1.86-2.45,9.23,10.93,14.33,21.51,19.24,31.75C852,617.09,855.68,624.77,861.32,632.7Z"/><circle class="cls-44" cx="754.59" cy="724.07" r="40.49"/><path class="cls-45" d="M785.1,697.52a41.37,41.37,0,0,1,8.51,38.13,38,38,0,0,1-12.08,19c-13.88,11.39-40.83,14.93-57.15-3.57a40.49,40.49,0,0,1,60.72-53.57Z"/><circle class="cls-44" cx="857.52" cy="660.07" r="40.49"/><circle class="cls-45" cx="857.67" cy="660.04" r="40.49"/><polygon class="cls-44" points="985.01 759.43 951.87 863.22 895.1 897.69 787.99 885.14 787.77 884.79 984.94 759.32 985.01 759.43"/><polygon class="cls-45" points="984.69 759.48 951.48 863.45 895.26 897.59 787.94 885.02 787.93 885.05 787.77 884.79 984.69 759.48"/><circle class="cls-46" cx="1654.22" cy="92.5" r="17.45"/><circle class="cls-26" cx="634.2" cy="88.36" r="59.21"/><circle class="cls-26" cx="634.2" cy="138.09" r="59.21"/><circle class="cls-26" cx="583.2" cy="108.09" r="59.21"/><circle class="cls-26" cx="676.2" cy="161.09" r="59.21"/><circle class="cls-26" cx="696.2" cy="90.09" r="59.21"/><circle class="cls-26" cx="747.2" cy="130.09" r="59.21"/><circle class="cls-26" cx="737.2" cy="211.09" r="59.21"/><circle class="cls-26" cx="596.2" cy="161.09" r="59.21"/><circle class="cls-26" cx="647.2" cy="212.09" r="59.21"/><circle class="cls-26" cx="1196.36" cy="17.02" r="59.21"/><circle class="cls-26" cx="1196.36" cy="66.74" r="59.21"/><circle class="cls-26" cx="1145.36" cy="36.74" r="59.21"/><circle class="cls-26" cx="1238.36" cy="89.74" r="59.21"/><circle class="cls-26" cx="1258.36" cy="18.74" r="59.21"/><circle class="cls-26" cx="1309.36" cy="58.74" r="59.21"/><circle class="cls-26" cx="1299.36" cy="139.74" r="59.21"/><circle class="cls-26" cx="1158.36" cy="89.74" r="59.21"/><circle class="cls-26" cx="1209.36" cy="140.74" r="59.21"/><circle class="cls-47" cx="91.18" cy="94.95" r="185.75"/><line class="cls-48" x1="71.72" y1="303.75" x2="110.63" y2="459.01"/><line class="cls-48" x1="227.64" y1="267.7" x2="326.2" y2="381.38"/><line class="cls-48" x1="320.17" y1="163.82" x2="463.36" y2="214.78"/><line class="cls-48" x1="315.65" y1="45.07" x2="446.83" y2="35.34"/><path class="cls-49" d="M834.42,276.93l-11.67.2q-.16-8.61-.32-17.22-8.71-14.94-17.58-29.83l12.83-.26q5.27,10.25,10.48,20.51h.19q4.89-10.42,9.83-20.84,6.45-.09,12.9-.16-8.52,15.45-16.92,30.94Q834.3,268.6,834.42,276.93Z"/><path class="cls-49" d="M880,276.51q-1.47-4.61-2.93-9.21-8,0-15.94.09-1.4,4.64-2.78,9.25l-11.78.13q7.86-23.79,15.92-47.56l12.75-.08q8.37,23.67,16.54,47.36ZM868.82,241.9q-2.58,8.5-5.15,17l10.75-.07q-2.68-8.47-5.4-16.94Z"/><path class="cls-49" d="M919.76,276.58l-11.67-.06q0-8.61.07-17.22-8.4-15.12-16.92-30.21,6.42,0,12.83,0,5,10.35,10,20.73h.2q5.12-10.32,10.28-20.62,6.46,0,12.91.12-8.87,15.27-17.6,30.56Z"/><path class="cls-49" d="M958.34,229.63l-.51,30.61L946,260.06q.21-15.3.41-30.61Zm-.64,38.17-.15,9.23q-5.89-.11-11.79-.18c0-3.08.08-6.15.13-9.23Z"/><path class="cls-49" d="M203.85,421.06v0a8.91,8.91,0,0,0,5-2.26,4.34,4.34,0,0,0,1.08-4,4.55,4.55,0,0,0-2.3-3.39,22.35,22.35,0,0,0-6.75-1.79q-10.49-1.11-15.24-3.53a11,11,0,0,1-5.87-8.24q-1.11-5.81,3.5-10.42t13-6.16q8.32-1.54,14.25,1.51a12.07,12.07,0,0,1,6.85,9.35l0,.23-11.06,2a5.79,5.79,0,0,0-2.85-4.22,8.24,8.24,0,0,0-5.76-.7,9.25,9.25,0,0,0-5.16,2.43,4.25,4.25,0,0,0-1.33,3.85,3.87,3.87,0,0,0,2.49,3,38.41,38.41,0,0,0,8.08,1.78q9.21.84,13.88,3.6a12.1,12.1,0,0,1,5.75,8.78,11.23,11.23,0,0,1-3.26,10.41q-4.34,4.38-12.69,5.92a29.33,29.33,0,0,1-10.54.18,16.67,16.67,0,0,1-8.34-3.91,13.12,13.12,0,0,1-4.27-7.93,1.15,1.15,0,0,0,0-.19l11.07-2.09c.5,2.63,1.59,4.39,3.29,5.29S200.7,421.65,203.85,421.06Z"/><path class="cls-49" d="M265.32,389.6l1.41,8.42a19.34,19.34,0,0,1-3.34,15.23q-4.78,6.54-14,8.12t-16-2.94a19.23,19.23,0,0,1-8.32-13.22l-1.5-8.4a20.31,20.31,0,0,1,.79-10.67,18.47,18.47,0,0,1,6.16-8.37,23.19,23.19,0,0,1,10.5-4.45q9.32-1.62,16.08,3A19.1,19.1,0,0,1,265.32,389.6Zm-9.93,10.33q-.73-4.24-1.45-8.49A13,13,0,0,0,250,383.6a9.56,9.56,0,0,0-14,2.4,13,13,0,0,0-1,8.73c.5,2.82,1,5.65,1.49,8.48a13.18,13.18,0,0,0,4,7.9,8.63,8.63,0,0,0,7.52,1.92,8.45,8.45,0,0,0,6.4-4.33A13.26,13.26,0,0,0,255.39,399.93Z"/><path class="cls-49" d="M308.92,407.16c-2.73,3.37-7.1,5.52-13.14,6.49s-11.22,0-15.57-2.94a18.42,18.42,0,0,1-7.94-12.92L270.65,388q-1.41-8.52,3.2-14.75t13.72-7.69q9.07-1.45,14.77,2.17T310,379.63c0,.07,0,.15,0,.22l-11.13,1.74q-1-4.68-3.26-6.51c-1.53-1.23-3.8-1.6-6.78-1.12a7.41,7.41,0,0,0-5.67,3.92,12.6,12.6,0,0,0-1,8.18c.54,3.29,1.07,6.57,1.61,9.86a12.07,12.07,0,0,0,3.72,7.48,8.23,8.23,0,0,0,7,1.89q4.13-.66,5.54-3c.95-1.54,1.25-3.89.91-7l11-1.73.1.2Q313,402.12,308.92,407.16Z"/><path class="cls-49" d="M325.71,360.28q3.51,23.45,7,46.88c-3.79.56-7.57,1.14-11.35,1.71q-3.58-23.42-7.16-46.85Z"/><path class="cls-49" d="M370,401.77,365.88,393q-7.74,1.1-15.47,2.21L349,404.76q-5.72.83-11.42,1.68,4.41-24.62,9-49.23l12.37-1.76q11.32,22.33,22.45,44.74ZM354.46,369q-1.36,8.76-2.71,17.53L362.18,385q-3.75-8-7.53-16.07Z"/><path class="cls-49" d="M390,351.2q2.56,19.29,5.12,38.59,10.56-1.4,21.14-2.74c.35,2.8.71,5.6,1.06,8.4q-16.25,2.07-32.49,4.27-3.18-23.49-6.37-47Z"/><path class="cls-49" d="M440.29,385v0a8.85,8.85,0,0,0,5.09-1.93,4.38,4.38,0,0,0,1.33-3.9,4.58,4.58,0,0,0-2.08-3.52,22.42,22.42,0,0,0-6.62-2.22q-10.36-1.77-14.95-4.49a11,11,0,0,1-5.33-8.59q-.74-5.88,4.15-10.18t13.28-5.33q8.4-1,14.1,2.41a12,12,0,0,1,6.23,9.77l-.05.22-11.14,1.3a5.79,5.79,0,0,0-2.57-4.39,8.2,8.2,0,0,0-5.69-1.07,9.28,9.28,0,0,0-5.29,2.1,4.26,4.26,0,0,0-1.57,3.77,3.86,3.86,0,0,0,2.29,3.1,38.31,38.31,0,0,0,7.94,2.29q9.12,1.42,13.59,4.48a12.08,12.08,0,0,1,5.18,9.12,11.25,11.25,0,0,1-3.9,10.18q-4.59,4.11-13,5.11a29.11,29.11,0,0,1-10.51-.49,16.67,16.67,0,0,1-8.06-4.43,13.14,13.14,0,0,1-3.75-8.19c0-.06,0-.12,0-.18l11.16-1.39q.5,4,2.94,5.49C434.71,385.07,437.12,385.38,440.29,385Z"/><path class="cls-49" d="M495.07,338.75c.29,2.81.59,5.62.88,8.43q-6.56.68-13.1,1.39,2.08,19.35,4.18,38.7l-11.43,1.25-4.29-38.69q-6.49.72-13,1.47c-.32-2.81-.65-5.61-1-8.42Q476.22,340.74,495.07,338.75Z"/><path class="cls-49" d="M528.94,383l-11.37,1.12L515.86,367q-9.72-14.19-19.58-28.33,6.24-.66,12.49-1.28,6,9.79,11.89,19.61l.19,0q3.92-10.79,7.89-21.55,6.28-.61,12.57-1.19-7.06,16.08-14,32.18Q528.13,374.69,528.94,383Z"/><path class="cls-49" d="M560.81,380l-11.44,1q-2.16-23.6-4.31-47.2,9.57-.87,19.15-1.7,8.7-.75,14,2.63a12.28,12.28,0,0,1,5.87,10q.6,7.24-7.14,11.26a11.47,11.47,0,0,1,6.83,3.5,12.12,12.12,0,0,1,2.62,7.09l.24,2.95a16.06,16.06,0,0,0,1,4.42,5.63,5.63,0,0,0,2.21,3c0,.22,0,.43.05.65q-5.9.46-11.78,1c-1.55-1-2.5-3.69-2.88-8.11l-.24-2.89a6.81,6.81,0,0,0-2.3-5,7.75,7.75,0,0,0-5.64-1.3l-7.88.62Zm-3.41-38.71,1.08,12.26,7.56-.66a8.27,8.27,0,0,0,5.18-2,5.34,5.34,0,0,0,1.46-4.55,6,6,0,0,0-2.28-4.48,7.63,7.63,0,0,0-5.46-1.27Z"/><path class="cls-49" d="M623.77,346.17l.6,8.45q-9.71.69-19.41,1.42l.9,11.8q11.39-.85,22.77-1.66c.2,2.82.39,5.63.59,8.45q-17.09,1.19-34.17,2.54-1.87-23.62-3.74-47.25,17.34-1.37,34.68-2.58c.19,2.81.39,5.63.59,8.44q-11.52.81-23,1.68l.77,10.14Q614,346.87,623.77,346.17Z"/><path class="cls-49" d="M642.8,326.2l2.55,38.85q10.6-.71,21.24-1.33.24,4.21.5,8.45-16.32,1-32.65,2.09L631.2,327Q637,326.57,642.8,326.2Z"/><path class="cls-49" d="M690.63,363.26v0a8.89,8.89,0,0,0,5.21-1.6,4.35,4.35,0,0,0,1.57-3.8,4.56,4.56,0,0,0-1.83-3.65,22.24,22.24,0,0,0-6.45-2.65q-10.21-2.46-14.6-5.47a11,11,0,0,1-4.74-8.94q-.35-5.9,4.8-9.88t13.59-4.43q8.43-.45,13.89,3.34a12.07,12.07,0,0,1,5.56,10.16l-.06.22-11.19.56a5.85,5.85,0,0,0-2.27-4.56,8.26,8.26,0,0,0-5.6-1.44,9.33,9.33,0,0,0-5.41,1.74,4.26,4.26,0,0,0-1.81,3.66,3.86,3.86,0,0,0,2.08,3.25,38.53,38.53,0,0,0,7.75,2.81q9,2,13.25,5.37a12.1,12.1,0,0,1,4.56,9.44,11.25,11.25,0,0,1-4.56,9.9q-4.85,3.8-13.3,4.24a29.19,29.19,0,0,1-10.43-1.19,16.62,16.62,0,0,1-7.74-4.95,13.1,13.1,0,0,1-3.19-8.42,1.23,1.23,0,0,1,0-.19l11.21-.64q.22,4,2.57,5.67T690.63,363.26Z"/><path class="cls-49" d="M745.38,339.51l.33,8.46q-9.72.38-19.44.8.27,5.91.52,11.82,11.4-.49,22.8-.93l.33,8.46q-17.11.64-34.23,1.45l-2.22-47.34q17.35-.83,34.73-1.48.15,4.23.32,8.46-11.53.44-23.06,1c.15,3.38.29,6.77.44,10.15Q735.64,339.89,745.38,339.51Z"/><path class="cls-49" d="M795.05,319.27q.6,23.69,1.21,47.38l-11.4.31q-9.47-14.85-19.07-29.64l-.18.08q.5,15.06,1,30.12l-11.48.41q-.85-23.68-1.73-47.37l11.62-.41q9.63,14.79,19.11,29.64l.23-.08-.87-30.13C787.35,319.47,791.2,319.36,795.05,319.27Z"/><path class="cls-49" d="M854.13,336.84l.09,8.47q-9.72.1-19.45.25.11,5.91.19,11.83,11.4-.18,22.81-.28,0,4.23.08,8.46-17.11.17-34.24.48l-.87-47.39q17.37-.33,34.75-.48c0,2.82,0,5.64.07,8.46q-11.53.11-23.07.29c0,3.39.1,6.77.16,10.16Q844.39,336.94,854.13,336.84Z"/><path class="cls-49" d="M874.56,365.38c-3.83,0-7.65,0-11.48.08q-.18-23.7-.37-47.4,9.6-.07,19.2-.11,8.73,0,13.77,3.79a12.3,12.3,0,0,1,5,10.42q0,7.27-8,10.64a11.43,11.43,0,0,1,6.5,4.05,12.15,12.15,0,0,1,2,7.28c0,1,0,2,0,3a16.48,16.48,0,0,0,.63,4.48,5.72,5.72,0,0,0,2,3.19v.65H891.94q-2.18-1.67-2.19-8.32v-2.9a6.82,6.82,0,0,0-1.87-5.17,7.7,7.7,0,0,0-5.51-1.76l-7.9,0Zm-.19-38.86.06,12.3,7.58,0a8.3,8.3,0,0,0,5.32-1.52,5.35,5.35,0,0,0,1.83-4.42,6,6,0,0,0-1.9-4.64,7.62,7.62,0,0,0-5.33-1.73Z"/><path class="cls-49" d="M963.71,318.66l-.15,8.47q-6.59-.12-13.16-.22-.28,19.45-.58,38.92l-11.48-.15q.24-19.47.47-38.93-6.52-.08-13-.13c0-2.83.05-5.65.07-8.47Q944.77,318.32,963.71,318.66Z"/><path class="cls-49" d="M1009.28,343.12c0,.54,0,1.09,0,1.63a27,27,0,0,1-3.05,12.21,19.29,19.29,0,0,1-7.89,8,21.55,21.55,0,0,1-11.29,2.6,23.15,23.15,0,0,1-9.84-2.36l-2.85,4.49-7-.14,4.94-7.9q-6.6-6.51-6.39-18.22l0-1.67a27.14,27.14,0,0,1,2.89-12.26,19.2,19.2,0,0,1,7.82-8,22.34,22.34,0,0,1,11.53-2.62,22.77,22.77,0,0,1,9.81,2.35l2.19-3.41,7.13.21q-2.19,3.38-4.36,6.75Q1009.65,331.47,1009.28,343.12ZM978,344a25.83,25.83,0,0,0,.78,7.44q6.94-11.06,14-22.07a8.64,8.64,0,0,0-4.79-1.5q-9.51-.22-9.9,14C978,342.51,978,343.24,978,344Zm19.13-1.52a25.64,25.64,0,0,0-.78-7.47q-7.07,11-14,22.08a8.16,8.16,0,0,0,5,1.6,7.87,7.87,0,0,0,7.07-3.47q2.51-3.58,2.74-10.53Z"/><path class="cls-49" d="M1015.78,320q7.61.24,15.2.51,5,16.78,9.9,33.58h.19q6.26-16.35,12.6-32.69,7.63.31,15.27.67-1.08,23.67-2.17,47.35l-11.47-.51q.26-5.88.5-11.75,1-10.78,2-21.57l-.19,0q-6.71,16.44-13.32,32.9l-7.71-.3q-5.27-16.78-10.62-33.55l-.19,0q.18,10.69.35,21.37-.21,5.88-.41,11.76c-3.83-.14-7.65-.27-11.48-.39Q1015,343.67,1015.78,320Z"/><path class="cls-49" d="M1111.58,324.25c-.17,2.82-.33,5.63-.49,8.45L1098,332q-1,19.44-2.08,38.88l-11.47-.6q1-19.44,2-38.88l-13-.64c.13-2.82.27-5.64.4-8.46Q1092.65,323.17,1111.58,324.25Z"/><path class="cls-49" d="M1166.19,347.68c-.21,2.81-.41,5.63-.61,8.44q-9.88-.71-19.78-1.37-.63,9.51-1.27,19l-11.46-.75q1.5-23.65,3-47.3,17.52,1.11,35,2.39c-.21,2.81-.41,5.63-.62,8.44q-11.68-.85-23.37-1.63-.37,5.69-.76,11.37Q1156.28,347,1166.19,347.68Z"/><path class="cls-49" d="M1215.87,351.21l-.72,8.51a19.39,19.39,0,0,1-7,13.94q-6.24,5.13-15.53,4.39t-14.71-6.8a19.3,19.3,0,0,1-4.76-14.87l.63-8.51a20.2,20.2,0,0,1,3.4-10.14,18.34,18.34,0,0,1,8-6.58,23.07,23.07,0,0,1,11.24-1.72q9.39.75,14.79,6.87A19.1,19.1,0,0,1,1215.87,351.21Zm-12.15,7.56c.23-2.87.47-5.73.7-8.59a13,13,0,0,0-1.85-8.57,9.52,9.52,0,0,0-14.16-1.14,13,13,0,0,0-3.16,8.19l-.66,8.59a13.07,13.07,0,0,0,1.89,8.63,8.56,8.56,0,0,0,6.79,3.73,8.44,8.44,0,0,0,7.25-2.61A13.31,13.31,0,0,0,1203.72,358.77Z"/><path class="cls-49" d="M1231.6,380.52q-5.73-.52-11.45-1,2.05-23.61,4.1-47.22,9.59.82,19.15,1.71,8.7.79,13.37,5.07a12.29,12.29,0,0,1,4,10.85c-.47,4.83-3.48,8.09-9,9.82a11.42,11.42,0,0,1,6.1,4.66,12.09,12.09,0,0,1,1.33,7.43c-.09,1-.19,2-.29,2.95a16.49,16.49,0,0,0,.21,4.53,5.68,5.68,0,0,0,1.64,3.36l-.06.65-11.78-1.13q-2-1.86-1.39-8.49l.27-2.88a6.81,6.81,0,0,0-1.38-5.33,7.73,7.73,0,0,0-5.32-2.27l-7.87-.79Q1232.41,371.48,1231.6,380.52Zm3.48-38.71q-.55,6.13-1.1,12.26l7.55.68a8.26,8.26,0,0,0,5.45-1,5.37,5.37,0,0,0,2.24-4.22,6,6,0,0,0-1.46-4.81,7.59,7.59,0,0,0-5.14-2.22Z"/><path class="cls-49" d="M1303,387.69q-8.85-1-17.72-1.89l4.92-47.14q9,.93,17.94,1.91a20.85,20.85,0,0,1,14.12,7.07,18.16,18.16,0,0,1,4.26,14.54c-.32,2.83-.64,5.65-1,8.48a18.3,18.3,0,0,1-7.38,13.22A20.69,20.69,0,0,1,1303,387.69Zm3.43-38.79-5.57-.6q-1.62,15.15-3.25,30.29l5.52.6a9.06,9.06,0,0,0,7.46-2.18,11.73,11.73,0,0,0,3.48-7.64l1-8.56a11.53,11.53,0,0,0-1.74-8.19A9.2,9.2,0,0,0,1306.44,348.9Z"/><path class="cls-49" d="M1374.44,368.05l-1.08,8.47a19.35,19.35,0,0,1-7.57,13.63c-4.31,3.25-9.54,4.49-15.73,3.74s-11-3.22-14.42-7.41a19.29,19.29,0,0,1-4.14-15.06c.33-2.83.66-5.65,1-8.48a20.31,20.31,0,0,1,3.83-10,18.38,18.38,0,0,1,8.29-6.24,23.15,23.15,0,0,1,11.32-1.24q9.36,1.14,14.51,7.48A19.12,19.12,0,0,1,1374.44,368.05Zm-12.47,7q.54-4.26,1.06-8.54a13,13,0,0,0-1.49-8.65,8.62,8.62,0,0,0-6.68-4,8.53,8.53,0,0,0-7.43,2.29,13,13,0,0,0-3.51,8l-1,8.55a13.11,13.11,0,0,0,1.53,8.71,8.57,8.57,0,0,0,6.64,4,8.47,8.47,0,0,0,7.36-2.3A13.24,13.24,0,0,0,1362,375.08Z"/><path class="cls-49" d="M1395.16,351.07q-2.55,19.31-5.11,38.6,10.58,1.4,21.13,2.85c-.39,2.8-.77,5.59-1.16,8.39q-16.23-2.25-32.48-4.34,3-23.51,6.07-47Z"/><path class="cls-49" d="M1432.92,356.26l-5.49,38.54q10.54,1.5,21.1,3.07c-.41,2.79-.83,5.58-1.24,8.37q-16.21-2.4-32.45-4.66l6.54-46.95Z"/><path class="cls-49" d="M1481.5,411.47c-.45-3.19-.91-6.37-1.37-9.56q-7.71-1.2-15.44-2.38-2.09,4.35-4.15,8.7l-11.42-1.72q11.39-22.26,23-44.47l12.35,1.91q4.35,24.66,8.49,49.33Zm-5.29-35.91q-3.87,8-7.69,16l10.41,1.61q-1.26-8.79-2.54-17.57Z"/><path class="cls-49" d="M1507.75,415.62l-11.37-1.85q3.78-23.4,7.57-46.79,9.51,1.53,19,3.12,8.64,1.44,13,6a12.31,12.31,0,0,1,3.22,11.13c-.82,4.78-4.07,7.81-9.74,9.13a11.43,11.43,0,0,1,5.76,5.09A12.06,12.06,0,0,1,1536,409c-.17,1-.34,1.95-.5,2.93a15.92,15.92,0,0,0-.13,4.53,5.63,5.63,0,0,0,1.39,3.47c0,.21-.07.43-.11.64l-11.69-2c-1.25-1.34-1.51-4.19-.77-8.57l.48-2.85a6.77,6.77,0,0,0-1-5.42,7.72,7.72,0,0,0-5.15-2.66l-7.81-1.37Q1509.23,406.67,1507.75,415.62Zm6.32-38.34q-1,6.08-2,12.14l7.5,1.24a8.29,8.29,0,0,0,5.52-.59,5.43,5.43,0,0,0,2.55-4.05,6,6,0,0,0-1.11-4.9,7.65,7.65,0,0,0-5-2.6Z"/><path class="cls-49" d="M1561.92,417.34v0a8.86,8.86,0,0,0,5.45-.36,4.37,4.37,0,0,0,2.41-3.33,4.57,4.57,0,0,0-1-4,22.22,22.22,0,0,0-5.69-4.06c-6.27-3.16-10.61-6-13-8.68a11,11,0,0,1-2.58-9.78c.68-3.88,3-6.73,7-8.52s8.73-2.19,14.29-1.19,9.83,3.15,12.81,6.44a12.07,12.07,0,0,1,3.11,11.16l-.12.2-11.06-2a5.83,5.83,0,0,0-1.17-5,8.28,8.28,0,0,0-5.14-2.69,9.35,9.35,0,0,0-5.69.46,4.25,4.25,0,0,0-2.61,3.14,3.88,3.88,0,0,0,1.29,3.64,37.75,37.75,0,0,0,6.93,4.51q8.32,4,11.72,8.27a12.07,12.07,0,0,1,2.29,10.24,11.23,11.23,0,0,1-6.72,8.59q-5.61,2.58-14,1.08a29.62,29.62,0,0,1-9.92-3.55,16.73,16.73,0,0,1-6.42-6.6,13.14,13.14,0,0,1-1.19-8.93.87.87,0,0,1,.07-.17l11.09,1.94c-.46,2.64-.06,4.67,1.21,6.11S1558.77,416.78,1561.92,417.34Z"/><path class="cls-49" d="M1610,385.73l-5.73,30.07-11.42-2.16,5.64-30.08Zm-7.15,37.5q-.86,4.53-1.73,9.06l-11.36-2.14c.57-3,1.13-6,1.7-9.07Z"/></svg>